<svg xmlns="http://www.w3.org/2000/svg" xmlns:xlink="http://www.w3.org/1999/xlink" width="136" height="136" viewBox="0 0 136 136">
  <defs>
    <clipPath id="clip-path">
      <rect id="Rectángulo_298926" data-name="Rectángulo 298926" width="86.097" height="86.116" fill="none"/>
    </clipPath>
  </defs>
  <g id="Grupo_882118" data-name="Grupo 882118" transform="translate(-732 -836.185)">
    <g id="Elipse_4917" data-name="Elipse 4917" transform="translate(732 836.185)" fill="#fff" stroke="#6b3fe5" stroke-width="1">
      <circle cx="68" cy="68" r="68" stroke="none"/>
      <circle cx="68" cy="68" r="67.5" fill="none"/>
    </g>
    <g id="Grupo_882093" data-name="Grupo 882093" transform="translate(756.952 861.185)">
      <g id="Grupo_882093-2" data-name="Grupo 882093" clip-path="url(#clip-path)">
        <path id="Trazado_266985" data-name="Trazado 266985" d="M304.447,16.645c1.733-1.706,3.49-3.389,5.186-5.131.5-.517.765-.474,1.22.025.83.91,1.727,1.759,2.609,2.621.251.246.376.417.055.732q-4.548,4.478-9.072,8.981-.016.067-.034.134.021,5.7.042,11.4a16.858,16.858,0,0,0,11.168-4.112,17.208,17.208,0,0,0,6.2-11.905A17.054,17.054,0,0,0,317.78,6.507,17.105,17.105,0,0,0,307.325.441c-.311-.055-.768.073-.866-.441h-2.018q0,8.321,0,16.641l0,0" transform="translate(-235.998)" fill="#34cb15"/>
        <path id="Trazado_266986" data-name="Trazado 266986" d="M307.468.441a17.109,17.109,0,0,1,10.456,6.066,17.055,17.055,0,0,1,4.044,12.881,17.208,17.208,0,0,1-6.2,11.905A16.857,16.857,0,0,1,304.6,35.405v.2a10.148,10.148,0,0,0,2.838-.185,17.761,17.761,0,0,0,14.635-19.885c-.967-6.943-4.841-11.72-11.306-14.42A37.231,37.231,0,0,0,306.6,0c.1.515.554.386.866.441" transform="translate(-236.142)" fill="#34cb15"/>
        <path id="Trazado_266987" data-name="Trazado 266987" d="M242.1.378a17.464,17.464,0,0,0-14.976,15.156,17.145,17.145,0,0,0,4.08,13.733A16.965,16.965,0,0,0,244.265,35.4a1.375,1.375,0,0,1-.12-.65c0-3.466-.052-6.933.026-10.4a1.569,1.569,0,0,1,.019-.17c-.641.618-1.291,1.228-1.908,1.868-.311.323-.5.3-.8-.009q-3-3.039-6.044-6.042c-.31-.307-.315-.514,0-.818q1.415-1.369,2.785-2.784c.315-.325.527-.282.819.021.775.8,1.6,1.562,2.355,2.383.392.426.635.366,1-.019.591-.629,1.234-1.208,1.856-1.809l.162-.329h0v-.006a.809.809,0,0,1-.216-.377,24.019,24.019,0,0,1-.056-2.846q-.011-6.028,0-12.056A1.911,1.911,0,0,1,244.4,0h-1.681c-.019.432-.375.343-.621.379" transform="translate(-175.962 0.001)" fill="#89e55c"/>
        <path id="Trazado_266988" data-name="Trazado 266988" d="M227.335,24.784c2.719,6.533,9.58,11.1,16.268,10.82a.793.793,0,0,1-.152-.2,16.964,16.964,0,0,1-13.059-6.133,17.144,17.144,0,0,1-4.08-13.733A17.464,17.464,0,0,1,241.288.378c.247-.036.6.053.621-.378-.707.137-1.419.251-2.12.416a17.845,17.845,0,0,0-12.454,24.369" transform="translate(-175.148)" fill="#89e55c"/>
        <path id="Trazado_266989" data-name="Trazado 266989" d="M303.6,118.219q-.021-5.7-.042-11.4l-.185.178a1.609,1.609,0,0,0-.019.17c-.078,3.463-.022,6.929-.025,10.4a1.375,1.375,0,0,0,.12.65l.13.005h.021" transform="translate(-235.15 -82.813)" fill="#89e55c"/>
        <path id="Trazado_266990" data-name="Trazado 266990" d="M303.3,1.362q-.01,6.028,0,12.056a24.068,24.068,0,0,0,.056,2.846.813.813,0,0,0,.216.377q0-8.321,0-16.641a1.909,1.909,0,0,0-.268,1.362" transform="translate(-235.125)" fill="#89e55c"/>
        <path id="Trazado_266991" data-name="Trazado 266991" d="M304.073,157.524h-.021l-.13-.005a.805.805,0,0,0,.152.2v-.2" transform="translate(-235.618 -122.118)" fill="#89e55c"/>
        <path id="Trazado_266992" data-name="Trazado 266992" d="M1.368,304.33q6.177-.01,12.353,0c1.289,0,1.276-.025,1.321-1.317a12.153,12.153,0,0,1,.167-3.416.788.788,0,0,1,.12-.109q0-8.792,0-17.584l-.047.014L0,281.906V304.6a1.925,1.925,0,0,1,1.368-.266" transform="translate(0 -218.545)" fill="#3d4566"/>
        <path id="Trazado_266993" data-name="Trazado 266993" d="M14.616,365.264c.538,0,.714-.125.7-.686-.033-1.454,0-2.909.013-4.363v-.075a.778.778,0,0,0-.12.109,12.145,12.145,0,0,0-.167,3.416c-.045,1.292-.031,1.315-1.321,1.317q-6.176.005-12.353,0A1.926,1.926,0,0,0,0,365.253c4.872,0,9.744-.008,14.616.012" transform="translate(0 -279.203)" fill="#3d4566"/>
        <path id="Trazado_266994" data-name="Trazado 266994" d="M1.112,220.788q6.577-.007,13.155,0a2.345,2.345,0,0,1,.908.12.567.567,0,0,1,.1.069q.005-8.667.011-17.334l-.1.01c-4.749.062-9.5.018-14.243.023A1.3,1.3,0,0,1,0,203.409v17.647a1.535,1.535,0,0,1,1.112-.268" transform="translate(0 -157.695)" fill="#4d5e80"/>
        <path id="Trazado_266995" data-name="Trazado 266995" d="M15.188,203.653l.1-.01c0-.072,0-.145,0-.217L0,203.409a1.3,1.3,0,0,0,.944.267c4.748,0,9.495.039,14.243-.023" transform="translate(0 -157.695)" fill="#4d5e80"/>
        <path id="Trazado_266996" data-name="Trazado 266996" d="M15.279,280.914a.567.567,0,0,0-.1-.069,2.349,2.349,0,0,0-.908-.12q-6.577-.009-13.155,0A1.535,1.535,0,0,0,0,280.993L15.279,281v-.086" transform="translate(0 -217.632)" fill="#4d5e80"/>
        <path id="Trazado_266997" data-name="Trazado 266997" d="M225.955,281.912l-.016-.016.016.016h0" transform="translate(-175.162 -218.543)" fill="#fed8b2"/>
        <path id="Trazado_266998" data-name="Trazado 266998" d="M68.438,83.036q.01,7.719,0,15.437a1.377,1.377,0,0,1-.247,1.045c.011.011.019.024.029.035h35.423c0-.559.047-1.122,0-1.676-.06-.666.181-.855.846-.851,4.5.027,9.008.015,13.512.015.923,0,1.846,0,2.769,0a1.055,1.055,0,0,1,.564.061q.4-3.8.8-7.591c0-.009,0-.018,0-.026-5.817,0-11.634-.027-17.451.013-.883.006-1.1-.255-1.05-1.084.07-1.116.033-2.239.01-3.358-.01-.477.171-.629.639-.628q8.95.016,17.9,0a.688.688,0,0,1,.521.157c.195-1.711.335-3.427.534-5.137.062-.528.156-1.052.183-1.585.025-.485-.136-.751-.656-.735-.252.008-.5,0-.756,0H100.319c-.308,0-.616-.009-.925-.006A.893.893,0,0,1,98.361,76.1c0-.448-.006-.9-.006-1.344,0-6.861.01-13.722-.005-20.584a7.329,7.329,0,0,0-4.973-7.078,10.809,10.809,0,0,0-3.992-.374.577.577,0,0,0-.611.645c-.008.252-.01.5-.01.756,0,4.117-.025,8.234,0,12.35.072,9.971-6.232,17.885-15.691,20.736a24.074,24.074,0,0,1-4.778.929,1.865,1.865,0,0,1,.137.9" transform="translate(-52.864 -36.2)" fill="#fed8b2"/>
        <path id="Trazado_266999" data-name="Trazado 266999" d="M305.445,237.128q-.4,3.8-.8,7.591a.415.415,0,0,1,.164.293h0c.3-.487.105-1.034.176-1.55.29-2.112.554-4.228.66-6.36h-.2c0,.009,0,.018,0,.026" transform="translate(-236.179 -183.816)" fill="#fed8b2"/>
        <path id="Trazado_267000" data-name="Trazado 267000" d="M68.179,81.245a24.09,24.09,0,0,0,4.778-.929C82.416,77.464,88.72,69.55,88.648,59.579c-.03-4.117,0-8.233,0-12.35,0-.252,0-.5.009-.756a.578.578,0,0,1,.611-.645,10.808,10.808,0,0,1,3.992.374,7.329,7.329,0,0,1,4.973,7.078c.016,6.861,0,13.722.005,20.583,0,.448.007.9.006,1.344a.893.893,0,0,0,1.033,1.018c.308,0,.616.006.925.006h21.688c.252,0,.5.009.756,0,.52-.016.681.251.656.736-.028.533-.122,1.057-.183,1.585-.2,1.71-.34,3.426-.534,5.137a.709.709,0,0,1,.135.546h0c.041-.072.111-.141.118-.217.239-2.355.423-4.717.731-7.062.122-.93-.218-.994-.988-.992-7.679.026-15.359,0-23.038.035-.829,0-1.083-.173-1.078-1.051.039-7.311.054-14.622,0-21.932a7.3,7.3,0,0,0-3.187-6.064,8.765,8.765,0,0,0-5.742-1.4c-1.142.034-1.126.007-1.146,1.118-.093,5.176.248,10.359-.172,15.528A19.141,19.141,0,0,1,82.793,74.08a23.127,23.127,0,0,1-14.761,6.961.89.89,0,0,1,.147.2" transform="translate(-52.743 -35.31)" fill="#fed8b2"/>
        <path id="Trazado_267001" data-name="Trazado 267001" d="M68.029,281.743c-.016.016-.028.034-.046.049l.048-.014h.028c-.01-.011-.018-.025-.029-.035" transform="translate(-52.705 -218.424)" fill="#fed8b2"/>
        <path id="Trazado_267002" data-name="Trazado 267002" d="M68.03,221.774a1.378,1.378,0,0,0,.247-1.045q.014-7.718,0-15.437a1.861,1.861,0,0,0-.138-.9l-.147.014q-.005,8.667-.011,17.334c.016.012.032.023.046.036" transform="translate(-52.705 -158.456)" fill="#fed8b2"/>
        <path id="Trazado_267003" data-name="Trazado 267003" d="M68.178,203.688a.89.89,0,0,0-.147-.2c0,.072,0,.145,0,.217l.147-.014" transform="translate(-52.742 -157.754)" fill="#fed8b2"/>
        <path id="Trazado_267004" data-name="Trazado 267004" d="M67.984,281.581v.086c.018-.016.03-.033.046-.049a.573.573,0,0,0-.046-.036" transform="translate(-52.705 -218.299)" fill="#fed8b2"/>
        <path id="Trazado_267005" data-name="Trazado 267005" d="M104.852,284.571c-.748,0-1.006-.2-.924-.941a14.644,14.644,0,0,0,.019-1.568s-.006.01-.01.014a1.935,1.935,0,0,1-1.214.228q-16.526.007-33.053,0a1.706,1.706,0,0,1-1.108-.213c0,.006.009.01.013.016a2.784,2.784,0,0,1,.152,1.234q.006,7.528,0,15.056a2.247,2.247,0,0,1-.158,1.158,1.638,1.638,0,0,1,.808-.125c2.8-.011,5.6,0,8.4-.007a2.91,2.91,0,0,1,1.79.61,22.617,22.617,0,0,0,11.222,4.347,13.291,13.291,0,0,0,1.423.086H117.5c.2,0,.393-.011.588,0,.578.018.847-.232.911-.83.231-2.142.461-4.283.674-6.426,0-.017,0-.035.006-.052-4.971,0-9.942-.008-14.913.022-.68,0-.867-.208-.842-.86.047-1.174.033-2.352,0-3.527-.012-.51.162-.68.676-.678,5.071.014,10.142.008,15.213.009a1.153,1.153,0,0,1,.437.041c.291-2.513.544-5.031.818-7.546l.007-.051c-5.409,0-10.819-.02-16.228.01" transform="translate(-53.153 -218.672)" fill="#feba98"/>
        <path id="Trazado_267006" data-name="Trazado 267006" d="M299.4,293.184c0,.017,0,.034-.007.051-.274,2.515-.527,5.032-.818,7.546a.408.408,0,0,1,.178.139h0c.387-2.567.656-5.147.843-7.736h-.2" transform="translate(-231.475 -227.294)" fill="#feba98"/>
        <path id="Trazado_267007" data-name="Trazado 267007" d="M119.4,349.259c-.213,2.143-.443,4.284-.674,6.426-.064.6-.333.849-.911.83-.2-.006-.392,0-.588,0H91.943a13.359,13.359,0,0,1-1.424-.086A22.62,22.62,0,0,1,79.3,352.087a2.91,2.91,0,0,0-1.79-.61c-2.8,0-5.6,0-8.4.007a1.638,1.638,0,0,0-.808.125,1.056,1.056,0,0,1-.085.129c3.163,0,6.326,0,9.489-.01a1.915,1.915,0,0,1,1.236.4A22.16,22.16,0,0,0,92.47,356.77q12.261.035,24.521,0c.6,0,1.3.24,1.792-.143.43-.336.182-1.008.245-1.523.241-1.96.4-3.93.6-5.9h-.216l-.006.052" transform="translate(-52.883 -270.727)" fill="#feba98"/>
        <path id="Trazado_267008" data-name="Trazado 267008" d="M68.442,298.27q.007-7.528,0-15.056a2.782,2.782,0,0,0-.152-1.233c0-.006-.009-.01-.013-.016a.921.921,0,0,1-.082-.066q0,8.792,0,17.584a.783.783,0,0,1,.085-.054,2.246,2.246,0,0,0,.158-1.158" transform="translate(-52.869 -218.545)" fill="#feba98"/>
        <path id="Trazado_267009" data-name="Trazado 267009" d="M68.3,359.9a.749.749,0,0,0-.085.054v.075h0a1.053,1.053,0,0,0,.085-.129" transform="translate(-52.882 -279.015)" fill="#feba98"/>
        <path id="Trazado_267010" data-name="Trazado 267010" d="M69.481,282.175q16.526.009,33.053,0a1.935,1.935,0,0,0,1.214-.229l.01-.014v-.021l-.016-.017H68.318a.591.591,0,0,1,.054.066,1.7,1.7,0,0,0,1.108.213" transform="translate(-52.964 -218.543)" fill="#feba98"/>
        <path id="Trazado_267011" data-name="Trazado 267011" d="M68.223,281.9h-.028a.921.921,0,0,0,.082.066.6.6,0,0,0-.055-.066" transform="translate(-52.869 -218.545)" fill="#feba98"/>
        <path id="Trazado_267012" data-name="Trazado 267012" d="M228.23,215.811c-.99,0-1.051.067-1.059,1.042-.007.895,0,1.79,0,2.685,0,.522.243.769.765.767.28,0,.56.007.839.007q7.723,0,15.446.006a2.233,2.233,0,0,1,1.176.139c.19-1.41.312-2.827.492-4.238,0-.039.008-.079.013-.118a2.2,2.2,0,0,0-1.222-.3q-8.226.01-16.453.007" transform="translate(-176.114 -167.304)" fill="#feba98"/>
        <path id="Trazado_267013" data-name="Trazado 267013" d="M308.788,217.241c-.18,1.411-.3,2.829-.492,4.238a.977.977,0,0,1,.18.134,33.494,33.494,0,0,0,.507-4.359,1.744,1.744,0,0,0-.182-.131c0,.039-.009.079-.013.118" transform="translate(-239.01 -168.327)" fill="#feba98"/>
        <path id="Trazado_267014" data-name="Trazado 267014" d="M226.523,214.581c-.467,0-.649.151-.638.628.023,1.119.06,2.243-.01,3.359-.052.829.167,1.091,1.05,1.084,5.817-.04,11.634-.017,17.451-.013.006-.044.011-.089.017-.133a2.231,2.231,0,0,0-1.176-.139q-7.722-.013-15.445-.006c-.28,0-.56-.009-.839-.007-.522,0-.761-.245-.765-.767-.007-.895-.011-1.79,0-2.685.008-.975.069-1.041,1.059-1.042q8.226-.008,16.453-.007a2.2,2.2,0,0,1,1.222.3c.017-.138.031-.277.047-.416a.688.688,0,0,0-.52-.157q-8.95.028-17.9,0" transform="translate(-175.106 -166.352)" fill="#feba98"/>
        <path id="Trazado_267015" data-name="Trazado 267015" d="M308.22,236.642h.2a.956.956,0,0,0-.18-.134c-.006.044-.011.089-.017.133" transform="translate(-238.951 -183.356)" fill="#feba98"/>
        <path id="Trazado_267016" data-name="Trazado 267016" d="M310.592,215.275c-.016.138-.03.277-.047.415a1.744,1.744,0,0,1,.182.131.709.709,0,0,0-.135-.546" transform="translate(-240.754 -166.894)" fill="#feba98"/>
        <path id="Trazado_267017" data-name="Trazado 267017" d="M242.314,327.869q-6.928,0-13.856,0c-1.263,0-1.284.022-1.285,1.246,0,.839-.005,1.678.005,2.518.006.48.222.723.71.729.28,0,.56.01.84.01q6.382,0,12.764,0a2.476,2.476,0,0,1,1.166.126c.185-1.557.323-3.119.538-4.672a4.6,4.6,0,0,1-.882.039" transform="translate(-176.117 -254.154)" fill="#fe9580"/>
        <path id="Trazado_267018" data-name="Trazado 267018" d="M296.084,332.328a1.015,1.015,0,0,1,.2.132l.537-4.855a1.6,1.6,0,0,1-.2.051c-.216,1.553-.353,3.116-.538,4.672" transform="translate(-229.542 -253.98)" fill="#fe9580"/>
        <path id="Trazado_267019" data-name="Trazado 267019" d="M241.8,326.773c-5.071,0-10.142,0-15.213-.009-.514,0-.688.168-.676.678.028,1.175.042,2.353,0,3.527-.026.652.162.864.842.86,4.971-.03,9.942-.02,14.913-.022.005-.044.01-.088.015-.132a2.473,2.473,0,0,0-1.166-.126q-6.382-.012-12.764,0c-.28,0-.56-.007-.84-.01-.488-.006-.7-.249-.71-.729-.011-.839-.007-1.678-.005-2.518,0-1.223.022-1.245,1.285-1.246q6.928,0,13.856,0a4.623,4.623,0,0,0,.882-.039c0-.017,0-.035.007-.052.005-.046.01-.091.016-.137a1.149,1.149,0,0,0-.437-.041" transform="translate(-175.137 -253.327)" fill="#fe9580"/>
        <path id="Trazado_267020" data-name="Trazado 267020" d="M298.5,326.988c-.005.046-.01.091-.016.137,0,.017,0,.035-.007.052a1.6,1.6,0,0,0,.2-.051.41.41,0,0,0-.178-.139" transform="translate(-231.398 -253.501)" fill="#fe9580"/>
        <path id="Trazado_267021" data-name="Trazado 267021" d="M296.017,348.752h.216a1.015,1.015,0,0,0-.2-.132c-.005.044-.01.088-.015.132" transform="translate(-229.491 -270.272)" fill="#fe9580"/>
        <path id="Trazado_267022" data-name="Trazado 267022" d="M237.6,271.854c-3.39-.019-6.78-.011-10.169,0-1.036,0-1.072.054-1.111,1.094a1.827,1.827,0,0,1-.241,1.165h17.395s0-.009,0-.014c.022-.73.17-1.447.231-2.173-2.033-.16-4.071-.059-6.106-.071" transform="translate(-175.271 -210.742)" fill="#feba98"/>
        <path id="Trazado_267023" data-name="Trazado 267023" d="M303.482,274.412s0,.009,0,.014h.213q.106-1.087.212-2.173c-.064-.006-.129-.009-.194-.013-.061.726-.209,1.443-.231,2.173" transform="translate(-235.277 -211.056)" fill="#feba98"/>
        <path id="Trazado_267024" data-name="Trazado 267024" d="M243.024,270.668c-.923-.007-1.846,0-2.769,0-4.5,0-9.008.013-13.512-.014-.665,0-.906.185-.846.851.05.554.005,1.117,0,1.676l.016.016h.016a1.827,1.827,0,0,0,.241-1.165c.039-1.039.074-1.091,1.111-1.094,3.39-.009,6.78-.017,10.169,0,2.035.011,4.072-.089,6.106.07,0-.007,0-.014,0-.021q.014-.129.027-.258a1.053,1.053,0,0,0-.564-.061" transform="translate(-175.122 -209.825)" fill="#feba98"/>
        <path id="Trazado_267025" data-name="Trazado 267025" d="M304.544,271c-.009.086-.018.172-.027.258,0,.007,0,.014,0,.021.064.005.129.008.193.014h0a.414.414,0,0,0-.164-.293" transform="translate(-236.078 -210.094)" fill="#feba98"/>
        <path id="Trazado_267026" data-name="Trazado 267026" d="M242.555,282.255q-7.7.011-15.4,0a1.543,1.543,0,0,1-1.1-.255v0l.088.091a2.253,2.253,0,0,1,.163,1.064c.035,1.01.088,1.071,1.127,1.078,1.593.01,3.186,0,4.779,0,3.3,0,6.6,0,9.893.005a2.085,2.085,0,0,1,1.094.138c.1-.743.193-1.487.247-2.235a2.029,2.029,0,0,1-.884.109" transform="translate(-175.247 -218.624)" fill="#fe9580"/>
        <path id="Trazado_267027" data-name="Trazado 267027" d="M302.576,282.123c-.054.748-.143,1.493-.247,2.236a.908.908,0,0,1,.177.132,10.671,10.671,0,0,0,.3-2.52h0a.862.862,0,0,1-.225.152" transform="translate(-234.384 -218.601)" fill="#fe9580"/>
        <path id="Trazado_267028" data-name="Trazado 267028" d="M226.019,281.976v0l-.01-.008h0l.009.009" transform="translate(-175.217 -218.597)" fill="#fe9580"/>
        <path id="Trazado_267029" data-name="Trazado 267029" d="M241.954,284.25c-3.3-.01-6.595,0-9.893-.005-1.593,0-3.186.007-4.779,0-1.039-.007-1.092-.068-1.127-1.077a2.255,2.255,0,0,0-.162-1.064l-.088-.091-.009.012a14.649,14.649,0,0,1-.019,1.568c-.082.736.176.945.924.941,5.409-.029,10.818-.013,16.228-.009.006-.044.012-.088.018-.132a2.082,2.082,0,0,0-1.094-.138" transform="translate(-175.103 -218.631)" fill="#fe9580"/>
        <path id="Trazado_267030" data-name="Trazado 267030" d="M302.248,292.727h.2a.918.918,0,0,0-.177-.133c-.006.044-.012.088-.018.132" transform="translate(-234.321 -226.838)" fill="#fe9580"/>
        <path id="Trazado_267031" data-name="Trazado 267031" d="M226.01,281.991l.009-.012-.009-.009c0,.007,0,.014,0,.021" transform="translate(-175.217 -218.6)" fill="#fe9580"/>
        <path id="Trazado_267032" data-name="Trazado 267032" d="M226.055,281.975a1.543,1.543,0,0,0,1.1.255q7.7.009,15.4,0a2.029,2.029,0,0,0,.884-.109c0-.051.009-.1.012-.152H226.061l-.006.008" transform="translate(-175.252 -218.598)" fill="#fe9580"/>
        <path id="Trazado_267033" data-name="Trazado 267033" d="M303.428,282.123a.862.862,0,0,0,.225-.152h-.213c0,.051-.008.1-.012.152" transform="translate(-235.236 -218.601)" fill="#fe9580"/>
        <path id="Trazado_267034" data-name="Trazado 267034" d="M226.025,281.966h-.016l.01.008.006-.008" transform="translate(-175.216 -218.597)" fill="#fe9580"/>
        <path id="Trazado_267035" data-name="Trazado 267035" d="M304.151,56.325c.168.238.082.526.083.788.011,1.946.008,3.892.009,5.839a5.181,5.181,0,0,1,.5-.525q3.978-3.982,7.96-7.958c.664-.664.664-.668.029-1.305q-1.007-1.012-2.02-2.019c-.675-.67-.679-.67-1.382.03-1.468,1.462-2.92,2.94-4.407,4.383-.192.187-.449.532-.681.35l0,0a.406.406,0,0,1-.092.414" transform="translate(-235.797 -39.264)" fill="#d7e1ef"/>
        <path id="Trazado_267036" data-name="Trazado 267036" d="M305.246,54.737c1.487-1.443,2.939-2.921,4.407-4.383.7-.7.707-.7,1.382-.03s1.349,1.344,2.02,2.019c.634.637.635.641-.03,1.305q-3.98,3.979-7.96,7.958a5.209,5.209,0,0,0-.5.525c0,.061,0,.122,0,.184q4.533-4.494,9.072-8.981c.32-.316.2-.487-.055-.732-.881-.862-1.779-1.711-2.609-2.621-.455-.5-.717-.542-1.22-.025-1.7,1.743-3.452,3.425-5.186,5.131.232.182.489-.163.681-.35" transform="translate(-236.115 -38.442)" fill="#d7e1ef"/>
        <path id="Trazado_267037" data-name="Trazado 267037" d="M304,74.076h0l-.162.329a.544.544,0,0,1,.07.084.406.406,0,0,0,.092-.414" transform="translate(-235.554 -57.428)" fill="#d7e1ef"/>
        <path id="Trazado_267038" data-name="Trazado 267038" d="M273.626,80.231a61.473,61.473,0,0,1,.056-6.193c-.554.587-1.145,1.139-1.7,1.724a.771.771,0,0,1-1.285.006c-.685-.7-1.4-1.376-2.073-2.083a.663.663,0,0,0-1.125-.008c-.736.767-1.493,1.515-2.255,2.257A.637.637,0,0,0,265.252,77q2.8,2.781,5.583,5.58c.346.348.635.391.985.013.4-.43.821-.841,1.247-1.247.186-.177.346-.409.618-.451a1.146,1.146,0,0,1,.1-.217.682.682,0,0,1-.162-.445" transform="translate(-205.414 -56.881)" fill="#ecf2f8"/>
        <path id="Trazado_267039" data-name="Trazado 267039" d="M303.781,106.1a.583.583,0,0,1,.141-.005c.013-.045.024-.089.034-.134h0a.631.631,0,0,1-.072-.077,1.154,1.154,0,0,0-.1.217" transform="translate(-235.51 -82.084)" fill="#ecf2f8"/>
        <path id="Trazado_267040" data-name="Trazado 267040" d="M272.617,79.808c-.272.042-.432.274-.618.451-.425.405-.847.816-1.247,1.247-.351.377-.639.335-.985-.013q-2.782-2.8-5.583-5.58a.637.637,0,0,1-.011-1.063c.762-.742,1.519-1.49,2.255-2.257a.663.663,0,0,1,1.125.008c.678.707,1.388,1.383,2.073,2.083a.772.772,0,0,0,1.285-.007c.558-.584,1.149-1.136,1.7-1.723.006-.06.009-.12.015-.181-.621.6-1.264,1.18-1.856,1.809-.363.385-.605.446-1,.019-.756-.821-1.58-1.579-2.355-2.383-.292-.3-.5-.347-.819-.021q-1.369,1.415-2.785,2.784c-.314.3-.309.511,0,.818q3.038,3,6.044,6.042c.3.308.494.331.8.009.617-.641,1.267-1.25,1.908-1.868.006-.034.011-.069.018-.1s.017-.047.025-.07" transform="translate(-204.346 -55.797)" fill="#ecf2f8"/>
        <path id="Trazado_267041" data-name="Trazado 267041" d="M303.773,106.813a.605.605,0,0,0-.141.006c-.009.024-.018.046-.025.07s-.013.068-.018.1Z" transform="translate(-235.36 -82.806)" fill="#ecf2f8"/>
        <path id="Trazado_267042" data-name="Trazado 267042" d="M303.342,82.2a.682.682,0,0,0,.162.445c.023-.037.046-.073.072-.107,0-1.946,0-3.892-.01-5.839,0-.262.085-.55-.083-.788l-.02.028-.066.068a61.473,61.473,0,0,0-.056,6.193" transform="translate(-235.129 -58.854)" fill="#ecf2f8"/>
        <path id="Trazado_267043" data-name="Trazado 267043" d="M304.241,105.511a.666.666,0,0,0,.072.077V105.4c-.026.034-.049.07-.072.107" transform="translate(-235.866 -81.716)" fill="#ecf2f8"/>
        <path id="Trazado_267044" data-name="Trazado 267044" d="M303.837,75.654l.02-.028a.569.569,0,0,0-.07-.084c-.006.06-.009.12-.015.181l.066-.068" transform="translate(-235.502 -58.565)" fill="#ecf2f8"/>
      </g>
    </g>
  </g>
</svg>
