<svg xmlns="http://www.w3.org/2000/svg" xmlns:xlink="http://www.w3.org/1999/xlink" width="136" height="136" viewBox="0 0 136 136">
  <defs>
    <clipPath id="clip-path">
      <rect id="Rectángulo_298927" data-name="Rectángulo 298927" width="86.109" height="86.114" fill="none"/>
    </clipPath>
  </defs>
  <g id="Grupo_882119" data-name="Grupo 882119" transform="translate(-1074 -836.185)">
    <g id="Elipse_4918" data-name="Elipse 4918" transform="translate(1074 836.185)" fill="#fff" stroke="#6b3fe5" stroke-width="1">
      <circle cx="68" cy="68" r="68" stroke="none"/>
      <circle cx="68" cy="68" r="67.5" fill="none"/>
    </g>
    <g id="Grupo_882094" data-name="Grupo 882094" transform="translate(1100.432 861.185)">
      <g id="Grupo_882094-2" data-name="Grupo 882094" clip-path="url(#clip-path)">
        <path id="Trazado_267045" data-name="Trazado 267045" d="M34.813,132.054a21.234,21.234,0,0,0,12.623,1.169c12.426-2.666,19.878-14.066,17.424-26.569a2.035,2.035,0,0,0-1.277-1.811,2,2,0,0,0-2.143.785q-5.306,5.342-10.644,10.654c-1.651,1.648-3.279,1.653-4.916.017q-3.849-3.845-7.688-7.7c-1.661-1.666-1.664-3.254-.015-4.906Q43.558,98.3,48.946,92.918A1.8,1.8,0,0,0,48,89.647a23.6,23.6,0,0,0-5-.542,19.706,19.706,0,0,0-5.08.609,22.272,22.272,0,0,0-15.471,29.96,2.133,2.133,0,0,1-.57,2.625q-8.652,8.583-17.246,17.224c-.923.923-1.877,1.82-2.752,2.787a7.292,7.292,0,0,0,10.689,9.919q9.833-9.8,19.621-19.65a2.111,2.111,0,0,1,2.631-.524" transform="translate(0 -68.369)" fill="#3778c5"/>
        <path id="Trazado_267046" data-name="Trazado 267046" d="M84.6,37.213c-1.373-.537-2.729-1.123-4.119-1.612a1.436,1.436,0,0,1-1.077-1.166,33.8,33.8,0,0,0-4.633-11.06.966.966,0,0,1-.077-1.038c.646-1.453,1.277-2.915,1.861-4.394a2.65,2.65,0,0,0-.466-2.835A59.508,59.508,0,0,0,71.923,10.8a3.224,3.224,0,0,0-4.152-.767c-1.171.618-2.46,1.01-3.67,1.559a1.094,1.094,0,0,1-1.179-.093A35.5,35.5,0,0,0,51.5,6.814a.842.842,0,0,1-.645-.619c-.55-1.4-1.1-2.8-1.634-4.2A2.7,2.7,0,0,0,46.545.028C44.4,0,42.251-.018,40.106.034A2.693,2.693,0,0,0,37.429,1.88c-.339.923-.8,1.808-1.06,2.75a3.219,3.219,0,0,1-2.724,2.589A30.492,30.492,0,0,0,23.6,11.6a.834.834,0,0,1-.885.069q-2.183-.963-4.392-1.866a2.657,2.657,0,0,0-2.851.376,57.058,57.058,0,0,0-4.5,4.35,3.353,3.353,0,0,0-.583,4.277c.584,1.161,1.028,2.391,1.56,3.579a.805.805,0,0,1-.075.867A36.725,36.725,0,0,0,7.122,34.74a.915.915,0,0,1-.632.734c-1.4.545-2.8,1.1-4.2,1.632A2.7,2.7,0,0,0,.32,39.783c-.031,2.146-.028,4.294,0,6.44a2.743,2.743,0,0,0,1.935,2.7c1.405.534,2.8,1.085,4.207,1.626a.936.936,0,0,1,.675.8,18.25,18.25,0,0,0,.5,2.013,2.961,2.961,0,0,0,4,2.2,27.178,27.178,0,0,1-2.09-7.284,31.349,31.349,0,0,1-.348-6.658A33.438,33.438,0,0,1,11.84,29.693a33.035,33.035,0,0,1,4.936-8.228,34.693,34.693,0,0,1,9.539-8.084A33.666,33.666,0,0,1,37.678,9.312a34.453,34.453,0,0,1,8.981-.268,33.213,33.213,0,0,1,12.23,3.56,33.923,33.923,0,0,1,18.4,33.734A33.033,33.033,0,0,1,73.616,58.8,34.213,34.213,0,0,1,40.791,77.106a30.485,30.485,0,0,1-9.744-2.226,1.9,1.9,0,0,1-.283-.181,2.887,2.887,0,0,0,2.008,3.946,16.381,16.381,0,0,0,2.18.544,1,1,0,0,1,.85.737c.534,1.405,1.1,2.8,1.617,4.21A2.7,2.7,0,0,0,40.08,86c2.145.056,4.293.035,6.44.009a2.725,2.725,0,0,0,2.7-1.94c.474-1.243,1.013-2.463,1.432-3.723A1.7,1.7,0,0,1,52.067,79.1a36.013,36.013,0,0,0,10.91-4.582,1.017,1.017,0,0,1,1.1-.073c1.4.629,2.816,1.213,4.233,1.8a2.623,2.623,0,0,0,2.782-.33,56.473,56.473,0,0,0,4.446-4.276,3.513,3.513,0,0,0,.582-4.643c-.571-1.067-.954-2.233-1.448-3.343a.833.833,0,0,1,.042-.887A35.03,35.03,0,0,0,79.5,51.3a.8.8,0,0,1,.57-.66c1.459-.556,2.895-1.173,4.356-1.724A2.713,2.713,0,0,0,86.3,46.25q.083-3.218,0-6.44a2.622,2.622,0,0,0-1.692-2.6" transform="translate(-0.228 0)" fill="#bedaef"/>
        <path id="Trazado_267047" data-name="Trazado 267047" d="M61.5,104.86a32.4,32.4,0,0,0,14.017,2.018,33.981,33.981,0,0,0,31.126-28.134,33.082,33.082,0,0,0-2.252-19.08A33.51,33.51,0,0,0,88.149,42.55a34.11,34.11,0,0,0-30.213.184c-10.31,5.419-16.5,13.919-18.294,25.476a32.52,32.52,0,0,0,1.722,16.518,1.48,1.48,0,0,1,.157.841A2.828,2.828,0,0,0,43.309,82a34.818,34.818,0,0,1-1.26-7.415A31.16,31.16,0,0,1,54.626,47.99a30.905,30.905,0,0,1,15.943-6.006A30.444,30.444,0,0,1,83.21,43.508a30,30,0,0,1,14.3,10.042c6.13,7.864,8.237,16.728,6.03,26.458a31.126,31.126,0,0,1-29.562,24.184,33.137,33.137,0,0,1-9.761-1.282,2.816,2.816,0,0,0-3.561,1.792,1.474,1.474,0,0,1,.841.158" transform="translate(-30.119 -30.003)" fill="#9dbacd"/>
        <path id="Trazado_267048" data-name="Trazado 267048" d="M60.278,104.141a30.479,30.479,0,0,0,9.744,2.226,33.884,33.884,0,0,0,10.076-.762,34.361,34.361,0,0,0,22.749-17.544A33.033,33.033,0,0,0,106.521,75.6a34.228,34.228,0,0,0-18.4-33.734,33.213,33.213,0,0,0-12.23-3.56,34.453,34.453,0,0,0-8.981.268,33.665,33.665,0,0,0-11.362,4.069,34.693,34.693,0,0,0-9.539,8.084,33.035,33.035,0,0,0-4.936,8.228,33.439,33.439,0,0,0-2.648,11.931,31.349,31.349,0,0,0,.348,6.658,27.176,27.176,0,0,0,2.09,7.284,1.482,1.482,0,0,0-.157-.841,32.519,32.519,0,0,1-1.722-16.518c1.8-11.556,7.983-20.057,18.294-25.476a34.112,34.112,0,0,1,30.213-.184,33.511,33.511,0,0,1,16.238,17.116,33.912,33.912,0,0,1-9.1,39.1,33.131,33.131,0,0,1-19.771,8.115,32.4,32.4,0,0,1-14.017-2.018,1.478,1.478,0,0,0-.842-.158,1.886,1.886,0,0,0,.283.181" transform="translate(-29.459 -29.261)" fill="#9dbacd"/>
      </g>
    </g>
  </g>
</svg>
