<svg xmlns="http://www.w3.org/2000/svg" xmlns:xlink="http://www.w3.org/1999/xlink" width="136" height="136" viewBox="0 0 136 136">
  <defs>
    <clipPath id="clip-path">
      <rect id="Rectángulo_298929" data-name="Rectángulo 298929" width="86.082" height="86.114" fill="none"/>
    </clipPath>
  </defs>
  <g id="Grupo_882120" data-name="Grupo 882120" transform="translate(-775.755 11172.895)">
    <g id="Elipse_4930" data-name="Elipse 4930" transform="translate(775.755 -11172.895)" fill="#fff" stroke="#6b3fe5" stroke-width="1">
      <circle cx="68" cy="68" r="68" stroke="none"/>
      <circle cx="68" cy="68" r="67.5" fill="none"/>
    </g>
    <g id="Grupo_882102" data-name="Grupo 882102" transform="translate(800.755 -11147.895)">
      <g id="Grupo_882101" data-name="Grupo 882101" clip-path="url(#clip-path)">
        <path id="Trazado_267116" data-name="Trazado 267116" d="M117.08,227.852c.327-.164.638-.358.957-.538-1.428-2.628-2.833-5.268-4.291-7.879a7.332,7.332,0,0,0-6.819-3.991q-6.579-.009-13.157-.03H87.832c-4.467.011-8.935,0-13.4.037a6.9,6.9,0,0,0-6.194,3.4c-1.691,2.819-3.17,5.764-4.74,8.656q4.169,1.994,8.338,3.99c.277.133.544.284.817.426h0l3.317-5.995v1.159c0,6.7.012,13.4-.018,20.106,0,.729.188.91.911.908q13.944-.038,27.888,0c.738,0,.907-.2.9-.915-.028-6.7-.016-13.4-.016-20.106v-1.162l3.316,6h0q4.064-2.033,8.128-4.069" transform="translate(-47.76 -162.031)" fill="#06b68f"/>
        <path id="Trazado_267117" data-name="Trazado 267117" d="M139.2,20.776c.4,0,.8-.014,1.2-.021.006-6.674,0-13.348.035-20.022,0-.662-.253-.736-.807-.734-5.624.016-11.247.01-16.871.01-4.728,0-9.455.007-14.183-.01-.554,0-.81.073-.807.734.032,6.674.028,13.348.035,20.022l31.4.021m-3.3-3.714c-.952.011-1.9.018-2.856,0a.7.7,0,0,1-.755-.751.716.716,0,0,1,.794-.717c.491-.013.983,0,1.474,0,.43,0,.86,0,1.29,0,.5.007.852.235.846.759a.707.707,0,0,1-.793.716m-4.28-13.344c1.419,0,2.838,0,4.257,0,.516,0,.84.261.815.785-.022.473-.345.7-.815.7h-2.128c-.71,0-1.419,0-2.129,0-.515,0-.84-.26-.815-.785.022-.474.346-.695.815-.695m5.072,6.695c-.014.53-.374.73-.88.723-.71-.009-1.42,0-2.13,0-.649,0-1.3-.009-1.945,0-.539.01-.94-.175-.931-.766.008-.53.374-.726.88-.723,1.389.007,2.779,0,4.168,0,.515,0,.852.234.839.762m-6.4-3.732q2.725.013,5.451,0c.531,0,.953.174.943.757s-.446.737-.971.731c-.924-.011-1.848,0-2.772,0-.893,0-1.786-.005-2.679,0-.531,0-.953-.173-.942-.757s.445-.733.97-.731m-.127,5.937q2.825,0,5.651,0c.508,0,.864.2.873.731s-.333.757-.847.755c-.957,0-1.915,0-2.872,0-.927,0-1.853-.005-2.78,0-.508,0-.864-.2-.873-.731s.333-.756.847-.755m-16.67-6.331a4.914,4.914,0,0,1,2.1-2.017c2.156-1.628,5.765-1.74,7.658-.238h0A6.468,6.468,0,0,1,126.868,8.9h0a7.035,7.035,0,0,1-2.583,7.259,7.056,7.056,0,0,1-7.631.937h0a6.3,6.3,0,0,1-3.7-3.746,6.851,6.851,0,0,1,.545-7.067" transform="translate(-81.063 0.001)" fill="#3a69fe"/>
        <path id="Trazado_267118" data-name="Trazado 267118" d="M275.258,29.74h0c.009-6.705.006-13.411.045-20.116,0-.65-.357-.755-.8-.92q-9.4-3.52-18.791-7.047c-1.36-.51-2.725-1-4.149-1.527V20.858q7.736,2.909,15.472,5.817,4.107,1.541,8.22,3.065m-20-12.608c0,.707,0,1.415,0,2.122,0,.5-.236.864-.755.853s-.726-.385-.726-.883c0-1.384,0-2.768,0-4.151,0-.5.23-.859.754-.849s.729.379.727.879c0,.677,0,1.353,0,2.03M272,25.975c-1.007-.456-1.989-.969-2.971-1.478a.731.731,0,0,1,.559-1.346c1.057.494,2.093,1.034,3.13,1.57a.688.688,0,0,1,.34.674c-.134.52-.471.846-1.057.58m.975-6.286a.712.712,0,0,1-1.086.312c-.933-.47-1.873-.926-2.8-1.4a.7.7,0,0,1-.427-.909.75.75,0,0,1,.774-.525c.153.061.385.137.6.244q1.239.613,2.469,1.244c.426.218.715.534.471,1.033m-4.255-8.045a.68.68,0,0,1,.946-.331q1.5.727,2.979,1.5a.748.748,0,0,1,.414.719c-.16.527-.5.843-1.087.571-.98-.453-1.945-.943-2.9-1.45a.68.68,0,0,1-.353-1m-.026,3.007a.674.674,0,0,1,.916-.391c1.051.5,2.086,1.034,3.115,1.577a.661.661,0,0,1,.319.708c-.119.435-.449.788-.975.556-1.063-.47-2.093-1.019-3.117-1.572a.618.618,0,0,1-.259-.878m.02,5.891a.641.641,0,0,1,.848-.368c1.083.51,2.147,1.063,3.208,1.618a.6.6,0,0,1,.286.55.719.719,0,0,1-1.031.675c-1.035-.469-2.046-.993-3.05-1.526a.64.64,0,0,1-.261-.95m-10.485-4.179c0,1.294-.006,2.588,0,3.882,0,.523-.146.962-.729.974s-.759-.414-.758-.943q.006-4.021,0-8.042c0-.523.147-.969.729-.973.646,0,.764.485.76,1.034-.01,1.356,0,2.712,0,4.067m2.967-1.8c0,2.223-.005,4.446,0,6.668,0,.576-.079,1.127-.787,1.1-.644-.023-.706-.554-.7-1.09q.011-6.668,0-13.337c0-.573.061-1.121.785-1.1.659.024.708.55.706,1.083-.009,2.223,0,4.446,0,6.668m2.266,8.886c-.64.027-.789-.443-.786-1.007q.014-3.612,0-7.223c0-.519.109-.969.7-.992.653-.026.795.434.788,1-.014,1.2,0,2.408,0,3.612s-.01,2.408,0,3.612c.006.523-.132.976-.706,1m2.883,1.111c-.642-.024-.705-.554-.7-1.092.011-2.131,0-4.261,0-6.392,0-2.069.006-4.138,0-6.207,0-.575.063-1.118.788-1.091.661.025.7.551.7,1.084q-.01,6.3,0,12.6c0,.578-.084,1.125-.79,1.1" transform="translate(-189.224 -0.097)" fill="#3a69fe"/>
        <path id="Trazado_267119" data-name="Trazado 267119" d="M295.063,191.519c-1.7-.02-3.392-.02-5.087-.029-.609.009-1.219.026-1.828.025a1.526,1.526,0,0,0-1.653,1.371c-.111.535-.259,1.062-.391,1.593h0c-.26,1.2-.529,2.4-.778,3.6-.131.631-.3.765-.842.254a2.1,2.1,0,0,0-2.931-.185c-.6.415-.718.824-.242,1.442.864,1.12,1.665,2.288,2.506,3.426a.812.812,0,0,1,.182.755c-.551,2.266-1.074,4.538-1.606,6.808,2.118,3.925,4.218,7.861,6.373,11.766.355.643.265,1.46.862,1.981.4-1.765.8-3.531,1.21-5.3q2.934-12.695,5.87-25.39a1.542,1.542,0,0,0-1.644-2.117m-5.817,7.589a.679.679,0,0,1-.936.513.739.739,0,0,1-.462-.978c.363-1.4.713-2.8,1.061-4.2.111-.447.362-.745.838-.674s.66.41.638.959c-.362,1.408-.728,2.9-1.138,4.381m3.684.06a.657.657,0,0,1-.887.463.735.735,0,0,1-.495-.961c.362-1.43.715-2.862,1.084-4.29a.7.7,0,0,1,.885-.6c.405.1.6.409.571.97-.36,1.389-.734,2.911-1.159,4.419" transform="translate(-211.376 -144.035)" fill="#fe99bf"/>
        <path id="Trazado_267120" data-name="Trazado 267120" d="M10.533,223.1c1.507-2.744,3.007-5.492,4.465-8.261a30.208,30.208,0,0,0,2.217-4.335h0c-.491-2.125-.974-4.252-1.48-6.373a1.4,1.4,0,0,1,.279-1.279c.821-1.077,1.577-2.2,2.393-3.285.423-.559.26-.944-.226-1.323a2.194,2.194,0,0,0-2.959.112c-.681.673-.761.3-.9-.324q-.564-2.518-1.17-5.027c-.262-1.094-.674-1.407-1.818-1.409q-3.241-.007-6.482,0c-1.6,0-2.219.734-1.869,2.27.69,3.025,1.4,6.045,2.1,9.069Q7.545,213.57,10,224.212c.5-.215.33-.751.53-1.116M7.728,199.7c-.488.08-.711-.365-.813-.738-.364-1.329-.705-2.667-.989-4.015-.085-.406-.213-.987.467-1.116.652-.124.858.33.985.844q.493,2.006.981,4.014c0,.485-.115.927-.63,1.011m1.8-4.976c.075-.435.073-.841.641-.9s.779.312.89.748c.325,1.278.638,2.56.921,3.848.115.525.151,1.168-.534,1.271-.556.084-.8-.421-.923-.948-.315-1.342-.661-2.677-1-4.015" transform="translate(-2.173 -144.11)" fill="#fe99bf"/>
        <path id="Trazado_267121" data-name="Trazado 267121" d="M23.859,35.585l-3.32-1.118-.925.382q-1.573,3.664-3.143,7.33a1.272,1.272,0,0,1-.362.621h0A1.467,1.467,0,0,1,14.5,45.14a1.436,1.436,0,0,1-.992-1.593c.007-.123,0-.247,0-.37a33.986,33.986,0,0,0-2.847-3.709c-1.227,2.372-2.4,4.641-3.575,6.9-.167.32-.237.716-.622.886a1.4,1.4,0,0,1-.022,1.929,1.333,1.333,0,0,1-1.591.4,1.533,1.533,0,0,1-.988-1.777h0c-1.32-.866-2.323-2.128-3.677-2.951L.176,55.575l23.7-8.886q-.007-5.552-.015-11.1" transform="translate(-0.132 -25.925)" fill="#3a69fe"/>
        <path id="Trazado_267122" data-name="Trazado 267122" d="M5.264,21.094A20.528,20.528,0,0,1,6.986,17.64c.793-1.491,1.425-3.065,2.336-4.495h0c-.521-.883-.469-1.623.193-2.108a1.453,1.453,0,0,1,1.933.056c.609.5.632,1.206.117,2.043.862.184,1.048,1.063,1.594,1.574a10.905,10.905,0,0,1,1.014,1.3c.407.519.65.492.919-.168.94-2.3,1.935-4.583,2.916-6.87a1.443,1.443,0,0,1,.22-.286h0a1.409,1.409,0,0,1-.12-1.766,1.386,1.386,0,0,1,1.412-.645,1.45,1.45,0,0,1,1.323,1.3h0a15.576,15.576,0,0,1,2.923.9V.435a1.9,1.9,0,0,0-.308.053Q12,4.769.542,9.048a.673.673,0,0,0-.487.76c.024,2.467.027,4.935.037,7.4l4.608,3.9.564-.012" transform="translate(-0.042 -0.327)" fill="#3a69fe"/>
        <path id="Trazado_267123" data-name="Trazado 267123" d="M263.424,277.958c-.831-2.47-2.343-4.592-3.518-6.886-.952-1.86-2.019-3.66-2.973-5.52-.135-.264-.338-.53-.186-.863l-.738-1.256h0a1.435,1.435,0,0,1-.868.775c-2.541,1.22-5.081,2.444-7.6,3.716a.9.9,0,0,1-.62.115,1.118,1.118,0,0,0,.066.268c2.4,4.506,4.738,9.05,7.237,13.5a5.145,5.145,0,0,0,7.979.96c1.244-1.2,1.509-2.756,1.775-4.333h0c-.381.07-.472-.221-.559-.478" transform="translate(-185.733 -198.15)" fill="#feb2cf"/>
        <path id="Trazado_267124" data-name="Trazado 267124" d="M247.545,267.925c2.516-1.272,5.055-2.5,7.6-3.716a1.435,1.435,0,0,0,.868-.775h0c-.318.18-.63.373-.957.538q-4.061,2.039-8.128,4.069a.9.9,0,0,0,.62-.115" transform="translate(-185.733 -198.15)" fill="#feb2cf"/>
        <path id="Trazado_267125" data-name="Trazado 267125" d="M292.77,280.265c-2.155-3.905-4.255-7.841-6.373-11.766-.153.333.05.6.186.863.954,1.86,2.02,3.66,2.973,5.52,1.174,2.294,2.686,4.416,3.518,6.886.086.257.177.548.559.478-.6-.521-.507-1.338-.862-1.981" transform="translate(-215.381 -201.96)" fill="#feb2cf"/>
        <path id="Trazado_267126" data-name="Trazado 267126" d="M40.188,264.857c-.291-.131-.661-.226-.687-.656-.285.264-.276.751-.692.916.29.473-.066.83-.254,1.183-1.672,3.15-3.406,6.268-5.108,9.4a19.956,19.956,0,0,0-1.26,2.563c-.1.276-.155.628-.591.564.056.363.121.724.167,1.088a5.412,5.412,0,0,0,4.3,4.839,5.333,5.333,0,0,0,5.69-3.055c1.217-2.322,2.487-4.615,3.712-6.932,1.08-2.043,2.129-4.1,3.192-6.153a3.9,3.9,0,0,1-1.8-.633c-2.229-1.027-4.429-2.118-6.668-3.127" transform="translate(-23.766 -198.727)" fill="#feb2cf"/>
        <path id="Trazado_267127" data-name="Trazado 267127" d="M63.494,264.2c.026.429.4.525.687.656,2.239,1.009,4.439,2.1,6.668,3.127a3.9,3.9,0,0,0,1.8.633c-.272-.142-.54-.293-.817-.426q-4.167-2-8.338-3.99" transform="translate(-47.759 -198.727)" fill="#feb2cf"/>
        <path id="Trazado_267128" data-name="Trazado 267128" d="M32.187,281.047a19.926,19.926,0,0,1,1.26-2.563c1.7-3.134,3.436-6.252,5.108-9.4.188-.354.544-.71.254-1.183a30.222,30.222,0,0,1-2.218,4.335c-1.459,2.77-2.958,5.518-4.465,8.261-.2.365-.031.9-.53,1.116.436.064.489-.287.591-.564" transform="translate(-23.766 -201.508)" fill="#feb2cf"/>
        <path id="Trazado_267129" data-name="Trazado 267129" d="M187.835,152.544c-.022.542-.089.908-.741.817l-.232,1.477h0c.559-.034,1-.032.976.782-.036,1.133-.842.56-1.329.7l-.937,3.715.036,1.475h0c6.147,0,12.294,0,18.442.021.624,0,.85-.132.843-.806-.034-3.429-.027-6.858,0-10.286,0-.571-.107-.805-.75-.8-6.054.028-12.109.022-18.163.026h0a7.18,7.18,0,0,1,.973,2.2c.469,0,.916-.048.887.68m-.8,6.765c-.6,0-.709-.253-.714-.776-.005-.559.18-.812.749-.714.556-.093.755.132.765.7.01.611-.207.787-.8.787m5.981,0c-.539,0-.759-.148-.765-.727-.006-.61.207-.79.8-.786s.776.237.689.778c.1.583-.182.734-.725.736m2.857,0c-.646.014-.693-.352-.621-.793-.112-.7.314-.685.783-.712.616-.035.674.286.7.787.035.691-.346.707-.861.718m3.1.007c-.608.005-.793-.2-.788-.8s.233-.779.776-.692c.581-.1.736.18.737.724s-.145.76-.726.766m2.833-.007c-.646.014-.693-.352-.621-.793-.112-.7.313-.685.783-.712.616-.035.674.286.7.787.035.691-.346.707-.861.718m.071-2.96c-.586,0-.729-.236-.719-.77s.121-.861.687-.712c.6-.1.818.106.824.686.007.6-.189.8-.792.795m.085-4.484c.6,0,.761.259.68.789.107.6-.206.716-.736.724-.553.008-.744-.172-.754-.738-.011-.623.229-.776.81-.775m-3.011.028c.569-.1.737.158.751.714.016.625-.232.772-.811.775-.608,0-.692-.278-.7-.788-.012-.575.208-.794.762-.7m.027,2.939c.577.007.788.221.7.77.1.574-.165.746-.717.743-.529,0-.77-.131-.772-.719s.19-.8.793-.794m-3.042,1.518c-.6,0-.709-.253-.714-.776,0-.559.18-.812.749-.714.556-.093.755.132.765.7.01.611-.207.787-.8.787m.045-4.482c.54,0,.833.146.727.732.086.539-.1.777-.687.781s-.809-.172-.8-.785c.006-.577.222-.732.763-.729m-3,4.481c-.586,0-.73-.236-.719-.77s.121-.861.687-.712c.6-.1.818.106.824.686.007.6-.189.8-.792.795m.072-4.484c.584.006.779.233.692.777.1.581-.18.736-.724.737s-.761-.145-.766-.726c-.005-.608.2-.793.8-.788m-3.11,4.478c-.661.021-.668-.372-.629-.846-.1-.647.322-.633.791-.659.615-.035.674.286.7.787.035.691-.347.7-.861.718m.145-4.445c.7-.112.685.314.712.783.035.616-.286.674-.787.7-.691.035-.707-.346-.717-.861-.014-.646.352-.693.793-.621m-.06,5.9c.511.015.859.095.751.708.072.513-.05.809-.666.8-.563,0-.842-.119-.824-.761.015-.547.167-.768.739-.751" transform="translate(-139.585 -112.553)" fill="#5f85fd"/>
        <path id="Trazado_267130" data-name="Trazado 267130" d="M100.185,154.518a7.357,7.357,0,0,1-2.99-4.876c-4.167,0-8.333.017-12.5-.015-.689-.005-.883.171-.875.869.037,3.394.031,6.79,0,10.184-.005.619.124.85.8.846,5.246-.031,10.493-.022,15.739-.025a42.954,42.954,0,0,1-.18-6.983m-13.33-2.665c.585.008.789.232.671.739.115.645-.2.765-.727.773-.553.008-.744-.172-.754-.738-.011-.624.228-.782.81-.774m-.033,2.993c.581-.1.736.18.737.724s-.145.76-.726.766c-.608.005-.793-.2-.788-.8s.233-.779.776-.692m-.042,4.457c-.573-.007-.738-.21-.732-.758s.136-.839.728-.732c.535-.083.782.091.785.685s-.165.813-.781.805m2.933-.007c-.616.035-.674-.286-.7-.787-.035-.691.347-.7.861-.718.661-.021.668.372.629.846.1.647-.322.633-.791.659m.023-2.963c-.691.035-.7-.347-.719-.861-.021-.661.372-.668.847-.629.647-.1.633.322.659.791.035.616-.286.674-.787.7m-.008-2.992c-.608.108-.7-.231-.712-.747-.014-.567.2-.729.748-.743.638-.016.761.255.764.822,0,.612-.283.743-.8.669m5.994-1.462c.581-.1.736.18.737.724s-.145.76-.726.766c-.608.005-.793-.2-.788-.8s.233-.779.777-.692m-2.881-.023c.661-.021.668.372.629.847.1.647-.322.632-.791.659-.616.034-.674-.286-.7-.787-.035-.691.347-.7.861-.719m-.094,2.965c.549,0,.823.163.72.74.089.546-.114.767-.695.773-.6.007-.8-.189-.795-.792,0-.586.237-.721.769-.721m-.063,4.481c-.608,0-.7-.277-.7-.788,0-.557.172-.829.71-.692.62-.108.788.15.8.705.016.625-.232.772-.811.775m3.073-.036c-.611.1-.8-.131-.811-.7-.012-.616.216-.783.8-.783s.71.263.708.782c0,.546-.151.843-.7.7m-.095-2.958c-.608.108-.7-.231-.713-.747-.014-.567.2-.729.748-.743.638-.017.761.255.764.821,0,.612-.283.743-.8.669m3,2.991c-.554.008-.743-.174-.753-.738-.011-.625.232-.78.812-.773s.787.236.669.741c.116.646-.2.763-.728.771m.737-3.745c.086.539-.1.778-.687.782s-.809-.172-.8-.785c.006-.577.222-.732.763-.729s.833.146.727.732" transform="translate(-63.048 -112.546)" fill="#5f85fd"/>
        <path id="Trazado_267131" data-name="Trazado 267131" d="M138.206,143.54a6.249,6.249,0,0,0,1.949,3.338,2.5,2.5,0,0,1,.768.957,7.445,7.445,0,0,0,2.967,1.007,1.362,1.362,0,0,1,1.285,1.256,1.288,1.288,0,0,1-.9,1.535c-.836.24-.566.852-.528,1.325.048.6.593.285.892.291,1.59.034,3.182.019,4.773.018a14.21,14.21,0,0,1,1.033-3.791,1.13,1.13,0,0,1,.13-.064,3.726,3.726,0,0,1,.335-1.308.537.537,0,0,1-.051-.05,1.5,1.5,0,0,1,.138-1.4c.054-.045.1-.088.151-.13l-.126-1.3-.086-.048a6.612,6.612,0,0,1-.9-2.279h0a6.08,6.08,0,0,0-5.2-2.249c-1.628.062-3.26.012-4.89.012-2.112,0-2.112,0-2.137,2.133a.682.682,0,0,1-.013.091c.308.113.356.391.417.659" transform="translate(-103.643 -105.786)" fill="#0e3e85"/>
        <path id="Trazado_267132" data-name="Trazado 267132" d="M188.18,152.069c0-.041-.008-.083-.012-.124h0a7.185,7.185,0,0,0-.973-2.2,6.606,6.606,0,0,0,.9,2.279l.086.048" transform="translate(-140.805 -112.633)" fill="#0e3e85"/>
        <path id="Trazado_267133" data-name="Trazado 267133" d="M184.9,179.9l.937-3.715c0-.047,0-.093,0-.14a1.13,1.13,0,0,0-.13.064,14.21,14.21,0,0,0-1.033,3.791Z" transform="translate(-138.911 -132.417)" fill="#0e3e85"/>
        <path id="Trazado_267134" data-name="Trazado 267134" d="M190.216,165.93l.231-1.477-.007-.072c-.047.042-.1.085-.151.13a1.5,1.5,0,0,0-.138,1.4.539.539,0,0,0,.051.05l.013-.032h0" transform="translate(-142.939 -123.644)" fill="#0e3e85"/>
        <path id="Trazado_267135" data-name="Trazado 267135" d="M140.78,154.565l.143.077a2.5,2.5,0,0,0-.768-.957,6.251,6.251,0,0,1-1.949-3.338c-.06-.268-.108-.546-.416-.659a7.358,7.358,0,0,0,2.99,4.876" transform="translate(-103.643 -112.593)" fill="#0e3e85"/>
        <path id="Trazado_267136" data-name="Trazado 267136" d="M107.761,85.881c-.06.7.2.884.887.879,4.159-.029,8.318-.015,12.478-.015h5.93c4.159,0,8.318-.015,12.478.015.683,0,.947-.176.887-.879s-.024-1.416-.03-2.124a1.565,1.565,0,0,1-1.217.321q-15.083.01-30.166,0a1.564,1.564,0,0,1-1.216-.321c-.006.709.029,1.42-.031,2.124" transform="translate(-81.05 -63.001)" fill="#b3c5fe"/>
        <path id="Trazado_267137" data-name="Trazado 267137" d="M109.126,84.077q15.083.01,30.165,0a1.564,1.564,0,0,0,1.217-.321c-.4.007-.8.021-1.2.021q-15.7-.009-31.4-.021h0a1.566,1.566,0,0,0,1.217.321" transform="translate(-81.167 -63)" fill="#b3c5fe"/>
        <path id="Trazado_267138" data-name="Trazado 267138" d="M275.2,92.659h0c-.451.212-.847-.028-1.239-.176-7.158-2.7-14.329-5.365-21.485-8.068-.368-.139-.793-.2-.968-.638-.005.833-.008,1.666-.018,2.5,0,.323.021.57.413.709,2.342.835,4.672,1.7,7.007,2.556,1.326.493,2.651.992,3.981,1.474a.729.729,0,0,1,.483.39,2.943,2.943,0,0,1,1.225.339q4.9,1.843,9.8,3.688c.582.221.907.216.84-.561-.063-.733-.03-1.475-.039-2.213" transform="translate(-189.169 -63.016)" fill="#b3c5fe"/>
        <path id="Trazado_267139" data-name="Trazado 267139" d="M252.534,84.415c7.157,2.7,14.327,5.369,21.486,8.068.392.148.788.388,1.239.176q-4.11-1.532-8.22-3.065-7.738-2.9-15.472-5.817c.175.437.6.5.968.638" transform="translate(-189.224 -63.016)" fill="#b3c5fe"/>
        <path id="Trazado_267140" data-name="Trazado 267140" d="M6.181,93.435a55.187,55.187,0,0,1,5.692-2.023c.463-.558,1.174-.621,1.785-.872.881-.362,1.786-.665,2.68-.993,2.379-.736,4.665-1.724,7.008-2.556.393-.14.415-.387.411-.709-.009-.833-.011-1.666-.016-2.5-.142.361-.477.455-.795.575C15.7,87.088,8.443,89.791,1.2,92.521c-.364.137-.737.35-1.152.148-.008.738.029,1.479-.035,2.211-.069.788.277.774.844.557,1.772-.678,3.541-1.367,5.328-2" transform="translate(0 -63.02)" fill="#b3c5fe"/>
        <path id="Trazado_267141" data-name="Trazado 267141" d="M1.329,92.522c7.246-2.73,14.5-5.433,21.75-8.163.318-.12.652-.214.795-.575L.176,92.67c.416.2.789-.011,1.153-.148" transform="translate(-0.132 -63.021)" fill="#b3c5fe"/>
        <path id="Trazado_267142" data-name="Trazado 267142" d="M158.506,181.3a1.2,1.2,0,0,1,.769.251q.007-2.214.014-4.427c-.372-.386-.278-.861-.272-1.319a1.551,1.551,0,0,1-.628.1c-1.388.01-2.776.018-4.164,0-.469-.007-.964-.029-1.08-.635a1.138,1.138,0,0,1,.492-1.368,1.307,1.307,0,0,0,.829-1.49c-.166-.738-.782-.851-1.4-.994a4.109,4.109,0,0,1-2.473-1.021c.182,2.1-.047,4.21.156,6.309a.554.554,0,0,1-.163.419h0c.479.633.826,1.473,1.628,1.7,1.175.332,1.25,1.118,1.133,2.083a5.569,5.569,0,0,0-.005.647,1.2,1.2,0,0,1,.769-.251q2.2-.041,4.4,0" transform="translate(-113.266 -128.167)" fill="#feb2cf"/>
        <path id="Trazado_267143" data-name="Trazado 267143" d="M166.869,214.34q-2.2-.041-4.4,0a1.2,1.2,0,0,0-.769.251h5.937a1.2,1.2,0,0,0-.769-.251" transform="translate(-121.629 -161.207)" fill="#feb2cf"/>
        <path id="Trazado_267144" data-name="Trazado 267144" d="M184.811,191.6a.82.82,0,0,1-.236.156c-.007.458-.1.933.272,1.319q-.018-.737-.036-1.475Z" transform="translate(-138.823 -144.116)" fill="#feb2cf"/>
        <path id="Trazado_267145" data-name="Trazado 267145" d="M150.038,175.93c-.2-2.1.026-4.209-.156-6.31a2.139,2.139,0,0,1-.188-.255,42.926,42.926,0,0,0,.18,6.983h0a.554.554,0,0,0,.163-.419" transform="translate(-112.557 -127.394)" fill="#feb2cf"/>
        <path id="Trazado_267146" data-name="Trazado 267146" d="M158.918,175.109c-1.591,0-3.183.016-4.773-.018-.3-.006-.845.306-.892-.291-.038-.473-.309-1.085.528-1.325a1.289,1.289,0,0,0,.9-1.535,1.362,1.362,0,0,0-1.285-1.256,7.447,7.447,0,0,1-2.967-1.007,1.3,1.3,0,0,1,.042.128c0,.017,0,.033,0,.05a4.109,4.109,0,0,0,2.473,1.021c.623.144,1.239.256,1.4.994a1.307,1.307,0,0,1-.829,1.49,1.138,1.138,0,0,0-.492,1.368c.116.606.611.628,1.08.635,1.388.022,2.776.014,4.164,0a1.55,1.55,0,0,0,.628-.1c0-.031,0-.062,0-.092l.012-.064" transform="translate(-113.152 -127.627)" fill="#feb2cf"/>
        <path id="Trazado_267147" data-name="Trazado 267147" d="M184.636,191.6l-.012.064c0,.03,0,.061,0,.092a.811.811,0,0,0,.236-.156h-.222" transform="translate(-138.869 -144.116)" fill="#feb2cf"/>
        <path id="Trazado_267148" data-name="Trazado 267148" d="M150,169.442l-.143-.077a2.113,2.113,0,0,0,.187.255c0-.017,0-.033,0-.05-.011-.045-.027-.086-.042-.128" transform="translate(-112.719 -127.393)" fill="#feb2cf"/>
        <path id="Trazado_267149" data-name="Trazado 267149" d="M153.032,95.967c-.091-.012-.154-.1-.229-.15,0,1.174-.034,2.35.012,3.522a1.8,1.8,0,0,1-.628,1.541c-.776.7-1.493,1.475-2.319,2.3H161.6c-.9-1.163-2.4-1.845-2.765-3.126a15.975,15.975,0,0,1-.1-4.24c-.074.054-.138.139-.228.15a20.822,20.822,0,0,1-5.474,0" transform="translate(-112.728 -72.072)" fill="#5f86fd"/>
        <path id="Trazado_267150" data-name="Trazado 267150" d="M161.943,95.967a20.822,20.822,0,0,0,5.474,0c.09-.012.154-.1.228-.15h-5.93c.074.054.138.139.228.15" transform="translate(-121.639 -72.072)" fill="#5f86fd"/>
        <path id="Trazado_267151" data-name="Trazado 267151" d="M291.718,169.7a3.012,3.012,0,0,1,3.062-.212c.015-1.226.052-2.453.039-3.679a3.609,3.609,0,0,0-2.758-3.57c-.2.052-.264.135-.248.383.05.762.039,1.529.043,2.294,0,.5-.222.863-.739.863s-.742-.365-.739-.862c0-.765-.007-1.532.043-2.295.016-.248-.047-.331-.248-.383h0a3.634,3.634,0,0,0-2.763,3.673c-.008.861,0,1.722,0,2.583a3.7,3.7,0,0,0,3.5,3.982,2.879,2.879,0,0,1,.81-2.777" transform="translate(-216.181 -122.033)" fill="#5f86fd"/>
        <path id="Trazado_267152" data-name="Trazado 267152" d="M301.789,191.938a1.526,1.526,0,0,1,1.653-1.371c.609,0,1.218-.016,1.827-.025a3.012,3.012,0,0,0-3.062.212,2.878,2.878,0,0,0-.81,2.776c.132-.531.28-1.058.391-1.593" transform="translate(-226.67 -143.088)" fill="#5f86fd"/>
        <path id="Trazado_267153" data-name="Trazado 267153" d="M50.971,107.742c-1.075.361-2.093.876-3.194,1.164a16.517,16.517,0,0,0,1.276,8.031c.125.271.063.76.62.48q4.128-2.07,8.255-4.132c-.12-.268-.31-.273-.491-.317-1.493-.367-2.98-.763-4.479-1.1a.781.781,0,0,1-.728-.937c.042-1.3.013-2.592.012-3.889a2.507,2.507,0,0,1-1.271.7" transform="translate(-35.904 -80.514)" fill="#5f86fd"/>
        <path id="Trazado_267154" data-name="Trazado 267154" d="M47.909,108.906c1.1-.288,2.12-.8,3.194-1.164a2.505,2.505,0,0,0,1.271-.7c-.895.328-1.8.631-2.68.993-.611.251-1.322.314-1.785.872" transform="translate(-36.036 -80.515)" fill="#5f86fd"/>
        <path id="Trazado_267155" data-name="Trazado 267155" d="M263.55,110.834c.024.633-.151.916-.806,1.059-1.638.357-3.255.81-5.1,1.281,2.966,1.485,5.715,2.857,8.458,4.241.475.239.491-.123.6-.4a14.756,14.756,0,0,0,1.3-7,8.764,8.764,0,0,1,.007-1.109,19.431,19.431,0,0,1-4.464-1.863c0,1.264-.034,2.529.014,3.792" transform="translate(-193.792 -80.515)" fill="#5f86fd"/>
        <path id="Trazado_267156" data-name="Trazado 267156" d="M285.414,108.515c-1.33-.482-2.655-.981-3.981-1.474A19.439,19.439,0,0,0,285.9,108.9a.729.729,0,0,0-.483-.39" transform="translate(-211.689 -80.514)" fill="#5f86fd"/>
        <path id="Trazado_267157" data-name="Trazado 267157" d="M.8,70.287A40.188,40.188,0,0,1,3.91,73.047a2.483,2.483,0,0,1,.8-.947,22.356,22.356,0,0,1-3.122-2.543C1.082,69.134.427,68.827.2,68.123q0,1.027,0,2.055a.524.524,0,0,1,.6.11" transform="translate(-0.15 -51.241)" fill="#5e85fd"/>
        <path id="Trazado_267158" data-name="Trazado 267158" d="M3.876,79.212c.01-.029.023-.055.034-.082A40.135,40.135,0,0,0,.8,76.37a.525.525,0,0,0-.6-.11c1.355.824,2.357,2.086,3.677,2.952" transform="translate(-0.15 -57.323)" fill="#5e85fd"/>
        <path id="Trazado_267159" data-name="Trazado 267159" d="M1.593,69.557A22.392,22.392,0,0,0,4.715,72.1l.1-.081-4.608-3.9c.226.7.881,1.011,1.387,1.434" transform="translate(-0.155 -51.241)" fill="#5e85fd"/>
        <path id="Trazado_267160" data-name="Trazado 267160" d="M299.044,162.234c0,.643-.037,1.288.013,1.93.024.3.063.68.462.68s.438-.375.461-.68c.05-.642.009-1.286.013-1.93,0-.295-.048-.676.47-.539a2.57,2.57,0,0,0-1.887,0c.517-.136.468.244.469.539" transform="translate(-224.583 -121.489)" fill="#b3c5fe"/>
        <path id="Trazado_267161" data-name="Trazado 267161" d="M298.82,162.535c-.05.763-.038,1.529-.043,2.295,0,.5.222.862.739.862s.742-.367.74-.863c0-.765.007-1.532-.043-2.295-.016-.248.047-.331.248-.383-.518-.138-.468.244-.47.539,0,.643.037,1.288-.013,1.93-.024.3-.063.68-.462.68s-.438-.375-.462-.68c-.05-.642-.009-1.287-.012-1.93,0-.295.048-.675-.469-.539h0c.2.052.264.136.248.383" transform="translate(-224.581 -121.946)" fill="#b3c5fe"/>
        <path id="Trazado_267162" data-name="Trazado 267162" d="M82.948,29.659a2.165,2.165,0,0,1-.328,1.061,8.768,8.768,0,0,1,3.252,1.249l0-1.506a7.506,7.506,0,0,1-2.919-.8" transform="translate(-62.145 -22.309)" fill="#5e85fd"/>
        <path id="Trazado_267163" data-name="Trazado 267163" d="M82.344,34.07h0l3.32,1.118a8.763,8.763,0,0,0-3.251-1.249l-.069.131" transform="translate(-61.938 -25.528)" fill="#5e85fd"/>
        <path id="Trazado_267164" data-name="Trazado 267164" d="M83.932,29.259c0,.034,0,.066,0,.1a7.509,7.509,0,0,0,2.92.8,15.575,15.575,0,0,0-2.923-.9" transform="translate(-63.132 -22.008)" fill="#5e85fd"/>
        <path id="Trazado_267165" data-name="Trazado 267165" d="M147.406,41.8a5.91,5.91,0,0,1-2.636-.261,10.106,10.106,0,0,1-1.152,2.588h0a7.322,7.322,0,0,0,10.214-8.2l-2.8.563c.113,2.938-1.159,4.784-3.63,5.305" transform="translate(-108.027 -27.03)" fill="#fbc319"/>
        <path id="Trazado_267166" data-name="Trazado 267166" d="M129.031,25.2h0a4.357,4.357,0,0,1,1.183-5.158.736.736,0,0,0,.3-.547l-1.461-2.261a4.913,4.913,0,0,0-2.1,2.017,6.852,6.852,0,0,0-.545,7.067l2.622-1.119" transform="translate(-94.522 -12.963)" fill="#154dfb"/>
        <path id="Trazado_267167" data-name="Trazado 267167" d="M140.945,15.581a.307.307,0,0,0,.195-.008,4.743,4.743,0,0,1,4.472-.072l1.377-2.441h0c-1.892-1.5-5.5-1.391-7.658.238.942.476,1.217,1.422,1.613,2.283" transform="translate(-104.803 -9.027)" fill="#f1444e"/>
        <path id="Trazado_267168" data-name="Trazado 267168" d="M140.793,19.495a1.464,1.464,0,0,1,.152.023c-.4-.862-.671-1.808-1.613-2.283Z" transform="translate(-104.803 -12.963)" fill="#f1444e"/>
        <path id="Trazado_267169" data-name="Trazado 267169" d="M166.978,21.658c.005-.008.009-.017.015-.025a3.889,3.889,0,0,1,2.8-.485,6.466,6.466,0,0,0-3.619-4.872,4.476,4.476,0,0,1-1.337,2.474,5.681,5.681,0,0,1,2.141,2.908" transform="translate(-123.988 -12.243)" fill="#06b690"/>
        <path id="Trazado_267170" data-name="Trazado 267170" d="M173.493,36.123c-.006.008-.009.017-.015.025s.013.035.018.053h0l2.8-.563a3.89,3.89,0,0,0-2.8.485" transform="translate(-130.487 -26.732)" fill="#06b690"/>
        <path id="Trazado_267171" data-name="Trazado 267171" d="M164.673,18.717h0l.041.032a4.476,4.476,0,0,0,1.337-2.474h0l-1.377,2.442" transform="translate(-123.864 -12.242)" fill="#06b690"/>
        <path id="Trazado_267172" data-name="Trazado 267172" d="M131.317,49.549a4.308,4.308,0,0,1-2.646,1.076,6.3,6.3,0,0,0,3.7,3.747h0a6.994,6.994,0,0,1,1.1-2.618,5.669,5.669,0,0,1-2.163-2.2" transform="translate(-96.784 -37.27)" fill="#f49f01"/>
        <path id="Trazado_267173" data-name="Trazado 267173" d="M144.722,58.44a6.993,6.993,0,0,0-1.1,2.619,10.1,10.1,0,0,0,1.152-2.588l-.047-.03" transform="translate(-108.026 -43.958)" fill="#f49f01"/>
        <path id="Trazado_267174" data-name="Trazado 267174" d="M131.293,49.376h0l-2.622,1.119a4.307,4.307,0,0,0,2.646-1.076c-.007-.015-.016-.028-.024-.043" transform="translate(-96.784 -37.14)" fill="#f49f01"/>
        <path id="Trazado_267175" data-name="Trazado 267175" d="M195.594,52.4c.926-.007,1.853,0,2.78,0,.957,0,1.915,0,2.872,0,.514,0,.855-.227.847-.755s-.364-.732-.873-.731q-2.826.009-5.652,0c-.513,0-.855.227-.847.755s.365.735.873.731" transform="translate(-146.466 -38.297)" fill="#f49f00"/>
        <path id="Trazado_267176" data-name="Trazado 267176" d="M195.679,28.454c.893-.008,1.786,0,2.68,0,.924,0,1.848-.007,2.772,0,.524.006.961-.147.971-.731s-.412-.759-.943-.757q-2.725.009-5.451,0c-.524,0-.96.146-.97.731s.412.762.942.757" transform="translate(-146.477 -20.283)" fill="#06b690"/>
        <path id="Trazado_267177" data-name="Trazado 267177" d="M205.758,38.943c-1.39,0-2.779,0-4.168,0-.506,0-.871.193-.879.723-.009.591.391.775.93.765.648-.012,1.3,0,1.945,0,.71,0,1.42-.007,2.13,0,.506.006.867-.193.88-.723s-.324-.763-.839-.762" transform="translate(-150.971 -29.291)" fill="#fbc319"/>
        <path id="Trazado_267178" data-name="Trazado 267178" d="M201.52,16.487c.71,0,1.419,0,2.128,0h2.129c.47,0,.793-.222.815-.695.024-.524-.3-.784-.815-.785-1.419,0-2.838,0-4.257,0-.469,0-.793.221-.815.695-.025.525.3.781.815.785" transform="translate(-150.966 -11.288)" fill="#f1444e"/>
        <path id="Trazado_267179" data-name="Trazado 267179" d="M210.252,62.893c-.43-.006-.86,0-1.29,0-.491,0-.983-.009-1.474,0a.716.716,0,0,0-.794.717.7.7,0,0,0,.755.751c.952.022,1.9.015,2.856,0a.707.707,0,0,0,.792-.716c.006-.524-.346-.752-.846-.758" transform="translate(-155.471 -47.304)" fill="#154dfb"/>
        <path id="Trazado_267180" data-name="Trazado 267180" d="M285.194,27.084c-.724-.026-.786.521-.785,1.1q.01,6.668,0,13.337c0,.537.061,1.068.7,1.09.708.025.789-.526.787-1.1-.009-2.223,0-4.446,0-6.668s-.005-4.446,0-6.669c0-.533-.047-1.06-.706-1.083" transform="translate(-213.927 -20.372)" fill="#f1444e"/>
        <path id="Trazado_267181" data-name="Trazado 267181" d="M309.841,40.138c0-.533-.042-1.059-.7-1.084-.725-.028-.791.516-.788,1.091.01,2.069,0,4.138,0,6.207,0,2.131.006,4.261,0,6.392,0,.537.06,1.068.7,1.092.705.026.791-.52.79-1.1q-.012-6.3,0-12.6" transform="translate(-231.935 -29.375)" fill="#e57701"/>
        <path id="Trazado_267182" data-name="Trazado 267182" d="M273.171,45.05c-.582,0-.73.45-.729.973q.009,4.021,0,8.042c0,.529.176.955.758.943s.733-.451.729-.974c-.009-1.294,0-2.588,0-3.883,0-1.356-.007-2.711,0-4.067,0-.549-.114-1.039-.76-1.034" transform="translate(-204.926 -33.886)" fill="#154dfb"/>
        <path id="Trazado_267183" data-name="Trazado 267183" d="M297.866,61.615c0-1.2-.01-2.408,0-3.612.006-.564-.136-1.024-.789-1-.594.024-.705.473-.7.992q.015,3.612,0,7.223c0,.564.146,1.034.786,1.007.574-.024.712-.478.706-1-.014-1.2,0-2.408,0-3.612" transform="translate(-222.93 -42.877)" fill="#fbc319"/>
        <path id="Trazado_267184" data-name="Trazado 267184" d="M261.237,57c-.525-.01-.754.345-.755.848,0,1.384,0,2.768,0,4.151,0,.5.208.873.726.884s.751-.353.755-.853c0-.707,0-1.415,0-2.122,0-.677,0-1.353,0-2.03,0-.5-.2-.868-.727-.879" transform="translate(-195.929 -42.878)" fill="#06b690"/>
        <path id="Trazado_267185" data-name="Trazado 267185" d="M324.227,70.373q-1.231-.629-2.469-1.244c-.217-.108-.45-.183-.6-.244a.75.75,0,0,0-.774.525.7.7,0,0,0,.426.909c.931.474,1.871.929,2.8,1.4a.712.712,0,0,0,1.085-.311c.245-.5-.045-.816-.471-1.033" transform="translate(-240.951 -51.814)" fill="#ef444f"/>
        <path id="Trazado_267186" data-name="Trazado 267186" d="M320.676,82.153c1,.534,2.015,1.057,3.05,1.526a.719.719,0,0,0,1.03-.675.6.6,0,0,0-.286-.55c-1.061-.556-2.125-1.108-3.208-1.618a.728.728,0,0,0-.587,1.318" transform="translate(-240.928 -60.759)" fill="#f9c21b"/>
        <path id="Trazado_267187" data-name="Trazado 267187" d="M324.428,94.395c-1.037-.536-2.073-1.076-3.13-1.57a.731.731,0,0,0-.559,1.346c.982.509,1.964,1.022,2.971,1.478.586.266.924-.06,1.057-.58a.688.688,0,0,0-.34-.674" transform="translate(-240.938 -69.771)" fill="#e47603"/>
        <path id="Trazado_267188" data-name="Trazado 267188" d="M320.66,58.207c1.024.553,2.054,1.1,3.117,1.572.525.232.856-.121.975-.556a.661.661,0,0,0-.319-.708c-1.03-.542-2.064-1.078-3.115-1.577a.674.674,0,0,0-.916.391.618.618,0,0,0,.259.878" transform="translate(-240.934 -42.776)" fill="#154dfb"/>
        <path id="Trazado_267189" data-name="Trazado 267189" d="M320.793,46.342c.954.507,1.918,1,2.9,1.45.589.272.927-.044,1.087-.571a.749.749,0,0,0-.414-.719q-1.48-.766-2.979-1.5a.731.731,0,1,0-.593,1.336" transform="translate(-240.947 -33.79)" fill="#06b690"/>
        <path id="Trazado_267190" data-name="Trazado 267190" d="M325.376,200.648a.7.7,0,0,0-.885.6c-.369,1.428-.722,2.86-1.084,4.29a.735.735,0,0,0,.495.961.657.657,0,0,0,.887-.463c.426-1.507.8-3.03,1.159-4.419.027-.561-.166-.874-.571-.97" transform="translate(-243.234 -150.904)" fill="#e57199"/>
        <path id="Trazado_267191" data-name="Trazado 267191" d="M310.357,200.652c-.476-.071-.727.228-.838.674-.348,1.4-.7,2.8-1.061,4.2a.739.739,0,0,0,.462.978.679.679,0,0,0,.937-.513c.41-1.48.776-2.973,1.138-4.381.023-.549-.174-.89-.638-.959" transform="translate(-231.987 -150.919)" fill="#e57199"/>
        <path id="Trazado_267192" data-name="Trazado 267192" d="M31.6,206.442c.684-.1.649-.746.534-1.271-.283-1.288-.6-2.57-.921-3.848-.111-.436-.322-.81-.89-.748s-.566.469-.641.9c.334,1.338.681,2.673.995,4.015.124.527.368,1.031.924.948" transform="translate(-22.324 -150.864)" fill="#e57199"/>
        <path id="Trazado_267193" data-name="Trazado 267193" d="M15.4,200.578c-.679.129-.552.71-.467,1.116.284,1.348.625,2.686.989,4.015.1.373.325.818.813.738.514-.084.628-.526.63-1.011q-.49-2.007-.981-4.014c-.126-.514-.333-.968-.985-.844" transform="translate(-11.183 -150.856)" fill="#e57199"/>
        <path id="Trazado_267194" data-name="Trazado 267194" d="M34.307,34.065c-.915,2.483-2.034,4.881-3.079,7.31-.289.671-.692.659-1.254,0-.819-.956-1.522-2.008-2.424-2.895,0-.006,0-.013-.006-.019a1.339,1.339,0,0,1-2.142.03,86.116,86.116,0,0,1-4.052,7.9,1.287,1.287,0,0,1,.993.5c1.154-2.425,2.5-4.751,3.682-7.16.214-.435.529-.928,1.012-.346a16.447,16.447,0,0,1,2.514,3.347c.874-.979,1.525-1.056,2.415-.3.955-2.589,2.137-5.082,3.209-7.621a.878.878,0,0,1,.2-.277,1.353,1.353,0,0,1-1.067-.477" transform="translate(-16.06 -25.623)" fill="#5e85fd"/>
        <path id="Trazado_267195" data-name="Trazado 267195" d="M30.049,54.748c-.483-.582-.8-.089-1.012.346-1.183,2.41-2.528,4.735-3.682,7.16.014.02.03.037.044.058h0c.385-.17.455-.566.622-.886,1.179-2.264,2.348-4.532,3.575-6.9a34.034,34.034,0,0,1,2.847,3.709c.04-.048.08-.091.119-.135a16.459,16.459,0,0,0-2.514-3.348" transform="translate(-19.072 -40.981)" fill="#5e85fd"/>
        <path id="Trazado_267196" data-name="Trazado 267196" d="M67.393,36.266c-1.073,2.539-2.255,5.032-3.209,7.621.023.02.046.037.069.058h0a1.27,1.27,0,0,0,.362-.621q1.567-3.667,3.143-7.33c-.056,0-.112,0-.167,0a.881.881,0,0,0-.2.277" transform="translate(-48.278 -27.07)" fill="#5e85fd"/>
        <path id="Trazado_267197" data-name="Trazado 267197" d="M46.352,38.246c.9.886,1.6,1.939,2.424,2.895.562.655.965.668,1.254,0,1.044-2.429,2.163-4.826,3.079-7.31-.021-.026-.043-.049-.062-.078h0a1.453,1.453,0,0,0-.22.286c-.98,2.287-1.976,4.567-2.916,6.87-.269.66-.512.687-.919.168a10.949,10.949,0,0,0-1.014-1.3c-.546-.511-.732-1.39-1.595-1.574l-.036.032c0,.006,0,.012.006.019" transform="translate(-34.861 -25.385)" fill="#5e85fd"/>
        <path id="Trazado_267198" data-name="Trazado 267198" d="M25.194,51.777l-.063-.053h0c-.911,1.429-1.543,3-2.336,4.495a20.545,20.545,0,0,0-1.721,3.454l.069.006a86.113,86.113,0,0,0,4.052-7.9" transform="translate(-15.851 -38.905)" fill="#5e85fd"/>
        <path id="Trazado_267199" data-name="Trazado 267199" d="M54.538,67.562c.011.023.024.045.034.068.055.239.037.487.087.727a1.216,1.216,0,0,0,1.45,1.058,1.2,1.2,0,0,0,.945-1.516,2.69,2.69,0,0,1-.148-.622l.017-.045a2.227,2.227,0,0,0-2.384.33" transform="translate(-41.023 -50.398)" fill="#164dfb"/>
        <path id="Trazado_267200" data-name="Trazado 267200" d="M56.455,67.973a2.683,2.683,0,0,0,.148.622,1.2,1.2,0,0,1-.945,1.517,1.216,1.216,0,0,1-1.45-1.058c-.049-.239-.031-.488-.087-.727-.01-.024-.023-.045-.034-.068l-.144.086c0,.123.006.247,0,.37a1.436,1.436,0,0,0,.992,1.593,1.467,1.467,0,0,0,1.612-2.339h0c-.026-.015-.05-.027-.076-.041l-.017.045" transform="translate(-40.573 -51.094)" fill="#164dfb"/>
        <path id="Trazado_267201" data-name="Trazado 267201" d="M54.439,66.61c.008.017.017.032.025.049a2.226,2.226,0,0,1,2.384-.33l.006-.017c-.89-.758-1.541-.681-2.415.3" transform="translate(-40.948 -49.495)" fill="#164dfb"/>
        <path id="Trazado_267202" data-name="Trazado 267202" d="M54.077,69.063c-.039.044-.079.088-.119.136l.144-.086c-.008-.017-.017-.033-.025-.049" transform="translate(-40.586 -51.948)" fill="#164dfb"/>
        <path id="Trazado_267203" data-name="Trazado 267203" d="M64.158,67.877c.025.014.05.026.076.041-.024-.021-.046-.039-.069-.058l-.006.017" transform="translate(-48.259 -51.043)" fill="#164dfb"/>
        <path id="Trazado_267204" data-name="Trazado 267204" d="M75.623,26.08a3.535,3.535,0,0,1-.4-.543,1.2,1.2,0,0,0-1.623-.421,1.14,1.14,0,0,0-.582,1.483,1.6,1.6,0,0,1,.125.535l-.009.025a3.362,3.362,0,0,1,1.117.466l.018-.017a2.2,2.2,0,0,1,.989-.424,1.565,1.565,0,0,1,.365-1.1" transform="translate(-54.866 -18.772)" fill="#154dfb"/>
        <path id="Trazado_267205" data-name="Trazado 267205" d="M79.229,33.944a2.207,2.207,0,0,0-.989.424l-.018.017c.032.023.065.046.1.071l.926-.382c-.008-.044-.011-.086-.014-.129" transform="translate(-58.837 -25.532)" fill="#154dfb"/>
        <path id="Trazado_267206" data-name="Trazado 267206" d="M72.329,26.389a1.6,1.6,0,0,0-.125-.535,1.14,1.14,0,0,1,.582-1.483,1.2,1.2,0,0,1,1.623.421,3.518,3.518,0,0,0,.4.543c.014-.019.028-.038.043-.057h0a1.45,1.45,0,0,0-1.323-1.3,1.385,1.385,0,0,0-1.412.645,1.409,1.409,0,0,0,.12,1.766h0l.083.023.01-.025" transform="translate(-54.052 -18.028)" fill="#154dfb"/>
        <path id="Trazado_267207" data-name="Trazado 267207" d="M82.635,29.49a1.565,1.565,0,0,0-.365,1.1c.021,0,.04-.006.061-.007l.022.006a2.164,2.164,0,0,0,.328-1.061l0,0c-.016-.012-.027-.027-.042-.04" transform="translate(-61.878 -22.182)" fill="#154dfb"/>
        <path id="Trazado_267208" data-name="Trazado 267208" d="M82.368,33.92l-.022-.006c-.021,0-.041.005-.061.007,0,.043.007.085.014.13l.069-.131" transform="translate(-61.893 -25.51)" fill="#154dfb"/>
        <path id="Trazado_267209" data-name="Trazado 267209" d="M83.8,29.356l0,0c0-.033,0-.065,0-.1-.015.019-.028.038-.043.057.015.013.026.028.042.04" transform="translate(-63.001 -22.008)" fill="#154dfb"/>
        <path id="Trazado_267210" data-name="Trazado 267210" d="M73.631,33.9a1.353,1.353,0,0,0,1.067.477c.023-.023.047-.045.071-.066a3.366,3.366,0,0,0-1.117-.466l-.021.056" transform="translate(-55.384 -25.455)" fill="#154dfb"/>
        <path id="Trazado_267211" data-name="Trazado 267211" d="M77.935,35.787c.055,0,.111,0,.167.005-.031-.026-.064-.048-.1-.071-.024.022-.048.044-.071.066" transform="translate(-58.621 -26.869)" fill="#154dfb"/>
        <path id="Trazado_267212" data-name="Trazado 267212" d="M73.463,33.772l-.083-.023c.019.029.041.052.062.078l.021-.056" transform="translate(-55.195 -25.385)" fill="#154dfb"/>
        <path id="Trazado_267213" data-name="Trazado 267213" d="M16.766,84a.789.789,0,0,1-.535.113c-.032-.017-.062-.037-.094-.055a1.891,1.891,0,0,1-.833.944c.018.02.036.038.054.058a3.019,3.019,0,0,1,.119.446c.23.87.788,1.279,1.515,1.117a1.256,1.256,0,0,0,.858-1.673,1.538,1.538,0,0,1-.085-.452l.011-.023a2.292,2.292,0,0,1-.993-.506L16.766,84" transform="translate(-11.512 -63.156)" fill="#154dfb"/>
        <path id="Trazado_267214" data-name="Trazado 267214" d="M17.537,86.029a1.541,1.541,0,0,0,.085.452,1.256,1.256,0,0,1-.858,1.673c-.728.162-1.286-.248-1.515-1.117a3.026,3.026,0,0,0-.118-.446c-.017-.02-.036-.038-.054-.058l-.066.048h0A1.534,1.534,0,0,0,16,88.358a1.333,1.333,0,0,0,1.591-.4,1.4,1.4,0,0,0,.022-1.929c-.022-.005-.042-.013-.063-.018l-.011.023" transform="translate(-11.284 -64.692)" fill="#154dfb"/>
        <path id="Trazado_267215" data-name="Trazado 267215" d="M18.666,83.928c.032.018.062.038.094.055a.789.789,0,0,0,.535-.113l.018-.032c-.016-.015-.034-.026-.049-.041l-.564.012a1.139,1.139,0,0,1-.033.119" transform="translate(-14.04 -63.031)" fill="#154dfb"/>
        <path id="Trazado_267216" data-name="Trazado 267216" d="M16.04,84.208l-.065-.038a2.482,2.482,0,0,0-.8.947l.032.035a1.891,1.891,0,0,0,.833-.944" transform="translate(-11.414 -63.311)" fill="#154dfb"/>
        <path id="Trazado_267217" data-name="Trazado 267217" d="M15.072,87.992c-.011.028-.024.054-.034.082l.066-.048-.032-.035" transform="translate(-11.311 -66.186)" fill="#154dfb"/>
        <path id="Trazado_267218" data-name="Trazado 267218" d="M18.5,83.845h0l-.1.081.065.038a1.2,1.2,0,0,0,.033-.119" transform="translate(-13.842 -63.067)" fill="#154dfb"/>
        <path id="Trazado_267219" data-name="Trazado 267219" d="M21.292,83.825l-.019.034a2.292,2.292,0,0,0,.993.506l.019-.04a1.286,1.286,0,0,0-.993-.5" transform="translate(-16.001 -63.052)" fill="#154dfb"/>
        <path id="Trazado_267220" data-name="Trazado 267220" d="M25.278,85.884l.063.019c-.014-.021-.029-.039-.044-.058l-.019.04" transform="translate(-19.014 -64.57)" fill="#154dfb"/>
        <path id="Trazado_267221" data-name="Trazado 267221" d="M21.143,83.805l-.069-.006c.016.015.033.026.049.041l.019-.034" transform="translate(-15.851 -63.032)" fill="#154dfb"/>
        <path id="Trazado_267222" data-name="Trazado 267222" d="M39.329,45.107a1,1,0,0,1,.089-.593,1.221,1.221,0,0,0-1.872-1.362,1.142,1.142,0,0,0-.452,1.385,1.742,1.742,0,0,1,.131.537l-.024.053a2.434,2.434,0,0,0,2.128-.021" transform="translate(-27.848 -32.28)" fill="#154dfb"/>
        <path id="Trazado_267223" data-name="Trazado 267223" d="M36.475,44.27a1.742,1.742,0,0,0-.131-.537,1.142,1.142,0,0,1,.452-1.385,1.221,1.221,0,0,1,1.872,1.362,1.007,1.007,0,0,0-.089.593c.014-.006.027-.011.041-.018.516-.837.493-1.538-.116-2.043a1.453,1.453,0,0,0-1.933-.056c-.661.484-.714,1.224-.193,2.108h0c.025.011.049.02.073.03l.024-.053" transform="translate(-27.098 -31.475)" fill="#154dfb"/>
        <path id="Trazado_267224" data-name="Trazado 267224" d="M39.844,51.776l0-.014a2.435,2.435,0,0,1-2.128.021l-.01.023a1.34,1.34,0,0,0,2.142-.03" transform="translate(-28.359 -38.934)" fill="#154dfb"/>
        <path id="Trazado_267225" data-name="Trazado 267225" d="M46.332,51.722l.036-.032c-.013.007-.027.011-.041.018l0,.014" transform="translate(-34.847 -38.88)" fill="#154dfb"/>
        <path id="Trazado_267226" data-name="Trazado 267226" d="M37.52,51.754c-.025-.011-.049-.019-.073-.03l.063.053.01-.023" transform="translate(-28.167 -38.906)" fill="#154dfb"/>
        <path id="Trazado_267227" data-name="Trazado 267227" d="M201.394,170.593c-.469.027-.894.012-.791.659-.039.474-.031.867.629.847.514-.016.9-.028.861-.719-.026-.5-.084-.822-.7-.787" transform="translate(-150.878 -128.315)" fill="#3a69fe"/>
        <path id="Trazado_267228" data-name="Trazado 267228" d="M213.229,170.613c-.566-.15-.677.183-.687.712s.134.766.719.77c.6,0,.8-.194.792-.795-.007-.58-.227-.784-.824-.686" transform="translate(-159.87 -128.305)" fill="#3a69fe"/>
        <path id="Trazado_267229" data-name="Trazado 267229" d="M225.258,170.626c-.568-.1-.754.155-.749.714,0,.523.118.776.714.776s.81-.176.8-.787c-.01-.57-.209-.8-.765-.7" transform="translate(-168.872 -128.326)" fill="#3a69fe"/>
        <path id="Trazado_267230" data-name="Trazado 267230" d="M237.237,172.09c.553,0,.819-.169.717-.743.091-.55-.119-.763-.7-.77-.6-.008-.8.194-.793.794s.243.717.772.719" transform="translate(-177.865 -128.304)" fill="#3a69fe"/>
        <path id="Trazado_267231" data-name="Trazado 267231" d="M249.146,170.613c-.566-.15-.677.183-.687.712s.134.766.719.77c.6,0,.8-.194.792-.795-.007-.58-.227-.784-.824-.686" transform="translate(-186.887 -128.305)" fill="#3a69fe"/>
        <path id="Trazado_267232" data-name="Trazado 267232" d="M189.34,182.6c-.568-.1-.754.154-.749.714,0,.523.119.776.714.776s.81-.176.8-.787c-.01-.571-.209-.8-.765-.7" transform="translate(-141.855 -137.331)" fill="#3a69fe"/>
        <path id="Trazado_267233" data-name="Trazado 267233" d="M201.371,184.072c.615,0,.738-.292.666-.8.108-.613-.24-.692-.751-.708-.572-.017-.724.2-.739.751-.018.642.261.757.824.761" transform="translate(-150.847 -137.318)" fill="#3a69fe"/>
        <path id="Trazado_267234" data-name="Trazado 267234" d="M213.32,182.549c-.594,0-.807.176-.8.786.005.579.225.729.765.727s.829-.153.725-.736c.087-.541-.1-.774-.689-.778" transform="translate(-159.854 -137.31)" fill="#3a69fe"/>
        <path id="Trazado_267235" data-name="Trazado 267235" d="M225.334,182.566c-.469.027-.894.012-.783.712-.072.44-.025.806.621.793.515-.011.9-.027.861-.718-.026-.5-.084-.822-.7-.787" transform="translate(-168.885 -137.321)" fill="#3a69fe"/>
        <path id="Trazado_267236" data-name="Trazado 267236" d="M237.244,182.6c-.543-.087-.771.108-.776.692s.179.8.788.8c.581-.005.727-.228.726-.766s-.156-.827-.737-.724" transform="translate(-177.867 -137.331)" fill="#3a69fe"/>
        <path id="Trazado_267237" data-name="Trazado 267237" d="M249.279,182.566c-.469.027-.894.012-.783.712-.072.44-.025.806.621.793.515-.011.9-.027.861-.718-.026-.5-.084-.822-.7-.787" transform="translate(-186.896 -137.321)" fill="#3a69fe"/>
        <path id="Trazado_267238" data-name="Trazado 267238" d="M249.189,160.119c.529-.008.843-.128.736-.724.081-.53-.082-.788-.68-.789-.581,0-.821.152-.81.775.01.566.2.746.754.738" transform="translate(-186.868 -119.301)" fill="#3a69fe"/>
        <path id="Trazado_267239" data-name="Trazado 267239" d="M237.182,160.142c.579,0,.827-.15.811-.775-.014-.555-.182-.813-.751-.714-.554-.093-.773.126-.762.7.01.51.094.791.7.788" transform="translate(-177.876 -119.321)" fill="#3a69fe"/>
        <path id="Trazado_267240" data-name="Trazado 267240" d="M225.294,160.13c.589,0,.773-.242.687-.781.106-.586-.186-.729-.727-.732s-.757.151-.763.729c-.006.613.211.788.8.785" transform="translate(-168.859 -119.309)" fill="#3a69fe"/>
        <path id="Trazado_267241" data-name="Trazado 267241" d="M213.284,160.118c.544,0,.827-.156.724-.737.087-.543-.108-.771-.692-.776s-.8.18-.8.788c.005.581.228.727.766.726" transform="translate(-159.853 -119.3)" fill="#3a69fe"/>
        <path id="Trazado_267242" data-name="Trazado 267242" d="M201.292,160.143c.5-.026.822-.084.787-.7-.027-.469-.012-.894-.712-.783-.441-.072-.806-.025-.793.621.011.515.027.9.718.861" transform="translate(-150.868 -119.323)" fill="#3a69fe"/>
        <path id="Trazado_267243" data-name="Trazado 267243" d="M190.776,171.649c.139-.545-.377-.592-.659-.82a1.7,1.7,0,0,1-.226,1.243c.326-.084.765.05.885-.423" transform="translate(-142.833 -128.495)" fill="#3968fd"/>
        <path id="Trazado_267244" data-name="Trazado 267244" d="M190.371,171.47c-.12.473-.559.34-.885.423a1.936,1.936,0,0,1-.134.189c.487-.138,1.293.434,1.329-.7.026-.814-.417-.816-.976-.782h0c0,.016,0,.032.007.048.282.228.8.275.659.82" transform="translate(-142.427 -128.315)" fill="#3968fd"/>
        <path id="Trazado_267245" data-name="Trazado 267245" d="M189.5,172.022a1.7,1.7,0,0,0,.226-1.243l-.021-.017a3.728,3.728,0,0,0-.335,1.308l.03-.015a.583.583,0,0,1,.1-.034" transform="translate(-142.44 -128.444)" fill="#3968fd"/>
        <path id="Trazado_267246" data-name="Trazado 267246" d="M190.733,170.634l-.013.032.021.016c0-.016,0-.032-.007-.048" transform="translate(-143.456 -128.348)" fill="#3968fd"/>
        <path id="Trazado_267247" data-name="Trazado 267247" d="M189.486,175.846a.583.583,0,0,0-.1.034l-.03.015c0,.047,0,.093,0,.14a1.942,1.942,0,0,0,.134-.189" transform="translate(-142.427 -132.268)" fill="#3968fd"/>
        <path id="Trazado_267248" data-name="Trazado 267248" d="M191.7,159.439a1.082,1.082,0,0,1,.092,1.135c.561-.521.536-.76-.092-1.135" transform="translate(-144.197 -119.927)" fill="#3968fc"/>
        <path id="Trazado_267249" data-name="Trazado 267249" d="M191.267,158.826c.628.374.653.614.092,1.135a1.452,1.452,0,0,1-.091.162c.652.091.72-.275.741-.817.03-.728-.417-.683-.886-.68a2.153,2.153,0,0,1,.144.2" transform="translate(-143.759 -119.314)" fill="#3968fc"/>
        <path id="Trazado_267250" data-name="Trazado 267250" d="M191.3,159.208c-.041-.025-.086-.05-.132-.076q.063.65.126,1.3l.1-.09a1.082,1.082,0,0,0-.092-1.135" transform="translate(-143.796 -119.696)" fill="#3968fc"/>
        <path id="Trazado_267251" data-name="Trazado 267251" d="M191.121,158.631h0l.012.124.132.076a2.107,2.107,0,0,0-.144-.2" transform="translate(-143.758 -119.319)" fill="#3968fc"/>
        <path id="Trazado_267252" data-name="Trazado 267252" d="M191.778,164.018l-.1.09.007.072a1.455,1.455,0,0,0,.091-.162" transform="translate(-144.178 -123.372)" fill="#3968fc"/>
        <path id="Trazado_267253" data-name="Trazado 267253" d="M93.588,172.115c.581-.005.727-.228.726-.766s-.156-.827-.737-.724c-.543-.087-.771.108-.777.692s.18.8.788.8" transform="translate(-69.803 -128.325)" fill="#3a69fe"/>
        <path id="Trazado_267254" data-name="Trazado 267254" d="M105.639,170.629c-.474-.039-.867-.031-.846.629.016.514.028.9.718.861.5-.026.822-.084.787-.7-.026-.469-.012-.894-.659-.791" transform="translate(-78.823 -128.332)" fill="#3a69fe"/>
        <path id="Trazado_267255" data-name="Trazado 267255" d="M117.538,172.1c.58-.006.783-.227.694-.773.1-.577-.171-.741-.72-.74-.533,0-.766.136-.769.721,0,.6.194.8.795.792" transform="translate(-87.812 -128.315)" fill="#3a69fe"/>
        <path id="Trazado_267256" data-name="Trazado 267256" d="M129.477,170.573c-.551.014-.763.176-.748.743.013.516.1.855.713.747.516.074.8-.057.8-.669,0-.567-.126-.838-.764-.821" transform="translate(-96.827 -128.301)" fill="#3a69fe"/>
        <path id="Trazado_267257" data-name="Trazado 267257" d="M141.449,170.589c-.541,0-.757.151-.763.729-.006.613.211.788.8.785s.773-.242.687-.781c.106-.586-.187-.729-.727-.732" transform="translate(-105.821 -128.314)" fill="#3a69fe"/>
        <path id="Trazado_267258" data-name="Trazado 267258" d="M105.533,158.6c-.551.014-.763.176-.748.743.013.516.1.855.713.747.516.074.8-.057.8-.669,0-.567-.126-.838-.764-.821" transform="translate(-78.817 -119.296)" fill="#3a69fe"/>
        <path id="Trazado_267259" data-name="Trazado 267259" d="M93.54,182.6c-.592-.106-.722.2-.728.732s.159.751.732.758c.616.007.784-.218.781-.806s-.25-.768-.785-.684" transform="translate(-69.812 -137.33)" fill="#3a69fe"/>
        <path id="Trazado_267260" data-name="Trazado 267260" d="M105.636,182.568c-.514.016-.9.028-.861.719.025.5.084.822.7.787.469-.027.894-.012.791-.659.039-.474.031-.867-.629-.846" transform="translate(-78.808 -137.324)" fill="#3a69fe"/>
        <path id="Trazado_267261" data-name="Trazado 267261" d="M117.476,182.59c-.538-.137-.711.136-.71.692,0,.511.092.791.7.788.579,0,.827-.15.811-.775-.014-.555-.182-.813-.8-.705" transform="translate(-87.829 -137.315)" fill="#3a69fe"/>
        <path id="Trazado_267262" data-name="Trazado 267262" d="M129.521,182.547c-.588,0-.816.167-.8.783.011.566.2.8.811.7.549.145.7-.152.7-.7,0-.519-.107-.783-.708-.782" transform="translate(-96.818 -137.309)" fill="#3a69fe"/>
        <path id="Trazado_267263" data-name="Trazado 267263" d="M141.5,182.556c-.58-.007-.824.148-.812.773.01.564.2.747.753.738.528-.008.844-.124.728-.771.118-.5-.083-.733-.669-.74" transform="translate(-105.821 -137.316)" fill="#3a69fe"/>
        <path id="Trazado_267264" data-name="Trazado 267264" d="M93.55,160.123c.529-.008.843-.128.727-.773.118-.506-.086-.731-.671-.738s-.821.151-.81.774c.01.566.2.746.754.738" transform="translate(-69.799 -119.304)" fill="#3a69fe"/>
        <path id="Trazado_267265" data-name="Trazado 267265" d="M129.5,160.143c.581-.005.727-.228.726-.766s-.156-.827-.737-.724c-.543-.087-.771.108-.777.692s.18.8.788.8" transform="translate(-96.818 -119.32)" fill="#3a69fe"/>
        <path id="Trazado_267266" data-name="Trazado 267266" d="M117.446,160.129c.469-.027.894-.012.791-.659.039-.474.031-.867-.629-.847-.514.016-.9.028-.861.719.026.5.084.822.7.787" transform="translate(-87.814 -119.313)" fill="#3a69fe"/>
        <path id="Trazado_267267" data-name="Trazado 267267" d="M141.07,33.259c.017-.024.032-.049.049-.073a1.317,1.317,0,0,1,.809.062,4.245,4.245,0,0,0,5.226-3.91,2.279,2.279,0,0,1,.17-1.08.258.258,0,0,1-.247-.167,5.807,5.807,0,0,0-1.778-2.426.353.353,0,0,1-.156-.3,1.18,1.18,0,0,1-.631-.081,4.158,4.158,0,0,0-3.329.089c-.221.1-.462.225-.682.085a1.351,1.351,0,0,1-.455.754,4.025,4.025,0,0,0-1.108,4.192.893.893,0,0,1,.009.627l-.038.027a17.463,17.463,0,0,1,2.16,2.2" transform="translate(-104.364 -18.793)" fill="#3a69fe"/>
        <path id="Trazado_267268" data-name="Trazado 267268" d="M154.372,38.2a2.285,2.285,0,0,0-.17,1.08,4.244,4.244,0,0,1-5.226,3.909,1.317,1.317,0,0,0-.809-.062c-.017.024-.032.049-.049.073l.036.046a5.91,5.91,0,0,0,2.636.261c2.471-.521,3.743-2.367,3.63-5.305h0a.352.352,0,0,1-.049,0" transform="translate(-111.412 -28.733)" fill="#3a69fe"/>
        <path id="Trazado_267269" data-name="Trazado 267269" d="M138.19,32.068a.894.894,0,0,0-.009-.627,4.025,4.025,0,0,1,1.108-4.192,1.35,1.35,0,0,0,.455-.754.537.537,0,0,1-.148-.14.736.736,0,0,1-.3.547,4.357,4.357,0,0,0-1.183,5.158l.037.034.038-.027" transform="translate(-103.606 -19.825)" fill="#3a69fe"/>
        <path id="Trazado_267270" data-name="Trazado 267270" d="M145.824,24.732c.219.14.461.014.682-.085a4.159,4.159,0,0,1,3.329-.089,1.18,1.18,0,0,0,.631.081.3.3,0,0,1,.03-.1,4.744,4.744,0,0,0-4.472.072.307.307,0,0,1-.195.008l0,.009a.807.807,0,0,1-.008.108" transform="translate(-109.686 -18.061)" fill="#3a69fe"/>
        <path id="Trazado_267271" data-name="Trazado 267271" d="M145.374,26.5a.807.807,0,0,0,.008-.108l0-.009c-.052-.009-.1-.02-.152-.023h0a.535.535,0,0,0,.148.139" transform="translate(-109.236 -19.825)" fill="#3a69fe"/>
        <path id="Trazado_267272" data-name="Trazado 267272" d="M164.549,26.328a.352.352,0,0,0,.156.3,5.8,5.8,0,0,1,1.778,2.426.259.259,0,0,0,.247.167c.01-.017.019-.034.031-.051a5.682,5.682,0,0,0-2.141-2.908c-.022.023-.043.047-.066.069h0" transform="translate(-123.77 -19.751)" fill="#3a69fe"/>
        <path id="Trazado_267273" data-name="Trazado 267273" d="M173.4,38.047h0c-.005-.018-.013-.035-.018-.053-.011.017-.021.034-.031.051a.352.352,0,0,0,.049,0" transform="translate(-130.394 -28.578)" fill="#3a69fe"/>
        <path id="Trazado_267274" data-name="Trazado 267274" d="M164.558,26.23c.023-.023.043-.047.066-.069l-.041-.032a.3.3,0,0,0-.03.1h0" transform="translate(-123.774 -19.653)" fill="#3a69fe"/>
        <path id="Trazado_267275" data-name="Trazado 267275" d="M139.362,49.512l-.013.009a5.67,5.67,0,0,0,2.162,2.2l.011-.016a17.462,17.462,0,0,0-2.16-2.2" transform="translate(-104.816 -37.242)" fill="#3a69fe"/>
        <path id="Trazado_267276" data-name="Trazado 267276" d="M148.075,58.393l.047.03-.036-.046-.011.016" transform="translate(-111.379 -43.91)" fill="#3a69fe"/>
        <path id="Trazado_267277" data-name="Trazado 267277" d="M139.289,49.41l-.037-.034c.007.015.016.028.024.043l.013-.009" transform="translate(-104.743 -37.14)" fill="#3a69fe"/>
      </g>
    </g>
  </g>
</svg>
