<svg xmlns="http://www.w3.org/2000/svg" xmlns:xlink="http://www.w3.org/1999/xlink" width="136" height="136" viewBox="0 0 136 136">
  <defs>
    <clipPath id="clip-path">
      <rect id="Rectángulo_298928" data-name="Rectángulo 298928" width="86.141" height="86.114" fill="none"/>
    </clipPath>
  </defs>
  <g id="Grupo_882121" data-name="Grupo 882121" transform="translate(-1101.511 11184.895)">
    <g id="Elipse_4929" data-name="Elipse 4929" transform="translate(1101.511 -11184.895)" fill="#fff" stroke="#6b3fe5" stroke-width="1">
      <circle cx="68" cy="68" r="68" stroke="none"/>
      <circle cx="68" cy="68" r="67.5" fill="none"/>
    </g>
    <g id="Grupo_882100" data-name="Grupo 882100" transform="translate(1126.511 -11159.895)">
      <g id="Grupo_882099" data-name="Grupo 882099" clip-path="url(#clip-path)">
        <path id="Trazado_267049" data-name="Trazado 267049" d="M244.61,119.7l-.016.02.033,0-.017-.018" transform="translate(-189.611 -92.794)" fill="#524797"/>
        <path id="Trazado_267050" data-name="Trazado 267050" d="M168.97,28.8a29.4,29.4,0,0,0-7.489-17.2A30.773,30.773,0,0,0,142.4,1.384,30.812,30.812,0,0,0,111.384,16.66a32.466,32.466,0,0,0-3.83,11.227c-.076.472-.021.954-.132,1.421a6.171,6.171,0,0,0-.079,1.6,30.45,30.45,0,0,0,5.207,18.215,2.094,2.094,0,0,1,.408.817.76.76,0,0,1-.025.247c1.025,1.211,1.991,2.472,3.11,3.6A39.655,39.655,0,0,0,120,57.237a.853.853,0,0,1,.178-.026,4.633,4.633,0,0,1,1.454.816A30.133,30.133,0,0,0,135.163,62.7a29.791,29.791,0,0,0,20.07-4.942,30.378,30.378,0,0,0,13.545-21.078,12.653,12.653,0,0,0,.2-1.583c.009-.247-.059-.6.372-.623V29.424c-.433-.02-.35-.374-.374-.622M155.92,51.132A25.176,25.176,0,0,1,141,57.873a25.661,25.661,0,0,1-21.175-7.427.87.87,0,0,1-.1-.136h0a23.24,23.24,0,0,1-5.223-7.408,25.3,25.3,0,0,1-2.206-7.894,26.155,26.155,0,0,1,17.934-27.9,27.259,27.259,0,0,1,5.889-1.1,25.462,25.462,0,0,1,12,1.867,24.136,24.136,0,0,1,7.829,5.042c.2.194.412.375.619.562a22.826,22.826,0,0,1,5.28,7.378,26.064,26.064,0,0,1-5.939,30.27" transform="translate(-83.203 -0.835)" fill="#524797"/>
        <path id="Trazado_267051" data-name="Trazado 267051" d="M244.61,157.037l.021-.016-.035,0,.015.018" transform="translate(-189.612 -121.722)" fill="#524797"/>
        <path id="Trazado_267052" data-name="Trazado 267052" d="M167.128,21.65a29.713,29.713,0,0,0-8.808-13.52,36.264,36.264,0,0,0-6.166-4.387A31.452,31.452,0,0,0,140.586.182a31.1,31.1,0,0,0-23.711,7.65A30.465,30.465,0,0,0,106.5,28.407a3.8,3.8,0,0,1-.127,1.724h0a28.877,28.877,0,0,0,.181,4.921,32.747,32.747,0,0,0,3.058,9.992c.731,1.46,1.685,2.782,2.474,4.2l.087.1a.756.756,0,0,0,.025-.247,2.094,2.094,0,0,0-.408-.817,30.451,30.451,0,0,1-5.207-18.215,6.171,6.171,0,0,1,.08-1.6c.11-.468.055-.949.131-1.421a32.466,32.466,0,0,1,3.83-11.227A30.813,30.813,0,0,1,141.637.549a30.773,30.773,0,0,1,19.08,10.219,29.4,29.4,0,0,1,7.489,17.2c.024.248-.059.6.374.622a.966.966,0,0,1-.159-.637,26.928,26.928,0,0,0-1.292-6.3" transform="translate(-82.439 0)" fill="#524797"/>
        <path id="Trazado_267053" data-name="Trazado 267053" d="M212.65,150.251a12.655,12.655,0,0,1-.2,1.583,30.379,30.379,0,0,1-13.545,21.078,29.793,29.793,0,0,1-20.07,4.942,30.136,30.136,0,0,1-13.535-4.669,4.633,4.633,0,0,0-1.454-.816.839.839,0,0,0-.178.026l.1.08c.166.1.336.2.5.3,8.474,5.6,17.639,7.088,27.263,3.887,10.955-3.644,17.81-11.322,20.7-22.519.385-1.488.46-3.023.785-4.517-.43.022-.363.376-.372.623" transform="translate(-126.88 -115.993)" fill="#524797"/>
        <path id="Trazado_267054" data-name="Trazado 267054" d="M18.734,296.811a8.3,8.3,0,0,0,4.006-2.337q7.216-7.205,14.423-14.418a4.228,4.228,0,0,0,.91-1.193,2.127,2.127,0,0,0-.244-2.362,1.345,1.345,0,0,1-.376-.642.758.758,0,0,1,.017-.109l-3.592-3.46c-.231.2-.474.389-.69.6Q22.8,283.274,12.42,293.658a3.41,3.41,0,0,0-.89,1.164c.027.026.052.053.081.077a8.077,8.077,0,0,0,3.555,1.9c.212.048.539.011.519.394h2.523c-.015-.386.312-.334.526-.384" transform="translate(-8.938 -211.081)" fill="#524797"/>
        <path id="Trazado_267055" data-name="Trazado 267055" d="M14.967,374.5a8.077,8.077,0,0,1-3.555-1.9c-.029-.024-.054-.051-.081-.077a1.64,1.64,0,0,0-.058.18h0c.183.168.362.342.551.5a9.885,9.885,0,0,0,3.662,1.689c.02-.382-.307-.345-.519-.394" transform="translate(-8.739 -288.784)" fill="#524797"/>
        <path id="Trazado_267056" data-name="Trazado 267056" d="M47.172,305.3c4.373-4.451,8.812-8.837,13.223-13.25,1.512-1.512,1.56-2.655.186-4.292l-.083-.079a.748.748,0,0,0-.017.109,1.345,1.345,0,0,0,.376.642A2.127,2.127,0,0,1,61.1,290.8a4.228,4.228,0,0,1-.909,1.193Q52.98,299.2,45.769,306.407a8.3,8.3,0,0,1-4.006,2.337c-.214.05-.541,0-.526.384,2.475-.5,4.229-2.087,5.935-3.824" transform="translate(-31.966 -223.014)" fill="#524797"/>
        <path id="Trazado_267057" data-name="Trazado 267057" d="M22.208,253.524a.7.7,0,0,1-.083.011.927.927,0,0,1-.385-.155c-1.6-.984-2.47-.884-3.857.5q-5.949,5.928-11.876,11.879a42.089,42.089,0,0,0-3.257,3.387,7.682,7.682,0,0,0,.034,9.829c.148.185.285.379.444.554a1.518,1.518,0,0,1,.245-.444,4.422,4.422,0,0,1,.715-.821q10.271-10.271,20.544-20.539c.272-.272.5-.611.928-.685l.026,0c0-.022-.011-.043-.015-.064-1.206-1.1-2.352-2.257-3.462-3.45" transform="translate(-0.767 -195.916)" fill="#5e59cd"/>
        <path id="Trazado_267058" data-name="Trazado 267058" d="M2.461,278.7c-.159-.175-.3-.37-.444-.554a7.682,7.682,0,0,1-.034-9.829,42.1,42.1,0,0,1,3.257-3.387q5.923-5.954,11.876-11.879c1.387-1.382,2.257-1.482,3.857-.5a.925.925,0,0,0,.385.155.7.7,0,0,0,.083-.011l-.076-.08c-1.533-1.25-2.765-1.284-4-.049-4.995,4.98-10,9.948-14.956,14.967a7.9,7.9,0,0,0,.129,11.474.4.4,0,0,1-.073-.31" transform="translate(0 -195.088)" fill="#5e59cd"/>
        <path id="Trazado_267059" data-name="Trazado 267059" d="M33.406,271.9l-.026,0c-.423.074-.655.413-.928.685q-10.276,10.266-20.545,20.539a4.436,4.436,0,0,0-.714.821,1.521,1.521,0,0,0-.245.444c.041.046.086.088.131.131a3.41,3.41,0,0,1,.89-1.164q10.383-10.383,20.768-20.763c.216-.216.459-.4.69-.6-.009-.028-.014-.057-.02-.086" transform="translate(-8.487 -210.777)" fill="#5e59cd"/>
        <path id="Trazado_267060" data-name="Trazado 267060" d="M10.924,371.945a.4.4,0,0,0,.073.31h0a1.684,1.684,0,0,1,.058-.18c-.045-.042-.089-.085-.131-.131" transform="translate(-8.463 -288.334)" fill="#5e59cd"/>
        <path id="Trazado_267061" data-name="Trazado 267061" d="M96.982,229.281a24.574,24.574,0,0,1,2.145,2.214c0,.009,0,.018,0,.027q2.363-2.319,4.726-4.64c.894-.883,1.779-1.775,2.666-2.665a1.721,1.721,0,0,0,.447-.542c-.026-.026-.051-.053-.077-.078a33.338,33.338,0,0,1-2.664-3.02,1.946,1.946,0,0,1-.354-.617,1.88,1.88,0,0,1-.457.578q-3.554,3.566-7.121,7.121a1.456,1.456,0,0,1-.611.45,5.191,5.191,0,0,1,1.3,1.172" transform="translate(-74.177 -170.514)" fill="#f6f4f2"/>
        <path id="Trazado_267062" data-name="Trazado 267062" d="M95.8,226.982q3.566-3.555,7.121-7.121a1.87,1.87,0,0,0,.457-.578,1.731,1.731,0,0,1-.056-.2,46.78,46.78,0,0,1-3.27,3.351c-1.661,1.651-3.247,3.378-5.007,4.928.051.019.1.043.144.066a1.456,1.456,0,0,0,.611-.45" transform="translate(-73.68 -169.838)" fill="#f6f4f2"/>
        <path id="Trazado_267063" data-name="Trazado 267063" d="M132.469,220.257a33.335,33.335,0,0,0,2.664,3.02c.026.025.051.052.077.078a.654.654,0,0,0,.046-.206c-1.119-1.13-2.085-2.391-3.11-3.6a.779.779,0,0,1-.031.093,1.948,1.948,0,0,0,.354.617" transform="translate(-102.416 -170.194)" fill="#f6f4f2"/>
        <path id="Trazado_267064" data-name="Trazado 267064" d="M131.954,219.191l-.087-.1a1.683,1.683,0,0,0,.056.2.792.792,0,0,0,.031-.093" transform="translate(-102.224 -169.839)" fill="#f6f4f2"/>
        <path id="Trazado_267065" data-name="Trazado 267065" d="M98.844,259.673l.051-.05c0-.009,0-.018,0-.027a24.574,24.574,0,0,0-2.145-2.215,5.19,5.19,0,0,0-1.3-1.172c-.022.006-.045.01-.069.014,1.111,1.193,2.257,2.352,3.462,3.45" transform="translate(-73.941 -198.615)" fill="#f6f4f2"/>
        <path id="Trazado_267066" data-name="Trazado 267066" d="M95.189,255.98c-.047-.023-.094-.047-.144-.066l.076.08c.023,0,.047-.008.069-.014" transform="translate(-73.68 -198.386)" fill="#f6f4f2"/>
        <path id="Trazado_267067" data-name="Trazado 267067" d="M118.976,236.957a1.089,1.089,0,0,1-.389.551q-3.437,3.461-6.9,6.9c-.177.176-.345.413-.647.356a.287.287,0,0,1,0,.056.4.4,0,0,1,.244.094,28.09,28.09,0,0,1,3.33,3.426,1.688,1.688,0,0,1,.567-.746q3.449-3.461,6.91-6.91a1.976,1.976,0,0,1,.723-.57A12.765,12.765,0,0,1,120.05,238a11.153,11.153,0,0,1-1.074-1.043" transform="translate(-86.079 -183.691)" fill="#eae5e0"/>
        <path id="Trazado_267068" data-name="Trazado 267068" d="M134.418,251.556q-3.461,3.449-6.91,6.91a1.69,1.69,0,0,0-.567.746c.026.035.053.068.079.1,1.7-1.727,3.389-3.467,5.107-5.178,1.046-1.041,2.027-2.15,3.172-3.088-.053-.019-.105-.041-.157-.063a1.98,1.98,0,0,0-.723.57" transform="translate(-98.405 -194.566)" fill="#eae5e0"/>
        <path id="Trazado_267069" data-name="Trazado 267069" d="M146.146,235.882a11.152,11.152,0,0,0,1.074,1.043,12.765,12.765,0,0,0,2.765,2.111c.019-.006.037-.013.056-.018a39.6,39.6,0,0,1-3.953-3.448.523.523,0,0,1,.058.312" transform="translate(-113.248 -182.615)" fill="#eae5e0"/>
        <path id="Trazado_267070" data-name="Trazado 267070" d="M163.422,250.925c.052.022.1.043.157.063l-.1-.08c-.019,0-.038.012-.056.018" transform="translate(-126.686 -194.505)" fill="#eae5e0"/>
        <path id="Trazado_267071" data-name="Trazado 267071" d="M111.21,272.013a.4.4,0,0,0-.244-.094.3.3,0,0,1-.022.083l3.592,3.46c0-.008,0-.016,0-.024a28.106,28.106,0,0,0-3.33-3.426" transform="translate(-86.005 -210.793)" fill="#eae5e0"/>
        <path id="Trazado_267072" data-name="Trazado 267072" d="M126.928,287.577c0,.008,0,.016,0,.024l.082.08c-.025-.035-.053-.068-.079-.1" transform="translate(-98.392 -222.932)" fill="#eae5e0"/>
        <path id="Trazado_267073" data-name="Trazado 267073" d="M110.846,271.632a.489.489,0,0,1-.061-.012c0,.022.01.043.015.064l.042,0a.27.27,0,0,0,0-.056" transform="translate(-85.881 -210.562)" fill="#eae5e0"/>
        <path id="Trazado_267074" data-name="Trazado 267074" d="M110.9,271.909l-.042,0c.007.029.012.058.02.086a.3.3,0,0,0,.022-.083" transform="translate(-85.934 -210.783)" fill="#eae5e0"/>
        <path id="Trazado_267075" data-name="Trazado 267075" d="M118.4,237.029c-.887.89-1.771,1.783-2.666,2.665q-2.358,2.325-4.726,4.64a.3.3,0,0,1,.01.062c.3.057.469-.179.646-.355q3.459-3.439,6.9-6.9a1.089,1.089,0,0,0,.389-.551l-.1-.105a1.719,1.719,0,0,1-.447.542" transform="translate(-86.058 -183.326)" fill="#eae5e0"/>
        <path id="Trazado_267076" data-name="Trazado 267076" d="M145.883,235.776l.1.105a.524.524,0,0,0-.058-.312h0a.651.651,0,0,1-.046.206" transform="translate(-113.089 -182.615)" fill="#eae5e0"/>
        <path id="Trazado_267077" data-name="Trazado 267077" d="M110.785,271.446a.538.538,0,0,0,.061.012.3.3,0,0,0-.01-.062l-.051.05" transform="translate(-85.881 -210.388)" fill="#eae5e0"/>
        <path id="Trazado_267078" data-name="Trazado 267078" d="M199.354,56.268q-3.812,3.83-7.621,7.661c-.235.236-.445.5-.666.746a46.963,46.963,0,0,1,5.22,3.483,36.02,36.02,0,0,1,5.162,4.907,2.594,2.594,0,0,1-.005,3.328c-4.273,4.763-9.2,8.562-15.48,10.31a4.891,4.891,0,0,1-1.635.294,9.794,9.794,0,0,1-3.324.321,13.843,13.843,0,0,1-3.884-.406h0a25.343,25.343,0,0,1-6.024-2.113h0c-.4.047-.607.377-.859.627q-3.868,3.829-7.726,7.668h0a.856.856,0,0,0,.1.136,25.661,25.661,0,0,0,21.175,7.427,25.176,25.176,0,0,0,14.915-6.742,26.064,26.064,0,0,0,5.939-30.27,22.826,22.826,0,0,0-5.28-7.378" transform="translate(-125.978 -43.619)" fill="#feb354"/>
        <path id="Trazado_267079" data-name="Trazado 267079" d="M136.69,66.3q3.609-3.617,7.225-7.225a1.665,1.665,0,0,1,.714-.5,38.975,38.975,0,0,1-9.844-7.776c-1.448-1.561-1.448-2.818.025-4.386a35.511,35.511,0,0,1,10.907-8.244,16.512,16.512,0,0,1,5.151-1.688,11.84,11.84,0,0,1,3.874-.452,10.883,10.883,0,0,1,3.326.324h0a15.757,15.757,0,0,1,4.907,1.414c.594.242,1.178.51,1.765.767.01-.349.272-.554.492-.774q3.547-3.56,7.1-7.108a1.351,1.351,0,0,1,.752-.5c-.207-.187-.419-.368-.619-.562a24.139,24.139,0,0,0-7.829-5.042,25.462,25.462,0,0,0-12-1.867,27.268,27.268,0,0,0-5.889,1.1,26.155,26.155,0,0,0-17.934,27.9,25.3,25.3,0,0,0,2.206,7.894,23.243,23.243,0,0,0,5.223,7.408h0c.019-.312.252-.488.446-.682" transform="translate(-99.713 -17.507)" fill="#fee178"/>
        <path id="Trazado_267080" data-name="Trazado 267080" d="M171.095,182.807c-.067-.036-.134-.075-.2-.111a1.667,1.667,0,0,0-.714.5q-3.618,3.607-7.225,7.225c-.194.194-.427.37-.446.682q3.862-3.836,7.726-7.668c.252-.25.455-.58.859-.627" transform="translate(-125.978 -141.626)" fill="#fee178"/>
        <path id="Trazado_267081" data-name="Trazado 267081" d="M296.871,56.767q-3.555,3.552-7.1,7.108c-.219.22-.482.425-.492.774l.061.027h0c.221-.25.431-.51.666-.746q3.808-3.834,7.621-7.662a1.351,1.351,0,0,0-.752.5" transform="translate(-224.248 -43.619)" fill="#fee178"/>
        <path id="Trazado_267082" data-name="Trazado 267082" d="M257.088,98.1a12.31,12.31,0,0,0-1.689-9.087,12.545,12.545,0,0,0-6.607-5.275c-.28-.048-.561-.089-.848-.114a15.4,15.4,0,0,0-3.237-.319h-.017q-.007,4.078-.014,8.155a4.223,4.223,0,0,1,0,8.445l.018-.036h-.013c-.007.006-.014.01-.02.016l.016.02q.006,4.078.012,8.155a15.94,15.94,0,0,0,3.166-.284q.45-.044.891-.12a14.439,14.439,0,0,0,4.335-2.562,12.391,12.391,0,0,0,4.009-7" transform="translate(-189.662 -64.573)" fill="#7dd4f3"/>
        <path id="Trazado_267083" data-name="Trazado 267083" d="M244.682,119.657h.015l-.017-.036-.015.018.017.018" transform="translate(-189.666 -92.73)" fill="#7dd4f3"/>
        <path id="Trazado_267084" data-name="Trazado 267084" d="M247.95,191.791a15.94,15.94,0,0,1-3.166.284c0,.07,0,.139,0,.209a9.793,9.793,0,0,0,3.324-.321q.369-.143.732-.292-.441.075-.891.12" transform="translate(-189.758 -148.585)" fill="#7dd4f3"/>
        <path id="Trazado_267085" data-name="Trazado 267085" d="M244.811,82.495a15.385,15.385,0,0,1,3.237.319c.287.025.568.066.848.114l-.01,0c-.259-.093-.51-.21-.765-.316h0a10.889,10.889,0,0,0-3.326-.324v.211h.017" transform="translate(-189.766 -63.76)" fill="#7dd4f3"/>
        <path id="Trazado_267086" data-name="Trazado 267086" d="M201.008,100.534a1.459,1.459,0,0,1,.074-.41.586.586,0,0,1,.149-.234l-.014-.018a4.184,4.184,0,0,1,0-8.369l.016-.02a.593.593,0,0,1-.138-.207,17.985,17.985,0,0,1-.1-3.242c-.024-1.278-.012-2.556,0-3.835a1.932,1.932,0,0,1,.124-.894,18.53,18.53,0,0,0-3.563.4c-.2.031-.406.067-.607.107-.61.313-1.29.483-1.872.851a12.73,12.73,0,0,0-6.164,8.468,12.211,12.211,0,0,0,3.028,10.993,13.134,13.134,0,0,0,4.938,3.411c.2.042.4.08.6.11a18.179,18.179,0,0,0,3.629.42A1.267,1.267,0,0,1,201,107.5c-.016-2.322-.031-4.644.008-6.966" transform="translate(-146.233 -64.575)" fill="#bbe9f8"/>
        <path id="Trazado_267087" data-name="Trazado 267087" d="M225.883,191.232c-.2-.03-.4-.068-.6-.11.042.017.082.036.124.053.153.061.337.067.377.277h0a13.86,13.86,0,0,0,3.884.406.744.744,0,0,1-.152-.207,18.18,18.18,0,0,1-3.629-.42" transform="translate(-174.638 -148.159)" fill="#bbe9f8"/>
        <path id="Trazado_267088" data-name="Trazado 267088" d="M226.2,82.921a18.548,18.548,0,0,1,3.563-.4.853.853,0,0,1,.147-.207,11.84,11.84,0,0,0-3.874.452,3.379,3.379,0,0,1-.443.265c.2-.039.4-.076.607-.107" transform="translate(-174.881 -63.787)" fill="#bbe9f8"/>
        <path id="Trazado_267089" data-name="Trazado 267089" d="M243.805,157.1a.588.588,0,0,0-.149.234,1.452,1.452,0,0,0-.074.41c-.04,2.322-.023,4.644-.008,6.966a1.264,1.264,0,0,0,.108.567c.045,0,.09,0,.135,0h.016q-.006-4.078-.012-8.155l-.016-.02" transform="translate(-188.807 -121.785)" fill="#bbe9f8"/>
        <path id="Trazado_267090" data-name="Trazado 267090" d="M243.519,88.051a17.984,17.984,0,0,0,.1,3.242.6.6,0,0,0,.138.207l.015-.019q.007-4.078.014-8.155c-.049,0-.1,0-.146,0a1.934,1.934,0,0,0-.124.894c-.011,1.278-.022,2.557,0,3.834" transform="translate(-188.76 -64.592)" fill="#bbe9f8"/>
        <path id="Trazado_267091" data-name="Trazado 267091" d="M244.246,193.466c-.045,0-.09,0-.135,0a.746.746,0,0,0,.152.207c0-.07,0-.14,0-.209h-.016" transform="translate(-189.236 -149.976)" fill="#bbe9f8"/>
        <path id="Trazado_267092" data-name="Trazado 267092" d="M244.289,82.615V82.4a.846.846,0,0,0-.147.207c.049,0,.1,0,.147,0" transform="translate(-189.261 -63.88)" fill="#bbe9f8"/>
        <path id="Trazado_267093" data-name="Trazado 267093" d="M270.635,87.374a22.337,22.337,0,0,0-3.273-1.182,12.775,12.775,0,0,1,4.076,20.744,10.961,10.961,0,0,1-3.958,2.723,22.539,22.539,0,0,0,4.544-1.809,37.356,37.356,0,0,0,9.058-6.725c.544-.528,1-1.13,1.488-1.706a2.351,2.351,0,0,0-.023-3.021,35.554,35.554,0,0,0-9.534-7.846c-.288-.165-.621-.278-.727-.647,0-.007,0-.013,0-.02-.634.119-1.123-.282-1.651-.51" transform="translate(-207.261 -66.817)" fill="#eae5e0"/>
        <path id="Trazado_267094" data-name="Trazado 267094" d="M266.247,93.683c0,.007,0,.013,0,.02.106.369.439.482.728.647a35.55,35.55,0,0,1,9.534,7.846,2.351,2.351,0,0,1,.023,3.021,22.58,22.58,0,0,1-1.488,1.706,37.362,37.362,0,0,1-9.058,6.725,22.526,22.526,0,0,1-4.544,1.809,10.2,10.2,0,0,1-1.869.537,4.88,4.88,0,0,0,1.635-.294c6.285-1.748,11.208-5.547,15.48-10.31a2.594,2.594,0,0,0,.005-3.328,36.044,36.044,0,0,0-5.162-4.907,46.975,46.975,0,0,0-5.22-3.482h0l-.062.012" transform="translate(-201.221 -72.614)" fill="#eae5e0"/>
        <path id="Trazado_267095" data-name="Trazado 267095" d="M264.614,85.555c.528.228,1.017.63,1.651.51,0-.013,0-.026,0-.039-.588-.258-1.171-.526-1.765-.767a15.759,15.759,0,0,0-4.907-1.414h0a10.242,10.242,0,0,1,1.746.528,22.338,22.338,0,0,1,3.273,1.182" transform="translate(-201.24 -64.997)" fill="#eae5e0"/>
        <path id="Trazado_267096" data-name="Trazado 267096" d="M289.269,93.551c0,.013,0,.025,0,.039l.062-.012h0l-.061-.027" transform="translate(-224.242 -72.521)" fill="#eae5e0"/>
        <path id="Trazado_267097" data-name="Trazado 267097" d="M267.923,106.22a12.775,12.775,0,0,0-4.075-20.744q-.48-.123-.971-.208a12.545,12.545,0,0,1,6.607,5.275,12.547,12.547,0,0,1-2.32,16.082,14.445,14.445,0,0,1-4.335,2.562c.384-.065.763-.148,1.137-.244a10.951,10.951,0,0,0,3.958-2.723" transform="translate(-203.747 -66.1)" fill="#eae5e0"/>
        <path id="Trazado_267098" data-name="Trazado 267098" d="M260.3,190.829q-.364.149-.732.292a10.2,10.2,0,0,0,1.869-.537c-.374.1-.753.179-1.137.244" transform="translate(-201.221 -147.743)" fill="#eae5e0"/>
        <path id="Trazado_267099" data-name="Trazado 267099" d="M260.371,84.166q.491.084.971.208a10.245,10.245,0,0,0-1.746-.528c.255.106.506.223.765.316l.01,0" transform="translate(-201.241 -64.998)" fill="#eae5e0"/>
        <path id="Trazado_267100" data-name="Trazado 267100" d="M162.873,90.557a11.926,11.926,0,0,1,4.633-3.734,25.1,25.1,0,0,0-5.324,2.3,37.391,37.391,0,0,0-9.139,7.43,2.443,2.443,0,0,0-.013,3.725,38.756,38.756,0,0,0,9.42,7.617c.221.123.512.187.606.457a.87.87,0,0,1,.116,0c.959.282,1.835.771,2.771,1.113.469.171.939.335,1.413.482-.081-.036-.161-.074-.238-.116a12.776,12.776,0,0,1-4.243-19.268" transform="translate(-117.966 -67.306)" fill="#f6f4f2"/>
        <path id="Trazado_267101" data-name="Trazado 267101" d="M203.463,183.683c-.936-.341-1.811-.831-2.771-1.113a.913.913,0,0,0-.117,0,.546.546,0,0,1,.029.137h0a25.357,25.357,0,0,0,6.024,2.113c-.556-.292-1.184-.406-1.752-.657-.475-.146-.944-.311-1.413-.482" transform="translate(-155.488 -141.529)" fill="#f6f4f2"/>
        <path id="Trazado_267102" data-name="Trazado 267102" d="M161.694,106.023a38.761,38.761,0,0,1-9.42-7.617,2.444,2.444,0,0,1,.013-3.725,37.4,37.4,0,0,1,9.139-7.43,25.1,25.1,0,0,1,5.324-2.3,10.014,10.014,0,0,1,1.615-.542,16.519,16.519,0,0,0-5.151,1.688,35.511,35.511,0,0,0-10.907,8.244c-1.473,1.568-1.473,2.825-.025,4.386a38.97,38.97,0,0,0,9.844,7.776.868.868,0,0,1,.173-.025c-.094-.27-.385-.334-.606-.457" transform="translate(-117.212 -65.437)" fill="#f6f4f2"/>
        <path id="Trazado_267103" data-name="Trazado 267103" d="M199.981,182.582a.868.868,0,0,0-.173.025c.067.037.134.075.2.111h0a.554.554,0,0,0-.029-.137" transform="translate(-154.893 -141.539)" fill="#f6f4f2"/>
        <path id="Trazado_267104" data-name="Trazado 267104" d="M191.119,105.9a12.21,12.21,0,0,1-3.028-10.993,12.729,12.729,0,0,1,6.164-8.468c.582-.368,1.262-.538,1.872-.851q-.594.116-1.172.277a11.929,11.929,0,0,0-4.633,3.734,12.776,12.776,0,0,0,4.243,19.268c.078.042.158.081.238.116.412.127.829.239,1.253.327a13.133,13.133,0,0,1-4.938-3.411" transform="translate(-145.415 -66.352)" fill="#f6f4f2"/>
        <path id="Trazado_267105" data-name="Trazado 267105" d="M221.082,190.048c-.042-.017-.082-.036-.124-.053-.423-.088-.84-.2-1.253-.327.569.251,1.2.365,1.752.657h0c-.04-.211-.224-.216-.377-.277" transform="translate(-170.318 -147.032)" fill="#f6f4f2"/>
        <path id="Trazado_267106" data-name="Trazado 267106" d="M221.55,84.678a3.379,3.379,0,0,0,.443-.265,9.964,9.964,0,0,0-1.615.542q.578-.16,1.172-.277" transform="translate(-170.839 -65.438)" fill="#f6f4f2"/>
        <path id="Trazado_267107" data-name="Trazado 267107" d="M245.442,127.964a4.014,4.014,0,0,0,.034-7.909,1.565,1.565,0,0,1-.667-.223v8.351a1.541,1.541,0,0,1,.633-.219" transform="translate(-189.778 -92.895)" fill="#524797"/>
        <path id="Trazado_267108" data-name="Trazado 267108" d="M244.749,119.668a1.561,1.561,0,0,0,.667.223,4.014,4.014,0,0,1-.034,7.908,1.538,1.538,0,0,0-.633.219v.011l-.018.036a4.223,4.223,0,0,0,0-8.445l.018.036Z" transform="translate(-189.717 -92.73)" fill="#524797"/>
        <path id="Trazado_267109" data-name="Trazado 267109" d="M230.742,127.138q-.014-3.17,0-6.339a1.341,1.341,0,0,1,.27-1.01l-.009-.007-.033,0-.048.059a6.8,6.8,0,0,1-1.117.346,3.956,3.956,0,0,0,0,7.558,6.825,6.825,0,0,1,1.118.346l.047.06.035,0,.007-.006a1.34,1.34,0,0,1-.27-1.011" transform="translate(-175.987 -92.857)" fill="#5e59cd"/>
        <path id="Trazado_267110" data-name="Trazado 267110" d="M244.757,119.779h-.015l.009.007.006-.007" transform="translate(-189.726 -92.853)" fill="#5e59cd"/>
        <path id="Trazado_267111" data-name="Trazado 267111" d="M244.759,157l-.007.006h.013l-.005-.007" transform="translate(-189.733 -121.707)" fill="#5e59cd"/>
        <path id="Trazado_267112" data-name="Trazado 267112" d="M229.066,127.753a3.956,3.956,0,0,1,0-7.558,6.81,6.81,0,0,0,1.117-.346l.048-.059a4.184,4.184,0,0,0,0,8.369l-.047-.06a6.8,6.8,0,0,0-1.118-.346" transform="translate(-175.249 -92.862)" fill="#5e59cd"/>
        <path id="Trazado_267113" data-name="Trazado 267113" d="M243.558,120.822q-.014,3.17,0,6.339a1.34,1.34,0,0,0,.27,1.011l.006,0q0-4.175,0-8.351l-.006,0a1.341,1.341,0,0,0-.27,1.01" transform="translate(-188.802 -92.879)" fill="#5e59cd"/>
        <path id="Trazado_267114" data-name="Trazado 267114" d="M244.788,119.792v-.012l-.006.007.006,0" transform="translate(-189.757 -92.854)" fill="#5e59cd"/>
        <path id="Trazado_267115" data-name="Trazado 267115" d="M244.79,156.981l-.005,0,.005.007Z" transform="translate(-189.759 -121.693)" fill="#5e59cd"/>
      </g>
    </g>
  </g>
</svg>
