<svg xmlns="http://www.w3.org/2000/svg" xmlns:xlink="http://www.w3.org/1999/xlink" width="136" height="136" viewBox="0 0 136 136">
  <defs>
    <clipPath id="clip-path">
      <rect id="Rectángulo_298930" data-name="Rectángulo 298930" width="86.199" height="86.115" fill="none"/>
    </clipPath>
  </defs>
  <g id="Grupo_882122" data-name="Grupo 882122" transform="translate(-1378.783 11184.895)">
    <g id="Elipse_4928" data-name="Elipse 4928" transform="translate(1378.783 -11184.895)" fill="#fff" stroke="#6b3fe5" stroke-width="1">
      <circle cx="68" cy="68" r="68" stroke="none"/>
      <circle cx="68" cy="68" r="67.5" fill="none"/>
    </g>
    <g id="Grupo_882104" data-name="Grupo 882104" transform="translate(1402.783 -11159.895)">
      <g id="Grupo_882103" data-name="Grupo 882103" clip-path="url(#clip-path)">
        <path id="Trazado_267278" data-name="Trazado 267278" d="M86.14,82.14a4.67,4.67,0,0,1-4,3.975q-39.034-.056-78.067,0a4.67,4.67,0,0,1-4-3.975Q.129,47.023.1,11.907A77.805,77.805,0,0,1,.113,3.736,4.232,4.232,0,0,1,3.768.068a10.858,10.858,0,0,1,1.3-.055Q43.107.01,81.143,0a4.821,4.821,0,0,1,3.918,1.491,3.659,3.659,0,0,1,1.051,2.244c.112,2.723.12,5.448,0,8.172q0,35.117.027,70.233" transform="translate(0 0)" fill="#fefefe"/>
        <path id="Trazado_267279" data-name="Trazado 267279" d="M78.09,51.114H1.305c-.319,0-.638.008-.957.012q0,35.116-.027,70.232a4.67,4.67,0,0,0,4,3.975q39.034-.056,78.067,0a4.67,4.67,0,0,0,4-3.975q-.055-35.116-.027-70.233-4.135-.006-8.27-.012M49.265,87.78q5.439,5.45,10.877,10.9a1.1,1.1,0,0,0,1.282.342,10.435,10.435,0,0,1,12.932,8.007,13.784,13.784,0,0,1,.17,2.328,1.306,1.306,0,0,1-.848,1.379,1.514,1.514,0,0,1-1.759-.287c-1.235-1.266-2.493-2.51-3.748-3.757-1.684-1.674-3.387-1.675-5.068.02a14.888,14.888,0,0,0-1.9,2.021,2.975,2.975,0,0,0,.332,4.013c1.26,1.283,2.525,2.56,3.818,3.81a1.713,1.713,0,0,1,.542,1.953c-.29.787-.96.869-1.706.894a10.264,10.264,0,0,1-10.237-8.587,11.068,11.068,0,0,1,.259-4.711.749.749,0,0,0-.173-.854q-4.635-4.59-9.258-9.191c-.734.741-1.474,1.477-2.2,2.226a1.766,1.766,0,0,1-2.066.415,3.234,3.234,0,0,0-3.694.69,3.186,3.186,0,0,0-.686,3.687,1.864,1.864,0,0,1-.525,2.2c-4.07,4.05-8.114,8.126-12.191,12.169a6.621,6.621,0,0,1-9.252.2,6.818,6.818,0,0,1-.223-9.44c4.1-4.22,8.3-8.346,12.461-12.515a1.865,1.865,0,0,1,2.166-.307,3.269,3.269,0,0,0,4.465-2.549,3.331,3.331,0,0,0-.283-1.948,1.661,1.661,0,0,1,.428-1.977c.735-.739,1.46-1.489,2.189-2.234C34.2,85.3,32.857,84.107,31.6,82.827c-1.667-1.7-3.373-3.355-5.032-5.059a1.083,1.083,0,0,0-1.2-.347,10.171,10.171,0,0,1-9.045-1.686,9.933,9.933,0,0,1-4.127-8.805,1.446,1.446,0,0,1,1.059-1.252,1.373,1.373,0,0,1,1.586.379c1.271,1.272,2.6,2.49,3.8,3.828a3.221,3.221,0,0,0,4.88-.024,17.338,17.338,0,0,1,1.526-1.548,3.011,3.011,0,0,0,.115-4.607A37.021,37.021,0,0,0,21.8,60.429a4.441,4.441,0,0,1-.95-1.119A1.575,1.575,0,0,1,22.3,57.057a9.7,9.7,0,0,1,6.539,2.129,10.076,10.076,0,0,1,3.723,10.959,1.251,1.251,0,0,0,.4,1.352q5.406,5.362,10.78,10.757c.238.237.422.575.833.567.213-.236.417-.481.641-.705C50.522,76.8,55.816,71.475,61.159,66.2a5.281,5.281,0,0,0,1.67-2.942,3.009,3.009,0,0,1,1.4-2.076c1.808-1.247,3.586-2.539,5.38-3.807a1.4,1.4,0,0,1,1.907.066c.817.736,1.631,1.48,2.4,2.267a1.6,1.6,0,0,1,.194,2.4c-1.339,1.921-2.7,3.827-4.048,5.742a3.059,3.059,0,0,1-2.053,1.014,4.817,4.817,0,0,0-2.434,1.378q-8.026,8.091-16.105,16.129c-.225.224-.468.429-.7.643-.025.381.283.553.5.771" transform="translate(-0.246 -39.219)" fill="#e0eefe"/>
        <path id="Trazado_267280" data-name="Trazado 267280" d="M1.867,11.627q41.241,0,82.482.006a2.607,2.607,0,0,1,1.765.273c.118-2.724.111-5.449,0-8.172A3.658,3.658,0,0,0,85.061,1.49,4.82,4.82,0,0,0,81.143,0Q43.107.023,5.071.012a10.856,10.856,0,0,0-1.3.055A4.231,4.231,0,0,0,.114,3.735,77.81,77.81,0,0,0,.1,11.906,1.312,1.312,0,0,1,1,11.635c.29-.012.58-.008.87-.008M71.294,4.45c3.01-.048,6.022-.037,9.033-.009A1.565,1.565,0,0,1,81.76,5.927a1.617,1.617,0,0,1-1.534,1.456c-1.477.01-2.953,0-4.43,0-1.448,0-2.9.009-4.343,0a1.355,1.355,0,0,1-1.53-1.389A1.311,1.311,0,0,1,71.294,4.45m-50.623.013a9.438,9.438,0,0,1,1.648-.013,1.484,1.484,0,0,1,1.46,1.522A1.454,1.454,0,0,1,22.246,7.4c-.231.01-.463,0-.695,0v0c-.26,0-.522.016-.781,0a1.407,1.407,0,0,1-1.4-1.372,1.427,1.427,0,0,1,1.3-1.563M13.3,4.457a9.527,9.527,0,0,1,1.648,0A1.438,1.438,0,0,1,16.328,6.03,1.416,1.416,0,0,1,14.836,7.4c-.231.012-.463,0-.695,0v0c-.26,0-.522.015-.781,0A1.422,1.422,0,0,1,11.93,5.965,1.447,1.447,0,0,1,13.3,4.457M6.689,4.438a7.459,7.459,0,0,1,.869.013A1.539,1.539,0,0,1,8.937,5.984,1.509,1.509,0,0,1,7.456,7.4c-.26.016-.522,0-.783,0-1.495,0-2.206-.475-2.2-1.478s.735-1.486,2.216-1.485" transform="translate(0 0.001)" fill="#3778c5"/>
        <path id="Trazado_267281" data-name="Trazado 267281" d="M78.179,50.175q4.135,0,8.27.012a2.605,2.605,0,0,0-1.765-.273Q43.443,49.9,2.2,49.907c-.29,0-.58,0-.87.008a1.311,1.311,0,0,0-.895.271c.319,0,.638-.012.957-.012H78.179" transform="translate(-0.335 -38.28)" fill="#3778c5"/>
        <path id="Trazado_267282" data-name="Trazado 267282" d="M87.216,106.2l-3.163-3.164c-.182-.182-.389-.35-.382-.644-.411.008-.6-.33-.833-.567q-5.391-5.378-10.78-10.757a1.252,1.252,0,0,1-.4-1.353A10.075,10.075,0,0,0,67.937,78.76,9.7,9.7,0,0,0,61.4,76.631a1.575,1.575,0,0,0-1.452,2.252A4.436,4.436,0,0,0,60.9,80a37.053,37.053,0,0,1,3.358,3.277,3.011,3.011,0,0,1-.115,4.607,17.337,17.337,0,0,0-1.525,1.548,3.221,3.221,0,0,1-4.88.024c-1.2-1.338-2.529-2.556-3.8-3.828a1.374,1.374,0,0,0-1.586-.379A1.446,1.446,0,0,0,51.288,86.5a9.935,9.935,0,0,0,4.128,8.805,10.171,10.171,0,0,0,9.045,1.686,1.083,1.083,0,0,1,1.2.348c1.659,1.7,3.365,3.362,5.033,5.059,1.259,1.281,2.6,2.478,3.765,3.852a6.709,6.709,0,0,1,1.332,1.233q4.051,4.063,8.081,8.148h0q4.627,4.6,9.258,9.191a.749.749,0,0,1,.173.854,11.067,11.067,0,0,0-.259,4.71,10.264,10.264,0,0,0,10.237,8.588c.746-.025,1.415-.107,1.706-.894a1.713,1.713,0,0,0-.542-1.953c-1.292-1.25-2.558-2.528-3.818-3.81a2.976,2.976,0,0,1-.332-4.013,14.888,14.888,0,0,1,1.9-2.021c1.682-1.7,3.385-1.694,5.068-.02,1.255,1.247,2.513,2.491,3.748,3.757a1.514,1.514,0,0,0,1.759.287,1.305,1.305,0,0,0,.847-1.379,13.784,13.784,0,0,0-.17-2.328,10.435,10.435,0,0,0-12.932-8.007,1.1,1.1,0,0,1-1.282-.342q-5.423-5.465-10.877-10.9c-.217-.218-.526-.39-.5-.771a.923.923,0,0,1-.646-.38" transform="translate(-39.345 -58.794)" fill="#afcbdc"/>
        <path id="Trazado_267283" data-name="Trazado 267283" d="M83.071,212.85q-4.11-4.1-8.213-8.21a1.621,1.621,0,0,1-.5-.695c-.729.745-1.454,1.494-2.189,2.234a1.66,1.66,0,0,0-.428,1.977,3.334,3.334,0,0,1,.284,1.948,3.27,3.27,0,0,1-4.465,2.549,1.864,1.864,0,0,0-2.166.307c-4.157,4.168-8.357,8.294-12.461,12.515a6.818,6.818,0,0,0,.224,9.44,6.62,6.62,0,0,0,9.252-.2c4.077-4.043,8.121-8.119,12.191-12.169a1.864,1.864,0,0,0,.525-2.2,3.186,3.186,0,0,1,.686-3.687,3.234,3.234,0,0,1,3.694-.689,1.766,1.766,0,0,0,2.066-.415c.727-.748,1.467-1.484,2.2-2.226h0a1.212,1.212,0,0,1-.7-.475m-14.584,8.5q-4.386,4.4-8.782,8.787a1.549,1.549,0,0,1-1.8.439,1.308,1.308,0,0,1-.814-1.293,1.534,1.534,0,0,1,.526-1.242q4.4-4.389,8.789-8.78a1.4,1.4,0,0,1,2.2-.091c.7.723.672,1.387-.119,2.18" transform="translate(-39.242 -156.485)" fill="#cc4c60"/>
        <path id="Trazado_267284" data-name="Trazado 267284" d="M150.907,203.945a1.623,1.623,0,0,0,.5.695q4.1,4.107,8.213,8.21a1.215,1.215,0,0,0,.7.475q-4.038-4.076-8.081-8.147a6.708,6.708,0,0,0-1.332-1.233" transform="translate(-115.79 -156.485)" fill="#cc4c60"/>
        <path id="Trazado_267285" data-name="Trazado 267285" d="M211.479,89.748a4.814,4.814,0,0,1,2.434-1.378,3.06,3.06,0,0,0,2.053-1.014c1.348-1.915,2.709-3.821,4.049-5.742a1.6,1.6,0,0,0-.194-2.4c-.767-.787-1.581-1.531-2.4-2.267a1.4,1.4,0,0,0-1.907-.066c-1.794,1.268-3.572,2.559-5.38,3.807a3.009,3.009,0,0,0-1.4,2.077,5.282,5.282,0,0,1-1.67,2.942c-5.344,5.277-10.638,10.6-15.946,15.918-.224.225-.428.47-.641.705q2.132,2.057,4.192,4.188c.235-.214.479-.419.7-.644q8.061-8.057,16.105-16.129" transform="translate(-146.153 -58.73)" fill="#9dbacd"/>
        <path id="Trazado_267286" data-name="Trazado 267286" d="M190.478,187.369c-.007.294.2.462.382.644l3.163,3.164a.923.923,0,0,0,.646.38q-2.063-2.127-4.192-4.188" transform="translate(-146.152 -143.767)" fill="#9dbacd"/>
        <path id="Trazado_267287" data-name="Trazado 267287" d="M302,21.95c1.447.012,2.9,0,4.343,0,1.477,0,2.953.007,4.43,0a1.617,1.617,0,0,0,1.534-1.456,1.565,1.565,0,0,0-1.433-1.487c-3.011-.027-6.023-.038-9.033.01a1.311,1.311,0,0,0-1.371,1.544A1.355,1.355,0,0,0,302,21.95" transform="translate(-230.544 -14.566)" fill="#2d629a"/>
        <path id="Trazado_267288" data-name="Trazado 267288" d="M21.422,22.018c.261,0,.522.013.782,0A1.509,1.509,0,0,0,23.686,20.6a1.538,1.538,0,0,0-1.379-1.532,7.4,7.4,0,0,0-.869-.013c-1.481,0-2.21.488-2.216,1.485s.705,1.482,2.2,1.478" transform="translate(-14.749 -14.616)" fill="#fdfdfe"/>
        <path id="Trazado_267289" data-name="Trazado 267289" d="M52.692,21.974c.259.017.521,0,.781,0v0c.232,0,.464.01.694,0a1.417,1.417,0,0,0,1.492-1.371,1.439,1.439,0,0,0-1.383-1.576,9.525,9.525,0,0,0-1.648,0,1.447,1.447,0,0,0-1.368,1.508,1.422,1.422,0,0,0,1.431,1.432" transform="translate(-39.332 -14.576)" fill="#fdfefe"/>
        <path id="Trazado_267290" data-name="Trazado 267290" d="M84.619,21.974c.259.019.521,0,.781,0v0c.232,0,.464.009.695,0a1.454,1.454,0,0,0,1.533-1.43,1.484,1.484,0,0,0-1.46-1.522,9.436,9.436,0,0,0-1.648.013,1.427,1.427,0,0,0-1.3,1.563,1.407,1.407,0,0,0,1.4,1.372" transform="translate(-63.85 -14.576)" fill="#fdfefe"/>
        <path id="Trazado_267291" data-name="Trazado 267291" d="M86.01,267.837q-4.4,4.381-8.789,8.78a1.532,1.532,0,0,0-.526,1.241,1.307,1.307,0,0,0,.814,1.293,1.549,1.549,0,0,0,1.8-.439q4.391-4.394,8.783-8.787c.79-.793.815-1.457.119-2.179a1.4,1.4,0,0,0-2.2.091" transform="translate(-58.845 -205.064)" fill="#a43c50"/>
      </g>
    </g>
  </g>
</svg>
