<svg xmlns="http://www.w3.org/2000/svg" xmlns:xlink="http://www.w3.org/1999/xlink" width="184" height="184" viewBox="0 0 184 184">
  <defs>
    <clipPath id="clip-path">
      <rect id="Rectángulo_297966" data-name="Rectángulo 297966" width="169.506" height="165.73" fill="none"/>
    </clipPath>
    <clipPath id="clip-path-2">
      <path id="Trazado_265315" data-name="Trazado 265315" d="M79.238.7C43.2,5.414,25.473,34.788,22.116,40.08,3.767,69.012.083,112.841,23.74,140.661,39.376,159.05,61,163.442,72.193,165.715c7.577,1.539,43.229,7.841,73.359-13.778a60.365,60.365,0,0,0,9.236-7.777c25.983-27.354,28.734-92.759-9.91-125.134C129.488,6.132,109.2,0,90.217,0A84.862,84.862,0,0,0,79.238.7" transform="translate(-7.166)" fill="none"/>
    </clipPath>
    <linearGradient id="linear-gradient" x1="0.158" y1="0.824" x2="0.159" y2="0.824" gradientUnits="objectBoundingBox">
      <stop offset="0" stop-color="#dae3fe"/>
      <stop offset="1" stop-color="#e9effd"/>
    </linearGradient>
    <clipPath id="clip-path-3">
      <rect id="Rectángulo_297875" data-name="Rectángulo 297875" width="115.15" height="94.267" fill="none"/>
    </clipPath>
    <linearGradient id="linear-gradient-2" x1="-0.032" y1="1.214" x2="-0.03" y2="1.214" gradientUnits="objectBoundingBox">
      <stop offset="0" stop-color="#09005d"/>
      <stop offset="1" stop-color="#1a0f91"/>
    </linearGradient>
    <clipPath id="clip-path-4">
      <path id="Trazado_265316" data-name="Trazado 265316" d="M128.014,53.048,4.8,53.806a2.9,2.9,0,0,0-3.05,2.669v17.96A2.767,2.767,0,0,0,4.66,77l123.355.758c1.829.011,3.37-1.2,3.37-2.707v-19.3c0-1.5-1.528-2.707-3.346-2.707h-.025" transform="translate(-1.75 -53.048)" fill="none"/>
    </clipPath>
    <linearGradient id="linear-gradient-3" x1="-0.488" y1="1.607" x2="-0.485" y2="1.607" gradientUnits="objectBoundingBox">
      <stop offset="0" stop-color="#4f52ff"/>
      <stop offset="1" stop-color="#4042e2"/>
    </linearGradient>
    <clipPath id="clip-path-5">
      <rect id="Rectángulo_297877" data-name="Rectángulo 297877" width="169.506" height="167.757" fill="none"/>
    </clipPath>
    <clipPath id="clip-path-6">
      <path id="Trazado_265319" data-name="Trazado 265319" d="M.271,200.912.034,219.45a2.828,2.828,0,0,0,2.976,2.665l123.733,1.057a3.032,3.032,0,0,0,3.278-2.705v-19.3a3.063,3.063,0,0,0-3.272-2.728l-123.309-.25H3.432a2.994,2.994,0,0,0-3.161,2.724" transform="translate(-0.034 -198.188)" fill="none"/>
    </clipPath>
    <linearGradient id="linear-gradient-4" x1="-0.48" y1="1.376" x2="-0.476" y2="1.376" xlink:href="#linear-gradient-3"/>
    <clipPath id="clip-path-8">
      <path id="Trazado_265322" data-name="Trazado 265322" d="M4.973,346.093A3.057,3.057,0,0,0,1.75,348.94v19.2a2.884,2.884,0,0,0,3.1,2.663H128.166a3,3,0,0,0,3.219-2.663v-19.3a3.056,3.056,0,0,0-3.219-2.742Z" transform="translate(-1.75 -346.093)" fill="none"/>
    </clipPath>
    <linearGradient id="linear-gradient-5" x1="-0.488" y1="1.148" x2="-0.485" y2="1.148" xlink:href="#linear-gradient-3"/>
    <clipPath id="clip-path-10">
      <path id="Trazado_265325" data-name="Trazado 265325" d="M1.75,495.666v19.2a2.969,2.969,0,0,0,3.161,2.727l123.318.046a2.892,2.892,0,0,0,3.06-2.676l.054-18.952a2.888,2.888,0,0,0-3.046-2.691L5.034,492.845H5.019a3.067,3.067,0,0,0-3.269,2.821" transform="translate(-1.75 -492.845)" fill="none"/>
    </clipPath>
    <linearGradient id="linear-gradient-6" x1="-0.487" y1="0.918" x2="-0.484" y2="0.918" xlink:href="#linear-gradient-3"/>
    <clipPath id="clip-path-12">
      <path id="Trazado_265328" data-name="Trazado 265328" d="M101.844,352.786a6.241,6.241,0,0,0-1.834,4.568l1.841,77.875a2.486,2.486,0,0,0,2.48,2.477H238.412a2.485,2.485,0,0,0,2.479-2.477l1.116-77.053a4.318,4.318,0,0,0-4.547-3.822l-131.039-3.391-.162,0a6.255,6.255,0,0,0-4.415,1.824" transform="translate(-100.008 -350.962)" fill="none"/>
    </clipPath>
    <linearGradient id="linear-gradient-7" x1="-0.064" y1="0.913" x2="-0.063" y2="0.913" xlink:href="#linear-gradient-2"/>
    <clipPath id="clip-path-13">
      <path id="Trazado_265329" data-name="Trazado 265329" d="M113.135,366.6a4.386,4.386,0,0,0-1.29,3.214l1.868,74.458a2.353,2.353,0,0,0,2.346,2.346H244.593a2.353,2.353,0,0,0,2.346-2.346l1.053-69.949a5.773,5.773,0,0,0-6.051-5.633l-125.589-3.37-.118,0a4.387,4.387,0,0,0-3.1,1.282" transform="translate(-111.844 -365.321)" fill="none"/>
    </clipPath>
    <linearGradient id="linear-gradient-8" x1="-0.34" y1="0.848" x2="-0.339" y2="0.848" gradientUnits="objectBoundingBox">
      <stop offset="0" stop-color="#ff928e"/>
      <stop offset="1" stop-color="#fe7062"/>
    </linearGradient>
    <clipPath id="clip-path-15">
      <rect id="Rectángulo_297886" data-name="Rectángulo 297886" width="0.77" height="6.36" fill="none"/>
    </clipPath>
    <clipPath id="clip-path-16">
      <rect id="Rectángulo_297887" data-name="Rectángulo 297887" width="46.127" height="28.193" fill="none"/>
    </clipPath>
    <clipPath id="clip-path-17">
      <path id="Rectángulo_297890" data-name="Rectángulo 297890" d="M3.385,0H154.691a3.385,3.385,0,0,1,3.385,3.385v0a3.385,3.385,0,0,1-3.385,3.385H3.385A3.385,3.385,0,0,1,0,3.385v0A3.385,3.385,0,0,1,3.385,0Z" fill="none"/>
    </clipPath>
    <linearGradient id="linear-gradient-9" x1="-2.666" y1="0.539" x2="-2.659" y2="0.539" xlink:href="#linear-gradient-2"/>
    <clipPath id="clip-path-19">
      <rect id="Rectángulo_297917" data-name="Rectángulo 297917" width="41.703" height="71.293" fill="none"/>
    </clipPath>
    <clipPath id="clip-path-20">
      <rect id="Rectángulo_297946" data-name="Rectángulo 297946" width="68.488" height="70.688" fill="none"/>
    </clipPath>
    <clipPath id="clip-path-21">
      <rect id="Rectángulo_297947" data-name="Rectángulo 297947" width="0.827" height="74.597" fill="none"/>
    </clipPath>
    <clipPath id="clip-path-22">
      <rect id="Rectángulo_297950" data-name="Rectángulo 297950" width="62.036" height="23.703" fill="none"/>
    </clipPath>
    <clipPath id="clip-path-23">
      <path id="Trazado_265337" data-name="Trazado 265337" d="M453.8,327.087a.854.854,0,0,1-.246-1.116c.476-.84,1-1.672,1.545-2.473a.855.855,0,0,1,1.189-.222l.013.01a.855.855,0,0,1,.208,1.179c-.521.761-1.015,1.551-1.467,2.349a.855.855,0,0,1-1.165.322.759.759,0,0,1-.076-.049m4.372-6.029a.911.911,0,0,1-.079-.064.855.855,0,0,1-.057-1.208c.652-.717,1.342-1.414,2.049-2.071a.855.855,0,1,1,1.163,1.253c-.672.624-1.327,1.286-1.947,1.968a.855.855,0,0,1-1.128.121m5.591-4.916a.855.855,0,0,1,.008-1.4c.794-.553,1.622-1.079,2.461-1.562a.855.855,0,1,1,.853,1.481c-.8.459-1.583.958-2.337,1.483a.855.855,0,0,1-.985-.006m6.551-3.543a.855.855,0,0,1,.178-1.488c.9-.362,1.823-.689,2.749-.973a.855.855,0,0,1,.5,1.635c-.879.269-1.757.58-2.611.924a.854.854,0,0,1-.817-.1m7.176-1.993a.855.855,0,0,1,.361-1.54c.954-.153,1.928-.268,2.894-.34a.855.855,0,1,1,.128,1.7c-.919.069-1.844.177-2.751.323a.852.852,0,0,1-.632-.148m7.438-.356a.855.855,0,0,1,.55-1.549c.966.062,1.941.166,2.9.309a.855.855,0,0,1-.253,1.691c-.91-.136-1.836-.235-2.753-.293a.848.848,0,0,1-.442-.157M511.6,326.8a.855.855,0,0,1-.243-.268c-.46-.795-.96-1.581-1.488-2.335a.855.855,0,0,1,1.4-.98c.556.794,1.083,1.622,1.567,2.459A.855.855,0,0,1,511.6,326.8M492.253,311.55a.855.855,0,0,1,.74-1.516c.928.275,1.855.593,2.756.947a.855.855,0,1,1-.625,1.592c-.855-.336-1.736-.638-2.617-.9a.86.86,0,0,1-.254-.124m14.918,9.26a.863.863,0,0,1-.13-.113c-.626-.673-1.29-1.327-1.973-1.945a.855.855,0,0,1,1.148-1.267c.718.651,1.417,1.339,2.076,2.046a.855.855,0,0,1-1.121,1.279m-8.064-6.355a.855.855,0,0,1,.918-1.44c.842.475,1.674.993,2.475,1.54l.015.01a.855.855,0,0,1-.979,1.4c-.76-.519-1.551-1.011-2.351-1.462-.027-.016-.053-.032-.077-.05" transform="translate(-453.44 -308.698)" fill="none"/>
    </clipPath>
    <linearGradient id="linear-gradient-10" x1="-1.469" y1="3.666" x2="-1.465" y2="3.666" xlink:href="#linear-gradient-3"/>
    <clipPath id="clip-path-24">
      <path id="Trazado_265338" data-name="Trazado 265338" d="M746.724,412.764a.85.85,0,0,1-.307-.408c-.148-.415-.308-.834-.474-1.245a.855.855,0,1,1,1.585-.64c.175.433.342.873.5,1.31a.855.855,0,0,1-1.3.983" transform="translate(-745.881 -409.936)" fill="none"/>
    </clipPath>
    <linearGradient id="linear-gradient-11" x1="-50.885" y1="23.621" x2="-50.816" y2="23.621" xlink:href="#linear-gradient-3"/>
    <clipPath id="clip-path-25">
      <rect id="Rectángulo_297954" data-name="Rectángulo 297954" width="63.951" height="25.235" fill="none"/>
    </clipPath>
    <clipPath id="clip-path-26">
      <path id="Trazado_265339" data-name="Trazado 265339" d="M741.22,540.073a.856.856,0,0,1-.268-1.076c.2-.395.388-.8.568-1.2a.855.855,0,0,1,1.561.7c-.19.426-.392.853-.6,1.269a.855.855,0,0,1-1.146.385.869.869,0,0,1-.117-.07" transform="translate(-740.862 -537.286)" fill="none"/>
    </clipPath>
    <linearGradient id="linear-gradient-12" x1="-48.957" y1="16.076" x2="-48.891" y2="16.076" xlink:href="#linear-gradient-3"/>
    <clipPath id="clip-path-27">
      <path id="Trazado_265340" data-name="Trazado 265340" d="M461.083,559q-.48-.343-.952-.7a.855.855,0,0,1,1.04-1.357c.726.556,1.474,1.082,2.23,1.568a.855.855,0,1,1-.924,1.438c-.468-.3-.937-.618-1.393-.944m-4.339-3.688a.855.855,0,0,1-.111-.095c-.672-.677-1.322-1.39-1.934-2.119a.855.855,0,1,1,1.31-1.1c.581.693,1.2,1.37,1.837,2.013a.855.855,0,0,1-1.1,1.3m9.676,6.795a.855.855,0,0,1,.857-1.471c.819.38,1.666.73,2.517,1.039a.855.855,0,0,1-.585,1.607c-.9-.326-1.788-.695-2.651-1.095a.864.864,0,0,1-.138-.081m-14.235-12.535a.855.855,0,0,1-.227-.242c-.506-.807-.984-1.646-1.42-2.493a.855.855,0,0,1,1.52-.782c.414.8.868,1.6,1.348,2.367a.855.855,0,0,1-1.222,1.15m21.18,14.86a.855.855,0,0,1,.677-1.532c.882.19,1.785.345,2.684.461a.855.855,0,0,1-.218,1.7c-.946-.122-1.9-.285-2.826-.485a.852.852,0,0,1-.317-.14m7.288.744a.855.855,0,0,1,.489-1.551c.905-.008,1.821-.053,2.721-.136a.855.855,0,1,1,.157,1.7c-.948.087-1.911.135-2.864.143a.851.851,0,0,1-.5-.159m7.276-.862a.855.855,0,0,1,.3-1.528c.883-.2,1.767-.448,2.627-.725a.855.855,0,0,1,.523,1.628c-.905.291-1.835.548-2.764.763a.854.854,0,0,1-.69-.137m6.915-2.428a.855.855,0,0,1,.127-1.466c.816-.392,1.625-.824,2.4-1.283a.855.855,0,1,1,.868,1.472c-.82.484-1.672.938-2.531,1.351a.855.855,0,0,1-.868-.075M501.059,558a.856.856,0,0,1-.035-1.366c.708-.561,1.4-1.16,2.061-1.781a.855.855,0,1,1,1.171,1.246c-.694.653-1.424,1.284-2.169,1.874a.855.855,0,0,1-1.028.026m5.206-5.155-.042-.032a.855.855,0,0,1-.126-1.2c.419-.518.828-1.054,1.214-1.6q.21-.294.412-.591a.855.855,0,0,1,1.188-.225.845.845,0,0,1,.225,1.188q-.213.312-.434.622c-.407.569-.836,1.134-1.278,1.679a.855.855,0,0,1-1.16.158" transform="translate(-450.444 -545.595)" fill="none"/>
    </clipPath>
    <linearGradient id="linear-gradient-13" x1="-1.466" y1="1.989" x2="-1.463" y2="1.989" xlink:href="#linear-gradient-3"/>
    <clipPath id="clip-path-28">
      <path id="Trazado_265341" data-name="Trazado 265341" d="M440.325,521.611a.851.851,0,0,1-.309-.411c-.154-.437-.3-.885-.437-1.332a.855.855,0,1,1,1.635-.5c.13.425.27.85.416,1.265a.855.855,0,0,1-1.3.979" transform="translate(-439.541 -518.762)" fill="none"/>
    </clipPath>
    <linearGradient id="linear-gradient-14" x1="-30.666" y1="17.41" x2="-30.595" y2="17.41" xlink:href="#linear-gradient-3"/>
    <clipPath id="clip-path-29">
      <path id="Trazado_265342" data-name="Trazado 265342" d="M501.288,348.432l-5.821.375a.4.4,0,0,0-.36.293l-1.286,4.69a21.173,21.173,0,0,0-6.159,3.027l-4.5-1.843a.4.4,0,0,0-.451.106l-3.85,4.381a.4.4,0,0,0-.047.461l2.4,4.223a21.184,21.184,0,0,0-2.211,6.5l-4.486,1.878a.4.4,0,0,0-.244.394l.375,5.821a.4.4,0,0,0,.293.36l4.689,1.286a21.189,21.189,0,0,0,3.027,6.159l-1.843,4.5a.4.4,0,0,0,.106.452l4.381,3.85a.4.4,0,0,0,.461.047l4.223-2.405a21.181,21.181,0,0,0,6.5,2.211l1.878,4.486a.4.4,0,0,0,.394.244l5.821-.375a.4.4,0,0,0,.36-.293l1.286-4.69a21.181,21.181,0,0,0,6.159-3.027l4.5,1.843a.4.4,0,0,0,.452-.106l3.85-4.381a.4.4,0,0,0,.047-.461l-2.405-4.223a21.174,21.174,0,0,0,2.211-6.5l4.486-1.878a.4.4,0,0,0,.244-.394l-.375-5.821a.4.4,0,0,0-.293-.36l-4.69-1.286a21.171,21.171,0,0,0-3.027-6.159l1.843-4.5a.4.4,0,0,0-.106-.452l-4.381-3.85a.4.4,0,0,0-.461-.047l-4.223,2.4a21.19,21.19,0,0,0-6.5-2.211l-1.878-4.486a.4.4,0,0,0-.368-.245h-.026" transform="translate(-474.28 -348.431)" fill="none"/>
    </clipPath>
    <linearGradient id="linear-gradient-15" x1="-1.188" y1="1.472" x2="-1.185" y2="1.472" xlink:href="#linear-gradient-3"/>
    <clipPath id="clip-path-31">
      <rect id="Rectángulo_297959" data-name="Rectángulo 297959" width="38.024" height="16.014" fill="none"/>
    </clipPath>
    <clipPath id="clip-path-32">
      <path id="Trazado_265345" data-name="Trazado 265345" d="M274.334,396.808a.528.528,0,0,1-.192-.6c.147-.423.309-.848.482-1.262a.528.528,0,0,1,.975.406c-.164.395-.319.8-.459,1.2a.527.527,0,0,1-.806.256" transform="translate(-274.113 -394.617)" fill="none"/>
    </clipPath>
    <linearGradient id="linear-gradient-16" x1="-26.676" y1="32.266" x2="-26.578" y2="32.266" xlink:href="#linear-gradient-3"/>
    <clipPath id="clip-path-33">
      <path id="Trazado_265346" data-name="Trazado 265346" d="M282.545,339.763a.528.528,0,0,1-.151-.691,22.94,22.94,0,0,1,1.252-1.957q.142-.2.288-.395a.547.547,0,0,1,.739-.108.528.528,0,0,1,.108.739q-.14.188-.276.377a21.949,21.949,0,0,0-1.194,1.866.528.528,0,0,1-.72.2c-.016-.009-.031-.019-.045-.029m3.279-4.393a.552.552,0,0,1-.059-.048.529.529,0,0,1-.017-.747,22.9,22.9,0,0,1,2.063-1.908.528.528,0,1,1,.668.818,21.859,21.859,0,0,0-1.968,1.82.528.528,0,0,1-.688.065m4.247-3.467a.528.528,0,0,1,.026-.877,22.812,22.812,0,0,1,2.47-1.344.528.528,0,0,1,.446.957,21.668,21.668,0,0,0-2.355,1.281.528.528,0,0,1-.587-.018m4.969-2.317a.528.528,0,0,1,.145-.932,22.872,22.872,0,0,1,2.723-.7.528.528,0,1,1,.2,1.037,21.764,21.764,0,0,0-2.6.666.527.527,0,0,1-.47-.073m5.384-1.033a.528.528,0,0,1,.271-.957,23.1,23.1,0,0,1,2.81-.016.528.528,0,1,1-.059,1.054,22.025,22.025,0,0,0-2.681.015.527.527,0,0,1-.342-.1m5.471.305a.528.528,0,0,1,.4-.949,22.764,22.764,0,0,1,2.728.67.528.528,0,0,1-.315,1.008,21.672,21.672,0,0,0-2.6-.639.523.523,0,0,1-.213-.09m5.229,1.633a.528.528,0,0,1,.526-.91,22.95,22.95,0,0,1,2.481,1.319.528.528,0,0,1-.552.9,21.714,21.714,0,0,0-2.367-1.259.539.539,0,0,1-.089-.051m6.71,4.709a.532.532,0,0,1-.071-.061,21.924,21.924,0,0,0-1.719-1.575c-.091-.076-.181-.149-.272-.221a.528.528,0,0,1-.084-.742.523.523,0,0,1,.742-.085c.1.077.192.154.288.234a22.962,22.962,0,0,1,1.8,1.65.528.528,0,0,1-.683.8" transform="translate(-282.324 -327.546)" fill="none"/>
    </clipPath>
    <linearGradient id="linear-gradient-17" x1="-1.488" y1="5.389" x2="-1.483" y2="5.389" xlink:href="#linear-gradient-3"/>
    <clipPath id="clip-path-34">
      <rect id="Rectángulo_297962" data-name="Rectángulo 297962" width="32.754" height="16.798" fill="none"/>
    </clipPath>
    <clipPath id="clip-path-35">
      <path id="Trazado_265347" data-name="Trazado 265347" d="M287.646,495.606a.528.528,0,0,1,.608-.863,21.814,21.814,0,0,0,2.252,1.37.528.528,0,1,1-.493.934,22.967,22.967,0,0,1-2.361-1.437l-.006,0m-2.122-1.671a.524.524,0,0,1-.045-.036,23.1,23.1,0,0,1-1.952-1.958.528.528,0,0,1,.791-.7,22.084,22.084,0,0,0,1.862,1.869.528.528,0,0,1-.657.824m6.889,4.188a.528.528,0,0,1,.494-.923,21.9,21.9,0,0,0,2.518.785.528.528,0,0,1-.253,1.025,22.923,22.923,0,0,1-2.639-.824.528.528,0,0,1-.12-.064m-10.458-8.233a.534.534,0,0,1-.129-.131,22.617,22.617,0,0,1-1.422-2.373.528.528,0,1,1,.937-.486,21.733,21.733,0,0,0,1.356,2.262.528.528,0,0,1-.742.728m15.692,9.523a.528.528,0,0,1,.37-.954,21.706,21.706,0,0,0,2.632.157.528.528,0,0,1,0,1.056,22.947,22.947,0,0,1-2.759-.165.529.529,0,0,1-.243-.094m5.391,0a.528.528,0,0,1,.242-.954,22.1,22.1,0,0,0,2.594-.477.528.528,0,1,1,.253,1.025,23.047,23.047,0,0,1-2.719.5.526.526,0,0,1-.371-.094m5.235-1.3a.528.528,0,0,1,.12-.923,21.568,21.568,0,0,0,2.4-1.085.528.528,0,0,1,.492.934,22.829,22.829,0,0,1-2.521,1.139.528.528,0,0,1-.495-.064" transform="translate(-280.345 -486.616)" fill="none"/>
    </clipPath>
    <linearGradient id="linear-gradient-18" x1="-1.689" y1="3.739" x2="-1.682" y2="3.739" xlink:href="#linear-gradient-3"/>
    <clipPath id="clip-path-36">
      <path id="Trazado_265348" data-name="Trazado 265348" d="M273.52,470.538a.528.528,0,0,1-.188-.246c-.158-.424-.3-.854-.433-1.278a.528.528,0,1,1,1.01-.309c.124.405.263.815.413,1.22a.528.528,0,0,1-.8.613" transform="translate(-272.876 -468.331)" fill="none"/>
    </clipPath>
    <linearGradient id="linear-gradient-19" x1="-27.101" y1="27.046" x2="-27.002" y2="27.046" xlink:href="#linear-gradient-3"/>
    <clipPath id="clip-path-37">
      <path id="Trazado_265349" data-name="Trazado 265349" d="M313.98,354.137l-3.895.251a.267.267,0,0,0-.24.2l-.861,3.138a14.17,14.17,0,0,0-4.121,2.025l-3.009-1.233a.267.267,0,0,0-.3.071l-2.577,2.932a.268.268,0,0,0-.032.309l1.609,2.826A14.168,14.168,0,0,0,299.073,369l-3,1.257a.268.268,0,0,0-.163.264l.251,3.9a.267.267,0,0,0,.2.24l3.138.861a14.184,14.184,0,0,0,2.025,4.122l-1.233,3.009a.267.267,0,0,0,.071.3l2.932,2.577a.268.268,0,0,0,.309.032l2.826-1.609a14.173,14.173,0,0,0,4.347,1.479l1.257,3a.267.267,0,0,0,.264.164l3.9-.251a.268.268,0,0,0,.24-.2l.861-3.138a14.181,14.181,0,0,0,4.122-2.025l3.009,1.233a.267.267,0,0,0,.3-.071l2.577-2.932a.267.267,0,0,0,.032-.309l-1.609-2.826a14.169,14.169,0,0,0,1.479-4.347l3-1.257a.267.267,0,0,0,.164-.264l-.251-3.9a.268.268,0,0,0-.2-.241l-3.138-.861a14.165,14.165,0,0,0-2.025-4.121l1.233-3.009a.268.268,0,0,0-.071-.3l-2.932-2.577a.267.267,0,0,0-.309-.031l-2.826,1.609A14.167,14.167,0,0,0,315.5,357.3l-1.256-3a.267.267,0,0,0-.247-.164h-.017" transform="translate(-295.907 -354.137)" fill="none"/>
    </clipPath>
    <linearGradient id="linear-gradient-20" x1="-1.101" y1="2.107" x2="-1.097" y2="2.107" xlink:href="#linear-gradient-3"/>
  </defs>
  <g id="Grupo_882126" data-name="Grupo 882126" transform="translate(-553 -4175)">
    <g id="Grupo_877601" data-name="Grupo 877601" transform="translate(-155 3106)">
      <circle id="Elipse_4921" data-name="Elipse 4921" cx="92" cy="92" r="92" transform="translate(708 1069)" fill="#299ae6"/>
      <circle id="Elipse_4920" data-name="Elipse 4920" cx="87" cy="87" r="87" transform="translate(713 1074)" fill="#fff"/>
    </g>
    <g id="Grupo_880239" data-name="Grupo 880239" transform="translate(560 4184.136)">
      <g id="Grupo_880322" data-name="Grupo 880322" clip-path="url(#clip-path)">
        <g id="Grupo_880240" data-name="Grupo 880240" transform="translate(1.466)">
          <g id="Grupo_880239-2" data-name="Grupo 880239" clip-path="url(#clip-path-2)">
            <rect id="Rectángulo_297873" data-name="Rectángulo 297873" width="251.726" height="250.227" transform="matrix(0.779, -0.627, 0.627, 0.779, -91.864, 68.264)" fill="url(#linear-gradient)"/>
          </g>
        </g>
        <g id="Grupo_880242" data-name="Grupo 880242" transform="translate(7.478 23.086)">
          <g id="Grupo_880241" data-name="Grupo 880241" clip-path="url(#clip-path-3)">
            <rect id="Rectángulo_297874" data-name="Rectángulo 297874" width="122.361" height="136.677" transform="translate(-24.983 87.102) rotate(-73.996)" fill="url(#linear-gradient-2)"/>
          </g>
        </g>
        <g id="Grupo_880244" data-name="Grupo 880244" transform="translate(0.358 10.855)">
          <g id="Grupo_880243" data-name="Grupo 880243" clip-path="url(#clip-path-4)">
            <rect id="Rectángulo_297876" data-name="Rectángulo 297876" width="65.972" height="130.558" transform="translate(-7.677 22.053) rotate(-70.806)" fill="url(#linear-gradient-3)"/>
          </g>
        </g>
        <g id="Grupo_880246" data-name="Grupo 880246">
          <g id="Grupo_880245" data-name="Grupo 880245" clip-path="url(#clip-path-5)">
            <path id="Trazado_265317" data-name="Trazado 265317" d="M127.946,53.048l-123.3.758a2.769,2.769,0,0,0-2.911,2.569l129.526-.621a3.043,3.043,0,0,0-3.315-2.707" transform="translate(-1.38 -42.193)" fill="#7d97f4"/>
            <path id="Trazado_265318" data-name="Trazado 265318" d="M4.646,160.133l123.3.758a3.043,3.043,0,0,0,3.315-2.707L1.735,157.563a2.769,2.769,0,0,0,2.911,2.57" transform="translate(-1.38 -125.322)" fill="#7d97f4"/>
          </g>
        </g>
        <g id="Grupo_880248" data-name="Grupo 880248" transform="translate(0.007 40.554)">
          <g id="Grupo_880247" data-name="Grupo 880247" clip-path="url(#clip-path-6)">
            <rect id="Rectángulo_297878" data-name="Rectángulo 297878" width="66.351" height="130.996" transform="translate(-7.78 22.297) rotate(-70.806)" fill="url(#linear-gradient-4)"/>
          </g>
        </g>
        <g id="Grupo_880250" data-name="Grupo 880250">
          <g id="Grupo_880249" data-name="Grupo 880249" clip-path="url(#clip-path-5)">
            <path id="Trazado_265320" data-name="Trazado 265320" d="M127.561,198.437l-123.4-.25a2.871,2.871,0,0,0-3.038,2.622l129.651.356a3.007,3.007,0,0,0-3.216-2.728" transform="translate(-0.896 -157.633)" fill="#7d97f4"/>
            <path id="Trazado_265321" data-name="Trazado 265321" d="M2.98,304.761l123.678,1.057a2.979,2.979,0,0,0,3.223-2.706L0,302.1a2.831,2.831,0,0,0,2.979,2.665" transform="translate(0 -240.28)" fill="#7d97f4"/>
          </g>
        </g>
        <g id="Grupo_880252" data-name="Grupo 880252" transform="translate(0.358 70.819)">
          <g id="Grupo_880251" data-name="Grupo 880251" clip-path="url(#clip-path-8)">
            <rect id="Rectángulo_297880" data-name="Rectángulo 297880" width="65.953" height="130.552" transform="translate(-7.671 22.035) rotate(-70.806)" fill="url(#linear-gradient-5)"/>
          </g>
        </g>
        <g id="Grupo_880254" data-name="Grupo 880254">
          <g id="Grupo_880253" data-name="Grupo 880253" clip-path="url(#clip-path-5)">
            <path id="Trazado_265323" data-name="Trazado 265323" d="M128.153,346.092H4.841a2.914,2.914,0,0,0-3.107,2.638H131.26a2.914,2.914,0,0,0-3.107-2.638" transform="translate(-1.379 -275.273)" fill="#7d97f4"/>
            <path id="Trazado_265324" data-name="Trazado 265324" d="M4.841,456.575H128.153a2.914,2.914,0,0,0,3.107-2.639H1.734a2.914,2.914,0,0,0,3.107,2.639" transform="translate(-1.379 -361.05)" fill="#7d97f4"/>
          </g>
        </g>
        <g id="Grupo_880256" data-name="Grupo 880256" transform="translate(0.358 100.848)">
          <g id="Grupo_880255" data-name="Grupo 880255" clip-path="url(#clip-path-10)">
            <rect id="Rectángulo_297882" data-name="Rectángulo 297882" width="66.02" height="130.543" transform="translate(-7.697 22.111) rotate(-70.806)" fill="url(#linear-gradient-6)"/>
          </g>
        </g>
        <g id="Grupo_880258" data-name="Grupo 880258">
          <g id="Grupo_880257" data-name="Grupo 880257" clip-path="url(#clip-path-5)">
            <path id="Trazado_265326" data-name="Trazado 265326" d="M128.284,493.314,4.9,492.842a2.958,2.958,0,0,0-3.164,2.717l129.6.446a2.888,2.888,0,0,0-3.046-2.691" transform="translate(-1.379 -391.994)" fill="#7d97f4"/>
            <path id="Trazado_265327" data-name="Trazado 265327" d="M4.9,603.167l123.319.046a2.891,2.891,0,0,0,3.06-2.676l-129.541-.1A2.97,2.97,0,0,0,4.9,603.167" transform="translate(-1.38 -477.575)" fill="#7d97f4"/>
          </g>
        </g>
        <g id="Grupo_880260" data-name="Grupo 880260" transform="translate(20.464 71.815)">
          <g id="Grupo_880259" data-name="Grupo 880259" clip-path="url(#clip-path-12)">
            <rect id="Rectángulo_297884" data-name="Rectángulo 297884" width="162.18" height="127.21" transform="translate(-26.062 8.674) rotate(-18.435)" fill="url(#linear-gradient-7)"/>
          </g>
        </g>
        <g id="Grupo_880262" data-name="Grupo 880262" transform="translate(22.886 74.754)">
          <g id="Grupo_880261" data-name="Grupo 880261" clip-path="url(#clip-path-13)">
            <rect id="Rectángulo_297885" data-name="Rectángulo 297885" width="108.217" height="150.27" transform="matrix(0.211, -0.977, 0.977, 0.211, -16.806, 77.675)" fill="url(#linear-gradient-8)"/>
          </g>
        </g>
        <g id="Grupo_880270" data-name="Grupo 880270">
          <g id="Grupo_880269" data-name="Grupo 880269" clip-path="url(#clip-path-5)">
            <g id="Grupo_880265" data-name="Grupo 880265" transform="translate(156.247 114.116)" style="mix-blend-mode: soft-light;isolation: isolate">
              <g id="Grupo_880264" data-name="Grupo 880264">
                <g id="Grupo_880263" data-name="Grupo 880263" clip-path="url(#clip-path-15)">
                  <path id="Trazado_265330" data-name="Trazado 265330" d="M763.925,564.043h-.005a.343.343,0,0,1-.339-.349l.083-5.673a.344.344,0,0,1,.344-.339h.005a.343.343,0,0,1,.339.349l-.083,5.673a.344.344,0,0,1-.344.339" transform="translate(-763.581 -557.683)" fill="#fff"/>
                </g>
              </g>
            </g>
            <g id="Grupo_880268" data-name="Grupo 880268" transform="translate(111.331 78.382)" style="mix-blend-mode: soft-light;isolation: isolate">
              <g id="Grupo_880267" data-name="Grupo 880267">
                <g id="Grupo_880266" data-name="Grupo 880266" clip-path="url(#clip-path-16)">
                  <path id="Trazado_265331" data-name="Trazado 265331" d="M589.54,411.246h-.005a.344.344,0,0,1-.339-.349l.319-21.727a4.08,4.08,0,0,0-1.164-3.056,5.741,5.741,0,0,0-3.8-1.3l-40.141-1.077a.343.343,0,0,1-.334-.353.329.329,0,0,1,.353-.334l40.117,1.077a6.312,6.312,0,0,1,4.28,1.487,4.745,4.745,0,0,1,1.376,3.556l-.319,21.734a.344.344,0,0,1-.344.339" transform="translate(-544.076 -383.053)" fill="#fff"/>
                </g>
              </g>
            </g>
          </g>
        </g>
        <g id="Grupo_880272" data-name="Grupo 880272" transform="translate(11.43 158.186)">
          <g id="Grupo_880271" data-name="Grupo 880271" clip-path="url(#clip-path-17)">
            <rect id="Rectángulo_297889" data-name="Rectángulo 297889" width="28.577" height="157.492" transform="translate(-0.928 6.641) rotate(-82.047)" fill="url(#linear-gradient-9)"/>
          </g>
        </g>
        <g id="Grupo_880299" data-name="Grupo 880299">
          <g id="Grupo_880298" data-name="Grupo 880298" clip-path="url(#clip-path-5)">
            <g id="Grupo_880275" data-name="Grupo 880275" transform="translate(35.183 79.89)" opacity="0.52">
              <g id="Grupo_880274" data-name="Grupo 880274">
                <g id="Grupo_880273" data-name="Grupo 880273" clip-path="url(#clip-path-19)">
                  <rect id="Rectángulo_297891" data-name="Rectángulo 297891" width="41.506" height="2.843" transform="translate(0.197 19.002)" fill="#fff"/>
                  <rect id="Rectángulo_297892" data-name="Rectángulo 297892" width="41.506" height="2.843" transform="translate(0.001 0.001)" fill="#fff"/>
                  <rect id="Rectángulo_297893" data-name="Rectángulo 297893" width="29.929" height="2.843" transform="translate(11.703 4.865)" fill="#fff"/>
                  <rect id="Rectángulo_297894" data-name="Rectángulo 297894" width="4.307" height="2.843" transform="translate(5.368 4.638)" fill="#fff"/>
                  <rect id="Rectángulo_297895" data-name="Rectángulo 297895" width="29.929" height="2.843" transform="translate(11.673 9.618)" fill="#fff"/>
                  <rect id="Rectángulo_297896" data-name="Rectángulo 297896" width="4.307" height="2.843" transform="translate(5.347 9.39)" fill="#fff"/>
                  <rect id="Rectángulo_297897" data-name="Rectángulo 297897" width="29.929" height="2.843" transform="translate(11.563 14.362)" fill="#fff"/>
                  <rect id="Rectángulo_297898" data-name="Rectángulo 297898" width="4.307" height="2.843" transform="translate(5.091 14.134)" fill="#fff"/>
                  <rect id="Rectángulo_297899" data-name="Rectángulo 297899" width="41.506" height="2.843" transform="translate(0 38.785)" fill="#fff"/>
                  <rect id="Rectángulo_297900" data-name="Rectángulo 297900" width="29.929" height="2.843" transform="translate(11.506 24.649)" fill="#fff"/>
                  <rect id="Rectángulo_297901" data-name="Rectángulo 297901" width="4.307" height="2.843" transform="translate(5.172 24.421)" fill="#fff"/>
                  <rect id="Rectángulo_297902" data-name="Rectángulo 297902" width="29.929" height="2.843" transform="translate(11.476 29.401)" fill="#fff"/>
                  <rect id="Rectángulo_297903" data-name="Rectángulo 297903" width="4.307" height="2.843" transform="translate(5.15 29.173)" fill="#fff"/>
                  <rect id="Rectángulo_297904" data-name="Rectángulo 297904" width="29.929" height="2.843" transform="translate(11.366 34.145)" fill="#fff"/>
                  <rect id="Rectángulo_297905" data-name="Rectángulo 297905" width="4.307" height="2.843" transform="translate(4.894 33.918)" fill="#fff"/>
                  <rect id="Rectángulo_297906" data-name="Rectángulo 297906" width="41.506" height="2.843" transform="translate(0 58.543)" fill="#fff"/>
                  <rect id="Rectángulo_297907" data-name="Rectángulo 297907" width="29.929" height="2.843" transform="translate(11.506 44.407)" fill="#fff"/>
                  <rect id="Rectángulo_297908" data-name="Rectángulo 297908" width="4.307" height="2.843" transform="translate(5.172 44.179)" fill="#fff"/>
                  <rect id="Rectángulo_297909" data-name="Rectángulo 297909" width="29.929" height="2.843" transform="translate(11.476 49.159)" fill="#fff"/>
                  <rect id="Rectángulo_297910" data-name="Rectángulo 297910" width="4.307" height="2.843" transform="translate(5.15 48.931)" fill="#fff"/>
                  <rect id="Rectángulo_297911" data-name="Rectángulo 297911" width="29.929" height="2.843" transform="translate(11.366 53.903)" fill="#fff"/>
                  <rect id="Rectángulo_297912" data-name="Rectángulo 297912" width="4.307" height="2.843" transform="translate(4.894 53.676)" fill="#fff"/>
                  <rect id="Rectángulo_297913" data-name="Rectángulo 297913" width="29.929" height="2.843" transform="translate(11.703 63.697)" fill="#fff"/>
                  <rect id="Rectángulo_297914" data-name="Rectángulo 297914" width="4.307" height="2.843" transform="translate(5.368 63.47)" fill="#fff"/>
                  <rect id="Rectángulo_297915" data-name="Rectángulo 297915" width="29.929" height="2.843" transform="translate(11.466 68.45)" fill="#fff"/>
                  <rect id="Rectángulo_297916" data-name="Rectángulo 297916" width="4.307" height="2.843" transform="translate(5.14 68.222)" fill="#fff"/>
                </g>
              </g>
            </g>
            <g id="Grupo_880278" data-name="Grupo 880278" transform="translate(84.6 81.312)" opacity="0.52">
              <g id="Grupo_880277" data-name="Grupo 880277">
                <g id="Grupo_880276" data-name="Grupo 880276" clip-path="url(#clip-path-20)">
                  <rect id="Rectángulo_297918" data-name="Rectángulo 297918" width="29.876" height="2.882" transform="translate(23.826 52.967)" fill="#fff"/>
                  <rect id="Rectángulo_297919" data-name="Rectángulo 297919" width="48.472" height="2.882" transform="translate(11.673 48.152)" fill="#fff"/>
                  <rect id="Rectángulo_297920" data-name="Rectángulo 297920" width="38.855" height="2.882" transform="translate(27.175 43.341)" fill="#fff"/>
                  <rect id="Rectángulo_297921" data-name="Rectángulo 297921" width="22.156" height="2.882" transform="translate(27.175 38.528)" fill="#fff"/>
                  <rect id="Rectángulo_297922" data-name="Rectángulo 297922" width="38.807" height="2.882" transform="translate(27.69 33.707)" fill="#fff"/>
                  <rect id="Rectángulo_297923" data-name="Rectángulo 297923" width="32.792" height="2.882" transform="translate(24.216 28.897)" fill="#fff"/>
                  <rect id="Rectángulo_297924" data-name="Rectángulo 297924" width="35.012" height="2.882" transform="translate(11.674 24.074)" fill="#fff"/>
                  <rect id="Rectángulo_297925" data-name="Rectángulo 297925" width="39.946" height="2.882" transform="translate(27.303 19.262)" fill="#fff"/>
                  <rect id="Rectángulo_297926" data-name="Rectángulo 297926" width="40.441" height="2.882" transform="translate(27.303 14.447)" fill="#fff"/>
                  <rect id="Rectángulo_297927" data-name="Rectángulo 297927" width="39.84" height="2.882" transform="translate(27.69 9.632)" fill="#fff"/>
                  <rect id="Rectángulo_297928" data-name="Rectángulo 297928" width="32.637" height="2.882" transform="translate(20.478 4.816)" fill="#fff"/>
                  <rect id="Rectángulo_297929" data-name="Rectángulo 297929" width="8.463" height="2.882" transform="translate(0 19.14)" fill="#fff"/>
                  <rect id="Rectángulo_297930" data-name="Rectángulo 297930" width="8.463" height="2.882" transform="translate(0 24.093)" fill="#fff"/>
                  <rect id="Rectángulo_297931" data-name="Rectángulo 297931" width="8.463" height="2.882" transform="translate(0 28.844)" fill="#fff"/>
                  <rect id="Rectángulo_297932" data-name="Rectángulo 297932" width="8.463" height="2.882" transform="translate(0 33.676)" fill="#fff"/>
                  <rect id="Rectángulo_297933" data-name="Rectángulo 297933" width="8.463" height="2.882" transform="translate(0 38.629)" fill="#fff"/>
                  <rect id="Rectángulo_297934" data-name="Rectángulo 297934" width="8.463" height="2.882" transform="translate(0 43.379)" fill="#fff"/>
                  <rect id="Rectángulo_297935" data-name="Rectángulo 297935" width="8.463" height="2.882" transform="translate(0.429 48.114)" fill="#fff"/>
                  <rect id="Rectángulo_297936" data-name="Rectángulo 297936" width="8.463" height="2.882" transform="translate(0.429 53.067)" fill="#fff"/>
                  <rect id="Rectángulo_297937" data-name="Rectángulo 297937" width="8.463" height="2.882" transform="translate(0.429 57.817)" fill="#fff"/>
                  <rect id="Rectángulo_297938" data-name="Rectángulo 297938" width="8.463" height="2.882" transform="translate(0.429 62.663)" fill="#fff"/>
                  <rect id="Rectángulo_297939" data-name="Rectángulo 297939" width="8.463" height="2.882" transform="translate(0.429 67.616)" fill="#fff"/>
                  <rect id="Rectángulo_297940" data-name="Rectángulo 297940" width="8.463" height="2.882" transform="translate(0 14.445)" fill="#fff"/>
                  <rect id="Rectángulo_297941" data-name="Rectángulo 297941" width="8.463" height="2.882" transform="translate(0 9.634)" fill="#fff"/>
                  <rect id="Rectángulo_297942" data-name="Rectángulo 297942" width="8.463" height="2.882" transform="translate(0 4.816)" fill="#fff"/>
                  <rect id="Rectángulo_297943" data-name="Rectángulo 297943" width="8.463" height="2.882" transform="translate(0 0.001)" fill="#fff"/>
                  <path id="Trazado_265332" data-name="Trazado 265332" d="M470.5,397.374v2.882l40.585,0a2.9,2.9,0,0,0-2.921-2.882Z" transform="translate(-458.823 -397.374)" fill="#fff"/>
                  <rect id="Rectángulo_297944" data-name="Rectángulo 297944" width="40.926" height="2.882" transform="translate(27.561 67.805)" fill="#fff"/>
                  <rect id="Rectángulo_297945" data-name="Rectángulo 297945" width="40.183" height="2.882" transform="translate(27.561 62.844)" fill="#fff"/>
                  <path id="Trazado_265333" data-name="Trazado 265333" d="M548.132,681.336v2.882h25.554c0-1.592-.823-2.882-1.839-2.882Z" transform="translate(-520.571 -623.23)" fill="#fff"/>
                </g>
              </g>
            </g>
            <g id="Grupo_880281" data-name="Grupo 880281" transform="translate(80.329 79.338)" opacity="0.53">
              <g id="Grupo_880280" data-name="Grupo 880280">
                <g id="Grupo_880279" data-name="Grupo 880279" clip-path="url(#clip-path-21)">
                  <path id="Trazado_265334" data-name="Trazado 265334" d="M392.93,462.322h.1a.363.363,0,0,0,.363-.363v-73.87a.363.363,0,0,0-.363-.363h-.1a.363.363,0,0,0-.363.363v73.87a.363.363,0,0,0,.363.363" transform="translate(-392.567 -387.725)" fill="#fff"/>
                </g>
              </g>
            </g>
            <path id="Trazado_265335" data-name="Trazado 265335" d="M364.224,161.818a.68.68,0,0,1-.694-.633c-.071-3.547-1.289-21.156-18.362-24.836-19.008-4.1-27.706,13.461-27.706,13.461s-23.518-8.194-28.028,13.754c-14.746,3.215-18.577,20.708-8.986,29.255a8.687,8.687,0,0,0,5.7,2.143l92.349.756a6.041,6.041,0,0,0,5.884-3.95c2.885-8.844,6.666-29.379-20.158-29.95" transform="translate(-218.877 -107.955)" fill="#7d97f4"/>
            <path id="Trazado_265336" data-name="Trazado 265336" d="M372.6,170.363a.681.681,0,0,1-.694-.632c-.076-3.4-1.282-19.73-17.361-23.153-17.973-3.826-26.2,12.571-26.2,12.571s-22.238-7.652-26.5,12.844c-13.81,2.973-17.5,19.026-8.754,27.088a8.674,8.674,0,0,0,5.8,2.235l86.934.7a6.038,6.038,0,0,0,5.888-3.965c2.711-8.4,5.928-27.145-19.115-27.69" transform="translate(-229.369 -116.124)" fill="#91b3fa"/>
            <g id="Grupo_880288" data-name="Grupo 880288" transform="translate(92.785 63.167)" opacity="0.3">
              <g id="Grupo_880287" data-name="Grupo 880287">
                <g id="Grupo_880286" data-name="Grupo 880286" clip-path="url(#clip-path-22)">
                  <g id="Grupo_880283" data-name="Grupo 880283" transform="translate(0 0)">
                    <g id="Grupo_880282" data-name="Grupo 880282" clip-path="url(#clip-path-23)">
                      <rect id="Rectángulo_297948" data-name="Rectángulo 297948" width="62.254" height="30.087" transform="translate(-3.714 0.696) rotate(-11.347)" fill="url(#linear-gradient-10)"/>
                    </g>
                  </g>
                  <g id="Grupo_880285" data-name="Grupo 880285" transform="translate(59.84 20.716)">
                    <g id="Grupo_880284" data-name="Grupo 880284" clip-path="url(#clip-path-24)">
                      <rect id="Rectángulo_297949" data-name="Rectángulo 297949" width="2.992" height="3.564" transform="translate(-0.722 0.008) rotate(-11.347)" fill="url(#linear-gradient-11)"/>
                    </g>
                  </g>
                </g>
              </g>
            </g>
            <g id="Grupo_880297" data-name="Grupo 880297" transform="translate(89.941 106.151)" opacity="0.3">
              <g id="Grupo_880296" data-name="Grupo 880296">
                <g id="Grupo_880295" data-name="Grupo 880295" clip-path="url(#clip-path-25)">
                  <g id="Grupo_880290" data-name="Grupo 880290" transform="translate(61.658 3.79)">
                    <g id="Grupo_880289" data-name="Grupo 880289" clip-path="url(#clip-path-26)">
                      <rect id="Rectángulo_297951" data-name="Rectángulo 297951" width="3.089" height="3.617" transform="translate(-0.714 0.005) rotate(-11.347)" fill="url(#linear-gradient-12)"/>
                    </g>
                  </g>
                  <g id="Grupo_880292" data-name="Grupo 880292" transform="translate(2.231 5.491)">
                    <g id="Grupo_880291" data-name="Grupo 880291" clip-path="url(#clip-path-27)">
                      <rect id="Rectángulo_297952" data-name="Rectángulo 297952" width="61.834" height="31.103" transform="matrix(0.98, -0.197, 0.197, 0.98, -3.954, 0.648)" fill="url(#linear-gradient-13)"/>
                    </g>
                  </g>
                  <g id="Grupo_880294" data-name="Grupo 880294" transform="translate(0 0)">
                    <g id="Grupo_880293" data-name="Grupo 880293" clip-path="url(#clip-path-28)">
                      <rect id="Rectángulo_297953" data-name="Rectángulo 297953" width="2.92" height="3.556" transform="translate(-0.709 0.022) rotate(-11.347)" fill="url(#linear-gradient-14)"/>
                    </g>
                  </g>
                </g>
              </g>
            </g>
          </g>
        </g>
        <g id="Grupo_880301" data-name="Grupo 880301" transform="translate(97.049 71.298)">
          <g id="Grupo_880300" data-name="Grupo 880300" clip-path="url(#clip-path-29)">
            <rect id="Rectángulo_297956" data-name="Rectángulo 297956" width="72.749" height="72.75" transform="translate(-25.633 28.307) rotate(-47.849)" fill="url(#linear-gradient-15)"/>
          </g>
        </g>
        <g id="Grupo_880317" data-name="Grupo 880317">
          <g id="Grupo_880316" data-name="Grupo 880316" clip-path="url(#clip-path-5)">
            <path id="Trazado_265343" data-name="Trazado 265343" d="M573.9,456.231a5.865,5.865,0,1,1,.736.448,5.872,5.872,0,0,1-.736-.448m6.03-8.423a4.56,4.56,0,0,0-.569-.347,4.48,4.48,0,1,0,.569.347" transform="translate(-454.516 -354.419)" fill="#7d97f4"/>
            <path id="Trazado_265344" data-name="Trazado 265344" d="M537.2,429.9a14.677,14.677,0,0,1-1.161-.921q-.177-.155-.348-.316a14.53,14.53,0,0,1-1.554-1.708l-.019-.025-.054-.071-.1-.139a.342.342,0,0,1,0-.4.349.349,0,0,1,.075-.076.342.342,0,0,1,.478.071,13.748,13.748,0,0,0,14.891,5.016,13.648,13.648,0,0,0,6.47-4.114,13.93,13.93,0,0,0,.878-1.107,13.733,13.733,0,0,0-21.508-17.023,13.738,13.738,0,0,0-3.193,6.581.342.342,0,0,1-.673-.123A14.417,14.417,0,1,1,557.3,426.5a14.778,14.778,0,0,1-.922,1.162A14.419,14.419,0,0,1,537.2,429.9" transform="translate(-422.637 -321.126)" fill="#7d97f4"/>
            <g id="Grupo_880308" data-name="Grupo 880308" transform="translate(56.09 67.024)" opacity="0.3">
              <g id="Grupo_880307" data-name="Grupo 880307">
                <g id="Grupo_880306" data-name="Grupo 880306" clip-path="url(#clip-path-31)">
                  <g id="Grupo_880303" data-name="Grupo 880303" transform="translate(0 13.724)">
                    <g id="Grupo_880302" data-name="Grupo 880302" clip-path="url(#clip-path-32)">
                      <rect id="Rectángulo_297957" data-name="Rectángulo 297957" width="2.092" height="2.703" transform="matrix(0.98, -0.197, 0.197, 0.98, -0.518, 0.023)" fill="url(#linear-gradient-16)"/>
                    </g>
                  </g>
                  <g id="Grupo_880305" data-name="Grupo 880305" transform="translate(1.68 0)">
                    <g id="Grupo_880304" data-name="Grupo 880304" clip-path="url(#clip-path-33)">
                      <rect id="Rectángulo_297958" data-name="Rectángulo 297958" width="38.192" height="19.339" transform="translate(-2.459 0.464) rotate(-11.347)" fill="url(#linear-gradient-17)"/>
                    </g>
                  </g>
                </g>
              </g>
            </g>
            <g id="Grupo_880315" data-name="Grupo 880315" transform="translate(55.837 95.832)" opacity="0.3">
              <g id="Grupo_880314" data-name="Grupo 880314">
                <g id="Grupo_880313" data-name="Grupo 880313" clip-path="url(#clip-path-34)">
                  <g id="Grupo_880310" data-name="Grupo 880310" transform="translate(1.528 3.741)">
                    <g id="Grupo_880309" data-name="Grupo 880309" clip-path="url(#clip-path-35)">
                      <rect id="Rectángulo_297960" data-name="Rectángulo 297960" width="33.346" height="19.048" transform="matrix(0.98, -0.197, 0.197, 0.98, -2.608, 0.434)" fill="url(#linear-gradient-18)"/>
                    </g>
                  </g>
                  <g id="Grupo_880312" data-name="Grupo 880312" transform="translate(0 0)">
                    <g id="Grupo_880311" data-name="Grupo 880311" clip-path="url(#clip-path-36)">
                      <rect id="Rectángulo_297961" data-name="Rectángulo 297961" width="2.05" height="2.667" transform="translate(-0.524 0.031) rotate(-11.347)" fill="url(#linear-gradient-19)"/>
                    </g>
                  </g>
                </g>
              </g>
            </g>
          </g>
        </g>
        <g id="Grupo_880319" data-name="Grupo 880319" transform="translate(60.55 72.465)">
          <g id="Grupo_880318" data-name="Grupo 880318" clip-path="url(#clip-path-37)">
            <rect id="Rectángulo_297964" data-name="Rectángulo 297964" width="48.574" height="48.573" transform="translate(-17.001 14.388) rotate(-40.252)" fill="url(#linear-gradient-20)"/>
          </g>
        </g>
        <g id="Grupo_880321" data-name="Grupo 880321">
          <g id="Grupo_880320" data-name="Grupo 880320" clip-path="url(#clip-path-5)">
            <path id="Trazado_265350" data-name="Trazado 265350" d="M362.24,426.052a4,4,0,1,1,.506.308,4.106,4.106,0,0,1-.506-.308m4.036-5.636a2.938,2.938,0,0,0-4.323,1.05,2.938,2.938,0,1,0,4.323-1.05" transform="translate(-286.79 -333.113)" fill="#7d97f4"/>
            <path id="Trazado_265351" data-name="Trazado 265351" d="M336.665,407.705q-.408-.291-.792-.628a10,10,0,0,1-1.379-1.485l-.054-.073a.528.528,0,0,1,.849-.628,8.915,8.915,0,0,0,1.282,1.392h0l.079.068a8.8,8.8,0,0,0,3.9,1.945,8.938,8.938,0,0,0,2.386.186h.02l.06,0a8.831,8.831,0,0,0,6.106-3,9.071,9.071,0,0,0,.569-.717,8.89,8.89,0,0,0-13.924-11.02,8.886,8.886,0,0,0-2.067,4.26.528.528,0,1,1-1.039-.191,9.922,9.922,0,0,1,1.684-3.975,10.024,10.024,0,0,1,.628-.792,9.947,9.947,0,0,1,15.578,12.329,10.171,10.171,0,0,1-.636.8,9.961,9.961,0,0,1-13.244,1.534" transform="translate(-264.579 -309.926)" fill="#7d97f4"/>
          </g>
        </g>
      </g>
    </g>
  </g>
</svg>
