<svg xmlns="http://www.w3.org/2000/svg" xmlns:xlink="http://www.w3.org/1999/xlink" width="184" height="188.364" viewBox="0 0 184 188.364">
  <defs>
    <clipPath id="clip-path">
      <rect id="Rectángulo_297872" data-name="Rectángulo 297872" width="180.763" height="179.228" fill="none"/>
    </clipPath>
    <clipPath id="clip-path-2">
      <path id="Trazado_265247" data-name="Trazado 265247" d="M93.68,0A87.741,87.741,0,0,0,84.6.449c-.572.059-1.225.124-2.1.236-35.8,4.6-58.2,37.26-60.865,41.257C-.8,75.655-2.23,130.078,27.135,156.166c12.923,11.481,27.965,13.782,45.784,17.043,11.045,2.021,46.767,7.935,78.017-12.583A68.492,68.492,0,0,0,163,150.995c27.8-28.175,27.728-79.587,5.871-112.781a82.581,82.581,0,0,0-16.43-18.331C131.562,2.68,107.155.008,93.81,0Z" transform="translate(-4.929)" fill="none"/>
    </clipPath>
    <linearGradient id="linear-gradient" x1="0.158" y1="0.836" x2="0.159" y2="0.836" gradientUnits="objectBoundingBox">
      <stop offset="0" stop-color="#dae3fe"/>
      <stop offset="1" stop-color="#e9effd"/>
    </linearGradient>
    <clipPath id="clip-path-4">
      <rect id="Rectángulo_297811" data-name="Rectángulo 297811" width="43.103" height="25.524" fill="none"/>
    </clipPath>
    <clipPath id="clip-path-5">
      <rect id="Rectángulo_297812" data-name="Rectángulo 297812" width="43.941" height="27.878" fill="none"/>
    </clipPath>
    <clipPath id="clip-path-6">
      <rect id="Rectángulo_297813" data-name="Rectángulo 297813" width="22.602" height="20.016" fill="none"/>
    </clipPath>
    <clipPath id="clip-path-7">
      <rect id="Rectángulo_297814" data-name="Rectángulo 297814" width="26.429" height="8.073" fill="none"/>
    </clipPath>
    <clipPath id="clip-path-8">
      <path id="Trazado_265263" data-name="Trazado 265263" d="M35.727,241.865a7.376,7.376,0,0,0-2.168,5.4l2.176,92.056a2.938,2.938,0,0,0,2.931,2.928h158.5a2.938,2.938,0,0,0,2.931-2.928l1.319-91.084a5.1,5.1,0,0,0-5.375-4.518l-154.9-4.008-.191,0a7.393,7.393,0,0,0-5.219,2.156" transform="translate(-33.556 -239.709)" fill="none"/>
    </clipPath>
    <linearGradient id="linear-gradient-2" x1="-0.359" y1="0.946" x2="-0.357" y2="0.946" gradientUnits="objectBoundingBox">
      <stop offset="0" stop-color="#09005d"/>
      <stop offset="1" stop-color="#1a0f91"/>
    </linearGradient>
    <clipPath id="clip-path-10">
      <path id="Trazado_265265" data-name="Trazado 265265" d="M773.46,470.052a.406.406,0,0,0-.406.4l-.1,6.706a.406.406,0,0,0,.4.413h.006a.406.406,0,0,0,.406-.4l.1-6.706a.406.406,0,0,0-.4-.412Z" transform="translate(-772.956 -470.052)" fill="none"/>
    </clipPath>
    <linearGradient id="linear-gradient-3" x1="-182.858" y1="10.266" x2="-182.622" y2="10.266" xlink:href="#linear-gradient"/>
    <clipPath id="clip-path-11">
      <path id="Trazado_265266" data-name="Trazado 265266" d="M528.367,275.864a.406.406,0,0,0,.4.417l47.45,1.273a6.787,6.787,0,0,1,4.491,1.533,4.825,4.825,0,0,1,1.377,3.612l-.377,25.683a.406.406,0,0,0,.4.413h.006a.406.406,0,0,0,.406-.4l.377-25.691a5.609,5.609,0,0,0-1.627-4.2,7.462,7.462,0,0,0-5.059-1.758l-47.422-1.273h-.035a.391.391,0,0,0-.383.4" transform="translate(-528.367 -275.467)" fill="none"/>
    </clipPath>
    <linearGradient id="linear-gradient-4" x1="-2.103" y1="3.584" x2="-2.099" y2="3.584" xlink:href="#linear-gradient"/>
    <clipPath id="clip-path-12">
      <rect id="Rectángulo_297821" data-name="Rectángulo 297821" width="180.763" height="8.003" rx="4.001" fill="none"/>
    </clipPath>
    <linearGradient id="linear-gradient-5" x1="-1.303" y1="0.619" x2="-1.299" y2="0.619" xlink:href="#linear-gradient-2"/>
    <clipPath id="clip-path-14">
      <rect id="Rectángulo_297822" data-name="Rectángulo 297822" width="148.872" height="26.496" fill="none"/>
    </clipPath>
    <clipPath id="clip-path-15">
      <rect id="Rectángulo_297823" data-name="Rectángulo 297823" width="147.326" height="35.398" fill="none"/>
    </clipPath>
    <clipPath id="clip-path-16">
      <rect id="Rectángulo_297824" data-name="Rectángulo 297824" width="147.326" height="15.211" fill="none"/>
    </clipPath>
    <clipPath id="clip-path-17">
      <path id="Trazado_265270" data-name="Trazado 265270" d="M245.352,183.693,205.4,202.666a9.414,9.414,0,0,0-5.361,7.888c-3.747,57.922,33.392,79.027,45.567,84.358a9.434,9.434,0,0,0,7.572,0c12.175-5.331,49.314-26.436,45.567-84.358a9.414,9.414,0,0,0-5.361-7.888l-39.949-18.973a9.424,9.424,0,0,0-8.086,0" transform="translate(-199.779 -182.782)" fill="none"/>
    </clipPath>
    <linearGradient id="linear-gradient-6" x1="-0.134" y1="1.08" x2="-0.132" y2="1.08" gradientUnits="objectBoundingBox">
      <stop offset="0" stop-color="#ff928e"/>
      <stop offset="1" stop-color="#fe7062"/>
    </linearGradient>
    <clipPath id="clip-path-19">
      <rect id="Rectángulo_297827" data-name="Rectángulo 297827" width="11.355" height="6.399" fill="none"/>
    </clipPath>
    <clipPath id="clip-path-20">
      <rect id="Rectángulo_297828" data-name="Rectángulo 297828" width="32.555" height="31.453" fill="none"/>
    </clipPath>
    <clipPath id="clip-path-21">
      <path id="Trazado_265273" data-name="Trazado 265273" d="M283.641,229.371,246.3,247.108a2.353,2.353,0,0,0-1.339,2.005c-1.1,21.607,3.886,39.635,14.844,53.608a66.252,66.252,0,0,0,23.854,19.025,2.356,2.356,0,0,0,1.988,0A66.25,66.25,0,0,0,309.5,302.721c10.958-13.973,15.949-32,14.844-53.608A2.354,2.354,0,0,0,323,247.108l-37.345-17.737a2.347,2.347,0,0,0-2.015,0" transform="translate(-244.806 -229.144)" fill="none"/>
    </clipPath>
    <linearGradient id="linear-gradient-7" x1="-0.341" y1="1.211" x2="-0.339" y2="1.211" gradientUnits="objectBoundingBox">
      <stop offset="0" stop-color="#4f52ff"/>
      <stop offset="1" stop-color="#4042e2"/>
    </linearGradient>
    <clipPath id="clip-path-22">
      <path id="Trazado_265274" data-name="Trazado 265274" d="M378.087,302.429l-7.61.925a11.547,11.547,0,0,0-10.144,11.452v14.833h3.722V314.806a7.821,7.821,0,0,1,6.871-7.757l7.61-.925a7.814,7.814,0,0,1,8.757,7.757V326.83h3.722V313.881a11.536,11.536,0,0,0-12.928-11.452" transform="translate(-360.333 -302.345)" fill="none"/>
    </clipPath>
    <linearGradient id="linear-gradient-8" x1="-2.268" y1="3.254" x2="-2.261" y2="3.254" xlink:href="#linear-gradient-6"/>
    <clipPath id="clip-path-23">
      <path id="Trazado_265275" data-name="Trazado 265275" d="M380.013,404.395,347.386,406.2a2.312,2.312,0,0,0-2.183,2.384l.784,24.04a2.312,2.312,0,0,0,2.311,2.237h31.843a2.312,2.312,0,0,0,2.312-2.312V406.7a2.312,2.312,0,0,0-2.309-2.312c-.043,0-.087,0-.13,0" transform="translate(-345.202 -404.391)" fill="none"/>
    </clipPath>
    <linearGradient id="linear-gradient-9" x1="-1.932" y1="2.253" x2="-1.926" y2="2.253" xlink:href="#linear-gradient-6"/>
    <clipPath id="clip-path-24">
      <path id="Trazado_265276" data-name="Trazado 265276" d="M406,438.69A5.363,5.363,0,0,0,408,442.866a1.916,1.916,0,0,1,.623,2.117l-1.78,5.119a1.916,1.916,0,0,0,1.809,2.545h6.293a1.916,1.916,0,0,0,1.81-2.545l-1.975-5.678a1.9,1.9,0,0,1,.432-1.96,5.375,5.375,0,0,0-3.615-9.147c-.071,0-.142,0-.212,0A5.376,5.376,0,0,0,406,438.69" transform="translate(-406.004 -433.314)" fill="none"/>
    </clipPath>
    <linearGradient id="linear-gradient-10" x1="-3.769" y1="4.943" x2="-3.759" y2="4.943" gradientUnits="objectBoundingBox">
      <stop offset="0" stop-color="#e1473d"/>
      <stop offset="1" stop-color="#e9605a"/>
    </linearGradient>
    <clipPath id="clip-path-25">
      <path id="Trazado_265277" data-name="Trazado 265277" d="M559.542,209.548c-1.873,2.284-15.734,26.558-15.76,26.568l-.7,1.3a15.3,15.3,0,0,0,7.557-4.3l-1.332-1.394a.767.767,0,0,1,.061-1.116c3.336-2.81,13.063-10.511,12.314-15.692l7.572,4.41-4.545-9.832-3.869-.461a1.455,1.455,0,0,0-1.3.521" transform="translate(-543.081 -209.017)" fill="none"/>
    </clipPath>
    <linearGradient id="linear-gradient-11" x1="-2.98" y1="3.751" x2="-2.975" y2="3.751" gradientUnits="objectBoundingBox">
      <stop offset="0" stop-color="#febbba"/>
      <stop offset="1" stop-color="#ff928e"/>
    </linearGradient>
    <clipPath id="clip-path-26">
      <path id="Trazado_265278" data-name="Trazado 265278" d="M541.056,320.841a.3.3,0,0,1-.41-.391l.1-.207a7.679,7.679,0,0,0-1.6,2.93.241.241,0,0,0,.3.284c2.131-.634,6.747-3.871,8.147-4.874a.866.866,0,0,0,.326-1,1.961,1.961,0,0,0-1.138-1.032,22.806,22.806,0,0,1-5.726,4.287" transform="translate(-539.141 -316.554)" fill="none"/>
    </clipPath>
    <linearGradient id="linear-gradient-12" x1="-13.072" y1="15.888" x2="-13.047" y2="15.888" xlink:href="#linear-gradient-2"/>
    <clipPath id="clip-path-27">
      <path id="Trazado_265279" data-name="Trazado 265279" d="M580.872,221.994a1.451,1.451,0,0,0-1.164.773,88.22,88.22,0,0,0-7.931,24.167c-.023.015-2.1,5.025-2.126,5.04l-.425,1.41a15.3,15.3,0,0,0,6.531-5.738l-1.586-1.1a.766.766,0,0,1-.167-1.105c2.7-3.427,10.666-12.937,8.883-17.86l8.307,2.786-6.44-8.709Z" transform="translate(-569.226 -221.662)" fill="none"/>
    </clipPath>
    <linearGradient id="linear-gradient-13" x1="-2.991" y1="3.751" x2="-2.985" y2="3.751" xlink:href="#linear-gradient-11"/>
    <clipPath id="clip-path-28">
      <path id="Trazado_265280" data-name="Trazado 265280" d="M568.254,344.04a.3.3,0,0,1-.48-.3l.058-.223a7.676,7.676,0,0,0-.976,3.194.241.241,0,0,0,.353.217c1.958-1.052,5.824-5.157,6.992-6.422a.867.867,0,0,0,.117-1.044,1.962,1.962,0,0,0-1.323-.78,22.8,22.8,0,0,1-4.74,5.357" transform="translate(-566.856 -338.683)" fill="none"/>
    </clipPath>
    <linearGradient id="linear-gradient-14" x1="-16.039" y1="12.688" x2="-16.011" y2="12.688" xlink:href="#linear-gradient-2"/>
    <clipPath id="clip-path-29">
      <path id="Trazado_265281" data-name="Trazado 265281" d="M620.145,212.832c-1.591.617-9.495-.01-9.495-.01,6.249,2.594,6.781,3.808,7.53,8.578,0,0,5.392,3.278,16.33,2.374,3.676-.3,4.935-1.128,4.647-3.51s-3.8-7.606-3.8-7.606-4.732-.154-8.943-.154a32.765,32.765,0,0,0-6.269.328" transform="translate(-610.65 -212.504)" fill="none"/>
    </clipPath>
    <linearGradient id="linear-gradient-15" x1="-4.486" y1="4.973" x2="-4.478" y2="4.973" xlink:href="#linear-gradient-7"/>
    <clipPath id="clip-path-30">
      <path id="Trazado_265282" data-name="Trazado 265282" d="M645.585,69.184c-2.685,1.539-.829,3.454-.829,3.454s3.466,10.262,5.867,14.839,4.21,3.648,11.862.875c2.5-.906,5.012-2.963,4.7-5.895a8.161,8.161,0,0,0-6.144-7.1c-2.653-.758-6.33-.908-8.3-3.1-1.816-2.021-3.441-3.624-5.285-3.624a3.734,3.734,0,0,0-1.874.545" transform="translate(-644.131 -68.639)" fill="none"/>
    </clipPath>
    <linearGradient id="linear-gradient-16" x1="-3.978" y1="5.007" x2="-3.971" y2="5.007" xlink:href="#linear-gradient-2"/>
    <clipPath id="clip-path-32">
      <path id="Trazado_265284" data-name="Trazado 265284" d="M650.215,123.54a67.985,67.985,0,0,0-2.7,6.8,5.473,5.473,0,0,0,.927,4.925,80.136,80.136,0,0,0,6.1,6.473l8.559-.884c-.142-2.178-4.17-7.5-4.17-7.5a46.536,46.536,0,0,1,4.684,6.466l3.981-1.24c-3.545-9.92-12.568-15.776-12.568-15.776h-.077c-.6,0-4.526.027-4.736.734" transform="translate(-647.286 -122.806)" fill="none"/>
    </clipPath>
    <linearGradient id="linear-gradient-17" x1="-4.887" y1="5.659" x2="-4.88" y2="5.659" xlink:href="#linear-gradient-6"/>
    <clipPath id="clip-path-33">
      <path id="Trazado_265285" data-name="Trazado 265285" d="M660.315,197.146l-2.368.641c-2.368.641-6.505,0-6.505,0l-3.549-.955-3.073,3.343,3.579.263s15.529.211,16.233-.1a9.47,9.47,0,0,0,1.352-.842,1.43,1.43,0,0,0,.523-1.643l-.841-2.375Z" transform="translate(-644.82 -195.48)" fill="none"/>
    </clipPath>
    <linearGradient id="linear-gradient-18" x1="-6.392" y1="26.467" x2="-6.382" y2="26.467" xlink:href="#linear-gradient-11"/>
    <clipPath id="clip-path-34">
      <path id="Trazado_265286" data-name="Trazado 265286" d="M657.265,96.186c-.337.179-1.36,1.438-1.281,1.811l1.843,3.829a.737.737,0,0,0,.1.253c.487.747,3.637.712,3.841-.539l-3.082-5.731c-.178-.058-.316-.109-.42-.154Zm1-.531.227-.12c.2-.1-.031-.169-.241-.169-.24,0-.457.084.014.29" transform="translate(-655.98 -95.365)" fill="none"/>
    </clipPath>
    <linearGradient id="linear-gradient-19" x1="-18.073" y1="24.97" x2="-18.045" y2="24.97" xlink:href="#linear-gradient-11"/>
    <clipPath id="clip-path-35">
      <path id="Trazado_265287" data-name="Trazado 265287" d="M639.579,86.181a6.78,6.78,0,0,0,1.174,4.4c1.522,2.462,3.037,2.351,3.807,1.473a5.41,5.41,0,0,0,1.272-4.8c-.254-1.485-2.3-2.47-3.988-2.471-1.1,0-2.058.42-2.266,1.4" transform="translate(-639.545 -84.786)" fill="none"/>
    </clipPath>
    <linearGradient id="linear-gradient-20" x1="-13.638" y1="15.328" x2="-13.616" y2="15.328" xlink:href="#linear-gradient-11"/>
    <clipPath id="clip-path-36">
      <path id="Trazado_265288" data-name="Trazado 265288" d="M636.948,73.255s-1.275,1.918-1.014,2.735,3.045-.7,3.714-1.127l6.122,4.709s-3.279-6.322-4.918-7.367a1.887,1.887,0,0,0-1.034-.292,5.181,5.181,0,0,0-2.87,1.343" transform="translate(-635.899 -71.912)" fill="none"/>
    </clipPath>
    <linearGradient id="linear-gradient-21" x1="-11.094" y1="13.116" x2="-11.076" y2="13.116" xlink:href="#linear-gradient-2"/>
    <clipPath id="clip-path-38">
      <path id="Trazado_265290" data-name="Trazado 265290" d="M662.278,87.641c-1.162.344.114,2,.114,2l.928.354c.07-.674.112-2.395-.789-2.395a.9.9,0,0,0-.254.04" transform="translate(-661.79 -87.601)" fill="none"/>
    </clipPath>
    <linearGradient id="linear-gradient-22" x1="-45.082" y1="50.265" x2="-45.013" y2="50.265" xlink:href="#linear-gradient-11"/>
    <clipPath id="clip-path-39">
      <path id="Trazado_265291" data-name="Trazado 265291" d="M623.506,217.938a.633.633,0,0,0,.632.633l14.134.015h.032a.633.633,0,0,0-.031-1.264l-14.134-.015h-.011a.63.63,0,0,0-.622.632" transform="translate(-623.506 -217.306)" fill="none"/>
    </clipPath>
    <linearGradient id="linear-gradient-23" x1="-9.017" y1="22.344" x2="-9.002" y2="22.344" xlink:href="#linear-gradient-2"/>
    <clipPath id="clip-path-40">
      <path id="Trazado_265292" data-name="Trazado 265292" d="M564.5,164.087a.94.94,0,0,0-.874,1.286l4.22,10.677a1.363,1.363,0,0,0,1.268.862h14.628l-5.442-11.538a2.243,2.243,0,0,0-2.029-1.287Z" transform="translate(-563.554 -164.087)" fill="none"/>
    </clipPath>
    <linearGradient id="linear-gradient-24" x1="-5.695" y1="9.97" x2="-5.685" y2="9.97" xlink:href="#linear-gradient-2"/>
    <clipPath id="clip-path-42">
      <path id="Trazado_265294" data-name="Trazado 265294" d="M127.536,807.089a7.248,7.248,0,0,1-2.877-.282c0,.056,0,.11,0,.159a.519.519,0,0,0,.493.49,88.206,88.206,0,0,0,9.856.01.37.37,0,0,0,.3-.555,3.029,3.029,0,0,0-.25-.349c-1.834.158-5.018.416-7.527.527" transform="translate(-124.659 -806.562)" fill="none"/>
    </clipPath>
    <linearGradient id="linear-gradient-25" x1="-2.506" y1="3.572" x2="-2.486" y2="3.572" xlink:href="#linear-gradient-7"/>
    <clipPath id="clip-path-43">
      <path id="Trazado_265295" data-name="Trazado 265295" d="M125.918,789.5a6.78,6.78,0,0,0-1.261,3.949,7.249,7.249,0,0,0,2.877.281c2.51-.11,5.693-.368,7.527-.527-1.8-2.212-7.527-3.7-7.527-3.7Z" transform="translate(-124.656 -789.501)" fill="none"/>
    </clipPath>
    <linearGradient id="linear-gradient-26" x1="-2.597" y1="1.826" x2="-2.576" y2="1.826" xlink:href="#linear-gradient-2"/>
    <clipPath id="clip-path-44">
      <path id="Trazado_265296" data-name="Trazado 265296" d="M129.213,777.343l.151,2.994a.684.684,0,0,0,.584.643,2.657,2.657,0,0,0,1.214-.1.809.809,0,0,0,.544-.622l.523-2.914Z" transform="translate(-129.213 -777.343)" fill="none"/>
    </clipPath>
    <linearGradient id="linear-gradient-27" x1="-9.301" y1="2.842" x2="-9.229" y2="2.842" xlink:href="#linear-gradient-11"/>
    <clipPath id="clip-path-45">
      <path id="Trazado_265297" data-name="Trazado 265297" d="M36.653,816.736a1.423,1.423,0,0,0,.7,1.523,3.628,3.628,0,0,0,1.929.39,1.784,1.784,0,0,0,1.446-.862l0-.008a3.829,3.829,0,0,1-2.767.189,1.578,1.578,0,0,1-1.306-1.248l0,.015" transform="translate(-36.626 -816.721)" fill="none"/>
    </clipPath>
    <linearGradient id="linear-gradient-28" x1="-1.875" y1="0.988" x2="-1.823" y2="0.988" xlink:href="#linear-gradient-7"/>
    <clipPath id="clip-path-46">
      <path id="Trazado_265298" data-name="Trazado 265298" d="M36.764,789.216a1.578,1.578,0,0,0,1.306,1.248,3.83,3.83,0,0,0,2.767-.189,19.53,19.53,0,0,0,1.9-6.193,2.313,2.313,0,0,0-.919-2.491H40.458c-2.014,0-3.279,5.492-3.694,7.626" transform="translate(-36.764 -781.59)" fill="none"/>
    </clipPath>
    <linearGradient id="linear-gradient-29" x1="-1.272" y1="1.049" x2="-1.238" y2="1.049" xlink:href="#linear-gradient-2"/>
    <clipPath id="clip-path-47">
      <path id="Trazado_265299" data-name="Trazado 265299" d="M51.208,771.736a.8.8,0,0,0,.416.905,2.835,2.835,0,0,0,1.533.371.667.667,0,0,0,.545-.445l1.087-3.1-2.84-.678Z" transform="translate(-51.184 -768.792)" fill="none"/>
    </clipPath>
    <linearGradient id="linear-gradient-30" x1="-3.008" y1="2.879" x2="-2.949" y2="2.879" xlink:href="#linear-gradient-11"/>
    <clipPath id="clip-path-48">
      <path id="Trazado_265300" data-name="Trazado 265300" d="M52.042,626.6a8.963,8.963,0,0,0,3.418,1.242c3.585-9.845,14.876-29.6,14.876-29.6-1.4,8.476-2,30.582-2,30.582a5.5,5.5,0,0,0,3.819-.106c-.109-.227,6.506-41.58,6.506-41.58l-11.22-.836c-3.243,4.737-15.4,40.3-15.4,40.3" transform="translate(-52.042 -586.303)" fill="none"/>
    </clipPath>
    <linearGradient id="linear-gradient-31" x1="0.015" y1="1.17" x2="0.02" y2="1.17" xlink:href="#linear-gradient-7"/>
    <clipPath id="clip-path-49">
      <path id="Trazado_265301" data-name="Trazado 265301" d="M140.813,618.317l-1.819.366a.267.267,0,0,0-.173.119l-2.473,3.949a.266.266,0,1,0,.451.282l2.412-3.852,1.707-.343a.266.266,0,0,0-.1-.521" transform="translate(-136.307 -618.312)" fill="none"/>
    </clipPath>
    <linearGradient id="linear-gradient-32" x1="-4.16" y1="6.7" x2="-4.129" y2="6.7" xlink:href="#linear-gradient-7"/>
    <clipPath id="clip-path-50">
      <path id="Trazado_265302" data-name="Trazado 265302" d="M248.383,405.851a2.479,2.479,0,0,0-1.214,1.221c-.812,1.779-3.242,6.24-7.953,8.368a12.979,12.979,0,0,1,2.247,5.923c2.83-2.106,5.273-5.624,6.446-11.393a2.3,2.3,0,0,0,2.007-.056c.589-.286,1.268-.691,1.779-1.01a2.331,2.331,0,0,0,1.034-1.388,8.051,8.051,0,0,0,.08-2.151l2.295-.711a.816.816,0,0,0,.46-1.041,44.34,44.34,0,0,0-7.179,2.238" transform="translate(-239.215 -403.613)" fill="none"/>
    </clipPath>
    <linearGradient id="linear-gradient-33" x1="-1.991" y1="3.954" x2="-1.982" y2="3.954" xlink:href="#linear-gradient-11"/>
    <clipPath id="clip-path-51">
      <path id="Trazado_265303" data-name="Trazado 265303" d="M76.366,458.688a5.469,5.469,0,0,0-3.3,3c-1.9,4.369-4.986,14.319,3.571,19.342a21.225,21.225,0,0,1,2.065-3.908c-1.378-2.325-1.786-5.5.659-9.633,1.783,4.815,2.619,11.84,2.794,14.949a6.682,6.682,0,0,1-.524,2.99l-.044.1a.354.354,0,0,0,.249.483,40.588,40.588,0,0,0,11.324.664.618.618,0,0,0,.551-.472c2.342-9.87,2.348-16.6,1.774-20.859,2.191.49,8.892,1.535,14.22-2.431A12.98,12.98,0,0,0,107.459,457c-2.927,1.322-6.734,1.745-11.583.065a5.154,5.154,0,0,0-1.386-.273c-.737-.043-1.959-.1-3.492-.1a49,49,0,0,0-14.632,1.995" transform="translate(-70.927 -456.693)" fill="none"/>
    </clipPath>
    <linearGradient id="linear-gradient-34" x1="-0.151" y1="1.878" x2="-0.147" y2="1.878" xlink:href="#linear-gradient-10"/>
    <clipPath id="clip-path-52">
      <path id="Trazado_265304" data-name="Trazado 265304" d="M175.127,467.776a.266.266,0,0,0-.083.367,16.287,16.287,0,0,1,1.672,5.958.265.265,0,0,0,.263.231l.036,0a.266.266,0,0,0,.228-.3c-.565-4.269-1.7-6.1-1.749-6.173a.266.266,0,0,0-.225-.123.263.263,0,0,0-.141.041" transform="translate(-175.003 -467.735)" fill="none"/>
    </clipPath>
    <linearGradient id="linear-gradient-35" x1="-16.529" y1="11.777" x2="-16.435" y2="11.777" xlink:href="#linear-gradient-6"/>
    <clipPath id="clip-path-53">
      <path id="Trazado_265305" data-name="Trazado 265305" d="M125.049,437.328a.521.521,0,0,0,.246.6,5.045,5.045,0,0,0,4.864-.076,1.084,1.084,0,0,0,.6-1.02l-.211-4.979-4.584-1.2s-.487,5.153-.917,6.677" transform="translate(-125.029 -430.651)" fill="none"/>
    </clipPath>
    <linearGradient id="linear-gradient-36" x1="-2.724" y1="11.739" x2="-2.701" y2="11.739" xlink:href="#linear-gradient-11"/>
    <clipPath id="clip-path-54">
      <path id="Trazado_265306" data-name="Trazado 265306" d="M284.615,413.376l-1.949.39a.263.263,0,0,0-.121.059l-1.036.889a.266.266,0,1,0,.346.4l.983-.844,1.683-.337a.168.168,0,0,1,0,.086c-.021.092-.138.2-.328.309a16.405,16.405,0,0,0-2.264,2.382.266.266,0,0,0,.413.335,15.464,15.464,0,0,1,2.113-2.255,1.071,1.071,0,0,0,.584-.65.822.822,0,0,0-.155-.658.263.263,0,0,0-.219-.117.281.281,0,0,0-.053.005" transform="translate(-281.417 -413.371)" fill="none"/>
    </clipPath>
    <linearGradient id="linear-gradient-37" x1="-11.434" y1="17.149" x2="-11.392" y2="17.149" xlink:href="#linear-gradient-11"/>
    <clipPath id="clip-path-55">
      <path id="Trazado_265307" data-name="Trazado 265307" d="M97.232,554.723c1.868,1.1,4.321,3,7.43,3.519l7.034-.153s-6.134-1.734-6.514-1.262a21.526,21.526,0,0,1-5.885-6.012,21.225,21.225,0,0,0-2.065,3.908" transform="translate(-97.232 -550.815)" fill="none"/>
    </clipPath>
    <linearGradient id="linear-gradient-38" x1="-1.495" y1="3.962" x2="-1.48" y2="3.962" xlink:href="#linear-gradient-11"/>
    <clipPath id="clip-path-56">
      <path id="Trazado_265308" data-name="Trazado 265308" d="M134.079,581.813a18.509,18.509,0,0,0,5.227-2.085s-8.413-.022-8.761-.31c0,0-.145,2.8,3.534,2.4" transform="translate(-130.544 -579.418)" fill="none"/>
    </clipPath>
    <linearGradient id="linear-gradient-39" x1="-3.142" y1="7.659" x2="-3.118" y2="7.659" xlink:href="#linear-gradient-11"/>
    <clipPath id="clip-path-57">
      <path id="Trazado_265309" data-name="Trazado 265309" d="M152.03,575.661l-17.489.019a.774.774,0,0,0-.039,1.548h.04l17.488-.019a.775.775,0,1,0,.012-1.549h-.014" transform="translate(-133.759 -575.661)" fill="none"/>
    </clipPath>
    <linearGradient id="linear-gradient-40" x1="-4.691" y1="3.376" x2="-4.662" y2="3.376" xlink:href="#linear-gradient-2"/>
    <clipPath id="clip-path-58">
      <path id="Trazado_265310" data-name="Trazado 265310" d="M189.923,510.506a2.778,2.778,0,0,0-2.511,1.575l-6.733,14.127h18.1a1.687,1.687,0,0,0,1.569-1.056l5.221-13.072a1.152,1.152,0,0,0-1.082-1.574Z" transform="translate(-180.679 -510.506)" fill="none"/>
    </clipPath>
    <linearGradient id="linear-gradient-41" x1="-1.281" y1="2.608" x2="-1.274" y2="2.608" xlink:href="#linear-gradient-2"/>
    <clipPath id="clip-path-59">
      <path id="Trazado_265311" data-name="Trazado 265311" d="M242.58,538.667c-.315.97-.082,1.912.521,2.1s1.348-.439,1.664-1.409.083-1.912-.521-2.1a.738.738,0,0,0-.224-.035c-.553,0-1.162.591-1.439,1.443" transform="translate(-242.439 -537.224)" fill="none"/>
    </clipPath>
    <linearGradient id="linear-gradient-42" x1="-11.701" y1="13.497" x2="-11.651" y2="13.497" xlink:href="#linear-gradient-7"/>
    <clipPath id="clip-path-60">
      <path id="Trazado_265312" data-name="Trazado 265312" d="M130.206,397.523l2.772,7.354,4.6-.893s-1.733-8.016-1.8-8.121a1.127,1.127,0,0,0-1.032-.5c-1.711,0-4.539,2.164-4.539,2.164" transform="translate(-130.206 -395.359)" fill="none"/>
    </clipPath>
    <linearGradient id="linear-gradient-43" x1="-2.651" y1="11.32" x2="-2.629" y2="11.32" xlink:href="#linear-gradient-11"/>
    <clipPath id="clip-path-61">
      <path id="Trazado_265313" data-name="Trazado 265313" d="M125.7,381.3a1.731,1.731,0,0,0-1.438,1.727.571.571,0,0,1-.641.55.459.459,0,0,0-.485.194.58.58,0,0,1-.712.218,2.123,2.123,0,0,0-2.565.461,1.505,1.505,0,0,0,.065,2.244.58.58,0,0,1-.034.835,1.5,1.5,0,0,0-.044,2.412.571.571,0,0,0,.418.164c.477-.015,1.611.03,2.033.752.45.769,1.609,3.707,1.987,4.675a.579.579,0,0,0,.468.364,18.678,18.678,0,0,0,4.35-.112.578.578,0,0,0,.5-.6,25,25,0,0,0-.544-3.851.579.579,0,0,0-.635-.453,5.218,5.218,0,0,0-2.213,1.339c-.888.734-1.549-.175-1.721-.452a.574.574,0,0,1-.064-.144l-1.156-3.985a.575.575,0,0,1,.081-.492c.318-.452,1.1-1.378,2.071-1.249,1.279.17,3.5-.252,3.454-1.686-.036-1.279-.935-2.995-2.558-2.994a2.569,2.569,0,0,0-.623.08" transform="translate(-119.255 -381.218)" fill="none"/>
    </clipPath>
    <linearGradient id="linear-gradient-44" x1="-1.299" y1="5.342" x2="-1.286" y2="5.342" xlink:href="#linear-gradient-2"/>
    <clipPath id="clip-path-62">
      <path id="Trazado_265314" data-name="Trazado 265314" d="M123.21,421.909c1.176,1.8,2.332.618,2.332.618s-.178-2.5-1.2-2.676a1.679,1.679,0,0,0-.289-.025c-.916,0-1.7.772-.841,2.084" transform="translate(-122.841 -419.825)" fill="none"/>
    </clipPath>
    <linearGradient id="linear-gradient-45" x1="-5.702" y1="22.343" x2="-5.654" y2="22.343" xlink:href="#linear-gradient-11"/>
  </defs>
  <g id="Grupo_882128" data-name="Grupo 882128" transform="translate(-863 -4175)">
    <g id="Grupo_877604" data-name="Grupo 877604" transform="translate(155 3106)">
      <path id="Trazado_263756" data-name="Trazado 263756" d="M92,0A92,92,0,1,1,0,92,92,92,0,0,1,92,0Z" transform="translate(708 1069)" fill="#362555"/>
      <circle id="Elipse_4920" data-name="Elipse 4920" cx="87" cy="87" r="87" transform="translate(713 1074)" fill="#fff"/>
    </g>
    <g id="Grupo_880107" data-name="Grupo 880107" transform="translate(864.618 4184.136)">
      <g id="Grupo_880238" data-name="Grupo 880238" clip-path="url(#clip-path)">
        <g id="Grupo_880108" data-name="Grupo 880108" transform="translate(1.07)">
          <g id="Grupo_880107-2" data-name="Grupo 880107" clip-path="url(#clip-path-2)">
            <rect id="Rectángulo_297810" data-name="Rectángulo 297810" width="264.715" height="264.19" transform="translate(-97.555 84.917) rotate(-43.21)" fill="url(#linear-gradient)"/>
          </g>
        </g>
        <g id="Grupo_880122" data-name="Grupo 880122">
          <g id="Grupo_880121" data-name="Grupo 880121" clip-path="url(#clip-path)">
            <g id="Grupo_880111" data-name="Grupo 880111" transform="translate(37.625 10.391)" opacity="0.3">
              <g id="Grupo_880110" data-name="Grupo 880110">
                <g id="Grupo_880109" data-name="Grupo 880109" clip-path="url(#clip-path-4)">
                  <path id="Trazado_265248" data-name="Trazado 265248" d="M173.877,73.388a.641.641,0,0,1-.554-.654c.022-.724.075-1.458.159-2.181a.641.641,0,0,1,.711-.563l.012,0a.641.641,0,0,1,.551.709c-.08.687-.13,1.384-.151,2.072a.641.641,0,0,1-.66.622.624.624,0,0,1-.067-.006m.79-5.53a.659.659,0,0,1-.075-.015.641.641,0,0,1-.461-.781c.182-.7.4-1.408.635-2.091a.641.641,0,1,1,1.21.424c-.228.649-.43,1.318-.6,1.987a.641.641,0,0,1-.706.475m1.988-5.218a.641.641,0,0,1-.484-.93c.333-.645.7-1.283,1.085-1.9a.641.641,0,1,1,1.085.684c-.368.583-.715,1.19-1.031,1.8a.641.641,0,0,1-.656.341M179.759,58a.641.641,0,0,1-.4-1.05c.469-.554.968-1.1,1.482-1.607a.641.641,0,0,1,.9.909c-.489.486-.962,1-1.408,1.527a.642.642,0,0,1-.576.221m4.062-3.835a.641.641,0,0,1-.3-1.148c.579-.435,1.185-.852,1.8-1.239A.641.641,0,1,1,186,52.862c-.585.367-1.161.763-1.711,1.177a.638.638,0,0,1-.471.123m4.809-2.84a.641.641,0,0,1-.177-1.221c.662-.3,1.345-.57,2.031-.809a.641.641,0,0,1,.424,1.21c-.651.228-1.3.487-1.929.769a.639.639,0,0,1-.348.051m23.487,1.636a.637.637,0,0,1-.255-.093c-.583-.366-1.19-.712-1.8-1.028a.641.641,0,1,1,.586-1.14c.647.332,1.286.7,1.9,1.083a.641.641,0,0,1-.427,1.179m-18.171-3.339a.641.641,0,0,1-.04-1.264c.712-.143,1.438-.256,2.159-.337a.641.641,0,1,1,.143,1.274c-.685.077-1.375.184-2.051.32a.639.639,0,0,1-.212.007m13.137.92a.631.631,0,0,1-.125-.03c-.651-.227-1.32-.428-1.99-.6a.641.641,0,0,1,.318-1.243c.7.18,1.408.392,2.093.631a.641.641,0,0,1-.3,1.241m-7.574-1.392a.641.641,0,0,1,.1-1.276c.725.02,1.458.072,2.18.155l.013,0a.641.641,0,0,1-.159,1.272c-.686-.078-1.383-.127-2.071-.147a.648.648,0,0,1-.069-.006" transform="translate(-173.323 -47.87)" fill="#91b3fa"/>
                  <path id="Trazado_265249" data-name="Trazado 265249" d="M363.753,76.839a.636.636,0,0,1-.347-.162c-.244-.224-.5-.445-.75-.66a.641.641,0,1,1,.828-.979c.267.226.532.459.789.694a.641.641,0,0,1-.52,1.108" transform="translate(-321.378 -69.02)" fill="#91b3fa"/>
                </g>
              </g>
            </g>
            <g id="Grupo_880114" data-name="Grupo 880114" transform="translate(44.891 33.697)" opacity="0.3">
              <g id="Grupo_880113" data-name="Grupo 880113">
                <g id="Grupo_880112" data-name="Grupo 880112" clip-path="url(#clip-path-5)">
                  <path id="Trazado_265250" data-name="Trazado 265250" d="M403.7,157.529a.642.642,0,0,1-.554-.62c-.008-.33-.023-.666-.045-1a.641.641,0,0,1,1.28-.084c.023.349.039.7.047,1.051a.64.64,0,0,1-.728.651" transform="translate(-360.485 -155.228)" fill="#91b3fa"/>
                  <path id="Trazado_265251" data-name="Trazado 265251" d="M233.995,198.879q-.439-.059-.878-.134a.641.641,0,0,1,.214-1.264c.677.115,1.356.2,2.028.259a.641.641,0,0,1-.109,1.278c-.415-.036-.838-.082-1.255-.139m-4.169-.927a.647.647,0,0,1-.107-.024c-.682-.214-1.364-.459-2.024-.729a.641.641,0,1,1,.485-1.187c.627.256,1.274.489,1.923.692a.641.641,0,0,1-.277,1.247m8.8,1.12a.641.641,0,0,1,.054-1.276c.676-.035,1.36-.1,2.034-.192a.641.641,0,1,1,.174,1.271c-.709.1-1.429.165-2.142.2a.661.661,0,0,1-.12-.005m-13.831-3.332a.639.639,0,0,1-.235-.081c-.618-.358-1.229-.748-1.815-1.157a.641.641,0,1,1,.734-1.051c.556.388,1.136.758,1.723,1.1a.641.641,0,0,1-.408,1.19m19.251,2.442a.641.641,0,0,1-.087-1.253c.652-.183,1.305-.4,1.942-.634a.641.641,0,1,1,.449,1.2c-.67.251-1.358.475-2.044.668a.638.638,0,0,1-.259.018m5.095-2.057a.641.641,0,0,1-.219-1.2c.6-.322,1.189-.673,1.757-1.043a.641.641,0,1,1,.7,1.075c-.6.389-1.22.759-1.85,1.1a.638.638,0,0,1-.389.071m4.525-3.119a.641.641,0,0,1-.333-1.12c.514-.445,1.015-.916,1.488-1.4a.641.641,0,0,1,.917.9c-.5.51-1.026,1.006-1.567,1.474a.64.64,0,0,1-.506.15m3.737-4.031a.641.641,0,0,1-.429-1.017c.4-.546.789-1.115,1.145-1.693a.641.641,0,1,1,1.091.673c-.375.608-.781,1.208-1.206,1.782a.641.641,0,0,1-.6.254m2.761-4.755a.642.642,0,0,1-.5-.894c.273-.62.523-1.26.743-1.9a.641.641,0,0,1,1.213.416c-.232.676-.5,1.35-.783,2a.642.642,0,0,1-.673.377m1.648-5.242-.039-.007a.641.641,0,0,1-.5-.753c.1-.49.18-.989.247-1.484q.036-.268.066-.536a.641.641,0,0,1,.709-.565.634.634,0,0,1,.565.709q-.032.282-.07.564c-.07.52-.158,1.045-.26,1.561a.641.641,0,0,1-.714.511" transform="translate(-219.067 -171.2)" fill="#91b3fa"/>
                  <path id="Trazado_265252" data-name="Trazado 265252" d="M208.089,246.009a.64.64,0,0,1-.349-.165c-.255-.236-.509-.481-.756-.73a.641.641,0,1,1,.909-.9c.235.236.477.47.719.694a.641.641,0,0,1-.522,1.106" transform="translate(-206.797 -224.745)" fill="#91b3fa"/>
                </g>
              </g>
            </g>
            <path id="Trazado_265253" data-name="Trazado 265253" d="M206.991,107.593a.3.3,0,0,0,.32.136l3.561-.789a15.881,15.881,0,0,0,4.164,3.026l.352,3.628a.3.3,0,0,0,.228.262l4.254,1.02a.3.3,0,0,0,.323-.13l1.959-3.074a15.884,15.884,0,0,0,5.083-.808l2.816,2.318a.3.3,0,0,0,.347.024l3.729-2.287a.3.3,0,0,0,.136-.32l-.789-3.561a15.885,15.885,0,0,0,3.026-4.164l3.628-.352a.3.3,0,0,0,.262-.228l1.02-4.254a.3.3,0,0,0-.13-.323l-3.074-1.959a15.881,15.881,0,0,0-.808-5.083l2.318-2.816a.3.3,0,0,0,.024-.347l-2.287-3.729a.3.3,0,0,0-.32-.136l-3.561.789a15.887,15.887,0,0,0-4.164-3.026l-.352-3.628a.3.3,0,0,0-.228-.262l-4.254-1.02a.3.3,0,0,0-.323.13L222.295,79.7a15.884,15.884,0,0,0-5.084.808L214.4,78.193a.3.3,0,0,0-.347-.024l-3.73,2.287a.3.3,0,0,0-.136.32l.789,3.561a15.887,15.887,0,0,0-3.026,4.164l-3.628.352a.3.3,0,0,0-.262.228l-1.02,4.254a.3.3,0,0,0,.13.323l3.074,1.959a15.89,15.89,0,0,0,.808,5.084l-2.318,2.816a.3.3,0,0,0-.024.347Z" transform="translate(-158.954 -59.886)" fill="#91b3fa"/>
            <path id="Trazado_265254" data-name="Trazado 265254" d="M275.008,153.423a4.4,4.4,0,1,1,.645.039,4.4,4.4,0,0,1-.645-.039m1.051-7.7a3.432,3.432,0,0,0-.5-.031,3.361,3.361,0,1,0,.5.031" transform="translate(-212.33 -113.263)" fill="#bdd0fb"/>
            <path id="Trazado_265255" data-name="Trazado 265255" d="M251.375,136.388a11.011,11.011,0,0,1-1.092-.2q-.171-.041-.341-.088a10.885,10.885,0,0,1-1.628-.589l-.021-.01-.061-.028-.118-.056a.256.256,0,0,1,.222-.462,10.313,10.313,0,0,0,11.633-1.886,10.237,10.237,0,0,0,2.852-4.994,10.463,10.463,0,0,0,.195-1.042,10.3,10.3,0,0,0-20.226-3.762,10.382,10.382,0,0,0-.192,1.029,10.267,10.267,0,0,0,.378,4.455.257.257,0,0,1-.49.154,10.781,10.781,0,0,1-.4-4.677q.073-.543.2-1.08a10.814,10.814,0,0,1,21.234,3.95,11.075,11.075,0,0,1-.2,1.094,10.814,10.814,0,0,1-11.944,8.2" transform="translate(-189.46 -89.923)" fill="#bdd0fb"/>
            <g id="Grupo_880117" data-name="Grupo 880117" transform="translate(13.71 29.708)" opacity="0.3">
              <g id="Grupo_880116" data-name="Grupo 880116">
                <g id="Grupo_880115" data-name="Grupo 880115" clip-path="url(#clip-path-6)">
                  <path id="Trazado_265256" data-name="Trazado 265256" d="M63.9,222.656a.4.4,0,0,1-.338-.333c-.051-.332-.092-.671-.122-1.006a.4.4,0,1,1,.789-.072c.029.319.068.642.117.959a.4.4,0,0,1-.332.451.4.4,0,0,1-.113,0" transform="translate(-63.373 -202.643)" fill="#91b3fa"/>
                  <path id="Trazado_265257" data-name="Trazado 265257" d="M63.5,153.825a.4.4,0,0,1-.342-.405,17.141,17.141,0,0,1,.145-1.736q.024-.181.053-.363a.41.41,0,0,1,.453-.33.4.4,0,0,1,.33.453q-.027.174-.051.347a16.444,16.444,0,0,0-.139,1.656.4.4,0,0,1-.409.383l-.041,0m.637-4.062a.379.379,0,0,1-.056-.011.4.4,0,0,1-.273-.49,17.2,17.2,0,0,1,.7-1.988.4.4,0,0,1,.729.308,16.435,16.435,0,0,0-.668,1.9.4.4,0,0,1-.433.284m1.6-3.786a.4.4,0,0,1-.289-.591,17.05,17.05,0,0,1,1.168-1.756.4.4,0,0,1,.631.479,16.292,16.292,0,0,0-1.114,1.675.4.4,0,0,1-.4.194m2.485-3.276a.4.4,0,0,1-.23-.669,17.152,17.152,0,0,1,1.562-1.416.4.4,0,0,1,.495.619,16.316,16.316,0,0,0-1.489,1.35.4.4,0,0,1-.337.116m3.21-2.57a.4.4,0,0,1-.155-.73,17.381,17.381,0,0,1,1.858-.994.4.4,0,0,1,.33.72,16.481,16.481,0,0,0-1.773.948.4.4,0,0,1-.261.055m3.736-1.713a.4.4,0,0,1-.067-.77,17.046,17.046,0,0,1,2.044-.511.4.4,0,0,1,.144.779,16.214,16.214,0,0,0-1.949.487.4.4,0,0,1-.173.015m4.04-.747a.4.4,0,0,1,.03-.788,17.122,17.122,0,0,1,2.108.007.4.4,0,1,1-.051.791,16.266,16.266,0,0,0-2.01-.007.392.392,0,0,1-.077,0m6.1.774a.384.384,0,0,1-.068-.015,16.435,16.435,0,0,0-1.691-.443c-.087-.018-.172-.035-.257-.051a.4.4,0,0,1,.147-.778c.091.017.182.035.272.054a17.211,17.211,0,0,1,1.771.465.4.4,0,0,1-.173.77" transform="translate(-63.156 -136.854)" fill="#91b3fa"/>
                </g>
              </g>
            </g>
            <g id="Grupo_880120" data-name="Grupo 880120" transform="translate(18.571 55.848)" opacity="0.3">
              <g id="Grupo_880119" data-name="Grupo 880119">
                <g id="Grupo_880118" data-name="Grupo 880118" clip-path="url(#clip-path-7)">
                  <path id="Trazado_265258" data-name="Trazado 265258" d="M104.1,265.218a.4.4,0,0,1,.1-.785,16.329,16.329,0,0,0,1.974.12.4.4,0,0,1,0,.792,17.238,17.238,0,0,1-2.069-.126H104.1m-1.993-.366-.042-.008a17.314,17.314,0,0,1-1.98-.616.4.4,0,0,1,.28-.741,16.59,16.59,0,0,0,1.889.588.4.4,0,0,1-.147.777m6.036.366a.4.4,0,0,1,0-.785,16.414,16.414,0,0,0,1.945-.36.4.4,0,0,1,.191.769,17.138,17.138,0,0,1-2.039.378.389.389,0,0,1-.1,0m-9.819-1.8a.391.391,0,0,1-.131-.042,17.025,17.025,0,0,1-1.774-1.076.4.4,0,1,1,.452-.651,16.26,16.26,0,0,0,1.691,1.026.4.4,0,0,1-.237.743m13.742.823a.4.4,0,0,1-.089-.762,16.32,16.32,0,0,0,1.8-.817.4.4,0,1,1,.371.7,17.227,17.227,0,0,1-1.888.857.4.4,0,0,1-.194.022m3.575-1.889a.4.4,0,0,1-.173-.718,16.543,16.543,0,0,0,1.554-1.224.4.4,0,1,1,.527.591,17.276,17.276,0,0,1-1.629,1.284.394.394,0,0,1-.279.067m3.019-2.692a.4.4,0,0,1-.244-.654,16.207,16.207,0,0,0,1.215-1.561.4.4,0,0,1,.654.447,17.151,17.151,0,0,1-1.274,1.638.4.4,0,0,1-.351.13" transform="translate(-93.928 -257.272)" fill="#91b3fa"/>
                  <path id="Trazado_265259" data-name="Trazado 265259" d="M86.608,269.614a.393.393,0,0,1-.211-.1c-.253-.226-.5-.46-.735-.7a.4.4,0,0,1,.562-.559c.224.226.46.449.7.665a.4.4,0,0,1-.317.688" transform="translate(-85.548 -265.785)" fill="#91b3fa"/>
                </g>
              </g>
            </g>
            <path id="Trazado_265260" data-name="Trazado 265260" d="M85.525,176.7a.2.2,0,0,0,.214.091l2.383-.528a10.629,10.629,0,0,0,2.786,2.025l.236,2.428a.2.2,0,0,0,.153.176l2.847.683a.2.2,0,0,0,.216-.087l1.311-2.057a10.637,10.637,0,0,0,3.4-.541l1.884,1.551a.2.2,0,0,0,.232.016l2.5-1.53a.2.2,0,0,0,.091-.214l-.528-2.383a10.635,10.635,0,0,0,2.025-2.786l2.427-.235a.2.2,0,0,0,.176-.153l.683-2.847a.2.2,0,0,0-.087-.216l-2.057-1.311a10.622,10.622,0,0,0-.541-3.4l1.551-1.884a.2.2,0,0,0,.016-.232l-1.53-2.5a.2.2,0,0,0-.214-.091l-2.383.528a10.634,10.634,0,0,0-2.786-2.025l-.235-2.428a.2.2,0,0,0-.153-.176l-2.847-.683a.2.2,0,0,0-.216.087l-1.311,2.057a10.636,10.636,0,0,0-3.4.541l-1.884-1.551a.2.2,0,0,0-.232-.016l-2.5,1.53a.2.2,0,0,0-.091.214l.528,2.383a10.625,10.625,0,0,0-2.025,2.786l-2.428.235a.2.2,0,0,0-.176.153l-.683,2.847a.2.2,0,0,0,.087.216l2.057,1.311a10.628,10.628,0,0,0,.541,3.4l-1.551,1.884A.2.2,0,0,0,84,174.2Z" transform="translate(-64.883 -122.048)" fill="#91b3fa"/>
            <path id="Trazado_265261" data-name="Trazado 265261" d="M130.837,207.228a3,3,0,1,1,.443.027,3.033,3.033,0,0,1-.443-.027m.7-5.151a2.2,2.2,0,1,0,1.906,2.157,2.211,2.211,0,0,0-1.906-2.157" transform="translate(-100.41 -157.574)" fill="#bdd0fb"/>
            <path id="Trazado_265262" data-name="Trazado 265262" d="M114.377,195.37q-.373-.05-.746-.14a7.49,7.49,0,0,1-1.435-.5l-.062-.03a.4.4,0,0,1,.343-.714,6.685,6.685,0,0,0,1.338.475h0l.076.018a6.6,6.6,0,0,0,3.265-.074,6.706,6.706,0,0,0,1.648-.712l.013-.008.039-.024a6.624,6.624,0,0,0,3-4.129,6.7,6.7,0,0,0,.126-.674,6.668,6.668,0,1,0-12.974,1.114.391.391,0,0,1,.015.172.4.4,0,0,1-.77.066,7.46,7.46,0,1,1,14.514-1.246,7.666,7.666,0,0,1-.141.754,7.471,7.471,0,0,1-8.248,5.654" transform="translate(-84.486 -141.327)" fill="#bdd0fb"/>
          </g>
        </g>
        <g id="Grupo_880124" data-name="Grupo 880124" transform="translate(7.284 52.036)">
          <g id="Grupo_880123" data-name="Grupo 880123" clip-path="url(#clip-path-8)">
            <rect id="Rectángulo_297816" data-name="Rectángulo 297816" width="106.15" height="170.081" transform="matrix(0.022, -1, 1, 0.022, -2.264, 102.493)" fill="url(#linear-gradient-2)"/>
          </g>
        </g>
        <g id="Grupo_880126" data-name="Grupo 880126">
          <g id="Grupo_880125" data-name="Grupo 880125" clip-path="url(#clip-path)">
            <path id="Trazado_265264" data-name="Trazado 265264" d="M48.953,349.04a2.781,2.781,0,0,0,2.773,2.773H203.664a2.781,2.781,0,0,0,2.773-2.773l1.245-82.686a6.824,6.824,0,0,0-7.153-6.659L52.071,255.712a5.191,5.191,0,0,0-5.326,5.312Z" transform="translate(-36.597 -200.201)" fill="#91b3fa"/>
          </g>
        </g>
        <g id="Grupo_880128" data-name="Grupo 880128" transform="translate(167.792 102.038)">
          <g id="Grupo_880127" data-name="Grupo 880127" clip-path="url(#clip-path-10)">
            <rect id="Rectángulo_297818" data-name="Rectángulo 297818" width="0.918" height="7.519" transform="translate(-0.003 0)" fill="url(#linear-gradient-3)"/>
          </g>
        </g>
        <g id="Grupo_880130" data-name="Grupo 880130" transform="translate(114.697 59.798)">
          <g id="Grupo_880129" data-name="Grupo 880129" clip-path="url(#clip-path-11)">
            <rect id="Rectángulo_297819" data-name="Rectángulo 297819" width="54.532" height="33.327" transform="translate(-0.006 0)" fill="url(#linear-gradient-4)"/>
          </g>
        </g>
        <g id="Grupo_880132" data-name="Grupo 880132" transform="translate(0 154.134)">
          <g id="Grupo_880131" data-name="Grupo 880131" clip-path="url(#clip-path-12)">
            <rect id="Rectángulo_297820" data-name="Rectángulo 297820" width="50.125" height="177.608" transform="translate(-1.823 7.564) rotate(-76.452)" fill="url(#linear-gradient-5)"/>
          </g>
        </g>
        <g id="Grupo_880143" data-name="Grupo 880143">
          <g id="Grupo_880142" data-name="Grupo 880142" clip-path="url(#clip-path)">
            <g id="Grupo_880135" data-name="Grupo 880135" transform="translate(15.354 62.617)" opacity="0.44">
              <g id="Grupo_880134" data-name="Grupo 880134">
                <g id="Grupo_880133" data-name="Grupo 880133" clip-path="url(#clip-path-14)">
                  <path id="Trazado_265267" data-name="Trazado 265267" d="M215.565,314.947H74.771a3.963,3.963,0,0,1-4.039-3.883V292.334a3.966,3.966,0,0,1,4.1-3.883l140.8,2a3.96,3.96,0,0,1,3.979,3.883v16.731a3.963,3.963,0,0,1-4.039,3.883" transform="translate(-70.732 -288.451)" fill="#fff"/>
                </g>
              </g>
            </g>
            <g id="Grupo_880138" data-name="Grupo 880138" transform="translate(16.9 93.125)" opacity="0.44">
              <g id="Grupo_880137" data-name="Grupo 880137">
                <g id="Grupo_880136" data-name="Grupo 880136" clip-path="url(#clip-path-15)">
                  <path id="Trazado_265268" data-name="Trazado 265268" d="M221.543,464.387H81.489a3.636,3.636,0,0,1-3.636-3.636V432.625a3.636,3.636,0,0,1,3.636-3.636H221.543a3.636,3.636,0,0,1,3.636,3.636v28.126a3.636,3.636,0,0,1-3.636,3.636" transform="translate(-77.853 -428.989)" fill="#fff"/>
                </g>
              </g>
            </g>
            <g id="Grupo_880141" data-name="Grupo 880141" transform="translate(16.9 132.939)" opacity="0.44">
              <g id="Grupo_880140" data-name="Grupo 880140">
                <g id="Grupo_880139" data-name="Grupo 880139" clip-path="url(#clip-path-16)">
                  <path id="Trazado_265269" data-name="Trazado 265269" d="M223.366,627.609H79.668a1.814,1.814,0,0,1-1.814-1.814V614.212a1.814,1.814,0,0,1,1.814-1.814h143.7a1.814,1.814,0,0,1,1.814,1.814v11.583a1.814,1.814,0,0,1-1.814,1.814" transform="translate(-77.854 -612.398)" fill="#fff"/>
                </g>
              </g>
            </g>
          </g>
        </g>
        <g id="Grupo_880145" data-name="Grupo 880145" transform="translate(43.368 39.678)">
          <g id="Grupo_880144" data-name="Grupo 880144" clip-path="url(#clip-path-17)">
            <rect id="Rectángulo_297826" data-name="Rectángulo 297826" width="146.689" height="143.163" transform="matrix(0.408, -0.913, 0.913, 0.408, -45.675, 94.313)" fill="url(#linear-gradient-6)"/>
          </g>
        </g>
        <g id="Grupo_880153" data-name="Grupo 880153">
          <g id="Grupo_880152" data-name="Grupo 880152" clip-path="url(#clip-path)">
            <g id="Grupo_880148" data-name="Grupo 880148" transform="translate(79.942 42.575)" opacity="0.67">
              <g id="Grupo_880147" data-name="Grupo 880147">
                <g id="Grupo_880146" data-name="Grupo 880146" clip-path="url(#clip-path-19)">
                  <path id="Trazado_265271" data-name="Trazado 265271" d="M369.222,202.525a.958.958,0,0,1-.412-1.823l9.439-4.483a.958.958,0,1,1,.822,1.73l-9.439,4.483a.956.956,0,0,1-.41.093" transform="translate(-368.264 -196.126)" fill="#fff"/>
                </g>
              </g>
            </g>
            <g id="Grupo_880151" data-name="Grupo 880151" transform="translate(45.668 48.784)" opacity="0.67">
              <g id="Grupo_880150" data-name="Grupo 880150">
                <g id="Grupo_880149" data-name="Grupo 880149" clip-path="url(#clip-path-20)">
                  <path id="Trazado_265272" data-name="Trazado 265272" d="M211.392,256.184a.958.958,0,0,1-.957-.926c-.127-3.779-.06-7.72.2-11.712a7.115,7.115,0,0,1,4.052-5.959l26.874-12.764a.958.958,0,0,1,.822,1.73l-26.874,12.764a5.2,5.2,0,0,0-2.962,4.352c-.254,3.93-.32,7.807-.195,11.524a.957.957,0,0,1-.925.989h-.033" transform="translate(-210.373 -224.731)" fill="#fff"/>
                </g>
              </g>
            </g>
          </g>
        </g>
        <g id="Grupo_880155" data-name="Grupo 880155" transform="translate(53.142 49.742)">
          <g id="Grupo_880154" data-name="Grupo 880154" clip-path="url(#clip-path-21)">
            <rect id="Rectángulo_297830" data-name="Rectángulo 297830" width="110.612" height="116.815" transform="translate(-33.413 13.224) rotate(-22.166)" fill="url(#linear-gradient-7)"/>
          </g>
        </g>
        <g id="Grupo_880157" data-name="Grupo 880157" transform="translate(78.221 65.633)">
          <g id="Grupo_880156" data-name="Grupo 880156" clip-path="url(#clip-path-22)">
            <rect id="Rectángulo_297831" data-name="Rectángulo 297831" width="33.803" height="36.29" transform="translate(-6.301 25.752) rotate(-76.251)" fill="url(#linear-gradient-8)"/>
          </g>
        </g>
        <g id="Grupo_880159" data-name="Grupo 880159" transform="translate(74.936 87.785)">
          <g id="Grupo_880158" data-name="Grupo 880158" clip-path="url(#clip-path-23)">
            <rect id="Rectángulo_297832" data-name="Rectángulo 297832" width="38.461" height="43.464" transform="translate(-7.074 28.75) rotate(-76.251)" fill="url(#linear-gradient-9)"/>
          </g>
        </g>
        <g id="Grupo_880161" data-name="Grupo 880161" transform="translate(88.135 94.063)">
          <g id="Grupo_880160" data-name="Grupo 880160" clip-path="url(#clip-path-24)">
            <rect id="Rectángulo_297833" data-name="Rectángulo 297833" width="21.957" height="16.994" transform="matrix(0.334, -0.943, 0.943, 0.334, -6.086, 17.178)" fill="url(#linear-gradient-10)"/>
          </g>
        </g>
        <g id="Grupo_880163" data-name="Grupo 880163" transform="translate(117.892 45.373)">
          <g id="Grupo_880162" data-name="Grupo 880162" clip-path="url(#clip-path-25)">
            <rect id="Rectángulo_297834" data-name="Rectángulo 297834" width="37.633" height="36.805" transform="matrix(0.496, -0.868, 0.868, 0.496, -12.224, 21.417)" fill="url(#linear-gradient-11)"/>
          </g>
        </g>
        <g id="Grupo_880165" data-name="Grupo 880165" transform="translate(117.036 68.717)">
          <g id="Grupo_880164" data-name="Grupo 880164" clip-path="url(#clip-path-26)">
            <rect id="Rectángulo_297835" data-name="Rectángulo 297835" width="8.951" height="6.956" transform="translate(-0.033)" fill="url(#linear-gradient-12)"/>
          </g>
        </g>
        <g id="Grupo_880167" data-name="Grupo 880167" transform="translate(123.567 48.118)">
          <g id="Grupo_880166" data-name="Grupo 880166" clip-path="url(#clip-path-27)">
            <rect id="Rectángulo_297836" data-name="Rectángulo 297836" width="38.545" height="35.453" transform="translate(-14.267 22.79) rotate(-57.953)" fill="url(#linear-gradient-13)"/>
          </g>
        </g>
        <g id="Grupo_880169" data-name="Grupo 880169" transform="translate(123.053 73.521)">
          <g id="Grupo_880168" data-name="Grupo 880168" clip-path="url(#clip-path-28)">
            <rect id="Rectángulo_297837" data-name="Rectángulo 297837" width="7.672" height="8.331" transform="translate(-0.002 0)" fill="url(#linear-gradient-14)"/>
          </g>
        </g>
        <g id="Grupo_880171" data-name="Grupo 880171" transform="translate(132.559 46.13)">
          <g id="Grupo_880170" data-name="Grupo 880170" clip-path="url(#clip-path-29)">
            <rect id="Rectángulo_297838" data-name="Rectángulo 297838" width="29.477" height="28.402" transform="translate(-6.062 5.531) rotate(-42.381)" fill="url(#linear-gradient-15)"/>
          </g>
        </g>
        <g id="Grupo_880173" data-name="Grupo 880173" transform="translate(139.827 14.9)">
          <g id="Grupo_880172" data-name="Grupo 880172" clip-path="url(#clip-path-30)">
            <rect id="Rectángulo_297839" data-name="Rectángulo 297839" width="33.698" height="33.865" transform="matrix(0.633, -0.774, 0.774, 0.633, -12.706, 14.025)" fill="url(#linear-gradient-16)"/>
          </g>
        </g>
        <g id="Grupo_880175" data-name="Grupo 880175">
          <g id="Grupo_880174" data-name="Grupo 880174" clip-path="url(#clip-path)">
            <path id="Trazado_265283" data-name="Trazado 265283" d="M707.284,108.421a4.254,4.254,0,0,0,1.152-1.175,5.5,5.5,0,0,0,.49-2.631c-.082-4.205-4.115-5.718-7.141-6.489-.9-.23-1.855-.437-2.832-.616a.046.046,0,0,0-.017.09c.975.178,1.926.384,2.826.614,3,.764,6.991,2.26,7.072,6.4a5.418,5.418,0,0,1-.477,2.582,4.265,4.265,0,0,1-1.654,1.459.046.046,0,0,0,.04.082,3.905,3.905,0,0,0,.54-.318" transform="translate(-547.184 -76.341)" fill="#bdd0fb"/>
          </g>
        </g>
        <g id="Grupo_880177" data-name="Grupo 880177" transform="translate(140.512 26.659)">
          <g id="Grupo_880176" data-name="Grupo 880176" clip-path="url(#clip-path-32)">
            <rect id="Rectángulo_297841" data-name="Rectángulo 297841" width="27.941" height="27.737" transform="matrix(0.766, -0.643, 0.643, 0.766, -9.599, 7.825)" fill="url(#linear-gradient-17)"/>
          </g>
        </g>
        <g id="Grupo_880179" data-name="Grupo 880179" transform="translate(139.977 42.435)">
          <g id="Grupo_880178" data-name="Grupo 880178" clip-path="url(#clip-path-33)">
            <rect id="Rectángulo_297842" data-name="Rectángulo 297842" width="21.9" height="5.168" transform="translate(0 0)" fill="url(#linear-gradient-18)"/>
          </g>
        </g>
        <g id="Grupo_880181" data-name="Grupo 880181" transform="translate(142.399 20.702)">
          <g id="Grupo_880180" data-name="Grupo 880180" clip-path="url(#clip-path-34)">
            <rect id="Rectángulo_297843" data-name="Rectángulo 297843" width="7.821" height="6.326" transform="translate(-0.552 7.43) rotate(-86.328)" fill="url(#linear-gradient-19)"/>
          </g>
        </g>
        <g id="Grupo_880183" data-name="Grupo 880183" transform="translate(138.832 18.405)">
          <g id="Grupo_880182" data-name="Grupo 880182" clip-path="url(#clip-path-35)">
            <rect id="Rectángulo_297844" data-name="Rectángulo 297844" width="10.046" height="10.568" transform="matrix(0.886, -0.463, 0.463, 0.886, -3.702, 1.77)" fill="url(#linear-gradient-20)"/>
          </g>
        </g>
        <g id="Grupo_880185" data-name="Grupo 880185" transform="translate(138.04 15.611)">
          <g id="Grupo_880184" data-name="Grupo 880184" clip-path="url(#clip-path-36)">
            <rect id="Rectángulo_297845" data-name="Rectángulo 297845" width="12.322" height="12.665" transform="translate(-3.98 4.588) rotate(-50.711)" fill="url(#linear-gradient-21)"/>
          </g>
        </g>
        <g id="Grupo_880187" data-name="Grupo 880187">
          <g id="Grupo_880186" data-name="Grupo 880186" clip-path="url(#clip-path)">
            <path id="Trazado_265289" data-name="Trazado 265289" d="M637.059,84.7a.046.046,0,0,0,.012-.048,1.513,1.513,0,0,1,.511-1.551.046.046,0,0,0-.062-.067,1.631,1.631,0,0,0-.536,1.648.046.046,0,0,0,.058.028.04.04,0,0,0,.016-.01" transform="translate(-498.669 -64.997)" fill="#bdd0fb"/>
          </g>
        </g>
        <g id="Grupo_880189" data-name="Grupo 880189" transform="translate(143.661 19.016)">
          <g id="Grupo_880188" data-name="Grupo 880188" clip-path="url(#clip-path-38)">
            <rect id="Rectángulo_297847" data-name="Rectángulo 297847" width="3.162" height="3.195" transform="matrix(0.886, -0.463, 0.463, 0.886, -1.656, 0.513)" fill="url(#linear-gradient-22)"/>
          </g>
        </g>
        <g id="Grupo_880191" data-name="Grupo 880191" transform="translate(135.35 47.173)">
          <g id="Grupo_880190" data-name="Grupo 880190" clip-path="url(#clip-path-39)">
            <rect id="Rectángulo_297848" data-name="Rectángulo 297848" width="15.032" height="6.016" transform="translate(-0.379 0.124) rotate(-18.158)" fill="url(#linear-gradient-23)"/>
          </g>
        </g>
        <g id="Grupo_880193" data-name="Grupo 880193" transform="translate(122.336 35.62)">
          <g id="Grupo_880192" data-name="Grupo 880192" clip-path="url(#clip-path-40)">
            <rect id="Rectángulo_297849" data-name="Rectángulo 297849" width="21.363" height="14.487" transform="translate(-1.249 0.09) rotate(-4.809)" fill="url(#linear-gradient-24)"/>
          </g>
        </g>
        <g id="Grupo_880195" data-name="Grupo 880195">
          <g id="Grupo_880194" data-name="Grupo 880194" clip-path="url(#clip-path)">
            <path id="Trazado_265293" data-name="Trazado 265293" d="M599.311,187.089c.255.793.067,1.562-.421,1.719s-1.09-.358-1.345-1.151-.067-1.562.421-1.719,1.089.358,1.344,1.151" transform="translate(-467.742 -145.553)" fill="#91b3fa"/>
          </g>
        </g>
        <g id="Grupo_880197" data-name="Grupo 880197" transform="translate(27.061 175.088)">
          <g id="Grupo_880196" data-name="Grupo 880196" clip-path="url(#clip-path-42)">
            <rect id="Rectángulo_297851" data-name="Rectángulo 297851" width="10.797" height="1.159" transform="translate(0)" fill="url(#linear-gradient-25)"/>
          </g>
        </g>
        <g id="Grupo_880199" data-name="Grupo 880199" transform="translate(27.06 171.384)">
          <g id="Grupo_880198" data-name="Grupo 880198" clip-path="url(#clip-path-43)">
            <rect id="Rectángulo_297852" data-name="Rectángulo 297852" width="10.417" height="4.297" transform="translate(-0.012)" fill="url(#linear-gradient-26)"/>
          </g>
        </g>
        <g id="Grupo_880201" data-name="Grupo 880201" transform="translate(28.049 168.745)">
          <g id="Grupo_880200" data-name="Grupo 880200" clip-path="url(#clip-path-44)">
            <rect id="Rectángulo_297853" data-name="Rectángulo 297853" width="3.016" height="3.689" transform="translate(0)" fill="url(#linear-gradient-27)"/>
          </g>
        </g>
        <g id="Grupo_880203" data-name="Grupo 880203" transform="translate(7.951 177.293)">
          <g id="Grupo_880202" data-name="Grupo 880202" clip-path="url(#clip-path-45)">
            <rect id="Rectángulo_297854" data-name="Rectángulo 297854" width="4.193" height="1.958" transform="translate(-0.09)" fill="url(#linear-gradient-28)"/>
          </g>
        </g>
        <g id="Grupo_880205" data-name="Grupo 880205" transform="translate(7.981 169.667)">
          <g id="Grupo_880204" data-name="Grupo 880204" clip-path="url(#clip-path-46)">
            <rect id="Rectángulo_297855" data-name="Rectángulo 297855" width="6.273" height="9.114" transform="translate(0 0)" fill="url(#linear-gradient-29)"/>
          </g>
        </g>
        <g id="Grupo_880207" data-name="Grupo 880207" transform="translate(11.111 166.889)">
          <g id="Grupo_880206" data-name="Grupo 880206" clip-path="url(#clip-path-47)">
            <rect id="Rectángulo_297856" data-name="Rectángulo 297856" width="3.671" height="4.286" transform="translate(-0.067)" fill="url(#linear-gradient-30)"/>
          </g>
        </g>
        <g id="Grupo_880209" data-name="Grupo 880209" transform="translate(11.297 127.274)">
          <g id="Grupo_880208" data-name="Grupo 880208" clip-path="url(#clip-path-48)">
            <rect id="Rectángulo_297857" data-name="Rectángulo 297857" width="50.782" height="45.254" transform="matrix(0.521, -0.854, 0.854, 0.521, -19.233, 31.505)" fill="url(#linear-gradient-31)"/>
          </g>
        </g>
        <g id="Grupo_880211" data-name="Grupo 880211" transform="translate(29.589 134.223)">
          <g id="Grupo_880210" data-name="Grupo 880210" clip-path="url(#clip-path-49)">
            <rect id="Rectángulo_297858" data-name="Rectángulo 297858" width="6.865" height="6.869" transform="translate(-2.441 2.73) rotate(-48.633)" fill="url(#linear-gradient-32)"/>
          </g>
        </g>
        <g id="Grupo_880213" data-name="Grupo 880213" transform="translate(51.929 87.616)">
          <g id="Grupo_880212" data-name="Grupo 880212" clip-path="url(#clip-path-50)">
            <rect id="Rectángulo_297859" data-name="Rectángulo 297859" width="24.175" height="23.96" transform="translate(-8.576 11.158) rotate(-52.452)" fill="url(#linear-gradient-33)"/>
          </g>
        </g>
        <g id="Grupo_880215" data-name="Grupo 880215" transform="translate(15.397 99.138)">
          <g id="Grupo_880214" data-name="Grupo 880214" clip-path="url(#clip-path-51)">
            <rect id="Rectángulo_297860" data-name="Rectángulo 297860" width="51.24" height="47.1" transform="translate(-15.98 7.544) rotate(-29.876)" fill="url(#linear-gradient-34)"/>
          </g>
        </g>
        <g id="Grupo_880217" data-name="Grupo 880217" transform="translate(37.989 101.535)">
          <g id="Grupo_880216" data-name="Grupo 880216" clip-path="url(#clip-path-52)">
            <rect id="Rectángulo_297861" data-name="Rectángulo 297861" width="2.296" height="6.597" transform="translate(-0.037 0)" fill="url(#linear-gradient-35)"/>
          </g>
        </g>
        <g id="Grupo_880219" data-name="Grupo 880219" transform="translate(27.141 93.485)">
          <g id="Grupo_880218" data-name="Grupo 880218" clip-path="url(#clip-path-53)">
            <rect id="Rectángulo_297862" data-name="Rectángulo 297862" width="9.303" height="7.257" transform="translate(-1.583 8.074) rotate(-79.216)" fill="url(#linear-gradient-36)"/>
          </g>
        </g>
        <g id="Grupo_880221" data-name="Grupo 880221" transform="translate(61.09 89.734)">
          <g id="Grupo_880220" data-name="Grupo 880220" clip-path="url(#clip-path-54)">
            <rect id="Rectángulo_297863" data-name="Rectángulo 297863" width="5.272" height="5.262" transform="matrix(0.635, -0.773, 0.773, 0.635, -1.884, 2.256)" fill="url(#linear-gradient-37)"/>
          </g>
        </g>
        <g id="Grupo_880223" data-name="Grupo 880223" transform="translate(21.107 119.57)">
          <g id="Grupo_880222" data-name="Grupo 880222" clip-path="url(#clip-path-55)">
            <rect id="Rectángulo_297864" data-name="Rectángulo 297864" width="14.203" height="16.155" transform="translate(-3.428 5.142) rotate(-56.31)" fill="url(#linear-gradient-38)"/>
          </g>
        </g>
        <g id="Grupo_880225" data-name="Grupo 880225" transform="translate(28.338 125.78)">
          <g id="Grupo_880224" data-name="Grupo 880224" clip-path="url(#clip-path-56)">
            <rect id="Rectángulo_297865" data-name="Rectángulo 297865" width="8.965" height="7.272" transform="translate(-1.438 0.862) rotate(-33.69)" fill="url(#linear-gradient-39)"/>
          </g>
        </g>
        <g id="Grupo_880227" data-name="Grupo 880227" transform="translate(29.036 124.964)">
          <g id="Grupo_880226" data-name="Grupo 880226" clip-path="url(#clip-path-57)">
            <rect id="Rectángulo_297866" data-name="Rectángulo 297866" width="7.429" height="18.595" transform="translate(-0.465 1.416) rotate(-71.842)" fill="url(#linear-gradient-40)"/>
          </g>
        </g>
        <g id="Grupo_880229" data-name="Grupo 880229" transform="translate(39.222 110.82)">
          <g id="Grupo_880228" data-name="Grupo 880228" clip-path="url(#clip-path-58)">
            <rect id="Rectángulo_297867" data-name="Rectángulo 297867" width="29.091" height="28.719" transform="matrix(0.726, -0.687, 0.687, 0.726, -7.839, 7.417)" fill="url(#linear-gradient-41)"/>
          </g>
        </g>
        <g id="Grupo_880231" data-name="Grupo 880231" transform="translate(52.629 116.62)">
          <g id="Grupo_880230" data-name="Grupo 880230" clip-path="url(#clip-path-59)">
            <rect id="Rectángulo_297868" data-name="Rectángulo 297868" width="4.415" height="4.673" transform="matrix(0.833, -0.553, 0.553, 0.833, -1.898, 1.145)" fill="url(#linear-gradient-42)"/>
          </g>
        </g>
        <g id="Grupo_880233" data-name="Grupo 880233" transform="translate(28.265 85.824)">
          <g id="Grupo_880232" data-name="Grupo 880232" clip-path="url(#clip-path-60)">
            <rect id="Rectángulo_297869" data-name="Rectángulo 297869" width="10.14" height="8.193" transform="matrix(0.09, -0.996, 0.996, 0.09, -0.849, 9.442)" fill="url(#linear-gradient-43)"/>
          </g>
        </g>
        <g id="Grupo_880235" data-name="Grupo 880235" transform="translate(25.888 82.754)">
          <g id="Grupo_880234" data-name="Grupo 880234" clip-path="url(#clip-path-61)">
            <rect id="Rectángulo_297870" data-name="Rectángulo 297870" width="17.125" height="18.393" transform="matrix(0.849, -0.529, 0.529, 0.849, -7.218, 4.165)" fill="url(#linear-gradient-44)"/>
          </g>
        </g>
        <g id="Grupo_880237" data-name="Grupo 880237" transform="translate(26.666 91.135)">
          <g id="Grupo_880236" data-name="Grupo 880236" clip-path="url(#clip-path-62)">
            <rect id="Rectángulo_297871" data-name="Rectángulo 297871" width="4.478" height="3.944" transform="translate(-1.297 3.71) rotate(-77.681)" fill="url(#linear-gradient-45)"/>
          </g>
        </g>
      </g>
    </g>
  </g>
</svg>
