<svg id="Grupo_879778" data-name="Grupo 879778" xmlns="http://www.w3.org/2000/svg" xmlns:xlink="http://www.w3.org/1999/xlink" width="131.992" height="95" viewBox="0 0 131.992 95">
  <defs>
    <clipPath id="clip-path">
      <rect id="Rectángulo_297641" data-name="Rectángulo 297641" width="131.992" height="95" fill="none"/>
    </clipPath>
    <clipPath id="clip-path-3">
      <rect id="Rectángulo_297636" data-name="Rectángulo 297636" width="32.741" height="32.742" fill="none"/>
    </clipPath>
    <clipPath id="clip-path-4">
      <rect id="Rectángulo_297638" data-name="Rectángulo 297638" width="13.616" height="3.776" fill="none"/>
    </clipPath>
    <clipPath id="clip-path-5">
      <rect id="Rectángulo_297639" data-name="Rectángulo 297639" width="15.471" height="15.471" fill="none"/>
    </clipPath>
  </defs>
  <g id="Grupo_879774" data-name="Grupo 879774" clip-path="url(#clip-path)">
    <g id="Grupo_879773" data-name="Grupo 879773" transform="translate(0 0)">
      <g id="Grupo_879772" data-name="Grupo 879772" clip-path="url(#clip-path)">
        <path id="Trazado_264885" data-name="Trazado 264885" d="M126.3,151.884c-8.326,0-120.89-.243-120.89-.256-.046-.109-14.29-17.566,3.645-35.818,8.887-9.043-8.161-20.76,0-30.819,13.979-17.232,27.81-7.527,39.333-12.373a18.516,18.516,0,0,0,6.124-4.345,22.772,22.772,0,0,1,3.763-3.124q.311-.207.628-.4a25.072,25.072,0,0,1,2.511-1.363q.87-.41,1.773-.759h0a29.034,29.034,0,0,1,2.939-.957,33.256,33.256,0,0,1,4.384-.86q.978-.127,1.971-.2c12.875-.968,27.364,4.476,34.841,12.434a18.885,18.885,0,0,1,2.955,21.289c-3.407,7.195,10.866,14.066,15.938,22.282,12.895,20.889.2,35,.084,35.275" transform="translate(0 -57.094)" fill="#ebf3fa"/>
        <g id="Grupo_879765" data-name="Grupo 879765" transform="translate(65.413 24.261)" opacity="0.8">
          <g id="Grupo_879764" data-name="Grupo 879764">
            <g id="Grupo_879763" data-name="Grupo 879763" clip-path="url(#clip-path-3)">
              <path id="Trazado_264886" data-name="Trazado 264886" d="M1196.008,453.775a16.466,16.466,0,0,1-1.256,2.68,16.371,16.371,0,0,1-30.458-7.159,16.081,16.081,0,0,1,.021-2.5,16.478,16.478,0,0,1,2.468-7.354l.021-.033a16.409,16.409,0,0,1,9.33-6.968c.4-.115.8-.214,1.213-.3a16.278,16.278,0,0,1,8.871.654q.587.213,1.146.466a16.25,16.25,0,0,1,6.634,5.477h0a16.425,16.425,0,0,1,2.618,5.939q.151.687.243,1.387a16.292,16.292,0,0,1-.852,7.7" transform="translate(-1164.256 -431.813)" fill="#d7e5ff"/>
              <path id="Trazado_264887" data-name="Trazado 264887" d="M1220.365,445.022c-.967.749-.711,2.753-2.385,1.623s-2.725-1.744-3.2-.758,1.009,1.526.619,2.6-1.185,1.188-2.022.306-.862-1.731-2.219-1.7-1.936-.53-1.87-1.548a1.431,1.431,0,0,0-.045-.472l.021-.033a16.41,16.41,0,0,1,9.33-6.968c.4-.115.8-.214,1.213-.3a2.152,2.152,0,0,1,1.249,1.364c.591,1.721,1.548,1.316.735,2.758s-.479,1.8.409,2.06,1.912.637,1.772,1.339-2.641-1.018-3.609-.269" transform="translate(-1206.718 -437.436)" fill="#aec3ff"/>
              <path id="Trazado_264888" data-name="Trazado 264888" d="M1535.6,671.19a16.478,16.478,0,0,1-1.256,2.68,16.273,16.273,0,0,1-4.573,5.019,1.869,1.869,0,0,1-1.218-.48c-1.639-1.465.533-3.02,1.677-3.777s-.98-1.008-2.051-2.483,1.437-3.474-.175-3.582-3.571-.212-3.9-1.939,1.367-1.371,1.07-2.825,1.105-1.726,2.6-1.312,1.684-.691,3.543-.189.984,2.79,3.034,3.362,1.794,1,1.794,1a.987.987,0,0,1,.385.239,16.4,16.4,0,0,1-.937,4.287" transform="translate(-1503.851 -649.227)" fill="#aec3ff"/>
              <path id="Trazado_264889" data-name="Trazado 264889" d="M1603.663,555.7c-1.952.2-1.82-2.233-3.478-2.089s-.956-1.042-1.783-2.27-3.618-.562-3.051-1.8,2.125-.27,2.855-1.162,2.274-.042,2.274-.042a1.181,1.181,0,0,1,.322.041h0a16.426,16.426,0,0,1,2.618,5.939q.151.686.243,1.387" transform="translate(-1571.059 -541.437)" fill="#aec3ff"/>
              <path id="Trazado_264890" data-name="Trazado 264890" d="M1460.842,468.579s1.326-.939.079-1.811-1.4-.378-2.43-.883-1.757.173-1.281,1.374.495,3.18,1.561,2.516,1.182-1.418,2.071-1.2" transform="translate(-1440.611 -463.812)" fill="#aec3ff"/>
            </g>
          </g>
        </g>
        <path id="Trazado_264891" data-name="Trazado 264891" d="M157.64,1576.961h5.708c.306-.26-.212-.849-.753-.888a3.344,3.344,0,0,0-.871.1c-.078-1.043-.527-5.733-2.218-5.545-1.9.211,0,2.065.537,3.163a26.091,26.091,0,0,1,1.01,2.53c-.154.034-.314.066-.477.1-.252-.774-1.189-3.376-2.382-3.224-1.4.177-.837,1.221.155,1.84.728.455,1.622,1.1,2.046,1.415a6.073,6.073,0,0,1-1.116.09,2.4,2.4,0,0,0-1.64.42" transform="translate(-148.515 -1482.381)" fill="#a8d29f"/>
        <path id="Trazado_264892" data-name="Trazado 264892" d="M1688.821,1584.534h-5.3c-.284-.241.2-.788.7-.825a3.1,3.1,0,0,1,.809.1c.073-.969.49-5.325,2.06-5.15,1.766.2,0,1.918-.5,2.938a24.262,24.262,0,0,0-.938,2.35c.143.031.292.062.443.089.234-.718,1.1-3.135,2.212-2.995,1.3.165.778,1.134-.144,1.709-.676.423-1.506,1.024-1.9,1.315a5.638,5.638,0,0,0,1.037.083,2.235,2.235,0,0,1,1.523.39" transform="translate(-1588.852 -1489.954)" fill="#a8d29f"/>
        <path id="Trazado_264893" data-name="Trazado 264893" d="M1824.823,1044.432s.126-1.255-.53-1.212-.83.344-.757.585a6.842,6.842,0,0,0,.711,1.039Z" transform="translate(-1721.068 -984.606)" fill="#ffb27d"/>
        <path id="Trazado_264894" data-name="Trazado 264894" d="M1843.528,1063.989a10.718,10.718,0,0,1-2.289,1.839c-.148.093-.3.188-.466.282a17.319,17.319,0,0,1-2.141,1.053c-.09.037-.2.078-.316.121a15.425,15.425,0,0,1-3.727.86c-.093,0-.181,0-.263,0-1.625-.065-1.823-6.373-1.823-6.373a.8.8,0,0,1,1.016-.472s1.268,3.562,1.722,3.853c.4.258,2.723-3.258,4.72-3.5,1.344-.166,3.567,2.34,3.567,2.34" transform="translate(-1729.545 -1001.648)" fill="#739af0"/>
        <path id="Trazado_264895" data-name="Trazado 264895" d="M1885.02,1647.968s.12,1.389-.174,1.533l-3.756-.008s0-.433.6-.53,1.663-.449,1.843-1.236,1.484.241,1.484.241" transform="translate(-1775.403 -1554.871)" fill="#1c3154"/>
        <path id="Trazado_264896" data-name="Trazado 264896" d="M1901.758,1284.853c.019.908.062,1.844.148,2.686.406,3.994.548,8.819.606,9.749.1,1.615.42,4.195.42,4.195a2.062,2.062,0,0,0,1.866.314,42,42,0,0,0,1.25-7.628c0-.064.007-.129.01-.193.027-.517.054-1.109.083-1.747.188-4.272.392-10.618.392-10.618l-4.713-1.107s-.108,2.086-.062,4.349" transform="translate(-1794.898 -1208.56)" fill="#2a4e96"/>
        <path id="Trazado_264897" data-name="Trazado 264897" d="M1901.758,1284.853c1.194,2.061,3.471,5.858,4.383,7.375.188-4.272.392-10.618.392-10.618l-4.713-1.107s-.108,2.086-.062,4.349" transform="translate(-1794.898 -1208.56)" fill="#233862"/>
        <path id="Trazado_264898" data-name="Trazado 264898" d="M1873.36,1141.8a15.421,15.421,0,0,1-3.727.86,3.674,3.674,0,0,0,1.792-.8c.472-.571,1.267-2.12,1.9-1.488.3.3.21.886.036,1.424" transform="translate(-1764.589 -1076.167)" fill="#6385db"/>
        <path id="Trazado_264899" data-name="Trazado 264899" d="M2059.224,1344.781a7.323,7.323,0,0,1,.244,1.4,5.019,5.019,0,0,1-.512,1.333c-.178.214-.185-.931-.3-1.111s-.054.428-.149.478-.253-.46-.324-.641.253-.81.283-1.261.761-.2.761-.2" transform="translate(-1942.533 -1269.159)" fill="#ffb27d"/>
        <path id="Trazado_264900" data-name="Trazado 264900" d="M2076.876,1624.055s.668.61.538,1.043-.734.722-.815,1.252-.407.819-.7.819h-1.4s-.216-.373.306-.485.718-.735.686-1.313a10.176,10.176,0,0,1,.049-1.349l1.109-.257Z" transform="translate(-1957.903 -1532.536)" fill="#1c3154"/>
        <path id="Trazado_264901" data-name="Trazado 264901" d="M1916.276,1277.826s4.412,9.44,6.76,13.582,3.082,5.3,3.082,5.3,1.345-.53,1.468-.891c0,0-.9-8-2.47-9.946a14.5,14.5,0,0,1-1.981-5.563,20.28,20.28,0,0,0-1.08-3.915Z" transform="translate(-1808.611 -1204.679)" fill="#2a4e96"/>
        <path id="Trazado_264902" data-name="Trazado 264902" d="M1901.531,1076.219a7.645,7.645,0,0,0,3.878,2.013c1.072.2,3.246.4,3.786-.359a1.367,1.367,0,0,0,.1-.858,17.932,17.932,0,0,1,.879-7.337,7.13,7.13,0,0,0,.235-1.117c.267-2.139.238-3.753-1.618-4.616-2.78-1.292-3.922-.229-3.922-.229a4.657,4.657,0,0,0-2.154,2.7c-1.351,4.028-1.183,9.8-1.183,9.8" transform="translate(-1794.688 -1003.563)" fill="#739af0"/>
        <path id="Trazado_264903" data-name="Trazado 264903" d="M1965.434,1021.7a2.064,2.064,0,0,1-2.077.136,2.384,2.384,0,0,1-.038-.853c.015-.4.053-.793.053-.793l.989-.649.944-.619c-.113,2.13.34,2.628.129,2.779" transform="translate(-1853.002 -961.672)" fill="#ffb27d"/>
        <path id="Trazado_264904" data-name="Trazado 264904" d="M1965.318,1030.2a3.039,3.039,0,0,1-1.82,1.182c.015-.4.058-.841.058-.841l.984-.6Z" transform="translate(-1853.18 -972.075)" fill="#ed985f"/>
        <path id="Trazado_264905" data-name="Trazado 264905" d="M1944.344,971.9s2.394.893,2.926-.582,1.2-2.353-.306-2.985-2.007-.176-2.307.273-.923,3.024-.314,3.294" transform="translate(-1834.859 -913.638)" fill="#ffb27d"/>
        <path id="Trazado_264906" data-name="Trazado 264906" d="M1943.749,952.178c.028-.021.083-.032.2-.015a.477.477,0,0,0-.2-.1.591.591,0,0,0-.284-.589.352.352,0,0,1,.118.282c-.255-.391-.892-.765-2.817-.99-2.537-.3-2.03,1.466-1.744,1.72s1.2-.107,1.8.059.536,1.06.717,1.22.142-.067.444-.138.237.393.1.675.164.75.164.75l.466-.338a4.383,4.383,0,0,0,1.073-2.426c-.009-.036-.017-.072-.027-.109" transform="translate(-1829.847 -897.313)" fill="#2c3a64"/>
        <path id="Trazado_264907" data-name="Trazado 264907" d="M2014.9,1164.012a17.937,17.937,0,0,1,.879-7.337,7.133,7.133,0,0,0,.235-1.118h0a5.021,5.021,0,0,0-2.562.367s-.389,5.526,1.449,8.088" transform="translate(-1900.295 -1090.56)" fill="#6385db"/>
        <path id="Trazado_264908" data-name="Trazado 264908" d="M1972.8,1079.679s1.117.406,1.83,3.364c.471,1.954,1.338,4.827,1.436,5.729a54.171,54.171,0,0,1-.991,6.188.708.708,0,0,1-.53.037.875.875,0,0,1-.528-.315s-.26-3.523-.193-5.186c.028-.691-3.2-5.061-4.94-5.623-.684-.221,3.917-4.194,3.917-4.194" transform="translate(-1858.194 -1019.018)" fill="#739af0"/>
        <path id="Trazado_264909" data-name="Trazado 264909" d="M1761.626,922.25a37.159,37.159,0,0,1,6.955.594l.389-.981.427-1.075a22.712,22.712,0,0,1-5.99-3.853Z" transform="translate(-1662.65 -865.418)" fill="#aec3ff"/>
        <path id="Trazado_264910" data-name="Trazado 264910" d="M1757.175,915.43l-1.854,5.473a.493.493,0,0,1-.325-.638l1.632-4.6a.407.407,0,0,1,.547-.237" transform="translate(-1656.366 -863.964)" fill="#f99746"/>
        <path id="Trazado_264911" data-name="Trazado 264911" d="M1816.725,1008.138h0a.67.67,0,0,0,.786-.524l.638-3.194a.668.668,0,0,0-1.311-.262l-.638,3.194a.67.67,0,0,0,.524.786" transform="translate(-1714.146 -947.233)" fill="#f99746"/>
        <path id="Trazado_264912" data-name="Trazado 264912" d="M1761.626,1000.979a37.172,37.172,0,0,1,6.955.594l.389-.981a17.8,17.8,0,0,0-7.345.387" transform="translate(-1662.65 -944.147)" fill="#739af0"/>
        <path id="Trazado_264913" data-name="Trazado 264913" d="M1867.084,978.009l1.009.177a1.113,1.113,0,0,0,1.25-.659.68.68,0,0,0,.06-.182c.243-1.052-.335-1.246-.335-1.246l-1.3-.506-.413,1.46v.005Z" transform="translate(-1762.183 -920.78)" fill="#f99746"/>
        <path id="Trazado_264914" data-name="Trazado 264914" d="M1867.084,1002.535l1.009.177a1.112,1.112,0,0,0,1.25-.659,4.889,4.889,0,0,0-1.986-.475v.005Z" transform="translate(-1762.183 -945.306)" fill="#ed7d2b"/>
        <path id="Trazado_264915" data-name="Trazado 264915" d="M1819.9,1028.509s.493.2.4.414-.718.516-.817.345.1-.942.414-.759" transform="translate(-1717.238 -970.697)" fill="#ffb27d"/>
        <path id="Trazado_264916" data-name="Trazado 264916" d="M1844.4,1041.712a6.951,6.951,0,0,0,.1-.737c.006-.232.033-.421-.021-.428s-.094.036-.117.111-.108.537-.108.537l.043.446Z" transform="translate(-1740.64 -982.084)" fill="#ffb27d"/>
        <path id="Trazado_264917" data-name="Trazado 264917" d="M930.583,1050.14l-2.8,33.25s-.293,2.016,1.206,2.019c2.465.006,12.269,0,12.269,0s-1.855-.42-1.833-1.364c.026-1.113,3.268-34.22,3.268-34.22Z" transform="translate(-875.638 -990.841)" fill="#7599ea"/>
        <path id="Trazado_264918" data-name="Trazado 264918" d="M955.723,1074.684c-.485,0-9.977.018-12.377-.013-1.046-.013-1.23-.93-1.238-1.524a2.964,2.964,0,0,1,.032-.495l.073-.865.185-2.2.164-1.946.21-2.5.177-2.111,1.987-23.626,12.115-.314s-1.365,13.855-2.331,23.941c-.108,1.124-.21,2.2-.305,3.207q-.046.482-.089.941c-.09.954-.171,1.831-.243,2.6-.037.408-.072.787-.1,1.134-.123,1.36-.2,2.229-.2,2.394a1.394,1.394,0,0,0,.024.269c.2,1.06,1.735,1.108,1.917,1.108" transform="translate(-889.176 -980.706)" fill="#90aff4"/>
        <path id="Trazado_264919" data-name="Trazado 264919" d="M454.288,733.388l6.812,27.361.933,3.747L465.2,777.24h58.94l-11.693-43.852Z" transform="translate(-428.764 -692.183)" fill="#aec3ff"/>
        <path id="Trazado_264920" data-name="Trazado 264920" d="M438.428,733.387l-.944.315,10.606,44.489,1.255-.952Z" transform="translate(-412.904 -692.182)" fill="#90aff4"/>
        <path id="Trazado_264921" data-name="Trazado 264921" d="M626.252,1514.839H684.83l1.618-.952h-58.94Z" transform="translate(-591.067 -1428.831)" fill="#7599ea"/>
        <rect id="Rectángulo_297637" data-name="Rectángulo 297637" width="12.683" height="0.603" transform="translate(55.756 93.978)" fill="#aec3ff"/>
        <path id="Trazado_264922" data-name="Trazado 264922" d="M959.265,1530.822l-.066.461-11.927,2.41.164-1.946.078-.924Z" transform="translate(-894.05 -1444.814)" fill="#5888dd"/>
        <g id="Grupo_879768" data-name="Grupo 879768" transform="translate(52.932 90.207)" opacity="0.4">
          <g id="Grupo_879767" data-name="Grupo 879767">
            <g id="Grupo_879766" data-name="Grupo 879766" clip-path="url(#clip-path-4)">
              <path id="Trazado_264923" data-name="Trazado 264923" d="M955.729,1609.325c-.485,0-9.977.018-12.377-.013-1.046-.013-1.23-.93-1.238-1.524l11.871-2.234c-.123,1.36-.2,2.229-.2,2.394a1.4,1.4,0,0,0,.024.269c.2,1.06,1.735,1.108,1.917,1.108" transform="translate(-942.114 -1605.555)" fill="#5888dd"/>
            </g>
          </g>
        </g>
        <path id="Trazado_264924" data-name="Trazado 264924" d="M454.286,733.387h58.163l9.437,35.243H463.06Z" transform="translate(-428.762 -692.182)" fill="#aec3ff"/>
        <path id="Trazado_264925" data-name="Trazado 264925" d="M559.613,798.818H505.154l-1.946-7.752-.753-3-.307-1.223-2-7.967-.1-.415-1.057-4.211-.473-1.884-.4-1.607-.946-3.768h53.674l1.039,3.768.443,1.607.519,1.884,3.422,12.414h0l.29,1.052.135.488,2.363,8.57Z" transform="translate(-469.232 -723.897)" fill="#739af0"/>
        <path id="Trazado_264926" data-name="Trazado 264926" d="M551.881,770.756H498.115l-.946-3.768h53.674Z" transform="translate(-469.236 -723.895)" fill="#607cf4"/>
        <path id="Trazado_264927" data-name="Trazado 264927" d="M536.445,789.385a.356.356,0,0,1,.354-.471.644.644,0,0,1,.589.471.356.356,0,0,1-.354.471.643.643,0,0,1-.589-.471" transform="translate(-506.291 -744.589)" fill="#e9f3fe"/>
        <path id="Trazado_264928" data-name="Trazado 264928" d="M564.3,789.385a.356.356,0,0,1,.354-.471.644.644,0,0,1,.588.471.356.356,0,0,1-.354.471.643.643,0,0,1-.588-.471" transform="translate(-532.584 -744.589)" fill="#e9f3fe"/>
        <path id="Trazado_264929" data-name="Trazado 264929" d="M594.3,789.385a.356.356,0,0,1,.354-.471.643.643,0,0,1,.589.471.356.356,0,0,1-.354.471.643.643,0,0,1-.589-.471" transform="translate(-560.896 -744.589)" fill="#e9f3fe"/>
        <path id="Trazado_264930" data-name="Trazado 264930" d="M1208.966,21.184c2.2-2.584,5.6-7.776,7.88-10.434a.843.843,0,0,0-.642-1.392h-4.158l3.922-8.869a.348.348,0,0,0-.6-.349l-9.484,12.693a.525.525,0,0,0,.485.835l4.708-.58-2.8,7.694a.4.4,0,0,0,.687.4" transform="translate(-1138.036 0.002)" fill="#f77d48"/>
        <path id="Trazado_264931" data-name="Trazado 264931" d="M827.121,378.326c.5-2.54.808-7.257,1.331-9.878a.643.643,0,0,0-.947-.684l-2.762,1.555-.712-7.358a.265.265,0,0,0-.527-.008l-1.551,11.978a.4.4,0,0,0,.634.373l2.91-2.146,1.018,6.158a.308.308,0,0,0,.606.01" transform="translate(-775.769 -341.398)" fill="#aec3ff"/>
        <path id="Trazado_264932" data-name="Trazado 264932" d="M769.716,501.231l-47.32,3.987a4.737,4.737,0,0,1-4.722-6.652L737.721,453.7a4.737,4.737,0,0,1,8.265-.7l27.272,40.88a4.737,4.737,0,0,1-3.543,7.349" transform="translate(-676.956 -425.56)" fill="#e6efff"/>
        <path id="Trazado_264933" data-name="Trazado 264933" d="M739.668,472.833l-47.32,3.987a6.533,6.533,0,0,1-6.513-9.175l20.048-44.867a6.533,6.533,0,0,1,11.4-.96L744.554,462.7a6.533,6.533,0,0,1-4.886,10.135M711.6,422.512a2.9,2.9,0,0,0-2.438,1.731L689.114,469.11a2.94,2.94,0,0,0,2.932,4.13l47.32-3.987a2.94,2.94,0,0,0,2.2-4.562l-27.272-40.88a2.9,2.9,0,0,0-2.693-1.3" transform="translate(-646.757 -395.372)" fill="#f77d48"/>
        <path id="Trazado_264934" data-name="Trazado 264934" d="M1093.591,688.25a4.328,4.328,0,0,1,.184-1.719,3.967,3.967,0,0,1,.81-1.422,4.249,4.249,0,0,1,1.359-1.008,5.3,5.3,0,0,1,1.862-.478,5.421,5.421,0,0,1,1.93.159,4.228,4.228,0,0,1,1.523.765,3.974,3.974,0,0,1,1.036,1.267,4.34,4.34,0,0,1,.469,1.663,4.235,4.235,0,0,1-.185,1.7,4,4,0,0,1-.811,1.408,4.212,4.212,0,0,1-1.374,1.009,5.425,5.425,0,0,1-1.876.479,5.3,5.3,0,0,1-1.915-.16,4.238,4.238,0,0,1-1.509-.766,3.99,3.99,0,0,1-1.035-1.253,4.226,4.226,0,0,1-.468-1.65m7.316-8.561-6.816.574-2.928-23.208,8.747-.737Z" transform="translate(-1029.856 -619.443)" fill="#f77d48"/>
        <path id="Trazado_264935" data-name="Trazado 264935" d="M611.385,1080.431s.148-.334.244-.492.507-.621.577-.516.349.81.2,1.008.01.541-.729.749Z" transform="translate(-577.035 -1018.762)" fill="#ffb27d"/>
        <path id="Trazado_264936" data-name="Trazado 264936" d="M465.311,1060.115s3.781,3.156,5.255,2.864c1.153-.229,2.975-.807,2.975-.807a1.163,1.163,0,0,1,.345,1.006s-2.322,2.185-3.976,2.2a5.267,5.267,0,0,1-3.8-1.281Z" transform="translate(-439.168 -1000.553)" fill="#ed7d2b"/>
        <path id="Trazado_264937" data-name="Trazado 264937" d="M347.3,1642.992s.11,1.77.452,1.8c.046,0,1.737,0,1.737,0l2.159-.012a.7.7,0,0,0-.645-.63,2.927,2.927,0,0,1-2.07-1.388c-.4-.878-1.633.232-1.633.232" transform="translate(-327.791 -1550.144)" fill="#113c68"/>
        <path id="Trazado_264938" data-name="Trazado 264938" d="M345.088,1287.591a4.5,4.5,0,0,0,1.169.22,4.3,4.3,0,0,0,1.091-.156,29.881,29.881,0,0,1,.8-3.829c.357-1.38.866-3.155,1.59-5.36a72.578,72.578,0,0,0,2.668-10c0-.018,0-.027,0-.027l-.007,0-6.158-2.7s.761,8.4-.21,11.624a13.6,13.6,0,0,0-.352,1.545,61.916,61.916,0,0,0-.6,8.688" transform="translate(-325.699 -1194.62)" fill="#2a4e96"/>
        <path id="Trazado_264939" data-name="Trazado 264939" d="M364.038,1283.827c.357-1.38.866-3.155,1.59-5.36a72.605,72.605,0,0,0,2.668-10c0-.01,0-.02,0-.03l-6.158-2.7s.761,8.4-.21,11.624c-.136.451,2.112,6.467,2.112,6.467" transform="translate(-341.585 -1194.62)" fill="#233862"/>
        <path id="Trazado_264940" data-name="Trazado 264940" d="M432.911,1642.992s.11,1.77.452,1.8c.046,0,1.737,0,1.737,0l2.159-.012a.7.7,0,0,0-.645-.63,2.927,2.927,0,0,1-2.07-1.388c-.4-.878-1.633.232-1.633.232" transform="translate(-408.588 -1550.144)" fill="#15447c"/>
        <path id="Trazado_264941" data-name="Trazado 264941" d="M385.065,1269.258a87.674,87.674,0,0,1-.862,12.127c-.942,6.683-.623,9.52-.623,9.52a6.381,6.381,0,0,1-.908.231,4.118,4.118,0,0,1-1.347-.156s-1.348-6.686-.962-10.031-1.846-11.479-1.846-11.479Z" transform="translate(-357.251 -1197.946)" fill="#2a4e96"/>
        <path id="Trazado_264942" data-name="Trazado 264942" d="M417.334,997.337l1.2.788,1.095-.31a2.616,2.616,0,0,0,.256-1.313,8.166,8.166,0,0,0-.043-.874l-1.622-.716-.605-.267c0,.01.047.5.054.568a4.139,4.139,0,0,1-.337,2.123" transform="translate(-393.886 -938.762)" fill="#ffb27d"/>
        <path id="Trazado_264943" data-name="Trazado 264943" d="M368.056,1049.118c-1.5,1.445-7.159,1.2-7.508-.39s.381-13.549,2.936-14.3a14.646,14.646,0,0,1,3.366.761,17.972,17.972,0,0,1,.737,2.646c.057.288.222,3.344.346,6.2.058,1.337.107,2.631.131,3.579a10.321,10.321,0,0,1-.008,1.5" transform="translate(-340.214 -976.293)" fill="#f99746"/>
        <path id="Trazado_264944" data-name="Trazado 264944" d="M424.71,999.713a4.71,4.71,0,0,0,2.1,1.266,8.167,8.167,0,0,0-.043-.874l-1.622-.716c-.359,0-.577.075-.43.324" transform="translate(-400.805 -943.238)" fill="#fca56b"/>
        <path id="Trazado_264945" data-name="Trazado 264945" d="M411.681,938.128s-2.613.815-3.1-.82-1.145-2.631.5-3.221,2.158-.062,2.452.445.808,3.342.141,3.6" transform="translate(-385.111 -881.36)" fill="#ffb27d"/>
        <path id="Trazado_264946" data-name="Trazado 264946" d="M392.34,919.376s-.167,1.9-.56,1.82-.827-.259-.769.314-.383,1.557-.95,1.554c-1.217-.005-2.539-3.128-2.206-3.72.961-1.708,5.875-2.053,4.485.031" transform="translate(-366.014 -866.362)" fill="#163560"/>
        <path id="Trazado_264947" data-name="Trazado 264947" d="M416.852,1021.984a12.025,12.025,0,0,0-2.169-.8c-.224.074-.5.757-.5.757l3.366.761a1.673,1.673,0,0,0-.695-.72" transform="translate(-390.91 -963.807)" fill="#ed7d2b"/>
        <path id="Trazado_264948" data-name="Trazado 264948" d="M476.694,1183.073l-10.716,10.089c-.21.2-.475.261-.589.14l-.362-.384c-.114-.121-.035-.381.175-.579l10.716-10.089c.21-.2.475-.261.589-.14l.362.384c.114.121.035.381-.175.579" transform="translate(-438.852 -1115.635)" fill="#1f4d84"/>
        <path id="Trazado_264949" data-name="Trazado 264949" d="M470.682,1287.225l-4.7,4.427c-.21.2-.475.261-.589.14l-.362-.384c-.114-.121-.035-.381.175-.579l4.7-4.427Z" transform="translate(-438.853 -1214.126)" fill="#739af0"/>
        <path id="Trazado_264950" data-name="Trazado 264950" d="M623.583,950.233a8.4,8.4,0,1,0,13.921-8.441q-.065-.064-.132-.127a8.4,8.4,0,0,0-13.789,8.568m2.4-7.752a7.736,7.736,0,1,1,.333,10.935,7.727,7.727,0,0,1-.333-10.935" transform="translate(-588.204 -886.605)" fill="#1f4d84"/>
        <g id="Grupo_879771" data-name="Grupo 879771" transform="translate(35.678 53.442)" opacity="0.5">
          <g id="Grupo_879770" data-name="Grupo 879770">
            <g id="Grupo_879769" data-name="Grupo 879769" clip-path="url(#clip-path-5)">
              <path id="Trazado_264951" data-name="Trazado 264951" d="M648.387,964.223a7.736,7.736,0,1,1-.333-10.935,7.7,7.7,0,0,1,.333,10.935" transform="translate(-635.017 -951.187)" fill="#b3cff9"/>
            </g>
          </g>
        </g>
        <path id="Trazado_264952" data-name="Trazado 264952" d="M404.587,1104.466c-5.9-4.207-5.413-9.822-5.413-9.822a14.07,14.07,0,0,1,5.282,6.243c.058,1.337.107,2.631.131,3.579" transform="translate(-376.737 -1033.142)" fill="#ed7d2b"/>
        <path id="Trazado_264953" data-name="Trazado 264953" d="M587.536,1227.526a1.611,1.611,0,0,0,.754-.466s.178.012-.029.391c-.017.032-.056.113-.085.171a.037.037,0,0,0,.031.053,3.93,3.93,0,0,1,.945.02c.064.013.082.166.08.232a.59.59,0,0,1-.124.4,2.063,2.063,0,0,1-.746.391,2.257,2.257,0,0,1-1.154-.145l-.378-.175.117-.7.095.02c.151.032.338-.153.495-.191" transform="translate(-553.858 -1158.118)" fill="#ffb27d"/>
        <path id="Trazado_264954" data-name="Trazado 264954" d="M399.106,1048.272s-5.305,1.01,1.561,8.693c1.1,1.229,7.031,2.829,7.031,2.829s.6-.512.3-.927c0,0-4.085-2.966-4.984-3.438-.4-.212-1.569-4.734-2.228-5.823a2.972,2.972,0,0,0-1.678-1.333" transform="translate(-374.837 -989.375)" fill="#f99746"/>
        <path id="Trazado_264955" data-name="Trazado 264955" d="M613.945,1077.555a2.7,2.7,0,0,0,.207-.507,2.8,2.8,0,0,1,.342-.775c.036-.036.155.01.169.165a.9.9,0,0,1-.085.336,3.787,3.787,0,0,0-.112.667c-.082.267-.521.114-.521.114" transform="translate(-579.451 -1015.793)" fill="#ffb27d"/>
        <path id="Trazado_264956" data-name="Trazado 264956" d="M650.137,816.778a.32.32,0,0,0-.057.342v0a2.126,2.126,0,0,0,.672.738c.041.033.076.063.108.09l.024.022.019.017c.3.272.184.335.715.888.605.63,1.022.641,1.14.584.1-.049-.1-.383-.329-.758l-.033-.055-.09-.151c-.264-.452-.2-.664-.133-1.336.051-.546.851-3.052.851-3.052l-1.16-.2a7.062,7.062,0,0,1-.735,2.3c-.206.164-.436.166-.634.287l-.041.026a1.523,1.523,0,0,0-.317.255" transform="translate(-613.532 -768.179)" fill="#ffb27d"/>
        <path id="Trazado_264957" data-name="Trazado 264957" d="M650.137,860.715a.32.32,0,0,0-.057.342v0a2.467,2.467,0,0,0,.673.735c.04.033.075.064.107.092l.024.022.019.017c.3.272.184.335.715.888.605.63,1.022.641,1.14.584.1-.049-.1-.383-.329-.758a2.578,2.578,0,0,1-1.079-.8c-.351-.448-.589-1.019-.828-1.37l-.068-.013a1.527,1.527,0,0,0-.318.255" transform="translate(-613.532 -812.116)" fill="#233862"/>
        <path id="Trazado_264958" data-name="Trazado 264958" d="M802.408,810.174c.071.358.582.3,1.152.159s.435.026,1.246-.063,1.057-.392,1.082-.513-.379-.145-.809-.195l-.163-.02a3.511,3.511,0,0,1-1.282-.632,5.151,5.151,0,0,1-1.041-1.237l-1.113.088s.584.887.809,1.273a1.345,1.345,0,0,1,.109.758,1.428,1.428,0,0,0,.008.381" transform="translate(-756.45 -762.295)" fill="#ffb27d"/>
        <path id="Trazado_264959" data-name="Trazado 264959" d="M818.842,842.058c.57-.139.435.026,1.246-.063s1.057-.392,1.082-.513-.379-.145-.809-.195l0,.008a2.287,2.287,0,0,1-1.162.361c-.551.013-1.134-.145-1.514-.139a1.424,1.424,0,0,0,.009.381c.071.358.582.3,1.152.159" transform="translate(-771.733 -794.021)" fill="#233862"/>
        <path id="Trazado_264960" data-name="Trazado 264960" d="M677.955,695.52l-1.041,2.8-1.359,3.654a2.2,2.2,0,0,1-.721-.066,3.128,3.128,0,0,1-.7-.34,39.706,39.706,0,0,1,1.083-6.177,4.013,4.013,0,0,1,.606-1.309c1.091-1.288,2.131,1.439,2.131,1.439" transform="translate(-636.259 -654.758)" fill="#233862"/>
        <path id="Trazado_264961" data-name="Trazado 264961" d="M554.28,636.921a11.47,11.47,0,0,0-3.813.3,1.137,1.137,0,0,1-1.173-.53l-4.217-.331s-1.393,3.086-.632,5.052a.74.74,0,0,0,.737.476h0l3.364,0c2.1,0,4.439-1.44,4.742-1.5.5-.1.694.893,1.189,1.934s4.659,4.612,4.659,4.612a3.668,3.668,0,0,0,.9-.092.891.891,0,0,0,.388-.245s-4.611-9.182-6.148-9.679" transform="translate(-513.641 -600.605)" fill="#2a4e96"/>
        <path id="Trazado_264962" data-name="Trazado 264962" d="M511.28,417.612a1.5,1.5,0,0,0-.806-.21,2.239,2.239,0,0,1-.389-.024c-1.609-.237-2.58,2.1-2.637,2.808-.1,1.3-.791,1.494-1.757,2.306-1.937,1.628-1.37,3.521-.311,4.224a2.346,2.346,0,0,0,1.755,0c.016.011,3.063-1.7,4.565-2.529,2.252-.319.483-6.038-.421-6.577" transform="translate(-476.071 -393.913)" fill="#233862"/>
        <path id="Trazado_264963" data-name="Trazado 264963" d="M577.251,486.66a1.985,1.985,0,0,1-1.237.038,2.206,2.206,0,0,1-.817-.979c.213-.01.448-.2.628-1.42l.091.033,1.527.55s-.111.49-.183.957c-.06.392-.093.767-.01.823" transform="translate(-542.879 -457.088)" fill="#ffb27d"/>
        <path id="Trazado_264964" data-name="Trazado 264964" d="M589.527,485.429s-.061.264-.15.758A1.725,1.725,0,0,1,588,484.879Z" transform="translate(-554.964 -457.636)" fill="#ed975d"/>
        <path id="Trazado_264965" data-name="Trazado 264965" d="M587.186,441.575s-2.09-.281-1.895-1.58.057-2.21,1.4-2.085,1.527.659,1.567,1.108-.523,2.6-1.072,2.556" transform="translate(-552.395 -413.296)" fill="#ffb27d"/>
        <path id="Trazado_264966" data-name="Trazado 264966" d="M578.115,436.38a5.825,5.825,0,0,1-2.248,1.245,1.744,1.744,0,0,1-1.254-.2,3.553,3.553,0,0,0,.859-1.164.64.64,0,0,1,.528-.377c.65-.056,1.881-.081,2.115.5" transform="translate(-542.328 -411.369)" fill="#233862"/>
        <path id="Trazado_264967" data-name="Trazado 264967" d="M622.069,439.118a3.293,3.293,0,0,1,.588.754,2.528,2.528,0,0,1,.068,1.345s.7-1.356.3-2.014a.557.557,0,0,0-.959-.084" transform="translate(-587.118 -414.211)" fill="#233862"/>
        <path id="Trazado_264968" data-name="Trazado 264968" d="M548.862,512.767c-.065,4.23-.019,3.346-.481,3.747a1.777,1.777,0,0,1-.838.181c-1.3.086-3.577-.129-3.664-.369a16.667,16.667,0,0,1-.337-2.357c-.026-.135-.058-.281-.1-.44a2.651,2.651,0,0,1,.329-2.57A10.934,10.934,0,0,1,545.2,508.7c1.766,1.049,1.909.168,1.909.168a6.43,6.43,0,0,1,1.749,3.9" transform="translate(-512.732 -480.116)" fill="#f99746"/>
        <path id="Trazado_264969" data-name="Trazado 264969" d="M676.912,726.117l-1.359,3.654a2.2,2.2,0,0,1-.721-.066,3.126,3.126,0,0,1-.7-.34,39.708,39.708,0,0,1,1.083-6.177Z" transform="translate(-636.258 -682.557)" fill="#2a4e96"/>
        <path id="Trazado_264970" data-name="Trazado 264970" d="M611.933,511.7s1.818.309,2.031,1.092.914,5.534.914,5.534-.513.5-.94.073-1.342-4.445-1.342-4.445Z" transform="translate(-577.552 -482.948)" fill="#f99746"/>
        <path id="Trazado_264971" data-name="Trazado 264971" d="M552.384,575.686c-1.3.086-3.577-.129-3.664-.369a16.646,16.646,0,0,1-.337-2.357l.626-1.761s-.1,1.962.474,2.478,2.368,1,2.65,1.428a1.579,1.579,0,0,1,.251.581" transform="translate(-517.572 -539.106)" fill="#ed7d2b"/>
        <path id="Trazado_264972" data-name="Trazado 264972" d="M593.143,633.05a5.444,5.444,0,0,1,1.486-.171,3,3,0,0,1,.774.671c.063.144-.46-.109-.63-.155a1.518,1.518,0,0,0-.544.119,1.807,1.807,0,0,1-.974.1Z" transform="translate(-559.818 -597.296)" fill="#ffb27d"/>
        <path id="Trazado_264973" data-name="Trazado 264973" d="M508.256,508.7s-1.718.105-2.313.935c-.838,1.168-2.5,6.144-1.549,6.808,1.072.748,4.879.2,4.879.2a1.547,1.547,0,0,0-.049-.879c-.176-.286-3.041-.75-3.173-.882S507.7,512.3,507.7,511.9s.551-3.2.551-3.2" transform="translate(-475.785 -480.116)" fill="#f99746"/>
        <path id="Trazado_264974" data-name="Trazado 264974" d="M620.7,639.669a2.479,2.479,0,0,0,.356.387.262.262,0,0,0,.145.031l-.181-.325Z" transform="translate(-585.824 -603.729)" fill="#ffb27d"/>
        <path id="Trazado_264975" data-name="Trazado 264975" d="M619.6,633.329l.779.379a.139.139,0,0,1-.129.05,1.857,1.857,0,0,1-.338-.093Z" transform="translate(-584.784 -597.746)" fill="#ffb27d"/>
        <path id="Trazado_264976" data-name="Trazado 264976" d="M601.281,649.163l-8.143,0v.18l8.071,0Z" transform="translate(-559.813 -612.687)" fill="#233862"/>
        <path id="Trazado_264977" data-name="Trazado 264977" d="M627.029,574.89l6.167,0,1.857-4.612-6.157,0Z" transform="translate(-591.8 -538.237)" fill="#233862"/>
        <path id="Trazado_264978" data-name="Trazado 264978" d="M699.03,606.414a.214.214,0,0,0-.209-.294.421.421,0,0,0-.378.294.214.214,0,0,0,.209.294.421.421,0,0,0,.378-.294" transform="translate(-659.19 -572.065)" fill="#fff"/>
        <path id="Trazado_264979" data-name="Trazado 264979" d="M1387.935,960.205a1.77,1.77,0,0,0-1.406.072c-2.392.1-2.481,2.55-2.2,3.462.395,1.281-1,2.292.547,2.811,1.8.6,3.3-.112,3.2.2,5.679.447,1.749-5.916-.14-6.543" transform="translate(-1306.36 -906.156)" fill="#163560"/>
        <path id="Trazado_264980" data-name="Trazado 264980" d="M1348.4,1088.845a6.27,6.27,0,0,1-.64.967c-.5.622-3.1-.855-2.88-.967s1.535-3.888,1.847-4.362,1.376-.721,1.376-.721Z" transform="translate(-1269.305 -1022.871)" fill="#f99746"/>
        <path id="Trazado_264981" data-name="Trazado 264981" d="M1520.588,1622.21s.72.657.579,1.124-.79.778-.878,1.348-.439.882-.755.882h-1.507s-.233-.4.329-.522.773-.792.738-1.414a10.966,10.966,0,0,1,.053-1.452l1.194-.277Z" transform="translate(-1432.693 -1530.773)" fill="#1f447f"/>
        <path id="Trazado_264982" data-name="Trazado 264982" d="M1387.064,1632.4s.259,2.783-.057,2.938l-4.044-.008s0-.467.65-.57,1.791-.484,1.984-1.331,1.468-1.029,1.468-1.029" transform="translate(-1305.262 -1540.686)" fill="#1c3154"/>
        <path id="Trazado_264983" data-name="Trazado 264983" d="M1388.587,1083.27a16.1,16.1,0,0,1,0,1.869,5.413,5.413,0,0,1-.821,1.8c-.243.562-.518.653-.518.653l-2.123.52-.747.183-2.354-.7s-1.072-2.993-.642-4.678a12.952,12.952,0,0,1,1.089-2.855,16.806,16.806,0,0,1,4.423-.159Z" transform="translate(-1303.674 -1019.174)" fill="#f99746"/>
        <path id="Trazado_264984" data-name="Trazado 264984" d="M1446.935,1143.762c-.04.676-.926,1.557-1.023,1.781-.244.562-.518.653-.518.653l-2.123.521-.383-1.1s3.1-.815,2.6-3.687Z" transform="translate(-1361.82 -1077.772)" fill="#ed7d2b"/>
        <path id="Trazado_264985" data-name="Trazado 264985" d="M1376.309,1225.927a34.933,34.933,0,0,0-1.241,4.865c-.075,1.235,2.229,17.553,2.322,18.122.087.537.754.879.754.879a1.009,1.009,0,0,0,.744.057,1.84,1.84,0,0,0,.8-.376s.907-11.638.346-15.795a65.854,65.854,0,0,1-.568-7.752Z" transform="translate(-1297.809 -1157.049)" fill="#233862"/>
        <path id="Trazado_264986" data-name="Trazado 264986" d="M1408.572,1224s1.779,2.386,1.944,4,.26,7.279.613,8.852a31.846,31.846,0,0,1,1.651,9.5.979.979,0,0,1-.551.431,4.491,4.491,0,0,1-.485.134.762.762,0,0,1-.853-.4c-.877-1.767-3.672-7.465-3.816-8.647-.1-.837-.984-6.377-2.909-9.628-.462-.78.284-3.884.284-3.884Z" transform="translate(-1325.132 -1155.232)" fill="#2a4e96"/>
        <path id="Trazado_264987" data-name="Trazado 264987" d="M1392.757,1215.956a2.444,2.444,0,0,0,1.4.389c1.111.022,3.863-.283,3.863-.283a2.275,2.275,0,0,1,.117.7s-3.361.848-5.309.124a1.231,1.231,0,0,1-.069-.932" transform="translate(-1314.444 -1147.638)" fill="#233862"/>
        <path id="Trazado_264988" data-name="Trazado 264988" d="M1405.493,1220.643a.578.578,0,1,1,.507-.574.544.544,0,0,1-.507.574m0-.979a.412.412,0,1,0,.339.406.377.377,0,0,0-.339-.406" transform="translate(-1326.048 -1150.979)" fill="#fff"/>
        <path id="Trazado_264989" data-name="Trazado 264989" d="M1330.6,1160.344l-5.052.047-2.486-5.842,5.052-.047Z" transform="translate(-1248.725 -1089.637)" fill="#b5453c"/>
        <path id="Trazado_264990" data-name="Trazado 264990" d="M1401.931,1195.963l-.37-.455a1.3,1.3,0,0,0-.432-.261c-.182-.038-.566-.26-.6-.2s.295.508.295.508l.017,0c-.381.287-1.344.033-1.463.151-.144.142.2.448.382.62a1.348,1.348,0,0,0,1.119.332c.3-.093.771-.188.771-.188Z" transform="translate(-1320.719 -1127.896)" fill="#ffb27d"/>
        <path id="Trazado_264991" data-name="Trazado 264991" d="M1329.28,1169.692s.318-.361.52-.188-.053,1.025-.245.938-.385-.645-.274-.75" transform="translate(-1254.564 -1103.751)" fill="#ffb27d"/>
        <path id="Trazado_264992" data-name="Trazado 264992" d="M1438.1,1080.923a3.622,3.622,0,0,1,2.484,2.045c.818,1.487,2.218,4.229,1.69,5-.232.34-2.453,1.55-6.739.858a1.3,1.3,0,0,1,.413-.792s3.606-1.158,3.6-1.388c-.012-.436-.487-.812-2.5-2.827-.547-.548,1.054-2.9,1.054-2.9" transform="translate(-1354.88 -1020.192)" fill="#f99746"/>
        <path id="Trazado_264993" data-name="Trazado 264993" d="M1424.686,1045.137c.05-.067-.014-.279-.094-.675a7.4,7.4,0,0,1-.191-1.536l-.107.018-1.792.3s.041.479.042.931v.011c0,.392-.106.985.026,1.062a2.279,2.279,0,0,0,2.116-.112" transform="translate(-1342.58 -984.33)" fill="#ffb27d"/>
        <path id="Trazado_264994" data-name="Trazado 264994" d="M1422.5,1043.545s.036.676.037,1.127c1-.024,1.538-1,1.756-1.429Z" transform="translate(-1342.58 -984.63)" fill="#e8945b"/>
        <path id="Trazado_264995" data-name="Trazado 264995" d="M1399.906,993.336s2.35-.335,2.119-1.795-.083-2.487-1.593-2.335-1.713.755-1.754,1.261.611,2.918,1.229,2.868" transform="translate(-1320.092 -933.615)" fill="#ffb27d"/>
        <path id="Trazado_264996" data-name="Trazado 264996" d="M1410.831,985.047s.915,1.61,1.94,1.707a1.963,1.963,0,0,0,1.41-.236,2.824,2.824,0,0,1-1.174-1.5s-1.821-.861-2.175.031" transform="translate(-1331.564 -929.32)" fill="#163560"/>
        <path id="Trazado_264997" data-name="Trazado 264997" d="M1396.068,990.209a1.473,1.473,0,0,0-.588.632,2.391,2.391,0,0,0-.1,1.391s-.669-1.087-.23-1.832c.465-.79.922-.191.922-.191" transform="translate(-1316.62 -934.369)" fill="#163560"/>
        <path id="Trazado_264998" data-name="Trazado 264998" d="M144.672,1683.811H14.417a.163.163,0,0,1-.163-.163v-.094a.163.163,0,0,1,.163-.163H144.672a.163.163,0,0,1,.163.163v.094a.163.163,0,0,1-.163.163" transform="translate(-13.453 -1588.811)" fill="#233862"/>
      </g>
    </g>
  </g>
</svg>
