<svg id="Grupo_882072" data-name="Grupo 882072" xmlns="http://www.w3.org/2000/svg" xmlns:xlink="http://www.w3.org/1999/xlink" width="57.072" height="52.144" viewBox="0 0 57.072 52.144">
  <defs>
    <clipPath id="clip-path">
      <rect id="Rectángulo_298908" data-name="Rectángulo 298908" width="57.072" height="52.144" fill="#fff"/>
    </clipPath>
  </defs>
  <g id="Grupo_882071" data-name="Grupo 882071" clip-path="url(#clip-path)">
    <path id="Trazado_266707" data-name="Trazado 266707" d="M.115,166.8A.484.484,0,0,1,0,166.769v.044a1.055,1.055,0,0,1,.115-.009" transform="translate(0 -135.931)" fill="#fff"/>
    <path id="Trazado_266708" data-name="Trazado 266708" d="M3.338,153.964c.238.1.268.154.223.407-.134.772-.259,1.545-.389,2.317a.263.263,0,0,0,0,.186c.25-.268.461-.56.7-.832.275-.319.532-.653.807-.972a.294.294,0,0,1,.407-.079c.419.2.834.413,1.249.622.033.017.065.035.1.05s.1.066.143.031c.061-.047.012-.109-.009-.16-.216-.535-.41-1.078-.635-1.609a.464.464,0,0,1,.081-.558c.431-.5.846-1.006,1.266-1.513a.335.335,0,0,0,.123-.23c-.353.081-.694.165-1.033.26-.278.077-.558.147-.838.214s-.325.051-.447-.239c-.25-.6-.506-1.195-.747-1.785-.145.727-.288,1.463-.437,2.2a.42.42,0,0,1-.335.364c-.645.162-1.282.355-1.925.524a1.253,1.253,0,0,1-.248.045.78.78,0,0,1,.18.046c.591.234,1.183.466,1.77.711" transform="translate(-1.132 -122.324)" fill="#fff"/>
    <path id="Trazado_266709" data-name="Trazado 266709" d="M.764,166.972a.881.881,0,0,0-.141-.01.579.579,0,0,0,.141.01" transform="translate(-0.508 -136.088)" fill="#fff"/>
    <path id="Trazado_266710" data-name="Trazado 266710" d="M2.332,153.088c-.084.45-.156.9-.232,1.354-.087.519-.174,1.038-.266,1.587a.562.562,0,0,0,.212-.2c.512-.622,1.029-1.24,1.531-1.871a.255.255,0,0,1,.386-.074c.5.26,1,.5,1.507.752a.322.322,0,0,0,.235.066c-.036-.1-.066-.181-.1-.262-.244-.619-.486-1.238-.736-1.854a.268.268,0,0,1,.048-.318c.309-.358.608-.725.91-1.089l.777-.938c-.1-.058-.17-.009-.237.008-.666.171-1.332.337-1.994.523-.186.052-.257,0-.325-.166-.249-.624-.513-1.243-.775-1.862-.026-.06-.024-.146-.119-.174-.015.054-.031.1-.041.153-.153.76-.31,1.52-.452,2.282a.336.336,0,0,1-.288.3c-.473.118-.94.26-1.412.381a7.3,7.3,0,0,1-.965.243.481.481,0,0,0,.115.036.885.885,0,0,1,.142.01,1.239,1.239,0,0,0,.248-.045c.643-.17,1.28-.362,1.925-.524a.421.421,0,0,0,.335-.364c.149-.735.292-1.472.437-2.2.241.59.5,1.186.747,1.785.121.291.153.309.447.239s.56-.136.838-.214c.339-.094.681-.179,1.033-.26a.335.335,0,0,1-.123.23c-.42.506-.835,1.016-1.266,1.513a.464.464,0,0,0-.081.558c.225.531.419,1.074.635,1.609.021.051.07.113.009.16-.045.035-.1-.011-.143-.031s-.066-.033-.1-.05c-.416-.209-.83-.421-1.249-.622a.294.294,0,0,0-.407.079c-.274.32-.532.653-.807.972-.234.272-.445.564-.7.832a.262.262,0,0,1,0-.186c.13-.772.254-1.546.389-2.317.044-.253.014-.308-.223-.407-.587-.245-1.178-.477-1.77-.711a.79.79,0,0,0-.18-.046.571.571,0,0,1-.142-.01,1.055,1.055,0,0,0-.115.008c.735.291,1.468.585,2.2.872a.173.173,0,0,1,.127.233" transform="translate(0 -121.101)" fill="#fff"/>
    <path id="Trazado_266711" data-name="Trazado 266711" d="M102.478,3.5a.425.425,0,0,1-.326.345c-.521.166-1.053.295-1.573.464a.307.307,0,0,0-.152.071,1.21,1.21,0,0,0,.389.2c.331.146.667.281,1,.425.286.124.331.208.282.517-.117.737-.2,1.478-.333,2.213a.1.1,0,0,0,.006.086c.454-.537.913-1.066,1.36-1.607.218-.264.3-.283.6-.111s.631.323.948.485a.268.268,0,0,0,.2.055,3.345,3.345,0,0,0-.207-.552c-.138-.335-.269-.673-.424-1a.415.415,0,0,1,.1-.515c.452-.5.9-1,1.345-1.531a.517.517,0,0,0-.244.019c-.493.1-.985.2-1.477.3-.3.061-.385.017-.5-.263-.185-.459-.375-.916-.555-1.377a.965.965,0,0,1-.042-.14,2.074,2.074,0,0,1-.068.429c-.119.5-.227.994-.334,1.493" transform="translate(-81.856 -1.29)" fill="#fff"/>
    <path id="Trazado_266712" data-name="Trazado 266712" d="M113.545,0H113.5a.876.876,0,0,1,.022.1.455.455,0,0,1,.022-.1" transform="translate(-92.513)" fill="#fff"/>
    <path id="Trazado_266713" data-name="Trazado 266713" d="M100.359,2.44c-.313.086-.625.178-.937.269l-1.219.36c.643.275,1.223.53,1.81.77a.232.232,0,0,1,.175.3c-.089.539-.166,1.081-.246,1.621-.053.359-.1.718-.158,1.088a.214.214,0,0,0,.144-.108c.512-.6,1.026-1.2,1.532-1.812a.208.208,0,0,1,.313-.064c.422.229.852.443,1.281.659a.515.515,0,0,0,.275.1c-.27-.639-.526-1.26-.8-1.875a.282.282,0,0,1,.056-.352c.485-.538.962-1.083,1.439-1.628.051-.058.125-.1.134-.215-.571.117-1.134.231-1.7.348-.592.123-.6.126-.819-.434-.192-.486-.42-.959-.571-1.461a.456.456,0,0,0-.022.1.965.965,0,0,1,.013.194,1.013,1.013,0,0,0,.042.14c.18.461.371.918.555,1.377.112.28.2.323.5.263.492-.1.984-.2,1.477-.3a.517.517,0,0,1,.243-.019c-.449.53-.892,1.035-1.345,1.531a.415.415,0,0,0-.1.515c.155.327.286.665.424,1a3.345,3.345,0,0,1,.207.552.268.268,0,0,1-.2-.055c-.316-.161-.638-.31-.948-.485s-.384-.153-.6.111c-.446.541-.906,1.071-1.36,1.607a.1.1,0,0,1-.006-.085c.128-.735.216-1.476.332-2.213.049-.309,0-.393-.281-.517-.332-.144-.668-.279-1-.425a1.211,1.211,0,0,1-.389-.2.309.309,0,0,1,.152-.071c.521-.169,1.053-.3,1.574-.464a.424.424,0,0,0,.326-.345c.107-.5.215-1,.334-1.493a2.074,2.074,0,0,0,.067-.429A.564.564,0,0,1,101.054.1a.913.913,0,0,0-.022-.1c-.163.75-.329,1.5-.489,2.25a.225.225,0,0,1-.185.19" transform="translate(-80.044)" fill="#fff"/>
    <path id="Trazado_266714" data-name="Trazado 266714" d="M113.62.729a1.008,1.008,0,0,0-.013-.194.559.559,0,0,0,.013.194" transform="translate(-92.597 -0.436)" fill="#fff"/>
    <path id="Trazado_266715" data-name="Trazado 266715" d="M270.071,118.9a10.474,10.474,0,0,0-2.1-.317,6.6,6.6,0,0,0-3.453.7,5.7,5.7,0,0,0-2.857,5.731,2.494,2.494,0,0,0,1.439,2.071,2.876,2.876,0,0,0,3.1-.614,5.064,5.064,0,0,0,.748-.943c.058.036.04.073.038.108-.026.413-.045.826-.08,1.238-.014.172.014.245.214.241.606-.014,1.212-.011,1.818,0,.174,0,.222-.049.222-.223a17.7,17.7,0,0,1,.284-3.174c.268-1.489.559-2.975.851-4.459.043-.218,0-.3-.224-.358m-3.295,5.006a2.959,2.959,0,0,1-.756,1.055,1.532,1.532,0,0,1-.474.281.919.919,0,0,1-1.249-.579,1.36,1.36,0,0,1-.071-.255c-.025-.16-.039-.322-.057-.482a4.047,4.047,0,0,1,1.434-2.99,2.128,2.128,0,0,1,1.81-.45c.073.013.154.019.131.131a15.132,15.132,0,0,1-.769,3.289" transform="translate(-213.238 -96.644)" fill="#fff"/>
    <path id="Trazado_266716" data-name="Trazado 266716" d="M154.586,127.1c.152,0,.2-.053.222-.2q.385-2.068.786-4.133a8.938,8.938,0,0,0,.217-2.266,1.922,1.922,0,0,0-1.592-1.895,3.3,3.3,0,0,0-2.4.49,6.162,6.162,0,0,0-1.083.955c.039-.367.065-.735.124-1.1.03-.187-.035-.207-.192-.205-.577.007-1.154.013-1.73,0-.21-.006-.253.078-.279.261-.086.614-.178,1.227-.291,1.837q-.557,3.027-1.134,6.051c-.029.155-.014.205.157.2q1.042-.013,2.085,0c.147,0,.2-.042.226-.189q.314-1.755.647-3.506a4.772,4.772,0,0,1,.936-2.2,1.693,1.693,0,0,1,.936-.635.775.775,0,0,1,1.015.725,4.027,4.027,0,0,1-.069,1.168q-.413,2.232-.843,4.46c-.031.158.021.171.15.17.7,0,1.4-.006,2.107,0" transform="translate(-120.004 -96.636)" fill="#fff"/>
    <path id="Trazado_266717" data-name="Trazado 266717" d="M108.812,118.685a4.279,4.279,0,0,0-4.184.935,5.243,5.243,0,0,0-1.791,4.777,2.956,2.956,0,0,0,1.229,2.195,4.149,4.149,0,0,0,2.514.644c.219-.015.4-.023.572-.04a6.772,6.772,0,0,0,2.222-.561c.085-.039.152-.067.138-.188q-.081-.727-.142-1.455c-.014-.164-.04-.211-.218-.131a4.987,4.987,0,0,1-2.483.429,1.511,1.511,0,0,1-1.488-1.193c-.051-.271-.05-.275.221-.272a10.935,10.935,0,0,0,2.838-.271,3.335,3.335,0,0,0,1.734-.926,2.433,2.433,0,0,0-1.161-3.944m-.58,2.463a.792.792,0,0,1-.537.6,4.079,4.079,0,0,1-1.319.253c-.132.01-.265,0-.4,0,0,0,0,.009,0,.013h-.332c-.266,0-.266,0-.171-.263a1.98,1.98,0,0,1,2.026-1.431.712.712,0,0,1,.732.829" transform="translate(-83.787 -96.58)" fill="#fff"/>
    <path id="Trazado_266718" data-name="Trazado 266718" d="M227.754,118.858a5.649,5.649,0,0,0-2.971-.19,3.354,3.354,0,0,0-1.965,1.075,2.288,2.288,0,0,0,.346,3.431,5.385,5.385,0,0,0,.889.539,2.73,2.73,0,0,1,.668.431.725.725,0,0,1,.257.754.757.757,0,0,1-.6.53,2.033,2.033,0,0,1-.814.025,6.042,6.042,0,0,1-1.783-.552c-.141.4-.277.8-.416,1.2-.21.6-.215.614.394.829a5.814,5.814,0,0,0,3.721.1,2.957,2.957,0,0,0,1.575-1.055,2.34,2.34,0,0,0-.456-3.393,6.981,6.981,0,0,0-1.048-.619,2.2,2.2,0,0,1-.677-.455.593.593,0,0,1,.122-.948,1.046,1.046,0,0,1,.412-.153,3.57,3.57,0,0,1,1.823.249c.16.061.219.051.272-.122.132-.438.274-.873.438-1.3.085-.222.022-.307-.188-.379" transform="translate(-180.327 -96.631)" fill="#fff"/>
    <path id="Trazado_266719" data-name="Trazado 266719" d="M202.5,119.6c-.34.007-.68,0-1.02,0s-.71,0-1.064,0c-.126,0-.185.032-.2.163-.034.233-.086.464-.13.7q-.694,3.642-1.39,7.284c-.03.155.006.207.171.205q1.042-.011,2.084,0c.139,0,.192-.045.217-.178q.746-3.993,1.5-7.983c.03-.158-.021-.19-.164-.187" transform="translate(-161.94 -97.485)" fill="#fff"/>
    <path id="Trazado_266720" data-name="Trazado 266720" d="M20.934,87.165c-.633.15-1.267.292-1.9.451-.176.044-.26.014-.332-.163-.245-.6-.509-1.2-.769-1.792-.03-.068-.04-.152-.128-.206-.167.819-.337,1.62-.49,2.425a.333.333,0,0,1-.286.3c-.687.176-1.37.367-2.054.556-.072.02-.163.01-.216.107.077.037.148.074.221.107.6.269,1.2.54,1.8.8a.207.207,0,0,1,.15.265q-.151.952-.273,1.908a5.787,5.787,0,0,0-.1.9c.093-.1.151-.166.206-.231.485-.577.973-1.152,1.453-1.734a.212.212,0,0,1,.313-.073c.44.226.89.433,1.337.645.156.074.313.144.514.236-.043-.119-.065-.187-.092-.253-.245-.61-.486-1.222-.741-1.828a.37.37,0,0,1,.058-.438c.5-.6.985-1.218,1.474-1.831.041-.052.12-.091.092-.184a.462.462,0,0,0-.242.02" transform="translate(-12.033 -69.653)" fill="#fff"/>
    <path id="Trazado_266721" data-name="Trazado 266721" d="M53.1,38.54c-.118.848-.23,1.7-.345,2.546l.055.1c.553-.644,1.11-1.286,1.657-1.936.1-.123.181-.152.328-.072.37.2.749.384,1.125.572.188.094.377.186.58.285a.591.591,0,0,0-.081-.3c-.245-.61-.489-1.22-.743-1.826a.283.283,0,0,1,.047-.338c.258-.3.5-.62.751-.932l.912-1.142c-.126.025-.2.036-.267.053-.639.152-1.28.3-1.917.462-.2.05-.3.038-.377-.181-.122-.356-.282-.7-.427-1.045-.1-.25-.21-.5-.319-.756a.3.3,0,0,0-.079.179c-.162.7-.328,1.394-.483,2.094a.3.3,0,0,1-.247.264c-.683.188-1.364.386-2.044.586a.482.482,0,0,0-.269.119l1.891.812c.3.129.295.128.25.453" transform="translate(-41.537 -27.741)" fill="#fff"/>
    <path id="Trazado_266722" data-name="Trazado 266722" d="M61.159,247.252c-.581.144-1.163.284-1.74.441-.175.048-.251,0-.314-.161-.212-.552-.436-1.1-.658-1.646-.023-.056-.021-.133-.113-.158-.012.045-.025.086-.033.128-.142.68-.288,1.358-.422,2.039a.313.313,0,0,1-.259.281c-.578.153-1.153.32-1.729.483-.117.033-.234.07-.361.108a.4.4,0,0,0,.235.159c.524.239,1.049.478,1.577.708.149.065.211.131.181.312-.128.757-.236,1.518-.35,2.277-.01.068-.039.139.007.209a.5.5,0,0,0,.2-.18c.455-.515.912-1.028,1.358-1.551a.234.234,0,0,1,.337-.068c.428.218.862.424,1.3.63.067.032.144.124.214.057s-.018-.137-.043-.2c-.217-.55-.432-1.1-.658-1.646a.291.291,0,0,1,.048-.339c.466-.574.923-1.154,1.382-1.733.044-.055.112-.1.1-.189a.51.51,0,0,0-.258.041" transform="translate(-45.262 -200.288)" fill="#fff"/>
    <path id="Trazado_266723" data-name="Trazado 266723" d="M19.386,210.323c-.193-.525-.388-1.05-.588-1.59a.48.48,0,0,0-.08.229c-.112.565-.256,1.126-.325,1.7a.713.713,0,0,1-.663.712c-.584.116-1.151.313-1.732.477.049.093.128.1.193.131.5.224,1,.45,1.5.663.157.066.223.135.2.325-.107.82-.192,1.643-.285,2.465l.052.1c.494-.607.993-1.211,1.48-1.826a.234.234,0,0,1,.35-.07c.446.231.9.448,1.352.667.053.026.106.087.19.028-.024-.068-.047-.137-.073-.2-.207-.538-.408-1.078-.624-1.612a.31.31,0,0,1,.055-.359c.446-.542.884-1.091,1.322-1.64.047-.059.121-.107.119-.218l-1.8.383c-.473.1-.472.1-.639-.353" transform="translate(-13.04 -170.135)" fill="#fff"/>
    <path id="Trazado_266724" data-name="Trazado 266724" d="M154.286,15.22c-.137.573-.235,1.155-.356,1.771a.691.691,0,0,0,.246-.219c.339-.381.679-.761,1.009-1.149a.222.222,0,0,1,.331-.068c.351.193.713.365,1.074.547a.283.283,0,0,0-.036-.236c-.149-.4-.3-.8-.456-1.2a.248.248,0,0,1,.046-.3c.275-.309.542-.625.806-.944a3.556,3.556,0,0,0,.413-.523c-.556.1-1.087.189-1.614.3a.244.244,0,0,1-.331-.177c-.151-.376-.322-.745-.487-1.116-.024-.055-.024-.131-.119-.156a9.631,9.631,0,0,0-.228,1.171.8.8,0,0,1-.751.842,9.3,9.3,0,0,0-1.159.355c.5.236.94.459,1.394.652.226.1.277.205.22.447" transform="translate(-124.441 -9.579)" fill="#fff"/>
    <path id="Trazado_266725" data-name="Trazado 266725" d="M114.85,244.96c-.168.036-.237-.015-.3-.164-.141-.358-.295-.71-.447-1.063-.03-.069-.04-.156-.136-.207-.024.083-.047.152-.065.222-.109.438-.224.874-.32,1.314a.382.382,0,0,1-.319.337c-.395.095-.784.214-1.174.328-.072.021-.163.01-.22.108.423.188.837.38,1.258.558a.237.237,0,0,1,.173.3c-.08.6-.138,1.2-.2,1.806l.051.095c.311-.376.615-.758.935-1.126.362-.416.185-.4.723-.154.291.135.58.274.879.416a.386.386,0,0,0-.054-.243c-.149-.37-.293-.743-.455-1.108a.289.289,0,0,1,.061-.354c.327-.372.642-.754.958-1.135.042-.051.117-.094.086-.2-.481.089-.961.169-1.436.271" transform="translate(-91.186 -198.495)" fill="#fff"/>
    <path id="Trazado_266726" data-name="Trazado 266726" d="M184.636,44.857a.182.182,0,0,1,.132.233c-.044.255-.078.511-.115.767q-.079.537-.157,1.074c.408-.4.776-.812,1.131-1.235a.21.21,0,0,1,.313-.064c.362.192.732.368,1.149.575-.2-.53-.367-1.006-.548-1.479a.251.251,0,0,1,.052-.3c.359-.412.709-.832,1.062-1.25l-.1-.051c-.435.082-.873.151-1.3.252-.2.048-.288-.011-.361-.194-.15-.377-.322-.745-.488-1.115-.017-.038-.012-.112-.1-.093-.079.472-.17.944-.232,1.419a.409.409,0,0,1-.36.411c-.482.112-.954.269-1.476.421.1.049.148.077.2.1.4.176.794.357,1.2.524" transform="translate(-149.356 -34.217)" fill="#fff"/>
    <path id="Trazado_266727" data-name="Trazado 266727" d="M155.877,218.022c-.088-.059-.151-.021-.212-.008-.354.076-.712.141-1.06.238-.227.063-.351.026-.433-.213-.108-.314-.255-.614-.389-.919-.03-.068-.041-.154-.144-.194-.108.5-.22.979-.315,1.464a.324.324,0,0,1-.262.284c-.4.111-.8.231-1.191.352-.066.02-.151.012-.193.092.047.076.131.094.2.129.32.154.636.317.964.451a.3.3,0,0,1,.2.391c-.086.495-.15.993-.223,1.49l.045.135c.333-.405.672-.806,1-1.218a.205.205,0,0,1,.3-.067c.307.146.62.28.932.415.057.024.125.086.181.025s-.01-.111-.031-.163a4.1,4.1,0,0,0-.265-.609.8.8,0,0,1,.14-1.125,9.215,9.215,0,0,0,.754-.952" transform="translate(-123.63 -176.813)" fill="#fff"/>
    <path id="Trazado_266728" data-name="Trazado 266728" d="M196.87,85.674a.274.274,0,0,1-.223.232c-.447.123-.89.264-1.382.412.424.171.8.33,1.189.475a.2.2,0,0,1,.154.263c-.044.247-.077.5-.112.744-.038.269-.074.539-.11.808a14.169,14.169,0,0,0,.981-1.047.209.209,0,0,1,.3-.061c.312.158.632.3,1,.473a9.056,9.056,0,0,0-.328-.9.7.7,0,0,1,.154-.918,9.531,9.531,0,0,0,.693-.86.285.285,0,0,0-.219.011c-.341.1-.685.181-1.022.288-.139.044-.192.013-.244-.116-.152-.374-.317-.743-.5-1.164-.12.489-.23.923-.331,1.359" transform="translate(-159.157 -68.724)" fill="#fff"/>
    <path id="Trazado_266729" data-name="Trazado 266729" d="M180.6,181.435a8.43,8.43,0,0,0-1.161.216c-.173.043-.273.015-.334-.169-.075-.224-.178-.438-.273-.654a1.472,1.472,0,0,0-.179-.372c-.026.027-.041.036-.044.048-.077.391-.161.781-.225,1.175a.319.319,0,0,1-.27.3c-.372.094-.741.2-1.11.309-.048.014-.118.016-.128.071-.015.078.067.087.116.109.269.122.54.24.811.358.3.13.294.128.249.461-.059.437-.107.875-.162,1.323.084,0,.107-.053.138-.09.249-.3.5-.6.744-.908a.221.221,0,0,1,.32-.076c.257.129.52.248.783.364.062.027.138.1.2.039s-.011-.125-.031-.185c-.1-.287-.185-.578-.3-.856a.445.445,0,0,1,.1-.519c.263-.306.507-.627.758-.943" transform="translate(-144.166 -147.087)" fill="#fff"/>
    <path id="Trazado_266730" data-name="Trazado 266730" d="M157.706,242.093c-.026.053-.061.111-.021.165.023.031.05,0,.066-.03-.109-.013-.057-.081-.045-.135" transform="translate(-128.512 -197.326)" fill="#fff"/>
    <path id="Trazado_266731" data-name="Trazado 266731" d="M157.825,242.229l-.045-.135c-.012.054-.064.122.045.135" transform="translate(-128.585 -197.327)" fill="#fff"/>
    <path id="Trazado_266732" data-name="Trazado 266732" d="M206.691,48.1c.031-.011.057-.042.037-.065-.044-.05-.09-.009-.133.014.055-.026.1-.029.1.051" transform="translate(-168.392 -39.135)" fill="#fff"/>
    <path id="Trazado_266733" data-name="Trazado 266733" d="M206.594,48.143l.1.051c0-.08-.041-.077-.1-.051" transform="translate(-168.391 -39.227)" fill="#fff"/>
    <path id="Trazado_266734" data-name="Trazado 266734" d="M60.513,72.168c-.028.049-.055.109-.016.153.023.026.056-.019.072-.05-.087,0-.071-.05-.055-.1" transform="translate(-49.294 -58.823)" fill="#fff"/>
    <path id="Trazado_266735" data-name="Trazado 266735" d="M60.672,72.271l-.055-.1c-.016.052-.031.105.055.1" transform="translate(-49.398 -58.824)" fill="#fff"/>
    <path id="Trazado_266736" data-name="Trazado 266736" d="M24.539,244.96c-.021.044-.055.093-.011.135.023.021.05-.01.062-.038-.084,0-.07-.045-.052-.1" transform="translate(-19.975 -199.663)" fill="#fff"/>
    <path id="Trazado_266737" data-name="Trazado 266737" d="M24.675,245.056l-.052-.1c-.018.051-.032.1.052.1" transform="translate(-20.058 -199.662)" fill="#fff"/>
    <path id="Trazado_266738" data-name="Trazado 266738" d="M118.37,270.408c-.021.039-.05.083-.016.122s.051,0,.067-.027c-.082,0-.07-.043-.051-.095" transform="translate(-96.456 -220.405)" fill="#fff"/>
    <path id="Trazado_266739" data-name="Trazado 266739" d="M118.448,270.408c-.019.051-.03.1.051.095h0Z" transform="translate(-96.534 -220.405)" fill="#fff"/>
  </g>
</svg>
