<svg xmlns="http://www.w3.org/2000/svg" xmlns:xlink="http://www.w3.org/1999/xlink" width="610" height="359.499" viewBox="0 0 610 359.499">
  <defs>
    <clipPath id="clip-path">
      <path id="Trazado_223941" data-name="Trazado 223941" d="M453.061,15.366H430.267c-12.7,0-14.12,14.2-46.211,14.2H315.081c-6.87,0-12.49,5.322-12.49,11.822h0c0,6.5,5.621,11.822,12.49,11.822h12c9.953,0,18.1,7.709,18.1,17.13s-8.145,17.129-18.1,17.129H309.025c-48.748,0-55.634,12.058-64.172,36.04s-72.009,25.915-72.009,25.915h-93.9c-15,0-27.274,11.615-27.274,25.814s12.273,25.814,27.274,25.814h3.122c14.429,0,26.234,11.172,26.234,24.83S96.5,250.713,82.068,250.713H50.049C22.521,250.713,0,272.029,0,298.083s22.521,47.369,50.049,47.369H515.794c44.575,0,81.044-34.517,81.044-76.7s-36.467-76.7-81.044-76.7c-18.845,0-35.892-14.6-35.892-32.433s15.419-32.431,34.265-32.431h19.382c19.595,0,35.626-15.174,35.626-33.72s-16.031-33.719-35.626-33.719H478.324c-7.63,0-13.872-5.907-13.872-13.127s6.241-13.128,13.872-13.128h9.192a9.354,9.354,0,0,0,9.573-9.059h0a9.355,9.355,0,0,0-9.573-9.059Zm51.744,9.06a9.588,9.588,0,0,0,19.146,0,9.587,9.587,0,0,0-19.146,0" transform="translate(0 -15.366)" fill="none"/>
    </clipPath>
    <linearGradient id="linear-gradient" y1="1.001" x2="0.001" y2="1.001" gradientUnits="objectBoundingBox">
      <stop offset="0" stop-color="#1e9df8"/>
      <stop offset="0.217" stop-color="#55b5f9"/>
      <stop offset="0.491" stop-color="#95d1fc"/>
      <stop offset="0.722" stop-color="#c4e5fd"/>
      <stop offset="0.899" stop-color="#e1f2fe"/>
      <stop offset="1" stop-color="#ecf7ff"/>
    </linearGradient>
    <clipPath id="clip-path-2">
      <rect id="Rectángulo_66556" data-name="Rectángulo 66556" width="610" height="359.499" fill="none"/>
    </clipPath>
    <clipPath id="clip-path-3">
      <path id="Trazado_223954" data-name="Trazado 223954" d="M306.374,623.568c-1.258,0-2.567,1.06-2.286,2.286l24.585,107.173c.281,1.226,1.029,2.287,2.286,2.287H511.243c1.257,0,2.63-1.078,2.287-2.287L483.09,625.854c-.344-1.209-1.029-2.286-2.287-2.286Z" transform="translate(-304.049 -623.568)" fill="none"/>
    </clipPath>
    <linearGradient id="linear-gradient-2" x1="-1.373" y1="0.904" x2="-1.369" y2="0.904" gradientUnits="objectBoundingBox">
      <stop offset="0" stop-color="#1e9df8"/>
      <stop offset="1" stop-color="#b9e4ff"/>
    </linearGradient>
    <clipPath id="clip-path-5">
      <path id="Trazado_223962" data-name="Trazado 223962" d="M475.014,233.729c-27,15.226-49.588,24.5-80.322,29.341l-17.518,2.757L375.749,283.5c-6.028,74.866,34.623,155.942,97.786,196.325H498.61C561.773,439.445,602.423,358.37,596.4,283.5l-1.41-17.512L577.657,263.1c-30.857-5.145-53.377-14.065-80.526-29.374l-11.059-6.237Z" transform="translate(-375.159 -227.492)" fill="none"/>
    </clipPath>
    <linearGradient id="linear-gradient-3" x1="-0.541" y1="1.109" x2="-0.54" y2="1.109" gradientUnits="objectBoundingBox">
      <stop offset="0" stop-color="#0094ff"/>
      <stop offset="0.178" stop-color="#008af0"/>
      <stop offset="0.517" stop-color="#0073ca"/>
      <stop offset="0.98" stop-color="#004c8d"/>
      <stop offset="1" stop-color="#004b8b"/>
    </linearGradient>
    <clipPath id="clip-path-6">
      <path id="Trazado_223963" data-name="Trazado 223963" d="M439.931,333.243c-5.515,68.492,33.043,140.992,87.88,175.817,54.839-34.825,93.4-107.325,87.882-175.817-34.157-5.695-57.753-14.981-87.882-31.971-30.128,16.99-54.352,26.695-87.881,31.971" transform="translate(-439.407 -301.272)" fill="none"/>
    </clipPath>
    <linearGradient id="linear-gradient-4" x1="-0.797" y1="1.222" x2="-0.796" y2="1.222" gradientUnits="objectBoundingBox">
      <stop offset="0" stop-color="#0094ff"/>
      <stop offset="0.142" stop-color="#008bf1"/>
      <stop offset="0.408" stop-color="#0176cd"/>
      <stop offset="0.767" stop-color="#025393"/>
      <stop offset="1" stop-color="#033b6b"/>
    </linearGradient>
    <clipPath id="clip-path-7">
      <path id="Trazado_223964" data-name="Trazado 223964" d="M495.915,340.44a235.533,235.533,0,0,1-39.533,10.324c-1.326,25.99,3.811,52.232,13.482,76.315,13.789,34.339,37.864,66.7,68.842,87.452,30.979-20.757,55.054-53.112,68.844-87.451,9.676-24.1,14.814-50.352,13.48-76.355A247.763,247.763,0,0,1,579.4,339.6a292.289,292.289,0,0,1-40.695-19.111,292.647,292.647,0,0,1-42.792,19.948" transform="translate(-456.176 -320.492)" fill="none"/>
    </clipPath>
    <linearGradient id="linear-gradient-5" x1="-0.949" y1="1.274" x2="-0.946" y2="1.274" gradientUnits="objectBoundingBox">
      <stop offset="0" stop-color="#1e9df8"/>
      <stop offset="0.132" stop-color="#44adf9"/>
      <stop offset="0.36" stop-color="#81c8fb"/>
      <stop offset="0.569" stop-color="#b1ddfc"/>
      <stop offset="0.752" stop-color="#d4ecfe"/>
      <stop offset="0.902" stop-color="#e9f5fe"/>
      <stop offset="1" stop-color="#f1f9ff"/>
    </linearGradient>
    <clipPath id="clip-path-9">
      <path id="Trazado_223984" data-name="Trazado 223984" d="M609.761,480.252a13.022,13.022,0,1,1,12.131,0v21.521H609.761ZM596.073,432.2v-.9a19.475,19.475,0,0,1,38.857,0h0v.032c.013.287.021.575.021.867s-.008.579-.021.866v8.761H596.073Zm-11.15-1.427-.013.264V442a13,13,0,0,0-10.856,12.781v46.629a12.99,12.99,0,0,0,12.953,12.951h57.638A12.99,12.99,0,0,0,657.6,501.406V454.777a13,13,0,0,0-11.506-12.87v-8.614c.013-.365.021-.73.021-1.1,0-.461-.012-.92-.033-1.379l0-.047a30.635,30.635,0,0,0-61.154,0" transform="translate(-574.054 -402.012)" fill="none"/>
    </clipPath>
    <linearGradient id="linear-gradient-6" x1="-2.407" y1="1.946" x2="-2.403" y2="1.946" xlink:href="#linear-gradient-4"/>
    <clipPath id="clip-path-10">
      <path id="Trazado_223985" data-name="Trazado 223985" d="M609.761,468.1a13.022,13.022,0,1,1,12.131,0v21.52H609.761Zm-13.688-48.055v-.9a19.475,19.475,0,0,1,38.857,0h0v.032c.013.287.021.575.021.866s-.008.579-.021.865v8.761H596.073Zm-11.15-1.427-.013.264v10.961a13,13,0,0,0-10.856,12.78v46.629a12.991,12.991,0,0,0,12.953,12.952h57.638A12.991,12.991,0,0,0,657.6,489.253V442.624a13,13,0,0,0-11.506-12.87v-8.613c.013-.365.021-.731.021-1.1,0-.46-.012-.92-.033-1.38l0-.047a30.635,30.635,0,0,0-61.154,0" transform="translate(-574.054 -389.859)" fill="none"/>
    </clipPath>
    <linearGradient id="linear-gradient-7" x1="-2.407" y1="1.984" x2="-2.403" y2="1.984" xlink:href="#linear-gradient-3"/>
    <clipPath id="clip-path-11">
      <rect id="Rectángulo_66593" data-name="Rectángulo 66593" width="610" height="334.307" transform="translate(0 25.192)" fill="none"/>
    </clipPath>
  </defs>
  <g id="Grupo_872392" data-name="Grupo 872392" transform="translate(0 0.001)">
    <g id="Grupo_872371" data-name="Grupo 872371" transform="translate(0 5.383)">
      <g id="Grupo_872370" data-name="Grupo 872370" transform="translate(0 23.808)" clip-path="url(#clip-path)">
        <path id="Trazado_224004" data-name="Trazado 224004" d="M0,0H596.837V330.085H0Z" transform="translate(0 0)" fill="url(#linear-gradient)"/>
      </g>
    </g>
    <g id="Grupo_872373" data-name="Grupo 872373" transform="translate(0 -0.001)">
      <g id="Grupo_872372" data-name="Grupo 872372" transform="translate(0 0)" clip-path="url(#clip-path-2)">
        <path id="Trazado_223942" data-name="Trazado 223942" d="M1482.277,831.913s-14.3-6.5-12.172-16.574,13.742-9.013,12.172-16.963-9.2-20.333-1.782-29.344,19.764-3.61,21.311-17.584c1.248-11.261,6.451-19.236,16.534-16.9,9.332,2.165,16.291,9.391,16.464,26.576.188,18.3,13.074,13.158,13.234,26.639.161,13.577-10.654,13.577-14.877,22.686-2,4.3,3.207,19.422-12.169,21.461Z" transform="translate(-954.942 -476.949)" fill="#34b463"/>
        <path id="Trazado_223943" data-name="Trazado 223943" d="M1566.279,754.6s.036.308.089.907c.163,1.8.49,6.192.49,12.309.006,17.9-2.818,50.591-20.634,76.684a.782.782,0,0,0,1.291.884c18.1-26.551,20.9-59.512,20.9-77.567a130.329,130.329,0,0,0-.589-13.394.78.78,0,0,0-1.551.178" transform="translate(-1004.445 -489.673)" fill="#24914a"/>
        <path id="Trazado_223944" data-name="Trazado 223944" d="M1553.78,895.641s-2.249-12.429,6.186-17.488,17.049-9,16.114-17.151,1.365-17.776,14.881-17.956c8.354-.109,5.217-8.918,13.706-10.674,5.159-1.068,8.562,4.319,9.221,9.607.752,6.024-2.658,11.945,1.253,16.851,5.076,6.357,7.137,18.21-3.771,21.583s-1.187,13.7-16.043,15.229Z" transform="translate(-1009.267 -540.677)" fill="#a2c769" fill-rule="evenodd"/>
        <path id="Trazado_223945" data-name="Trazado 223945" d="M1633.326,848.083c-.284,7.917-3.8,19.187-9.806,29.938s-14.5,21.016-24.646,27.06a.78.78,0,1,0,.8,1.34c10.48-6.25,19.1-16.706,25.209-27.637s9.692-22.343,10-30.641a.781.781,0,0,0-1.56-.059" transform="translate(-1038.492 -550.486)" fill="#00a551"/>
        <path id="Trazado_223946" data-name="Trazado 223946" d="M1332.195,414.331l2.255,4.266a4.5,4.5,0,0,1-.874,5.371,46.465,46.465,0,0,0-7.344,8.873,4.5,4.5,0,0,1-5.119,1.857l-4.614-1.414a4.533,4.533,0,0,0-5.672,2.987L1308.1,445.1a4.536,4.536,0,0,0,3,5.668l4.612,1.423a4.5,4.5,0,0,1,3.183,4.419,46.335,46.335,0,0,0,1.074,11.468,4.478,4.478,0,0,1-2.31,4.924l-4.264,2.259a4.534,4.534,0,0,0-1.89,6.126l4.322,8.172a4.532,4.532,0,0,0,6.124,1.891l4.266-2.255a4.5,4.5,0,0,1,5.373.868,46.509,46.509,0,0,0,8.865,7.346,4.493,4.493,0,0,1,1.863,5.122l-1.422,4.613a4.523,4.523,0,0,0,3,5.662l8.833,2.728a4.534,4.534,0,0,0,5.668-3l1.423-4.612a4.486,4.486,0,0,1,4.421-3.177,47.021,47.021,0,0,0,11.468-1.076,4.486,4.486,0,0,1,4.928,2.3l2.254,4.267a4.531,4.531,0,0,0,6.125,1.889l8.173-4.32a4.536,4.536,0,0,0,1.889-6.127l-2.254-4.264a4.5,4.5,0,0,1,.871-5.376,46.243,46.243,0,0,0,7.342-8.862,4.5,4.5,0,0,1,5.121-1.868l4.614,1.428a4.531,4.531,0,0,0,5.667-3l2.726-8.828a4.541,4.541,0,0,0-3-5.673l-4.611-1.416a4.5,4.5,0,0,1-3.18-4.427,46.488,46.488,0,0,0-1.076-11.46,4.493,4.493,0,0,1,2.3-4.934l4.264-2.254a4.527,4.527,0,0,0,1.89-6.125l-4.317-8.176a4.547,4.547,0,0,0-6.131-1.888l-4.263,2.258a4.5,4.5,0,0,1-5.377-.874,46.51,46.51,0,0,0-8.861-7.341,4.5,4.5,0,0,1-1.863-5.119l1.424-4.611a4.54,4.54,0,0,0-3-5.675l-8.836-2.72a4.528,4.528,0,0,0-5.667,3l-1.423,4.614a4.5,4.5,0,0,1-4.419,3.183,45.852,45.852,0,0,0-11.466,1.072,4.483,4.483,0,0,1-4.925-2.3l-2.261-4.268a4.527,4.527,0,0,0-6.124-1.89l-8.172,4.321a4.525,4.525,0,0,0-1.885,6.124m25.635,19.821a25.1,25.1,0,1,1-12.077,39.174,25.069,25.069,0,0,1,12.077-39.174" transform="translate(-849.704 -260.048)" fill="#5ebeff" fill-rule="evenodd"/>
        <path id="Trazado_223947" data-name="Trazado 223947" d="M953.165,437.014h82.647a10.5,10.5,0,0,1,10.464,10.464v174.65a10.5,10.5,0,0,1-10.464,10.464H953.165A10.5,10.5,0,0,1,942.7,622.128V447.478a10.5,10.5,0,0,1,10.464-10.464" transform="translate(-612.444 -283.914)" fill="#102b6e" fill-rule="evenodd"/>
        <rect id="Rectángulo_66541" data-name="Rectángulo 66541" width="89.694" height="147.488" transform="translate(337.879 167.219)" fill="#fff"/>
        <path id="Trazado_223948" data-name="Trazado 223948" d="M960.968,490.216V473.829h92.14V623.761h-92.14V490.216Zm24.437,8.016h42.26a3.677,3.677,0,0,1,3.333,2.145h19.665v-24.1h-87.25v24.1h18.659a3.676,3.676,0,0,1,3.333-2.145m0,32.334h42.26a3.679,3.679,0,0,1,3.5,2.586h19.5v-30.33h-19.451a3.68,3.68,0,0,1-3.547,2.741H985.4a3.68,3.68,0,0,1-3.547-2.741H963.413v30.33H981.9a3.679,3.679,0,0,1,3.5-2.586m0,33.311h42.26a3.679,3.679,0,0,1,3.287,2.049h19.711V535.6h-19.6a3.678,3.678,0,0,1-3.4,2.3H985.4a3.679,3.679,0,0,1-3.4-2.3H963.413v30.331h18.7a3.677,3.677,0,0,1,3.287-2.049m0,32.823h42.26a3.675,3.675,0,0,1,3.263,2h19.735v-30.33h-19.428a3.68,3.68,0,0,1-3.57,2.837H985.4a3.681,3.681,0,0,1-3.571-2.837H963.413V598.7h18.728a3.674,3.674,0,0,1,3.264-2m-21.992,24.616h87.25v-20.17h-19.417a3.679,3.679,0,0,1-3.581,2.885H985.4a3.679,3.679,0,0,1-3.581-2.885H963.413v20.17Z" transform="translate(-624.312 -307.832)" fill="#102b6e"/>
        <rect id="Rectángulo_66542" data-name="Rectángulo 66542" width="11.418" height="11.419" transform="translate(339.804 322.712)" fill="#4596d1"/>
        <rect id="Rectángulo_66543" data-name="Rectángulo 66543" width="5.75" height="5.75" transform="translate(359.273 325.547)" fill="#00adee"/>
        <rect id="Rectángulo_66544" data-name="Rectángulo 66544" width="5.75" height="5.75" transform="translate(369.153 325.547)" fill="#00adee"/>
        <rect id="Rectángulo_66545" data-name="Rectángulo 66545" width="5.75" height="5.75" transform="translate(379.033 325.547)" fill="#00a551"/>
        <rect id="Rectángulo_66546" data-name="Rectángulo 66546" width="5.75" height="5.75" transform="translate(388.913 325.547)" fill="#00adee"/>
        <rect id="Rectángulo_66547" data-name="Rectángulo 66547" width="5.75" height="5.75" transform="translate(398.793 325.547)" fill="#00a551"/>
        <path id="Trazado_223949" data-name="Trazado 223949" d="M1194.985,911.456a3.989,3.989,0,1,1-3.989,3.989,3.989,3.989,0,0,1,3.989-3.989" transform="translate(-773.754 -592.145)" fill="#ec1c24" fill-rule="evenodd"/>
        <path id="Trazado_223950" data-name="Trazado 223950" d="M1197.884,944.691a2.425,2.425,0,1,1-2.425,2.425,2.425,2.425,0,0,1,2.425-2.425" transform="translate(-776.653 -613.737)" fill="#00a551" fill-rule="evenodd"/>
        <rect id="Rectángulo_66548" data-name="Rectángulo 66548" width="82.147" height="5.562" transform="translate(340.721 348.678)" fill="#102b6e"/>
        <path id="Trazado_223951" data-name="Trazado 223951" d="M1216.337,875.55H1320.2a3.783,3.783,0,0,1,3.772,3.772v35.684a3.783,3.783,0,0,1-3.772,3.772H1216.337a3.783,3.783,0,0,1-3.772-3.772V879.322a3.783,3.783,0,0,1,3.772-3.772" transform="translate(-787.766 -568.818)" fill="#1a47b6" fill-rule="evenodd"/>
        <rect id="Rectángulo_66549" data-name="Rectángulo 66549" width="36.555" height="18.132" transform="translate(428.715 311.519)" fill="#fff"/>
        <rect id="Rectángulo_66550" data-name="Rectángulo 66550" width="63.826" height="18.132" transform="translate(468.607 311.519)" fill="#fff"/>
        <rect id="Rectángulo_66551" data-name="Rectángulo 66551" width="4.351" height="4.353" transform="translate(505.994 318.264)" fill="#ec1c24"/>
        <rect id="Rectángulo_66552" data-name="Rectángulo 66552" width="4.352" height="4.353" transform="translate(512.883 318.264)" fill="#00a551"/>
        <rect id="Rectángulo_66553" data-name="Rectángulo 66553" width="4.351" height="4.353" transform="translate(519.774 318.264)" fill="#ec1c24"/>
        <rect id="Rectángulo_66554" data-name="Rectángulo 66554" width="15.69" height="4.28" transform="translate(433.388 349.96)" fill="#092978"/>
        <rect id="Rectángulo_66555" data-name="Rectángulo 66555" width="15.69" height="4.28" transform="translate(511.14 349.96)" fill="#092978"/>
        <path id="Trazado_223952" data-name="Trazado 223952" d="M274.939,605.325H452.922c4.365,0,6.781,3.728,7.936,7.936l33.327,121.414c1.155,4.208-3.572,7.937-7.937,7.937H302.232c-4.365,0-6.98-3.678-7.937-7.937L267,613.261c-.957-4.259,3.572-7.936,7.937-7.936" transform="translate(-173.379 -393.261)" fill="#3dabf9" fill-rule="evenodd"/>
        <path id="Trazado_223953" data-name="Trazado 223953" d="M289.916,605.325H467.9c4.365,0,6.781,3.728,7.937,7.936l33.326,121.414c1.156,4.208-3.572,7.937-7.937,7.937H317.209c-4.365,0-6.98-3.678-7.937-7.937L281.979,613.261c-.957-4.259,3.571-7.936,7.937-7.936" transform="translate(-183.109 -393.261)" fill="#102b6e" fill-rule="evenodd"/>
      </g>
    </g>
    <g id="Grupo_872375" data-name="Grupo 872375" transform="translate(106.518 218.454)">
      <g id="Grupo_872374" data-name="Grupo 872374" clip-path="url(#clip-path-3)">
        <rect id="Rectángulo_66557" data-name="Rectángulo 66557" width="112.847" height="210.651" transform="matrix(0.005, -1, 1, 0.005, -0.829, 111.743)" fill="url(#linear-gradient-2)"/>
      </g>
    </g>
    <g id="Grupo_872377" data-name="Grupo 872377" transform="translate(0 -0.001)">
      <g id="Grupo_872376" data-name="Grupo 872376" transform="translate(0 0)" clip-path="url(#clip-path-2)">
        <path id="Trazado_223955" data-name="Trazado 223955" d="M359.2,969.834H598.33v6.322a6.34,6.34,0,0,1-6.322,6.321H365.526a6.34,6.34,0,0,1-6.322-6.321Z" transform="translate(-233.364 -630.071)" fill="#3dabf9" fill-rule="evenodd"/>
        <path id="Trazado_223956" data-name="Trazado 223956" d="M743.684,969.834H921.119v6.322a6.34,6.34,0,0,1-6.322,6.321H750.006a6.34,6.34,0,0,1-6.322-6.321Z" transform="translate(-483.149 -630.071)" fill="#a5dbfd" fill-rule="evenodd"/>
        <path id="Trazado_223957" data-name="Trazado 223957" d="M945.542,983.911h54.4a1.2,1.2,0,0,1,0,2.408h-54.4a1.2,1.2,0,0,1,0-2.408" transform="translate(-613.508 -639.217)" fill="#102b6e" fill-rule="evenodd"/>
        <path id="Trazado_223958" data-name="Trazado 223958" d="M370.747,976.595c1.436,0,2.6,1.456,2.6,3.252s-1.163,3.253-2.6,3.253-2.6-1.456-2.6-3.253,1.163-3.252,2.6-3.252" transform="translate(-239.174 -634.464)" fill="#102b6e" fill-rule="evenodd"/>
        <rect id="Rectángulo_66558" data-name="Rectángulo 66558" width="32.641" height="3.548" transform="translate(178.943 344.328)" fill="#102b6e"/>
        <rect id="Rectángulo_66559" data-name="Rectángulo 66559" width="8.337" height="3.548" transform="translate(214.778 344.328)" fill="#102b6e"/>
        <rect id="Rectángulo_66560" data-name="Rectángulo 66560" width="8.337" height="3.548" transform="translate(226.042 344.328)" fill="#102b6e"/>
        <path id="Trazado_223959" data-name="Trazado 223959" d="M478.608,865.983H418.663a3.668,3.668,0,0,0-2.6,1.082h0a3.666,3.666,0,0,0,0,5.2h0a3.669,3.669,0,0,0,2.6,1.081h59.945a3.67,3.67,0,0,0,2.6-1.081h0a3.667,3.667,0,0,0,0-5.2h0a3.668,3.668,0,0,0-2.6-1.082m-59.945-.508h59.945a4.18,4.18,0,0,1,2.96,1.231h0a4.173,4.173,0,0,1,0,5.918h0a4.179,4.179,0,0,1-2.96,1.23H418.663a4.176,4.176,0,0,1-2.959-1.23h0a4.172,4.172,0,0,1,0-5.918h0a4.177,4.177,0,0,1,2.959-1.231" transform="translate(-269.27 -562.272)" fill="#e4f5fb"/>
        <path id="Trazado_223960" data-name="Trazado 223960" d="M464.431,815.779H404.486a3.67,3.67,0,0,0-2.6,1.081h0a3.669,3.669,0,0,0,0,5.2h0a3.673,3.673,0,0,0,2.6,1.081h59.945a3.672,3.672,0,0,0,2.6-1.081h0a3.669,3.669,0,0,0,0-5.2h0a3.67,3.67,0,0,0-2.6-1.081m-59.945-.508h59.945a4.181,4.181,0,0,1,2.96,1.23h0a4.173,4.173,0,0,1,0,5.918h0a4.182,4.182,0,0,1-2.96,1.23H404.486a4.179,4.179,0,0,1-2.959-1.23h0a4.172,4.172,0,0,1,0-5.918h0a4.178,4.178,0,0,1,2.959-1.23" transform="translate(-260.059 -529.656)" fill="#e4f5fb"/>
        <path id="Trazado_223961" data-name="Trazado 223961" d="M451.705,765.573H391.76a3.672,3.672,0,0,0-2.6,1.081h0a3.668,3.668,0,0,0,0,5.2h0a3.673,3.673,0,0,0,2.6,1.081h59.945a3.672,3.672,0,0,0,2.6-1.081h0a3.669,3.669,0,0,0,0-5.2h0a3.67,3.67,0,0,0-2.6-1.081m-59.945-.508h59.945a4.179,4.179,0,0,1,2.959,1.231h0a4.171,4.171,0,0,1,0,5.918h0a4.178,4.178,0,0,1-2.959,1.231H391.76a4.179,4.179,0,0,1-2.959-1.231h0a4.171,4.171,0,0,1,0-5.918h0a4.18,4.18,0,0,1,2.959-1.231" transform="translate(-251.791 -497.039)" fill="#e4f5fb"/>
      </g>
    </g>
    <g id="Grupo_872379" data-name="Grupo 872379" transform="translate(131.429 79.697)">
      <g id="Grupo_872378" data-name="Grupo 872378" clip-path="url(#clip-path-5)">
        <rect id="Rectángulo_66562" data-name="Rectángulo 66562" width="232.711" height="252.345" transform="translate(-5.442 -0.004)" fill="url(#linear-gradient-3)"/>
      </g>
    </g>
    <g id="Grupo_872381" data-name="Grupo 872381" transform="translate(153.938 105.544)">
      <g id="Grupo_872380" data-name="Grupo 872380" clip-path="url(#clip-path-6)">
        <rect id="Rectángulo_66563" data-name="Rectángulo 66563" width="186.792" height="207.788" transform="translate(-4.99 0)" fill="url(#linear-gradient-4)"/>
      </g>
    </g>
    <g id="Grupo_872383" data-name="Grupo 872383" transform="translate(159.812 112.277)">
      <g id="Grupo_872382" data-name="Grupo 872382" clip-path="url(#clip-path-7)">
        <rect id="Rectángulo_66564" data-name="Rectángulo 66564" width="167.307" height="194.04" transform="translate(-1.12)" fill="url(#linear-gradient-5)"/>
      </g>
    </g>
    <g id="Grupo_872385" data-name="Grupo 872385" transform="translate(0 -0.001)">
      <g id="Grupo_872384" data-name="Grupo 872384" transform="translate(0 0)" clip-path="url(#clip-path-2)">
        <path id="Trazado_223965" data-name="Trazado 223965" d="M1216.337,739.94H1320.2a3.783,3.783,0,0,1,3.772,3.772V779.4a3.783,3.783,0,0,1-3.772,3.772H1216.337a3.783,3.783,0,0,1-3.772-3.772V743.712a3.783,3.783,0,0,1,3.772-3.772" transform="translate(-787.766 -480.716)" fill="#1a47b6" fill-rule="evenodd"/>
        <rect id="Rectángulo_66565" data-name="Rectángulo 66565" width="36.555" height="18.132" transform="translate(428.715 264.011)" fill="#fff"/>
        <rect id="Rectángulo_66566" data-name="Rectángulo 66566" width="63.826" height="18.132" transform="translate(468.607 264.011)" fill="#fff"/>
        <rect id="Rectángulo_66567" data-name="Rectángulo 66567" width="4.351" height="4.352" transform="translate(505.994 270.756)" fill="#ec1c24"/>
        <rect id="Rectángulo_66568" data-name="Rectángulo 66568" width="4.352" height="4.352" transform="translate(512.883 270.756)" fill="#ec1c24"/>
        <rect id="Rectángulo_66569" data-name="Rectángulo 66569" width="4.351" height="4.352" transform="translate(519.774 270.756)" fill="#00a551"/>
        <rect id="Rectángulo_66570" data-name="Rectángulo 66570" width="15.69" height="4.281" transform="translate(433.388 302.452)" fill="#092978"/>
        <rect id="Rectángulo_66571" data-name="Rectángulo 66571" width="15.69" height="4.281" transform="translate(511.14 302.452)" fill="#092978"/>
        <path id="Trazado_223966" data-name="Trazado 223966" d="M1216.337,604.329H1320.2a3.783,3.783,0,0,1,3.772,3.772v35.684a3.783,3.783,0,0,1-3.772,3.772H1216.337a3.783,3.783,0,0,1-3.772-3.772V608.1a3.783,3.783,0,0,1,3.772-3.772" transform="translate(-787.766 -392.614)" fill="#1a47b6" fill-rule="evenodd"/>
        <rect id="Rectángulo_66572" data-name="Rectángulo 66572" width="36.555" height="18.132" transform="translate(428.715 216.503)" fill="#fff"/>
        <rect id="Rectángulo_66573" data-name="Rectángulo 66573" width="63.826" height="18.132" transform="translate(468.607 216.503)" fill="#fff"/>
        <rect id="Rectángulo_66574" data-name="Rectángulo 66574" width="4.351" height="4.352" transform="translate(505.994 223.247)" fill="#ec1c24"/>
        <rect id="Rectángulo_66575" data-name="Rectángulo 66575" width="4.352" height="4.352" transform="translate(512.883 223.247)" fill="#ec1c24"/>
        <rect id="Rectángulo_66576" data-name="Rectángulo 66576" width="4.351" height="4.352" transform="translate(519.774 223.247)" fill="#ec1c24"/>
        <rect id="Rectángulo_66577" data-name="Rectángulo 66577" width="15.69" height="4.28" transform="translate(433.388 254.944)" fill="#092978"/>
        <rect id="Rectángulo_66578" data-name="Rectángulo 66578" width="15.69" height="4.28" transform="translate(511.14 254.944)" fill="#092978"/>
        <path id="Trazado_223967" data-name="Trazado 223967" d="M1248.542,423.959h22.668c2.829,0,9.8,5.356,11.018,12.341h0c2.3,11.237,1.279,35.966-6.681,44.784l-9.022-.117-27.641-6.854V427.455a15.056,15.056,0,0,1,9.656-3.5" transform="translate(-804.866 -275.433)" fill="#f7941f" fill-rule="evenodd"/>
        <path id="Trazado_223968" data-name="Trazado 223968" d="M1331.154,424.17c11.193,1.1,12.235,15.163,12.09,23.944H1331.16Z" transform="translate(-864.81 -275.57)" fill="#f7941f" fill-rule="evenodd"/>
        <path id="Trazado_223969" data-name="Trazado 223969" d="M1281.168,492.6l10.992-.085s.005,4.175-4.523,7.586-19.11,14.381-19.11,14.381h-16s3.4-4.361,7.886-4.726,4.66.254,4.66.254c.864-2.284,11.184-12.57,16.1-17.41" transform="translate(-813.726 -319.973)" fill="#f9c4c7" fill-rule="evenodd"/>
        <path id="Trazado_223970" data-name="Trazado 223970" d="M1356.666,749.591l1.1,7.884,2.817,2.606s2.2-.1,2.452.66a7.08,7.08,0,0,1,0,2.393h-14.418a65.343,65.343,0,0,1-1.664-13.09Z" transform="translate(-875.072 -486.986)" fill="#630"/>
        <path id="Trazado_223971" data-name="Trazado 223971" d="M1171.365,555.22h47.9a8.532,8.532,0,0,1,1.589.149h0c13.37-.069,15.03,8.587,15.97,18.022l5.395,54.2h-18.152l-5.988-55.168h-46.714a8.6,8.6,0,1,1,0-17.2" transform="translate(-755.412 -360.709)" fill="#092978" fill-rule="evenodd"/>
        <path id="Trazado_223972" data-name="Trazado 223972" d="M1224.657,693.393l6.577,14.724a11.861,11.861,0,0,1-1.535,4.184c-1.1,1.518-1.208,2.629-.518,3.543s.875,1.141.875,1.141l11.173-11.658-5.86-13.694Z" transform="translate(-795.622 -449.333)" fill="#630"/>
        <rect id="Rectángulo_66579" data-name="Rectángulo 66579" width="27.234" height="5.334" transform="translate(355.233 207.032)" fill="#d4ecfd"/>
        <path id="Trazado_223973" data-name="Trazado 223973" d="M1176.216,560.031a11.8,11.8,0,0,1,4.752,4.253c3.937,5.977,21.83,46.3,21.83,46.3h-20.569l-14.98-32.852c-.622-1.368-3.712-7.065-4-9.658-.919-8.348,6.015-11.229,12.964-8.04" transform="translate(-755.676 -363.011)" fill="#092978" fill-rule="evenodd"/>
        <path id="Trazado_223974" data-name="Trazado 223974" d="M1258.324,378.269c-2.37,4.23,1.7,10.127,6.708,9.7l-.007,1.342-2.732,3.893,2.691,4,2.8,1.019,6.765-1.741V384.3c.247-.077.256.368.76.061a5.641,5.641,0,0,0,1.414-3.74c-.2-1.167-1.7-1.836-1.7-1.836,1.407-3.462,2.52-4.011-1.1-5.934s-10.937-1.779-10.937-1.779l-3.318,1.112c-.143,3.22.3,3.156-1.339,6.089" transform="translate(-817.044 -241.069)" fill="#f9c4c7" fill-rule="evenodd"/>
        <path id="Trazado_223975" data-name="Trazado 223975" d="M1275.25,417.014a6,6,0,0,0,.734-.018,17.183,17.183,0,0,0,6.067-1.249,6.39,6.39,0,0,1-3.317,3.549,10.95,10.95,0,0,1-4.243,1.16l1.486-2.118.008-1.342Z" transform="translate(-827.998 -270.098)" fill="#dd777b" fill-rule="evenodd"/>
        <path id="Trazado_223976" data-name="Trazado 223976" d="M1060.182,226.617a19.557,19.557,0,0,1,9.687,2.551,25.818,25.818,0,0,1,22.247-12.378c13.739,0,24.953,10.373,25.588,23.4a13.141,13.141,0,0,1-3.949,25.733h-35.685V252.127h6.871L1073.3,234.7l-11.636,17.429h6.873V265.92h-8.36a19.652,19.652,0,1,1,0-39.3" transform="translate(-676.001 -140.842)" fill="#5ebeff" fill-rule="evenodd"/>
        <path id="Trazado_223977" data-name="Trazado 223977" d="M1257.111,351.079c2.8.467,5.056.065,6.767.272a4.891,4.891,0,0,1,2.465,1.174c1.6,1.3,2.849,4.5,3.209,6.619,0,0,1.874-.784,2.486-.395s.227,1.323.135,1.712-.958.8-1.235,1.045c-.832.72,1.131,1.027,3.446-.84,7.408-5.978,5.132-15.455-5.3-19.005-4.234-1.441-1.267-3.728-4.183-4.345-13.325-2.817-16.071,12.107-7.788,13.762" transform="translate(-813.66 -218.915)" fill="#363653" fill-rule="evenodd"/>
        <path id="Trazado_223978" data-name="Trazado 223978" d="M1217.451,433.382c-6.158,5.491-9.736,13.076-11.925,21.032,4.035-.264,8.254-.245,12.252-.374Z" transform="translate(-783.193 -281.555)" fill="#f7941f" fill-rule="evenodd"/>
        <path id="Trazado_223979" data-name="Trazado 223979" d="M1274.72,438.866a.741.741,0,1,1-.741.741.741.741,0,0,1,.741-.741m0-4.3a.742.742,0,1,1-.741.741.742.742,0,0,1,.741-.741m-2.86-11.431c-2.571,4.39.233,7.507,2.76,8.916,3.563-2.313,6.764-4.567,6.764-8.916,0,0,1.229-.022,2.027,1.929,1.316,3.158-.89,10.253-.89,10.253s-2.475-3.2-4.533-3.374a7.241,7.241,0,0,0-3.392.448c-2.631-1.93-4.425.572-6.186,2.406-.555-4.679-.484-8.042,3.016-11.661Z" transform="translate(-823.88 -274.897)" fill="#fff" fill-rule="evenodd"/>
        <rect id="Rectángulo_66580" data-name="Rectángulo 66580" width="27.234" height="5.334" transform="translate(355.233 176.102)" fill="#d4ecfd"/>
        <path id="Trazado_223980" data-name="Trazado 223980" d="M1202.364,476.552H1167.7c-1.336,0-2.725,1.127-2.43,2.43l5.179,22.908c.3,1.3,1.093,2.431,2.431,2.431h34.661c1.337,0,2.725-1.127,2.431-2.431l-5.18-22.908c-.295-1.3-1.093-2.43-2.43-2.43" transform="translate(-757.016 -309.601)" fill="#dff2fc" fill-rule="evenodd"/>
        <path id="Trazado_223981" data-name="Trazado 223981" d="M1197.929,476.552h-34.661c-1.337,0-2.724,1.127-2.43,2.43l5.179,22.908c.294,1.3,1.094,2.431,2.431,2.431h34.661c1.337,0,2.725-1.127,2.431-2.431l-5.18-22.908c-.294-1.3-1.094-2.43-2.43-2.43" transform="translate(-754.135 -309.601)" fill="#afcceb" fill-rule="evenodd"/>
        <path id="Trazado_223982" data-name="Trazado 223982" d="M1220.208,509.539a2.43,2.43,0,1,0,2.629,1.666,2.219,2.219,0,0,0-2.629-1.666" transform="translate(-791.886 -330.979)" fill="#fff" fill-rule="evenodd"/>
        <path id="Trazado_223983" data-name="Trazado 223983" d="M1307.247,549.339h-17.6v2.269h18.736v-1.135a1.138,1.138,0,0,0-1.135-1.134" transform="translate(-837.844 -356.888)" fill="#dff2fc" fill-rule="evenodd"/>
      </g>
    </g>
    <g id="Grupo_872387" data-name="Grupo 872387" transform="translate(201.109 140.836)">
      <g id="Grupo_872386" data-name="Grupo 872386" clip-path="url(#clip-path-9)">
        <rect id="Rectángulo_66582" data-name="Rectángulo 66582" width="83.543" height="112.345" transform="translate(0 0)" fill="url(#linear-gradient-6)"/>
      </g>
    </g>
    <g id="Grupo_872389" data-name="Grupo 872389" transform="translate(201.109 136.579)">
      <g id="Grupo_872388" data-name="Grupo 872388" clip-path="url(#clip-path-10)">
        <rect id="Rectángulo_66583" data-name="Rectángulo 66583" width="83.543" height="112.346" transform="translate(0 0)" fill="url(#linear-gradient-7)"/>
      </g>
    </g>
    <g id="Grupo_872391" data-name="Grupo 872391" transform="translate(0 -0.001)">
      <g id="Grupo_872390" data-name="Grupo 872390" transform="translate(0 0)" clip-path="url(#clip-path-11)">
        <path id="Trazado_223986" data-name="Trazado 223986" d="M1363.51,781.167h1.621a12.3,12.3,0,0,1,12.266,12.266V861.74H1273.646v-2.88h100.871V793.433a9.418,9.418,0,0,0-9.386-9.386h-1.621Z" transform="translate(-827.449 -507.5)" fill="#102b6e" fill-rule="evenodd"/>
        <path id="Trazado_223987" data-name="Trazado 223987" d="M1530.159,919.282h1.621a12.3,12.3,0,0,1,12.266,12.267v20.644h-2.879V931.548a9.417,9.417,0,0,0-9.386-9.386h-1.621Z" transform="translate(-994.098 -597.229)" fill="#102b6e" fill-rule="evenodd"/>
        <path id="Trazado_223988" data-name="Trazado 223988" d="M1530.572,655.046a12.32,12.32,0,0,1,8.067,11.522v111.8h-2.879v-111.8A9.355,9.355,0,0,0,1533,659.94a9.478,9.478,0,0,0-2.429-1.76Z" transform="translate(-994.366 -425.563)" fill="#102b6e" fill-rule="evenodd"/>
        <path id="Trazado_223989" data-name="Trazado 223989" d="M170,1011.159H706.858a2.629,2.629,0,0,1,0,5.259H170a2.629,2.629,0,1,1,0-5.259" transform="translate(-108.734 -656.919)" fill="#1a47b6" fill-rule="evenodd"/>
        <path id="Trazado_223990" data-name="Trazado 223990" d="M1320.3,237.2l.552,1.043a1.1,1.1,0,0,1-.214,1.314,11.381,11.381,0,0,0-1.8,2.172,1.1,1.1,0,0,1-1.252.454l-1.129-.346a1.108,1.108,0,0,0-1.388.73l-.666,2.162a1.11,1.11,0,0,0,.734,1.387l1.129.348a1.1,1.1,0,0,1,.779,1.081,11.375,11.375,0,0,0,.263,2.806,1.1,1.1,0,0,1-.566,1.2l-1.043.553a1.11,1.11,0,0,0-.462,1.5l1.058,2a1.109,1.109,0,0,0,1.5.462l1.044-.551a1.1,1.1,0,0,1,1.314.213,11.455,11.455,0,0,0,2.169,1.8,1.1,1.1,0,0,1,.456,1.253l-.348,1.128a1.107,1.107,0,0,0,.734,1.385l2.161.668a1.11,1.11,0,0,0,1.387-.734l.349-1.128a1.1,1.1,0,0,1,1.081-.778,11.5,11.5,0,0,0,2.806-.262,1.1,1.1,0,0,1,1.206.563l.551,1.044a1.108,1.108,0,0,0,1.5.462l2-1.057a1.11,1.11,0,0,0,.463-1.5l-.552-1.044a1.1,1.1,0,0,1,.214-1.314,11.363,11.363,0,0,0,1.8-2.169,1.1,1.1,0,0,1,1.253-.457l1.128.35a1.109,1.109,0,0,0,1.387-.733l.667-2.16a1.111,1.111,0,0,0-.734-1.388l-1.128-.346a1.1,1.1,0,0,1-.778-1.083,11.368,11.368,0,0,0-.263-2.8,1.1,1.1,0,0,1,.564-1.207l1.043-.552a1.109,1.109,0,0,0,.463-1.5l-1.057-2a1.113,1.113,0,0,0-1.5-.462l-1.044.554a1.1,1.1,0,0,1-1.316-.215,11.425,11.425,0,0,0-2.168-1.8,1.1,1.1,0,0,1-.456-1.253l.349-1.128a1.11,1.11,0,0,0-.733-1.388l-2.162-.666a1.109,1.109,0,0,0-1.387.734l-.348,1.129a1.1,1.1,0,0,1-1.081.778,11.217,11.217,0,0,0-2.805.262,1.1,1.1,0,0,1-1.205-.564l-.553-1.045a1.108,1.108,0,0,0-1.5-.462l-2,1.058a1.108,1.108,0,0,0-.461,1.5m6.272,4.85a6.142,6.142,0,1,1-2.955,9.585,6.135,6.135,0,0,1,2.955-9.585" transform="translate(-853.897 -151.867)" fill="#76c5fb" fill-rule="evenodd"/>
        <rect id="Rectángulo_66584" data-name="Rectángulo 66584" width="27.234" height="5.334" transform="translate(355.233 302.428)" fill="#d4ecfd"/>
        <rect id="Rectángulo_66585" data-name="Rectángulo 66585" width="27.234" height="5.334" transform="translate(355.233 271.947)" fill="#d4ecfd"/>
        <rect id="Rectángulo_66586" data-name="Rectángulo 66586" width="27.234" height="5.334" transform="translate(355.233 239.037)" fill="#d4ecfd"/>
        <rect id="Rectángulo_66587" data-name="Rectángulo 66587" width="36.577" height="4.572" transform="translate(468.63 338.648)" fill="#3882c8"/>
        <rect id="Rectángulo_66588" data-name="Rectángulo 66588" width="23.606" height="4.572" transform="translate(508.827 338.648)" fill="#3882c8"/>
        <rect id="Rectángulo_66589" data-name="Rectángulo 66589" width="36.577" height="4.573" transform="translate(468.63 289.498)" fill="#3882c8"/>
        <rect id="Rectángulo_66590" data-name="Rectángulo 66590" width="23.606" height="4.573" transform="translate(508.827 289.498)" fill="#3882c8"/>
        <rect id="Rectángulo_66591" data-name="Rectángulo 66591" width="20.676" height="4.573" transform="translate(484.532 241.299)" fill="#3882c8"/>
        <rect id="Rectángulo_66592" data-name="Rectángulo 66592" width="23.606" height="4.573" transform="translate(508.827 241.299)" fill="#3882c8"/>
        <path id="Trazado_223991" data-name="Trazado 223991" d="M1008.986,71.907h0a1.137,1.137,0,0,1,1.134,1.134v9.912a1.134,1.134,0,0,1-2.268,0V73.041a1.137,1.137,0,0,1,1.133-1.134" transform="translate(-654.771 -46.715)" fill="#8dd7f7" fill-rule="evenodd"/>
        <path id="Trazado_223992" data-name="Trazado 223992" d="M1005.886,87.188h0a1.137,1.137,0,0,1-1.134,1.134H994.84a1.134,1.134,0,0,1,0-2.267h9.912a1.137,1.137,0,0,1,1.134,1.134" transform="translate(-645.58 -55.906)" fill="#8dd7f7" fill-rule="evenodd"/>
        <path id="Trazado_223993" data-name="Trazado 223993" d="M663.325,110.926h0a1.287,1.287,0,0,1,1.284,1.283v11.224a1.284,1.284,0,0,1-2.567,0V112.209a1.286,1.286,0,0,1,1.283-1.283" transform="translate(-430.108 -72.065)" fill="#8dd7f7" fill-rule="evenodd"/>
        <path id="Trazado_223994" data-name="Trazado 223994" d="M659.814,128.226h0a1.286,1.286,0,0,1-1.283,1.284H647.307a1.284,1.284,0,0,1,0-2.568h11.224a1.287,1.287,0,0,1,1.283,1.284" transform="translate(-419.702 -82.47)" fill="#8dd7f7" fill-rule="evenodd"/>
        <path id="Trazado_223996" data-name="Trazado 223996" d="M895.472,155.918a3.046,3.046,0,0,0-4.3,0l0,0a3.047,3.047,0,0,0,0,4.3v0a3.045,3.045,0,0,0,4.306-4.306Zm-2.152-2.588a4.725,4.725,0,0,1,3.352,1.388h0a4.738,4.738,0,1,1-6.7,6.7v0a4.735,4.735,0,0,1,0-6.7v0h0a4.726,4.726,0,0,1,3.348-1.388" transform="translate(-577.283 -99.613)" fill="#8dd7f7"/>
        <path id="Trazado_223997" data-name="Trazado 223997" d="M1184.443,106.9a2.495,2.495,0,0,0-3.524,0l0,0a2.5,2.5,0,0,0,0,3.524v0a2.493,2.493,0,0,0,3.526-3.526Zm-1.761-2.119a3.867,3.867,0,0,1,2.743,1.138h0a3.879,3.879,0,1,1-5.485,5.485h0a3.878,3.878,0,0,1,0-5.485h0a3.868,3.868,0,0,1,2.742-1.138" transform="translate(-765.831 -68.073)" fill="#8dd7f7"/>
        <path id="Trazado_223998" data-name="Trazado 223998" d="M526.676,96.355a2.493,2.493,0,0,0-3.523,0l0,0a2.495,2.495,0,0,0,0,3.523v0a2.493,2.493,0,0,0,3.526-3.525Zm-1.761-2.12a3.868,3.868,0,0,1,2.744,1.137v0a3.879,3.879,0,1,1-5.486,5.485h0a3.877,3.877,0,0,1,0-5.485h0l0,0a3.868,3.868,0,0,1,2.741-1.137" transform="translate(-338.5 -61.221)" fill="#8dd7f7"/>
        <path id="Trazado_223999" data-name="Trazado 223999" d="M446.09,184.3h0a1.188,1.188,0,0,1,1.184,1.184V195.84a1.188,1.188,0,0,1-1.184,1.184h0a1.188,1.188,0,0,1-1.184-1.184V185.48a1.188,1.188,0,0,1,1.184-1.184" transform="translate(-289.042 -119.731)" fill="#8dd7f7" fill-rule="evenodd"/>
        <path id="Trazado_224000" data-name="Trazado 224000" d="M442.85,200.263h0a1.189,1.189,0,0,1-1.185,1.185H431.306a1.185,1.185,0,0,1,0-2.37h10.359a1.189,1.189,0,0,1,1.185,1.184" transform="translate(-279.437 -129.335)" fill="#8dd7f7" fill-rule="evenodd"/>
        <path id="Trazado_224001" data-name="Trazado 224001" d="M1363.1,97.009a3.742,3.742,0,0,0-5.284,0l0,0a3.741,3.741,0,0,0,0,5.285v0a3.739,3.739,0,0,0,5.288-5.289Zm-2.642-3.178a5.8,5.8,0,0,1,4.115,1.7l0,0a5.817,5.817,0,1,1-8.227,8.227l0,0a5.816,5.816,0,0,1,0-8.228l0,0,0,0a5.8,5.8,0,0,1,4.112-1.7" transform="translate(-880.064 -60.959)" fill="#8dd7f7"/>
        <path id="Trazado_224002" data-name="Trazado 224002" d="M1096.088,172.527h0a.807.807,0,0,1,.805.805v7.042a.808.808,0,0,1-.805.806h0a.808.808,0,0,1-.805-.806v-7.042a.807.807,0,0,1,.805-.805" transform="translate(-711.572 -112.085)" fill="#8dd7f7" fill-rule="evenodd"/>
        <path id="Trazado_224003" data-name="Trazado 224003" d="M1093.885,183.381h0a.807.807,0,0,1-.805.8h-7.041a.808.808,0,0,1-.806-.8h0a.808.808,0,0,1,.806-.805h7.041a.807.807,0,0,1,.805.805" transform="translate(-705.043 -118.614)" fill="#8dd7f7" fill-rule="evenodd"/>
      </g>
    </g>
  </g>
</svg>
