<svg id="Grupo_882068" data-name="Grupo 882068" xmlns="http://www.w3.org/2000/svg" xmlns:xlink="http://www.w3.org/1999/xlink" width="118.308" height="52.144" viewBox="0 0 118.308 52.144">
  <defs>
    <clipPath id="clip-path">
      <rect id="Rectángulo_298906" data-name="Rectángulo 298906" width="118.308" height="52.144" fill="#fff"/>
    </clipPath>
  </defs>
  <g id="Grupo_882066" data-name="Grupo 882066" clip-path="url(#clip-path)">
    <path id="Trazado_266679" data-name="Trazado 266679" d="M236.143,29.467a10.692,10.692,0,0,0,3.037-15.1,9.271,9.271,0,0,0-12.3-3.025,9.863,9.863,0,0,0-5.216,8.43,11.128,11.128,0,0,0,2.409,7.538,9.329,9.329,0,0,0,12.068,2.161M227.4,15.824a5.366,5.366,0,0,1,8.355.388,7.027,7.027,0,0,1,1.435,4.517,6.473,6.473,0,0,1-2.373,4.957,5.3,5.3,0,0,1-7.023-.168,6.949,6.949,0,0,1-.394-9.695" transform="translate(-202.927 -9.279)" fill="#fff"/>
    <path id="Trazado_266680" data-name="Trazado 266680" d="M73.284,30.928a5.516,5.516,0,0,0,4.517-2.86,7.458,7.458,0,0,0,.834-4.941,4.811,4.811,0,0,0-2.524-3.594c-.442-.247-.886-.49-1.338-.718-.953-.481-1.92-.938-2.867-1.431a1.641,1.641,0,0,1-1-1.321,2.289,2.289,0,0,1,1.672-2.435,3.106,3.106,0,0,1,3.384,1.153c.268.331.347.244.528-.038.411-.638.828-1.274,1.281-1.883.2-.274.137-.425-.077-.623a6.974,6.974,0,0,0-5.127-1.892,5.725,5.725,0,0,0-5.627,4.922A5.061,5.061,0,0,0,69.5,20.619a15.1,15.1,0,0,0,1.785.857,12.906,12.906,0,0,1,2.15.966A2.5,2.5,0,0,1,74.7,25a2.508,2.508,0,0,1-2.426,2.5,3.1,3.1,0,0,1-1.833-.537,5.371,5.371,0,0,1-1.793-2.25c-.752.736-1.475,1.46-2.221,2.161a.387.387,0,0,0-.064.6,6.987,6.987,0,0,0,6.926,3.453" transform="translate(-60.644 -9.467)" fill="#fff"/>
    <path id="Trazado_266681" data-name="Trazado 266681" d="M816.13,489a5.4,5.4,0,1,0,5.606,5.114A5.4,5.4,0,0,0,816.13,489" transform="translate(-742.401 -447.657)" fill="#fff"/>
    <path id="Trazado_266682" data-name="Trazado 266682" d="M1047.083,488.98a5.4,5.4,0,1,0,5.356,5.407,5.362,5.362,0,0,0-5.356-5.407" transform="translate(-953.609 -447.641)" fill="#fff"/>
    <path id="Trazado_266683" data-name="Trazado 266683" d="M1277.3,488.97a5.4,5.4,0,1,0,5.366,5.389,5.382,5.382,0,0,0-5.366-5.389" transform="translate(-1164.358 -447.632)" fill="#fff"/>
    <path id="Trazado_266684" data-name="Trazado 266684" d="M587.86,87.536A7.719,7.719,0,1,0,580,79.569a7.832,7.832,0,0,0,7.859,7.967m-3.142-12.573a5.621,5.621,0,0,1,8.476,2.777,5.721,5.721,0,0,1,.387,1.958c.012,3.656-2.9,6.571-6.409,6.084a5.554,5.554,0,0,1-4.707-4.011,6.037,6.037,0,0,1,2.253-6.808" transform="translate(-530.966 -66.013)" fill="#fff"/>
    <path id="Trazado_266685" data-name="Trazado 266685" d="M792.606,87.522a7.72,7.72,0,1,0-7.871-7.871,7.81,7.81,0,0,0,7.871,7.871m-3.5-12.323a5.622,5.622,0,0,1,8.757,2.358,5.719,5.719,0,0,1,.445,2.251,5.943,5.943,0,0,1-3.705,5.641,5.613,5.613,0,0,1-6.821-2.388,6.086,6.086,0,0,1,1.324-7.862" transform="translate(-718.392 -65.996)" fill="#fff"/>
    <path id="Trazado_266686" data-name="Trazado 266686" d="M.148,26.571c0,3.125,0,6.249-.007,9.374,0,.321.064.435.41.426,1.041-.025,2.083-.02,3.125,0,.3.005.369-.095.369-.382q-.012-9.4,0-18.79c0-.317-.113-.362-.389-.358-1.027.015-2.056.023-3.083,0-.357-.009-.437.1-.435.443.014,3.1.008,6.193.008,9.289" transform="translate(-0.128 -15.414)" fill="#fff"/>
    <path id="Trazado_266687" data-name="Trazado 266687" d="M1051.512,86.347a6.446,6.446,0,0,0,1.176-.082c2.146-.313,3.781-1.4,3.972-3.868a3.857,3.857,0,0,0-2.144-4.13,18.182,18.182,0,0,0-2.671-1.037,5.986,5.986,0,0,1-1.976-1.016,1.979,1.979,0,0,1,.576-3.395,3.186,3.186,0,0,1,4.113,1.492c.175.323.3.307.555.138a10.909,10.909,0,0,1,1.046-.633c.3-.153.313-.294.141-.576a5.368,5.368,0,0,0-6.595-2.205,3.965,3.965,0,0,0-2.539,5.056,4.249,4.249,0,0,0,2.528,2.456c1.115.5,2.276.893,3.4,1.368a2.271,2.271,0,0,1,1.487,2.514,2.45,2.45,0,0,1-2.207,2.056,3.769,3.769,0,0,1-4.126-2.177c-.1-.223-.192-.211-.373-.1-.431.264-.868.521-1.316.756-.251.132-.3.241-.152.512a5.223,5.223,0,0,0,5.1,2.87" transform="translate(-957.871 -64.7)" fill="#fff"/>
    <path id="Trazado_266688" data-name="Trazado 266688" d="M441.3,15.449c1.521-.024,3.043.006,4.564-.02.4-.007.479.122.478.495q-.017,8.556-.009,17.112c0,.085,0,.169,0,.253-.014.18.062.25.245.246.38-.009.762-.02,1.141,0,.293.018.379-.068.377-.374-.013-2.873-.008-5.746-.008-8.619h0c0-2.873.006-5.746-.008-8.619,0-.37.069-.5.477-.5,1.535.027,3.071,0,4.606.019.344,0,.443-.1.416-.429a4.728,4.728,0,0,1,0-.886c.035-.335-.1-.389-.4-.387-1.789.013-3.578.007-5.367.007-2.169,0-4.339.012-6.508-.01-.389,0-.492.112-.45.472a3.422,3.422,0,0,1,0,.759c-.04.361.07.482.456.476" transform="translate(-403.57 -12.58)" fill="#fff"/>
    <path id="Trazado_266689" data-name="Trazado 266689" d="M1001.767,20.33c0,.154.011.309.017.463.408,0,.816,0,1.224.009.22.007.31-.08.294-.3-.009-.126,0-.253,0-.38q0-10.045,0-20.091c-.337-.006-.678.014-1.011-.024-.415-.047-.538.075-.536.516q.025,9.9.012,19.8" transform="translate(-917.066 0)" fill="#fff"/>
    <path id="Trazado_266690" data-name="Trazado 266690" d="M98.571,307.895q-48.611-.011-97.222-.007c-.282,0-.563,0-.845,0-.1,0-.209-.02-.207.134.338,0,.676.014,1.013.014H98.539c.183,0,.365-.013.548-.02h0c-.118-.259-.348-.122-.515-.122" transform="translate(-0.272 -281.832)" fill="#fff"/>
    <path id="Trazado_266691" data-name="Trazado 266691" d="M0,434.766H98.8c-.557-.247-98.567-.184-98.8,0" transform="translate(0 -397.862)" fill="#fff"/>
    <path id="Trazado_266692" data-name="Trazado 266692" d="M862.342,340.269q1.393,1.778,2.775,3.564c.135.174.279.327.529.245.21-.069.253-.238.253-.437q0-2.43,0-4.86c0-.257-.087-.465-.37-.464-.309,0-.382.224-.381.5,0,.972,0,1.944,0,2.916v.876c-.2-.253-.321-.4-.438-.55q-1.321-1.7-2.643-3.4c-.143-.184-.269-.425-.572-.32s-.27.359-.27.6q0,2.282,0,4.564c0,.07,0,.141,0,.211a.359.359,0,0,0,.367.384.354.354,0,0,0,.391-.4c0-.648,0-1.3,0-1.944,0-.6,0-1.2,0-1.82.209.061.263.22.352.333" transform="translate(-788.418 -309.711)" fill="#fff"/>
    <path id="Trazado_266693" data-name="Trazado 266693" d="M740.651,338.961c.829.023,1.66.013,2.49,0,.348,0,.532-.238.421-.507-.1-.237-.307-.258-.528-.258-1,0-2,0-3,0-.461,0-.56.1-.564.586-.008.774,0,1.547,0,2.321s0,1.576,0,2.363c0,.368.154.538.533.534,1.013-.01,2.026,0,3.039,0,.272,0,.537-.036.541-.38s-.248-.387-.529-.385c-.83.006-1.66-.007-2.49.008-.262,0-.344-.081-.333-.336.017-.379.012-.76,0-1.139-.007-.219.073-.3.293-.291.577.012,1.154,0,1.73.006.271,0,.49-.065.488-.383s-.217-.385-.49-.383c-.577.006-1.154-.007-1.73,0-.222,0-.3-.069-.289-.289a8.656,8.656,0,0,0,0-1.054c-.028-.339.092-.432.424-.422" transform="translate(-676.953 -309.609)" fill="#fff"/>
    <path id="Trazado_266694" data-name="Trazado 266694" d="M1.331,338.953c.816.015,1.633,0,2.45.007.278,0,.539-.039.531-.383-.008-.328-.256-.39-.54-.388-1,.005-2,0-3,0-.461,0-.578.121-.58.574,0,.774,0,1.548,0,2.323s.006,1.577,0,2.365c0,.371.156.544.53.543,1.028,0,2.056,0,3.083,0,.285,0,.526-.075.51-.412-.015-.315-.253-.355-.518-.353-.831.007-1.661-.007-2.492.008-.26,0-.348-.078-.335-.336.018-.365.018-.732,0-1.1-.013-.261.083-.341.339-.333.577.016,1.154,0,1.732,0,.268,0,.444-.113.436-.393-.007-.253-.17-.37-.421-.369s-.479.011-.718,0c-.443-.027-1.05.2-1.286-.094-.223-.279-.055-.861-.082-1.308-.017-.283.092-.36.365-.355" transform="translate(-0.172 -309.598)" fill="#fff"/>
    <path id="Trazado_266695" data-name="Trazado 266695" d="M1121.112,338.947c.831.013,1.662,0,2.493.007.267,0,.506-.053.516-.359.01-.327-.231-.412-.518-.411-1.014,0-2.029.005-3.043,0-.385,0-.561.147-.558.553q.019,2.366,0,4.732c0,.395.183.526.541.522.507-.005,1.014,0,1.522,0s1.014,0,1.521,0c.278,0,.538-.051.534-.389s-.257-.38-.54-.377c-.831.009-1.662,0-2.493.008-.237,0-.325-.064-.313-.309.018-.379.016-.761,0-1.14-.01-.237.067-.323.31-.316.549.014,1.1,0,1.648.006.275,0,.538-.025.542-.372,0-.373-.271-.4-.562-.395-.549.007-1.1-.007-1.648.006-.221.005-.3-.068-.289-.289.015-.38.018-.761,0-1.141-.014-.266.086-.337.339-.333" transform="translate(-1025.317 -309.592)" fill="#fff"/>
    <path id="Trazado_266696" data-name="Trazado 266696" d="M381.536,344.008c.493-.011.986,0,1.478,0s1.014,0,1.521,0c.281,0,.538-.052.545-.381s-.242-.389-.529-.385c-.831.009-1.662,0-2.492.008-.232,0-.327-.052-.315-.3.019-.393.017-.789,0-1.182-.01-.229.077-.286.292-.281.577.012,1.155,0,1.732.005.279,0,.492-.1.482-.4-.009-.264-.2-.381-.469-.37-.225.009-.451,0-.676,0-.435-.006-1.016.151-1.265-.068-.285-.251-.05-.848-.1-1.29-.032-.308.056-.414.386-.4.83.026,1.661.005,2.492.011.267,0,.456-.094.455-.373,0-.337-.247-.4-.528-.4-1,0-2,0-3,0-.463,0-.572.11-.573.574,0,1.563.007,3.125-.006,4.688,0,.412.182.551.563.543" transform="translate(-348.765 -309.61)" fill="#fff"/>
    <path id="Trazado_266697" data-name="Trazado 266697" d="M126.619,338.953c.173-.22.276-.46.015-.665s-.462-.029-.631.19c-.454.59-.918,1.174-1.367,1.768-.139.184-.219.191-.364,0-.445-.6-.911-1.179-1.369-1.766-.165-.212-.353-.406-.63-.188s-.159.439.014.66c.477.608.942,1.226,1.43,1.825.182.223.233.376.019.63-.508.6-.973,1.237-1.459,1.857-.176.224-.269.456.005.655.251.182.44.037.6-.174.438-.568.9-1.121,1.316-1.7.194-.267.292-.3.5-.009.426.594.889,1.16,1.337,1.738a.427.427,0,0,0,.508.2.347.347,0,0,0,.241-.357.65.65,0,0,0-.2-.407c-.475-.61-.94-1.228-1.432-1.824a.374.374,0,0,1,.008-.569c.5-.61.973-1.237,1.458-1.857" transform="translate(-111.787 -309.602)" fill="#fff"/>
    <path id="Trazado_266698" data-name="Trazado 266698" d="M254.59,339.24a.763.763,0,0,1,.069.049c.22.185.445.2.619-.042.186-.262.022-.446-.192-.594a2.9,2.9,0,0,0-4.6,2.167,2.926,2.926,0,0,0,2.97,3.073,2.8,2.8,0,0,0,1.615-.538c.214-.157.362-.351.173-.6-.165-.218-.385-.19-.6-.037a1.9,1.9,0,0,1-.252.155,2.065,2.065,0,0,1-2.167-.084,2.13,2.13,0,1,1,2.361-3.547" transform="translate(-229.311 -309.5)" fill="#fff"/>
    <path id="Trazado_266699" data-name="Trazado 266699" d="M992.333,338.874a2.17,2.17,0,0,1,1.625.434.346.346,0,0,0,.547-.083.351.351,0,0,0-.092-.518,2.266,2.266,0,0,0-.239-.172,2.761,2.761,0,0,0-2.927-.113,2.693,2.693,0,0,0-1.516,2.442A2.89,2.89,0,0,0,994.2,343.4c.233-.145.493-.314.295-.632-.211-.339-.476-.183-.718-.006a1.434,1.434,0,0,1-.145.087,2.125,2.125,0,0,1-3.047-2.481,2.08,2.08,0,0,1,1.751-1.494" transform="translate(-906.059 -309.476)" fill="#fff"/>
    <path id="Trazado_266700" data-name="Trazado 266700" d="M98.684,309.789q-48.991,0-97.981,0c-.135,0-.282.049-.406-.053.148.205.363.1.541.1q42.158.009,84.316,0,6.741,0,13.482,0c.149,0,.339.1.45-.1h0c-.119.116-.268.059-.4.059" transform="translate(-0.272 -283.545)" fill="#fff"/>
    <path id="Trazado_266701" data-name="Trazado 266701" d="M1.311,309.75c-.338,0-.676-.009-1.014-.014.124.1.271.053.406.053q48.991,0,97.981,0c.134,0,.283.057.4-.059-.183.007-.365.02-.548.02H1.311" transform="translate(-0.272 -283.545)" fill="#fff"/>
    <path id="Trazado_266702" data-name="Trazado 266702" d="M621.582,344.174q1.414-.007,2.829,0c.273,0,.49-.077.489-.388s-.222-.379-.495-.377c-.732.007-1.464-.012-2.2.01-.3.009-.375-.085-.372-.378.015-1.379,0-2.758.009-4.137,0-.293-.077-.529-.4-.52-.293.009-.376.234-.373.51.008.788,0,1.576,0,2.364s.007,1.6,0,2.406c0,.359.158.512.509.51" transform="translate(-568.566 -309.777)" fill="#fff"/>
    <path id="Trazado_266703" data-name="Trazado 266703" d="M503.245,344.179q1.435,0,2.871,0c.269,0,.494-.081.49-.39s-.227-.376-.5-.374c-.718.007-1.436-.018-2.153.011-.348.014-.422-.11-.411-.428.022-.661.007-1.322.007-1.984h0q0-1.1,0-2.195a.381.381,0,0,0-.413-.429c-.25.007-.355.183-.354.433q0,2.448,0,4.9c0,.323.156.46.465.459" transform="translate(-460.274 -309.783)" fill="#fff"/>
    <path id="Trazado_266704" data-name="Trazado 266704" d="M1003.662.814q0,9.954,0,19.909c0,.481,0,.489-.471.478a4.58,4.58,0,0,1-1.087-.043c.02.153.142.108.229.109.324.005.649-.018.971.008s.428-.056.427-.4q-.017-10.054-.013-20.108c0-.12.094-.285-.1-.363a.8.8,0,0,1,.038.414" transform="translate(-917.387 -0.366)" fill="#fff"/>
    <path id="Trazado_266705" data-name="Trazado 266705" d="M1003.623,20.49c0,.127-.008.254,0,.38.016.217-.074.3-.294.3-.408-.012-.816-.007-1.224-.009a4.575,4.575,0,0,0,1.087.043c.471.011.471,0,.471-.478q0-9.954,0-19.909a.8.8,0,0,0-.038-.414h0q0,10.045,0,20.091" transform="translate(-917.387 -0.365)" fill="#fff"/>
  </g>
</svg>
