<svg xmlns="http://www.w3.org/2000/svg" xmlns:xlink="http://www.w3.org/1999/xlink" width="294.095" height="267.945" viewBox="0 0 294.095 267.945">
  <defs>
    <clipPath id="clip-path">
      <rect id="Rectángulo_297748" data-name="Rectángulo 297748" width="294.095" height="267.945" transform="translate(0 28)" fill="none"/>
    </clipPath>
    <clipPath id="clip-path-2">
      <path id="Trazado_265113" data-name="Trazado 265113" d="M126.941,2.926c-63.47,7.4-94.7,53.568-100.609,61.885-32.319,45.472-38.808,114.357,2.859,158.08,27.541,28.9,65.633,35.8,85.34,39.376,13.345,2.419,76.139,12.323,129.206-21.654a104.479,104.479,0,0,0,16.268-12.222c21.586-20.278,34.068-53.859,34.09-89.024v-.184c-.023-39.334-15.638-80.618-51.543-107.46-27.107-20.265-62.839-29.9-96.275-29.9a167.214,167.214,0,0,0-19.336,1.106" transform="translate(0 -1.82)" fill="none"/>
    </clipPath>
    <linearGradient id="linear-gradient" x1="0.172" y1="0.835" x2="0.172" y2="0.835" gradientUnits="objectBoundingBox">
      <stop offset="0" stop-color="#dae3fe"/>
      <stop offset="1" stop-color="#e9effd"/>
    </linearGradient>
    <clipPath id="clip-path-3">
      <rect id="Rectángulo_297717" data-name="Rectángulo 297717" width="294.095" height="295.945" fill="none"/>
    </clipPath>
    <clipPath id="clip-path-4">
      <path id="Trazado_265139" data-name="Trazado 265139" d="M633.72,336.9l-90.859,43.152A21.411,21.411,0,0,0,530.668,398C522.146,529.734,606.614,577.734,634.3,589.859a21.46,21.46,0,0,0,17.222,0C679.216,577.734,763.684,529.734,755.161,398a21.41,21.41,0,0,0-12.193-17.941L652.11,336.9a21.435,21.435,0,0,0-18.39,0" transform="translate(-530.067 -334.831)" fill="none"/>
    </clipPath>
    <linearGradient id="linear-gradient-2" x1="-0.027" y1="0.9" x2="-0.026" y2="0.9" gradientUnits="objectBoundingBox">
      <stop offset="0" stop-color="#09005d"/>
      <stop offset="1" stop-color="#1a0f91"/>
    </linearGradient>
    <clipPath id="clip-path-6">
      <path id="Trazado_265142" data-name="Trazado 265142" d="M828.2,551.376l-84.937,40.34a5.35,5.35,0,0,0-3.046,4.561c-2.512,49.142,8.839,90.145,33.761,121.924a150.679,150.679,0,0,0,54.253,43.271,5.356,5.356,0,0,0,4.521,0A150.676,150.676,0,0,0,887.007,718.2c24.922-31.779,36.273-72.782,33.761-121.924a5.35,5.35,0,0,0-3.046-4.561l-84.937-40.34a5.34,5.34,0,0,0-4.584,0" transform="translate(-739.877 -550.859)" fill="none"/>
    </clipPath>
    <linearGradient id="linear-gradient-3" x1="-0.172" y1="0.997" x2="-0.171" y2="0.997" gradientUnits="objectBoundingBox">
      <stop offset="0" stop-color="#4f52ff"/>
      <stop offset="1" stop-color="#4042e2"/>
    </linearGradient>
    <clipPath id="clip-path-7">
      <path id="Trazado_265143" data-name="Trazado 265143" d="M1381.787,886.318,1356.8,933.353l-16.746-24.574c-2.133-3.13-6.646-3.51-10.036-.939-3.32,2.517-4.379,6.977-2.407,10.045l22.761,35.4a8.308,8.308,0,0,0,7.032,3.667q.148,0,.295,0a8.722,8.722,0,0,0,7.339-4.307l34.73-61.917c2.67-4.76.58-9.609-4.575-10.741a10.322,10.322,0,0,0-2.223-.236,13.135,13.135,0,0,0-11.183,6.573" transform="translate(-1326.619 -879.745)" fill="none"/>
    </clipPath>
    <linearGradient id="linear-gradient-4" x1="-1.818" y1="2.626" x2="-1.816" y2="2.626" xlink:href="#linear-gradient"/>
    <clipPath id="clip-path-8">
      <path id="Trazado_265144" data-name="Trazado 265144" d="M1532.929,1756.408v0c-1.774.3-63.176,8.642-63.176,67.336,3.645,3.576,1.167,5.327,1.167,5.327h123.257s-2.1-1.75,1.547-5.327c0-58.694-61.022-67.041-62.8-67.336v0m0,0c.019,0,0,0,0,0Zm0,0v0s-.018,0,0,0m0,0h0" transform="translate(-1469.753 -1756.403)" fill="none"/>
    </clipPath>
    <linearGradient id="linear-gradient-5" x1="-1.133" y1="1.009" x2="-1.132" y2="1.009" gradientUnits="objectBoundingBox">
      <stop offset="0" stop-color="#e1473d"/>
      <stop offset="1" stop-color="#e9605a"/>
    </linearGradient>
    <clipPath id="clip-path-9">
      <path id="Trazado_265145" data-name="Trazado 265145" d="M1443.825,2418.339s-1.75,23.395,61.438,23.395c68.369,0,69.528-23.395,69.528-23.395a598.288,598.288,0,0,0-76.022-5.441c-19.4,0-39.2,1.359-54.943,5.441" transform="translate(-1443.82 -2412.897)" fill="none"/>
    </clipPath>
    <linearGradient id="linear-gradient-6" x1="-5.313" y1="0.693" x2="-5.311" y2="0.693" gradientUnits="objectBoundingBox">
      <stop offset="0" stop-color="#ff928e"/>
      <stop offset="1" stop-color="#fe7062"/>
    </linearGradient>
    <clipPath id="clip-path-10">
      <path id="Trazado_265146" data-name="Trazado 265146" d="M1443.825,2368.815s-1.75,23.395,61.438,23.395c68.369,0,69.528-23.395,69.528-23.395a598.288,598.288,0,0,0-76.022-5.441c-19.4,0-39.2,1.36-54.943,5.441" transform="translate(-1443.82 -2363.374)" fill="none"/>
    </clipPath>
    <linearGradient id="linear-gradient-7" x1="-2.817" y1="0.73" x2="-2.816" y2="0.73" xlink:href="#linear-gradient-6"/>
    <clipPath id="clip-path-11">
      <path id="Trazado_265147" data-name="Trazado 265147" d="M1497.4,1700.034l-.03.008a3.7,3.7,0,0,0-2.831,3.721l1.855,56.965a1.126,1.126,0,0,1-.338.841,1.172,1.172,0,0,1-.864.332h-.789a1.174,1.174,0,0,1-1.2-1.142c-.159-7.226-1.01-45.539-1.3-53.228a1.239,1.239,0,0,0-.417-.882,1.254,1.254,0,0,0-.93-.314c-3.519.253-9,1.447-10.738,3.376-1.968,2.187,2.624,36.805,2.041,52.318-2.133,5.919-34.242,11.2-39.728,12.06a.586.586,0,0,1-.506-.157.648.648,0,0,1-.193-.522v-.024a2.712,2.712,0,0,0-2.718-2.671,2.843,2.843,0,0,0-2.832,2.566l-.6,6.517a1.126,1.126,0,0,0,1.195,1.235l65.205-4.2,65.179,4.2a1.136,1.136,0,0,0,1.2-1.239l-.607-6.513a2.955,2.955,0,0,0-2.947-2.566,2.779,2.779,0,0,0-2.793,2.671v.024c0,.2.035.392-.118.522a.592.592,0,0,1-.508.158c-5.485-.861-37.556-6.14-39.688-12.06-.583-15.512,4.027-50.13,2.06-52.317-1.737-1.929-7.21-3.121-10.728-3.374a1.253,1.253,0,0,0-1.341,1.208c-.288,7.689-1.138,45.985-1.3,53.211a1.172,1.172,0,0,1-1.2,1.142h-.789a1.14,1.14,0,0,1-1.193-1.19l1.863-56.957a3.683,3.683,0,0,0-2.815-3.715,18.174,18.174,0,0,0-8.562-.005" transform="translate(-1435.281 -1699.525)" fill="none"/>
    </clipPath>
    <linearGradient id="linear-gradient-8" x1="-1.613" y1="1.018" x2="-1.612" y2="1.018" xlink:href="#linear-gradient-6"/>
    <clipPath id="clip-path-13">
      <rect id="Rectángulo_297727" data-name="Rectángulo 297727" width="23.794" height="29.752" fill="none"/>
    </clipPath>
    <clipPath id="clip-path-15">
      <rect id="Rectángulo_297728" data-name="Rectángulo 297728" width="121.709" height="6.714" fill="none"/>
    </clipPath>
    <clipPath id="clip-path-16">
      <rect id="Rectángulo_297729" data-name="Rectángulo 297729" width="4.612" height="65.897" fill="none"/>
    </clipPath>
    <clipPath id="clip-path-17">
      <rect id="Rectángulo_297730" data-name="Rectángulo 297730" width="8.094" height="57.073" fill="none"/>
    </clipPath>
    <clipPath id="clip-path-19">
      <path id="Trazado_265154" data-name="Trazado 265154" d="M1539.8,2451.261a1.446,1.446,0,0,0-.664,2.639c6.022,4.051,22.121,12.088,54.844,11.87,32.653-.219,47.743-8,53.286-11.929a1.445,1.445,0,0,0-.674-2.615,483.088,483.088,0,0,0-52.381-2.64c-15.9,0-34.4.678-54.41,2.675" transform="translate(-1538.501 -2448.586)" fill="none"/>
    </clipPath>
    <linearGradient id="linear-gradient-9" x1="-9.631" y1="0.752" x2="-9.626" y2="0.752" xlink:href="#linear-gradient-6"/>
    <clipPath id="clip-path-20">
      <path id="Trazado_265155" data-name="Trazado 265155" d="M239.048,1248.907l-75.53,130.777a11,11,0,0,0,9.724,16.567H324.3a11.092,11.092,0,0,0,9.723-5.433,10.924,10.924,0,0,0,0-11.048L258.5,1248.941a11.234,11.234,0,0,0-19.448-.035" transform="translate(-162.019 -1243.316)" fill="none"/>
    </clipPath>
    <linearGradient id="linear-gradient-10" x1="-0.04" y1="0.922" x2="-0.04" y2="0.922" xlink:href="#linear-gradient-2"/>
    <clipPath id="clip-path-21">
      <path id="Trazado_265156" data-name="Trazado 265156" d="M288.6,1289.741a6.4,6.4,0,0,0-4.289,3.087L208.788,1423.7a6.615,6.615,0,0,0,5.5,9.839H365.353a6.613,6.613,0,0,0,5.507-9.836l-75.53-130.918a6.35,6.35,0,0,0-5.507-3.174,6.219,6.219,0,0,0-1.218.131" transform="translate(-207.934 -1289.61)" fill="none"/>
    </clipPath>
    <linearGradient id="linear-gradient-11" x1="-0.01" y1="0.957" x2="-0.01" y2="0.957" xlink:href="#linear-gradient-6"/>
    <clipPath id="clip-path-22">
      <path id="Trazado_265157" data-name="Trazado 265157" d="M1158.539,1947.085a6.74,6.74,0,1,0,6.739-6.739,6.739,6.739,0,0,0-6.739,6.739" transform="translate(-1158.539 -1940.346)" fill="none"/>
    </clipPath>
    <linearGradient id="linear-gradient-12" x1="-7.366" y1="5.579" x2="-7.359" y2="5.579" xlink:href="#linear-gradient-2"/>
    <clipPath id="clip-path-23">
      <path id="Trazado_265158" data-name="Trazado 265158" d="M947.319,2040.252l7,9.571,20.619-18.5-9.609-9.706Z" transform="translate(-947.319 -2021.615)" fill="none"/>
    </clipPath>
    <linearGradient id="linear-gradient-13" x1="-2.829" y1="2.496" x2="-2.825" y2="2.496" xlink:href="#linear-gradient-2"/>
    <clipPath id="clip-path-24">
      <path id="Trazado_265159" data-name="Trazado 265159" d="M987.2,1810.95l1.211,17.076,24.832,24.55v15.56h5.331V1850.48l-25.179-24.7-1.173-15.206Z" transform="translate(-987.196 -1810.571)" fill="none"/>
    </clipPath>
    <linearGradient id="linear-gradient-14" x1="-1.39" y1="2.174" x2="-1.388" y2="2.174" xlink:href="#linear-gradient-2"/>
    <clipPath id="clip-path-25">
      <path id="Trazado_265160" data-name="Trazado 265160" d="M694.9,2128.144l1.243,4.835,16.568-4.26,11.479,5.739,2.232-4.466-13.148-6.573Z" transform="translate(-694.9 -2123.419)" fill="none"/>
    </clipPath>
    <linearGradient id="linear-gradient-15" x1="-4.282" y1="2.465" x2="-4.276" y2="2.465" xlink:href="#linear-gradient-2"/>
    <clipPath id="clip-path-26">
      <path id="Trazado_265161" data-name="Trazado 265161" d="M825.958,2238.23l-5.59,11.959,4.523,2.114,5.143-11,14.078-12.257-3.278-3.765Z" transform="translate(-820.368 -2225.278)" fill="none"/>
    </clipPath>
    <linearGradient id="linear-gradient-16" x1="-2.571" y1="2.063" x2="-2.567" y2="2.063" xlink:href="#linear-gradient-2"/>
    <clipPath id="clip-path-27">
      <path id="Trazado_265162" data-name="Trazado 265162" d="M544.109,2257.091v4.1h14.352v23.373h4.1v-27.474Z" transform="translate(-544.109 -2257.091)" fill="none"/>
    </clipPath>
    <linearGradient id="linear-gradient-17" x1="-1.639" y1="2.234" x2="-1.636" y2="2.234" xlink:href="#linear-gradient-2"/>
    <clipPath id="clip-path-28">
      <path id="Trazado_265163" data-name="Trazado 265163" d="M1017.04,2604.3l-5.607.037.671,4.193c0,5.7,25.226,10.321,56.343,10.321,29.97,0,54.47-4.286,56.236-9.7a41.183,41.183,0,0,0-.639-5.276l-6.012-.255c-9.528-3.226-28.16-5.417-49.585-5.417-22.888,0-42.588,2.5-51.407,6.092" transform="translate(-1011.432 -2598.206)" fill="none"/>
    </clipPath>
    <linearGradient id="linear-gradient-18" x1="-5.935" y1="0.59" x2="-5.93" y2="0.59" xlink:href="#linear-gradient-6"/>
    <clipPath id="clip-path-29">
      <path id="Trazado_265164" data-name="Trazado 265164" d="M1011.433,2568.953c0,5.7,25.226,10.322,56.343,10.322s56.343-4.621,56.343-10.322-25.226-10.321-56.343-10.321-56.343,4.621-56.343,10.321" transform="translate(-1011.433 -2558.632)" fill="none"/>
    </clipPath>
    <linearGradient id="linear-gradient-19" x1="-0.948" y1="1.16" x2="-0.947" y2="1.16" xlink:href="#linear-gradient-5"/>
    <clipPath id="clip-path-30">
      <path id="Trazado_265165" data-name="Trazado 265165" d="M1191.326,1699.449l-8.363,21.857-6.724,17.578-8.784,22.964-6.272,16.385-5.194,13.579a1.264,1.264,0,0,0-.084.216l-.093.223h.031a1.241,1.241,0,0,0-.031.333c0,4.638,18.1,8.827,40.619,9.347,4.582.105,9,.052,13.128-.137,16.364-.76,28.219-3.688,28.219-7.456a2.2,2.2,0,0,0-.42-1.112l-5.314-13.678-.1-.01v-.005l-6.381-16.83v0l-8.887-23.424-6.735-17.811-8.434-22.011c-.908-2.372-2.487-3.965-4.256-4.351a3.747,3.747,0,0,0-.839-.092c-2.1,0-4.035,1.7-5.082,4.438" transform="translate(-1155.811 -1695.011)" fill="none"/>
    </clipPath>
    <linearGradient id="linear-gradient-20" x1="-0.867" y1="1.133" x2="-0.866" y2="1.133" xlink:href="#linear-gradient-6"/>
    <clipPath id="clip-path-32">
      <rect id="Rectángulo_297745" data-name="Rectángulo 297745" width="70.872" height="21.306" fill="none"/>
    </clipPath>
    <clipPath id="clip-path-33">
      <rect id="Rectángulo_297746" data-name="Rectángulo 297746" width="40.51" height="18.89" fill="none"/>
    </clipPath>
  </defs>
  <g id="Grupo_879979" data-name="Grupo 879979" transform="translate(0 -28)">
    <g id="Grupo_879978" data-name="Grupo 879978" clip-path="url(#clip-path)">
      <g id="Grupo_879901" data-name="Grupo 879901" transform="translate(0 30.553)">
        <g id="Grupo_879900" data-name="Grupo 879900" clip-path="url(#clip-path-2)">
          <path id="Trazado_266758" data-name="Trazado 266758" d="M0,0,412.109,21.667l21.649,402.306L21.649,402.306Z" transform="matrix(0.779, -0.627, 0.627, 0.779, -161.065, 107.288)" fill="url(#linear-gradient)"/>
        </g>
      </g>
      <g id="Grupo_879909" data-name="Grupo 879909" transform="translate(0 0)">
        <g id="Grupo_879908" data-name="Grupo 879908" clip-path="url(#clip-path-3)">
          <path id="Trazado_265114" data-name="Trazado 265114" d="M1891.509,7.756h-1.424c-.7,0-1.58.336-1.58,1.261V26.628a1.793,1.793,0,0,0,1.58,1.708h1.424c.7,0,.544-.783.544-1.708V9.017c0-.924.151-1.261-.544-1.261" transform="translate(-1688.401 21.274)" fill="#bdd0fb"/>
          <path id="Trazado_265115" data-name="Trazado 265115" d="M2086.187,7.756h-1.424c-.7,0-2.034.336-2.034,1.261V26.628c0,.924,1.338,1.708,2.034,1.708h1.424c.7,0,.8-.783.8-1.708V9.017c0-.924-.1-1.261-.8-1.261" transform="translate(-1862.046 21.274)" fill="#bdd0fb"/>
          <path id="Trazado_265116" data-name="Trazado 265116" d="M1875.33,66.628a1.486,1.486,0,0,1-1.534,1.6h-30.259a1.823,1.823,0,0,1-1.915-1.6v-.32a1.838,1.838,0,0,1,1.915-1.624H1873.8a1.5,1.5,0,0,1,1.534,1.624Z" transform="translate(-1646.486 -29.622)" fill="#bdd0fb"/>
          <path id="Trazado_265117" data-name="Trazado 265117" d="M1874.326,161.8h-26.786c-2.768,0-5.917,3.056-5.917,6.723V390.656h35.962c.968,0,.939-1.062.939-2.345V168.519c0-3.667-1.431-6.723-4.2-6.723" transform="translate(-1646.487 -116.444)" fill="#bdd0fb"/>
          <rect id="Rectángulo_297704" data-name="Rectángulo 297704" width="192.669" height="11.709" transform="translate(19.498 55.11)" fill="#bdd0fb"/>
          <rect id="Rectángulo_297705" data-name="Rectángulo 297705" width="192.669" height="12.419" transform="translate(19.498 166.878)" fill="#bdd0fb"/>
          <rect id="Rectángulo_297706" data-name="Rectángulo 297706" width="195.862" height="12.419" transform="translate(19.498 200.586)" fill="#bdd0fb"/>
          <path id="Trazado_265118" data-name="Trazado 265118" d="M249.86,2233.66H22.774a2.838,2.838,0,0,1-2.839-2.838v-9.581H249.86Z" transform="translate(-17.823 -1985.882)" fill="#bdd0fb"/>
          <rect id="Rectángulo_297707" data-name="Rectángulo 297707" width="192.669" height="11.709" transform="translate(19.498 109.752)" fill="#bdd0fb"/>
          <rect id="Rectángulo_297708" data-name="Rectángulo 297708" width="187.701" height="3.548" transform="translate(21.982 146.299)" fill="#bdd0fb"/>
          <path id="Trazado_265119" data-name="Trazado 265119" d="M52.412,161.8H25.627c-2.768,0-5.692,3.036-5.692,6.678V386.737a2.855,2.855,0,0,0,2.433,2.5H56.836V168.474c0-3.642-1.656-6.678-4.424-6.678" transform="translate(-17.823 -117.509)" fill="#bdd0fb"/>
          <path id="Trazado_265120" data-name="Trazado 265120" d="M69.595,7.756H68.171a1.206,1.206,0,0,0-1.355,1.261V26.628a1.614,1.614,0,0,0,1.355,1.708h1.424c.7,0,.415-.783.415-1.708V9.017c0-.924.281-1.261-.415-1.261" transform="translate(-59.736 20.209)" fill="#bdd0fb"/>
          <path id="Trazado_265121" data-name="Trazado 265121" d="M264.274,7.756H262.85c-.7,0-1.809.336-1.809,1.261V26.628a2.007,2.007,0,0,0,1.809,1.708h1.424c.7,0,.315-.783.315-1.708V9.017c0-.924.38-1.261-.315-1.261" transform="translate(-233.381 20.209)" fill="#bdd0fb"/>
          <path id="Trazado_265122" data-name="Trazado 265122" d="M53.642,66.628a1.619,1.619,0,0,1-1.7,1.6H21.687a1.669,1.669,0,0,1-1.753-1.6v-.32a1.685,1.685,0,0,1,1.753-1.624H51.946a1.635,1.635,0,0,1,1.7,1.624Z" transform="translate(-17.822 -30.687)" fill="#bdd0fb"/>
          <path id="Trazado_265123" data-name="Trazado 265123" d="M953.292,322.533H926.507a6.263,6.263,0,0,0-5.774,6.172V534.159a2.837,2.837,0,0,0,2.515,2.332h34.741V328.7c0-3.428-1.929-6.172-4.7-6.172" transform="translate(-823.174 -271.149)" fill="#bdd0fb"/>
          <path id="Trazado_265124" data-name="Trazado 265124" d="M961.493,161.8h-1.425c-.7,0-2.5.864-2.5,1.788V181.2c0,.924,1.805,1.535,2.5,1.535h1.425c.7,0,.688-.61.688-1.535V163.584c0-.924.008-1.788-.687-1.788" transform="translate(-856.106 -127.444)" fill="#bdd0fb"/>
          <path id="Trazado_265125" data-name="Trazado 265125" d="M1165.154,161.8h-1.424a2.176,2.176,0,0,0-1.89,1.788V181.2c0,.924,1.194,1.535,1.89,1.535h1.424c.7,0,.233-.61.233-1.535V163.584c0-.924.462-1.788-.233-1.788" transform="translate(-1038.733 -127.444)" fill="#bdd0fb"/>
          <path id="Trazado_265126" data-name="Trazado 265126" d="M954.44,224.175a1.908,1.908,0,0,1-1.833,1.8H922.348a1.72,1.72,0,0,1-1.616-1.8v-.32a1.7,1.7,0,0,1,1.616-1.782h30.259a1.892,1.892,0,0,1,1.833,1.782Z" transform="translate(-823.172 -181.334)" fill="#bdd0fb"/>
          <rect id="Rectángulo_297709" data-name="Rectángulo 297709" width="81.254" height="10.29" transform="translate(201.523 87.398)" fill="#bdd0fb"/>
          <path id="Trazado_265127" data-name="Trazado 265127" d="M1901.9,1799.306v10.645h89.513c1.806,0,2.741-1.462,2.741-3.268v-7.377Z" transform="translate(-1700.376 -1608.655)" fill="#bdd0fb"/>
          <path id="Trazado_265128" data-name="Trazado 265128" d="M1875.11,2090.643v10.645h89.978c1.806,0,2.631-1.461,2.631-3.267v-7.378Z" transform="translate(-1676.427 -1869.122)" fill="#bdd0fb"/>
          <rect id="Rectángulo_297710" data-name="Rectángulo 297710" width="81.254" height="9.935" transform="translate(201.523 141.686)" fill="#bdd0fb"/>
          <rect id="Rectángulo_297711" data-name="Rectángulo 297711" width="80.545" height="3.903" transform="translate(201.877 172.91)" fill="#bdd0fb"/>
          <rect id="Rectángulo_297712" data-name="Rectángulo 297712" width="80.545" height="3.548" transform="translate(201.877 117.558)" fill="#bdd0fb"/>
          <path id="Trazado_265129" data-name="Trazado 265129" d="M1791.064,580.382h-21.6c-2.231,0-4.865,3.464-4.865,6.733V783c0,1.143,1.458,2.111,2.237,2.111h28.278v-198c0-3.269-1.822-6.733-4.054-6.733" transform="translate(-1577.629 -518.886)" fill="#bdd0fb"/>
          <path id="Trazado_265130" data-name="Trazado 265130" d="M1804.057,453.132h-1.148c-.561,0-1.47.24-1.47,1.035v15.141c0,.795.909,1.211,1.47,1.211h1.148c.561,0,.22-.416.22-1.211V454.167c0-.795.34-1.035-.22-1.035" transform="translate(-1610.56 -405.119)" fill="#bdd0fb"/>
          <path id="Trazado_265131" data-name="Trazado 265131" d="M1964.721,453.132h-1.147c-.562,0-1.4.24-1.4,1.035v15.141a1.357,1.357,0,0,0,1.4,1.211h1.147c.562,0,.648-.416.648-1.211V454.167c0-.795-.087-1.035-.648-1.035" transform="translate(-1754.267 -405.119)" fill="#bdd0fb"/>
          <path id="Rectángulo_297713" data-name="Rectángulo 297713" d="M1.6,0H25.725a1.6,1.6,0,0,1,1.6,1.6v0a1.6,1.6,0,0,1-1.6,1.6H1.6A1.6,1.6,0,0,1,0,1.6v0A1.6,1.6,0,0,1,1.6,0Z" transform="translate(186.975 53.335)" fill="#bdd0fb"/>
          <path id="Trazado_265132" data-name="Trazado 265132" d="M2520.75,717.679h-21.6c-2.232,0-4.536,3.119-4.536,6.1V902.187c0,1.041,1.127,2.483,1.907,2.483h27.543v-180.9c0-2.977-1.087-6.1-3.318-6.1" transform="translate(-2230.292 -641.635)" fill="#bdd0fb"/>
          <path id="Trazado_265133" data-name="Trazado 265133" d="M2530.748,580.382H2529.6c-.562,0-1.5,1.242-1.5,2.037V597.56a1.884,1.884,0,0,0,1.5,1.628h1.148c.561,0,.55-.833.55-1.628V582.419c0-.795.011-2.037-.55-2.037" transform="translate(-2260.23 -518.886)" fill="#bdd0fb"/>
          <path id="Trazado_265134" data-name="Trazado 265134" d="M2688.418,580.382h-1.148a2.745,2.745,0,0,0-1.776,2.037V597.56c0,.794,1.216,1.628,1.776,1.628h1.148c.561,0,.268-.833.268-1.628V582.419c0-.795.293-2.037-.268-2.037" transform="translate(-2400.942 -518.886)" fill="#bdd0fb"/>
          <path id="Rectángulo_297714" data-name="Rectángulo 297714" d="M1.6,0H25.725a1.6,1.6,0,0,1,1.6,1.6v0a1.6,1.6,0,0,1-1.6,1.6H1.6A1.6,1.6,0,0,1,0,1.6v0A1.6,1.6,0,0,1,1.6,0Z" transform="translate(264.326 67.883)" fill="#bdd0fb"/>
        </g>
      </g>
      <g id="Grupo_879911" data-name="Grupo 879911" transform="translate(56.165 35.478)">
        <g id="Grupo_879910" data-name="Grupo 879910" clip-path="url(#clip-path-4)">
          <rect id="Rectángulo_297718" data-name="Rectángulo 297718" width="320.815" height="329.537" transform="translate(-97.871 36.646) rotate(-22.166)" fill="url(#linear-gradient-2)"/>
        </g>
      </g>
      <g id="Grupo_879913" data-name="Grupo 879913" transform="translate(0 0)">
        <g id="Grupo_879912" data-name="Grupo 879912" clip-path="url(#clip-path-3)">
          <path id="Trazado_265140" data-name="Trazado 265140" d="M1317.314,411.56a2.178,2.178,0,0,1-.936-4.146l21.468-10.2a2.178,2.178,0,0,1,1.869,3.935l-21.468,10.2a2.171,2.171,0,0,1-.933.211" transform="translate(-1175.784 -354.941)" fill="#bdd0fb"/>
          <path id="Trazado_265141" data-name="Trazado 265141" d="M581.751,601.826a2.178,2.178,0,0,1-2.176-2.1c-.289-8.6-.137-17.558.45-26.638a16.183,16.183,0,0,1,9.216-13.552L650.362,530.5a2.178,2.178,0,1,1,1.869,3.935L591.11,563.467a11.822,11.822,0,0,0-6.738,9.9c-.578,8.938-.727,17.756-.443,26.21a2.178,2.178,0,0,1-2.1,2.25h-.074" transform="translate(-518.037 -474.103)" fill="#bdd0fb"/>
        </g>
      </g>
      <g id="Grupo_879915" data-name="Grupo 879915" transform="translate(78.396 58.368)">
        <g id="Grupo_879914" data-name="Grupo 879914" clip-path="url(#clip-path-6)">
          <rect id="Rectángulo_297720" data-name="Rectángulo 297720" width="251.573" height="265.681" transform="translate(-75.994 30.076) rotate(-22.166)" fill="url(#linear-gradient-3)"/>
        </g>
      </g>
      <g id="Grupo_879917" data-name="Grupo 879917" transform="translate(140.567 93.216)">
        <g id="Grupo_879916" data-name="Grupo 879916" clip-path="url(#clip-path-7)">
          <rect id="Rectángulo_297721" data-name="Rectángulo 297721" width="76.8" height="77.205" transform="translate(-0.982 0)" fill="url(#linear-gradient-4)"/>
        </g>
      </g>
      <g id="Grupo_879919" data-name="Grupo 879919" transform="translate(155.733 186.106)">
        <g id="Grupo_879918" data-name="Grupo 879918" clip-path="url(#clip-path-8)">
          <rect id="Rectángulo_297722" data-name="Rectángulo 297722" width="133.935" height="144.314" transform="translate(-34.958 46.247) rotate(-52.914)" fill="url(#linear-gradient-5)"/>
        </g>
      </g>
      <g id="Grupo_879921" data-name="Grupo 879921" transform="translate(152.985 255.667)">
        <g id="Grupo_879920" data-name="Grupo 879920" clip-path="url(#clip-path-9)">
          <rect id="Rectángulo_297723" data-name="Rectángulo 297723" width="37.431" height="134.313" transform="translate(-3.621 28.713) rotate(-86.261)" fill="url(#linear-gradient-6)"/>
        </g>
      </g>
      <g id="Grupo_879923" data-name="Grupo 879923" transform="translate(152.985 250.42)">
        <g id="Grupo_879922" data-name="Grupo 879922" clip-path="url(#clip-path-10)">
          <rect id="Rectángulo_297724" data-name="Rectángulo 297724" width="65.593" height="135.418" transform="matrix(0.286, -0.958, 0.958, 0.286, -9.648, 26.477)" fill="url(#linear-gradient-7)"/>
        </g>
      </g>
      <g id="Grupo_879925" data-name="Grupo 879925" transform="translate(152.08 180.079)">
        <g id="Grupo_879924" data-name="Grupo 879924" clip-path="url(#clip-path-11)">
          <rect id="Rectángulo_297725" data-name="Rectángulo 297725" width="103.409" height="145.006" transform="matrix(0.174, -0.985, 0.985, 0.174, -14, 79.06)" fill="url(#linear-gradient-8)"/>
        </g>
      </g>
      <g id="Grupo_879945" data-name="Grupo 879945" transform="translate(0 0)">
        <g id="Grupo_879944" data-name="Grupo 879944" clip-path="url(#clip-path-3)">
          <g id="Grupo_879931" data-name="Grupo 879931" transform="translate(167.662 203.68)" opacity="0.7">
            <g id="Grupo_879930" data-name="Grupo 879930">
              <g id="Grupo_879929" data-name="Grupo 879929" clip-path="url(#clip-path-13)">
                <g id="Grupo_879928" data-name="Grupo 879928" opacity="0.3">
                  <g id="Grupo_879927" data-name="Grupo 879927">
                    <g id="Grupo_879926" data-name="Grupo 879926" clip-path="url(#clip-path-13)">
                      <path id="Trazado_265148" data-name="Trazado 265148" d="M1602.818,1922.425c-5.323-1.218-10.693,5-13.664,8.72-3.481,4.359-8.96,10.312-5.936,16.408,2.07,4.171,7.272,5.4,11.291,3.775,4.541-1.841,4.351-6.915,6.133-10.85,2.055-4.534,7.48-10.64,4.731-15.966a3.757,3.757,0,0,0-2.556-2.088" transform="translate(-1582.34 -1922.27)" fill="#fff"/>
                    </g>
                  </g>
                </g>
              </g>
            </g>
          </g>
          <g id="Grupo_879934" data-name="Grupo 879934" transform="translate(157.615 235.236)" opacity="0.7">
            <g id="Grupo_879933" data-name="Grupo 879933">
              <g id="Grupo_879932" data-name="Grupo 879932" clip-path="url(#clip-path-15)">
                <path id="Trazado_265149" data-name="Trazado 265149" d="M1511.09,2226.792c-18.173,0-23.222-5.7-23.472-6a.437.437,0,0,1,.668-.564c.083.1,7.685,8.511,37.362,4.66a.437.437,0,1,1,.113.866,114.342,114.342,0,0,1-14.672,1.034" transform="translate(-1487.516 -2220.077)" fill="#fff"/>
                <path id="Trazado_265150" data-name="Trazado 265150" d="M2286.68,2226.794a114.32,114.32,0,0,1-14.671-1.033.437.437,0,1,1,.112-.866c29.8,3.867,37.289-4.573,37.361-4.658a.437.437,0,1,1,.669.563c-.249.3-5.3,6-23.472,6" transform="translate(-2188.545 -2220.08)" fill="#fff"/>
              </g>
            </g>
          </g>
          <g id="Grupo_879937" data-name="Grupo 879937" transform="translate(216.071 182.179)" opacity="0.2">
            <g id="Grupo_879936" data-name="Grupo 879936">
              <g id="Grupo_879935" data-name="Grupo 879935" clip-path="url(#clip-path-16)">
                <path id="Trazado_265151" data-name="Trazado 265151" d="M2043.809,1784.025c0,.674-1.139,1.221-2.307,1.221s-2.306-.546-2.306-1.221V1720.57c0-.674,1.139-1.221,2.306-1.221s2.307.547,2.307,1.221Z" transform="translate(-2039.197 -1719.349)" fill="#fff"/>
              </g>
            </g>
          </g>
          <g id="Grupo_879940" data-name="Grupo 879940" transform="translate(228.416 191.23)" opacity="0.2">
            <g id="Grupo_879939" data-name="Grupo 879939">
              <g id="Grupo_879938" data-name="Grupo 879938" clip-path="url(#clip-path-17)">
                <path id="Trazado_265152" data-name="Trazado 265152" d="M2162.222,1805.088l-.66-.208a2.426,2.426,0,0,0-2.035.269,2.156,2.156,0,0,0-1,1.692l-2.811,52.928a2.007,2.007,0,0,0,1.848,2.054l.042,0a2.173,2.173,0,0,0,1.571-.443,1.933,1.933,0,0,0,.747-1.377l3.879-52.7a2.188,2.188,0,0,0-1.576-2.221" transform="translate(-2155.708 -1804.768)" fill="#fff"/>
              </g>
            </g>
          </g>
          <g id="Grupo_879943" data-name="Grupo 879943" transform="translate(200.43 191.23)" opacity="0.2">
            <g id="Grupo_879942" data-name="Grupo 879942">
              <g id="Grupo_879941" data-name="Grupo 879941" clip-path="url(#clip-path-17)">
                <path id="Trazado_265153" data-name="Trazado 265153" d="M1893.169,1805.088l.66-.208a2.427,2.427,0,0,1,2.036.269,2.156,2.156,0,0,1,1,1.692l2.811,52.928a2.006,2.006,0,0,1-1.847,2.054l-.043,0a2.171,2.171,0,0,1-1.57-.443,1.932,1.932,0,0,1-.747-1.377l-3.879-52.7a2.188,2.188,0,0,1,1.576-2.221" transform="translate(-1891.588 -1804.768)" fill="#fff"/>
              </g>
            </g>
          </g>
        </g>
      </g>
      <g id="Grupo_879947" data-name="Grupo 879947" transform="translate(163.017 259.449)">
        <g id="Grupo_879946" data-name="Grupo 879946" clip-path="url(#clip-path-19)">
          <rect id="Rectángulo_297733" data-name="Rectángulo 297733" width="21.489" height="110.161" transform="translate(-0.755 17.377) rotate(-87.856)" fill="url(#linear-gradient-9)"/>
        </g>
      </g>
      <g id="Grupo_879949" data-name="Grupo 879949" transform="translate(17.167 131.74)">
        <g id="Grupo_879948" data-name="Grupo 879948" clip-path="url(#clip-path-20)">
          <rect id="Rectángulo_297734" data-name="Rectángulo 297734" width="192.289" height="207.665" transform="matrix(0.254, -0.967, 0.967, 0.254, -38.117, 143.043)" fill="url(#linear-gradient-10)"/>
        </g>
      </g>
      <g id="Grupo_879951" data-name="Grupo 879951" transform="translate(22.032 136.645)">
        <g id="Grupo_879950" data-name="Grupo 879950" clip-path="url(#clip-path-21)">
          <rect id="Rectángulo_297735" data-name="Rectángulo 297735" width="203.572" height="191.34" transform="matrix(0.94, -0.341, 0.341, 0.94, -46.418, 16.732)" fill="url(#linear-gradient-11)"/>
        </g>
      </g>
      <g id="Grupo_879953" data-name="Grupo 879953" transform="translate(122.757 205.596)">
        <g id="Grupo_879952" data-name="Grupo 879952" clip-path="url(#clip-path-22)">
          <rect id="Rectángulo_297736" data-name="Rectángulo 297736" width="16.463" height="16.463" transform="translate(-3.315 12.606) rotate(-75.266)" fill="url(#linear-gradient-12)"/>
        </g>
      </g>
      <g id="Grupo_879955" data-name="Grupo 879955" transform="translate(100.377 214.207)">
        <g id="Grupo_879954" data-name="Grupo 879954" clip-path="url(#clip-path-23)">
          <rect id="Rectángulo_297737" data-name="Rectángulo 297737" width="34.306" height="33.888" transform="matrix(0.254, -0.967, 0.967, 0.254, -6.938, 26.384)" fill="url(#linear-gradient-13)"/>
        </g>
      </g>
      <g id="Grupo_879957" data-name="Grupo 879957" transform="translate(104.602 191.845)">
        <g id="Grupo_879956" data-name="Grupo 879956" clip-path="url(#clip-path-24)">
          <rect id="Rectángulo_297738" data-name="Rectángulo 297738" width="63.651" height="44.982" transform="translate(-14.159 53.841) rotate(-75.266)" fill="url(#linear-gradient-14)"/>
        </g>
      </g>
      <g id="Grupo_879959" data-name="Grupo 879959" transform="translate(73.631 224.994)">
        <g id="Grupo_879958" data-name="Grupo 879958" clip-path="url(#clip-path-25)">
          <rect id="Rectángulo_297739" data-name="Rectángulo 297739" width="18.693" height="33.294" transform="matrix(0.254, -0.967, 0.967, 0.254, -2.715, 10.325)" fill="url(#linear-gradient-15)"/>
        </g>
      </g>
      <g id="Grupo_879961" data-name="Grupo 879961" transform="translate(86.925 235.787)">
        <g id="Grupo_879960" data-name="Grupo 879960" clip-path="url(#clip-path-26)">
          <rect id="Rectángulo_297740" data-name="Rectángulo 297740" width="32.175" height="29.836" transform="matrix(0.254, -0.967, 0.967, 0.254, -6.647, 25.277)" fill="url(#linear-gradient-16)"/>
        </g>
      </g>
      <g id="Grupo_879963" data-name="Grupo 879963" transform="translate(57.653 239.158)">
        <g id="Grupo_879962" data-name="Grupo 879962" clip-path="url(#clip-path-27)">
          <rect id="Rectángulo_297741" data-name="Rectángulo 297741" width="31.264" height="24.834" transform="translate(-6.758 25.697) rotate(-75.266)" fill="url(#linear-gradient-17)"/>
        </g>
      </g>
      <g id="Grupo_879965" data-name="Grupo 879965" transform="translate(107.17 275.302)">
        <g id="Grupo_879964" data-name="Grupo 879964" clip-path="url(#clip-path-28)">
          <rect id="Rectángulo_297742" data-name="Rectángulo 297742" width="25.46" height="114.079" transform="translate(-0.88 20.606) rotate(-87.554)" fill="url(#linear-gradient-18)"/>
        </g>
      </g>
      <g id="Grupo_879967" data-name="Grupo 879967" transform="translate(107.17 271.109)">
        <g id="Grupo_879966" data-name="Grupo 879966" clip-path="url(#clip-path-29)">
          <rect id="Rectángulo_297743" data-name="Rectángulo 297743" width="112.924" height="21.983" transform="matrix(1, -0.012, 0.012, 1, -0.246, 0.003)" fill="url(#linear-gradient-19)"/>
        </g>
      </g>
      <g id="Grupo_879969" data-name="Grupo 879969" transform="translate(122.468 179.601)">
        <g id="Grupo_879968" data-name="Grupo 879968" clip-path="url(#clip-path-30)">
          <rect id="Rectángulo_297744" data-name="Rectángulo 297744" width="119.563" height="99.201" transform="translate(-18.187 103.842) rotate(-80.066)" fill="url(#linear-gradient-20)"/>
        </g>
      </g>
      <g id="Grupo_879977" data-name="Grupo 879977" transform="translate(0 0)">
        <g id="Grupo_879976" data-name="Grupo 879976" clip-path="url(#clip-path-3)">
          <g id="Grupo_879972" data-name="Grupo 879972" transform="translate(127.827 246.439)" opacity="0.9">
            <g id="Grupo_879971" data-name="Grupo 879971">
              <g id="Grupo_879970" data-name="Grupo 879970" clip-path="url(#clip-path-32)">
                <path id="Trazado_265166" data-name="Trazado 265166" d="M1277.266,2343.513c-5.127,1.714-13.325,2.948-23.139,3.407-3.955.186-8.139.246-12.5.163-15.132-.288-28.252-2.234-35.235-4.883l6.279-16.386a149.118,149.118,0,0,0,28.968,2.938c3.68.056,7.267.009,10.682-.129a124.625,124.625,0,0,0,18.516-1.954l6.327,16.829v.006Z" transform="translate(-1206.393 -2325.814)" fill="#fff"/>
              </g>
            </g>
          </g>
          <g id="Grupo_879975" data-name="Grupo 879975" transform="translate(142.897 205.896)" opacity="0.9">
            <g id="Grupo_879974" data-name="Grupo 879974">
              <g id="Grupo_879973" data-name="Grupo 879973" clip-path="url(#clip-path-33)">
                <path id="Trazado_265167" data-name="Trazado 265167" d="M1389.124,1961.148c-3.914.423-8.217.711-12.781.841-2.446.072-4.965.1-7.539.071a175.283,175.283,0,0,1-20.19-1.3l6.724-17.579c4.208.332,8.739.522,13.467.55q2.5.015,4.931-.034c2.963-.055,5.835-.174,8.577-.356Z" transform="translate(-1348.613 -1943.18)" fill="#fff"/>
              </g>
            </g>
          </g>
        </g>
      </g>
    </g>
  </g>
</svg>
