<svg xmlns="http://www.w3.org/2000/svg" xmlns:xlink="http://www.w3.org/1999/xlink" width="136" height="136" viewBox="0 0 136 136">
  <defs>
    <clipPath id="clip-path">
      <rect id="Rectángulo_298925" data-name="Rectángulo 298925" width="86.112" height="86.114" fill="none"/>
    </clipPath>
  </defs>
  <g id="Grupo_882117" data-name="Grupo 882117" transform="translate(-390 -836.185)">
    <g id="Elipse_4916" data-name="Elipse 4916" transform="translate(390 836.185)" fill="#fff" stroke="#6b3fe5" stroke-width="1">
      <circle cx="68" cy="68" r="68" stroke="none"/>
      <circle cx="68" cy="68" r="67.5" fill="none"/>
    </g>
    <g id="Grupo_882092" data-name="Grupo 882092" transform="translate(414.944 861.185)">
      <g id="Grupo_882092-2" data-name="Grupo 882092" clip-path="url(#clip-path)">
        <path id="Trazado_266760" data-name="Trazado 266760" d="M46.949,133.765A42.808,42.808,0,0,0,59.9,130.456a41.337,41.337,0,0,0,7.685-4.274,5.842,5.842,0,0,1,.624-.4c-.248-.066-.512.016-.763-.024h0c-.26.244-.584.148-.881.149q-23.515.007-47.03,0c-.28,0-.625.161-.838-.189-.005-.224-.015-.448-.015-.672q0-32.092,0-64.184l-6.24,0c.108.341-.188.531-.383.732A42.172,42.172,0,0,0,1.713,79.863,47.806,47.806,0,0,0,.381,87.03c-.033.268.081.653-.381.7V94.46a13.386,13.386,0,0,1,.462,2.931A42.738,42.738,0,0,0,7.253,115H7.26c.252-.32.133-.7.133-1.044Q7.4,99.314,7.4,84.678c0-.391.022-.781.034-1.172h0L8.6,79.641h0L9.342,77.2a11.875,11.875,0,0,1,.734,2.445,25.668,25.668,0,0,1,1.178,3.869q.009,14.242.019,28.483c0,2.744.016,5.489.024,8.233h0a63.2,63.2,0,0,0,5,4.59A42.817,42.817,0,0,0,38,133.852a3.532,3.532,0,0,1,1.682.3h6.558c.052-.461.435-.355.706-.383" transform="translate(0 -48.034)" fill="#fe6d3b"/>
        <path id="Trazado_266761" data-name="Trazado 266761" d="M.381,87.042a47.816,47.816,0,0,1,1.332-7.167A42.172,42.172,0,0,1,12.062,61.6c.194-.2.491-.391.383-.731h-.068a3.021,3.021,0,0,1-.205.264A42.764,42.764,0,0,0,.421,85.062,11.014,11.014,0,0,1,0,87.745c.462-.051.348-.436.381-.7" transform="translate(0 -48.045)" fill="#fe6d3b"/>
        <path id="Trazado_266762" data-name="Trazado 266762" d="M241.639,369.073a.6.6,0,0,0-.2-.089,5.925,5.925,0,0,0-.624.4,41.337,41.337,0,0,1-7.685,4.274,42.8,42.8,0,0,1-12.953,3.309c-.271.028-.653-.077-.706.383a4.3,4.3,0,0,1,1.854-.3,42.635,42.635,0,0,0,20.309-7.983" transform="translate(-173.231 -291.239)" fill="#fe6d3b"/>
        <path id="Trazado_266763" data-name="Trazado 266763" d="M192.064,112.035h0c-.306.007-.612.017-.918.02-.2,0-.4.018-.4-.279s.123-.4.4-.384c.306.017.612.019.918.028,0-.028.005-.055.006-.083.048-1.471.048-1.471-1.291-1.75h0c-.094-.4-.008-.642.473-.591.272.029.547.027.82.039l0-1.872c-.306.008-.611.02-.916.021-.192,0-.4.023-.408-.275s.125-.4.4-.384c.3.016.611.019.916.028a4.128,4.128,0,0,0-.119-1.776h0a.892.892,0,0,1-.25-.009c-.316-.105-.937.288-.9-.346.03-.554.619-.194.948-.283a1.01,1.01,0,0,1,.332.025q0-.942,0-1.883h0c-.272.01-.545.03-.817.027-.228,0-.521.078-.5-.331.017-.327.242-.305.462-.307l.736-.006a2.527,2.527,0,0,0,0-1.753h0c-.388-.143-1.148.29-1.137-.312.013-.7.771-.18,1.175-.314a.207.207,0,0,1,.081.008q0-.942,0-1.883h0a3.614,3.614,0,0,1-.668.024c-.232-.032-.627.2-.64-.28-.014-.532.42-.3.679-.346a3.239,3.239,0,0,1,.5-.011,4.118,4.118,0,0,0,.119-1.776c-.305.009-.611.012-.916.028-.277.015-.41-.093-.4-.384s.216-.276.408-.275c.306,0,.611.013.916.021l0-1.872c-.274.012-.549.009-.82.038-.481.051-.566-.194-.472-.592,1.345-.281,1.345-.281,1.285-1.833h0c-.306.009-.612.011-.918.028-.278.015-.409-.09-.4-.383s.21-.281.4-.279c.306,0,.612.013.918.02a4.8,4.8,0,0,0-.116-1.815h0c-.241,0-.485-.027-.725-.008-.485.04-.54-.216-.442-.6,1.336-.287,1.336-.287,1.279-1.833-.306.008-.612.01-.917.025-.273.014-.415-.078-.4-.378s.2-.288.4-.285c.306,0,.612.013.918.019,0-.027,0-.055.005-.082.04-1.456.04-1.456-1.281-1.746h0q0-.294,0-.589c1.326-.292,1.326-.292,1.276-1.829h0c-.306.007-.612.015-.917.019-.2,0-.391,0-.4-.286s.129-.392.4-.378c.305.016.611.018.917.025,0-.027.005-.055.006-.083.045-1.465.045-1.465-1.285-1.75h0c-.1-.38-.043-.635.442-.6.24.02.483,0,.725-.008a4.2,4.2,0,0,0,.083-1.878l-10.994,11a1.853,1.853,0,0,1-.21-1.122q-.007-12.933-.009-25.866a1.752,1.752,0,0,0-.122-1.063h0c0,9.022-.016,18.045.009,27.067a2.342,2.342,0,0,1-.75,1.835q-17.822,17.783-35.613,35.6c-.236.237-.453.493-.679.74a.694.694,0,0,0,.118.086q18.039,0,36.078,0a2.663,2.663,0,0,0,.831-.088c.357-.02.756-.2,1.021.142.068-.034.136-.067.207-.1a4.021,4.021,0,0,1,1.411-.146c2.377,0,4.754,0,7.132,0,1.351,0,1.351,0,1.371-1.339,0-.112.005-.224.017-.335,0-.035,0-.07,0-.105-.237,0-.474.005-.71.017-.273.014-.408-.083-.395-.377s.192-.292.4-.289l.713.013c0-.005,0-.01,0-.016-.011-.6-.016-1.2,0-1.793,0-.012,0-.024,0-.036-.239.011-.477.024-.716.031-.209.007-.389-.024-.39-.3s.18-.308.389-.3c.239.007.478.018.717.029,0,0,0-.009,0-.014-.014-.591-.016-1.181,0-1.772,0-.019,0-.039,0-.058-.239,0-.477.01-.716.013-.2,0-.386,0-.395-.286s.116-.4.393-.381c.239.012.478.015.718.018,0-.013,0-.026,0-.039-.011-.532-.013-1.064,0-1.6,0-.031,0-.062,0-.093-.373.006-.768.173-1.094-.163-.03-.26-.067-.515.337-.491.254.015.511,0,.766,0a2.027,2.027,0,0,1,.206-.921l.05-.079c-.106-.272,0-.58-.059-.859m-11.367,3.8c0,.552-.109.788-.73.786-6.109-.021-12.218-.013-18.327-.014-.13,0-.26-.02-.41-.032l19.379-19.382c.185.119.072.366.073.566.007,6.025,0,12.05.016,18.075m3.042.778a14.722,14.722,0,0,0-2.183,0c-.614.041-.744-.212-.742-.776.017-6.136.01-12.272.012-18.408,0-.248-.07-.529.127-.725,1.2-1.2,2.412-2.383,3.633-3.587.212.27.123.528.123.764.006,7.257-.008,14.514.023,21.77,0,.793-.235,1.027-.992.964" transform="translate(-113.393 -46.116)" fill="#fed45c"/>
        <path id="Trazado_266764" data-name="Trazado 266764" d="M334.377,359.213c-.012.111-.015.223-.017.335-.021,1.334-.021,1.337-1.372,1.339-2.377,0-4.754,0-7.132,0a4.024,4.024,0,0,0-1.411.146c-.071.029-.139.062-.207.1a.8.8,0,0,1,.09.145c.359-.031.718-.086,1.077-.088,2.4-.008,4.793,0,7.189,0,2.076,0,2.076,0,1.979-2.079l-.2,0c0,.035,0,.07,0,.105" transform="translate(-255.922 -283.441)" fill="#fed45c"/>
        <path id="Trazado_266765" data-name="Trazado 266765" d="M372.349,324.8c0,.031,0,.062,0,.093-.017.532-.014,1.064,0,1.6,0,.013,0,.026,0,.039l.192,0h0l-.008-1.719h0a.938.938,0,0,0-.179-.012" transform="translate(-293.884 -256.361)" fill="#fed45c"/>
        <path id="Trazado_266766" data-name="Trazado 266766" d="M372.334,336.063c-.016.591-.014,1.181,0,1.772v.014l.2.008h0q0-.927-.006-1.855l-.194,0c0,.019,0,.039,0,.058" transform="translate(-293.874 -265.206)" fill="#fed45c"/>
        <path id="Trazado_266767" data-name="Trazado 266767" d="M372.33,347.354c-.019.6-.014,1.2,0,1.793,0,.005,0,.01,0,.016l.2,0h0l.008-1.856-.2.009c0,.012,0,.024,0,.036" transform="translate(-293.87 -274.131)" fill="#fed45c"/>
        <path id="Trazado_266768" data-name="Trazado 266768" d="M372.644,317.008a2.027,2.027,0,0,0-.206.921h.07a.273.273,0,0,1,.123-.048h0a1.483,1.483,0,0,1,.177-.762h0a.568.568,0,0,1-.114-.187l-.05.079" transform="translate(-293.965 -250.152)" fill="#fed45c"/>
        <path id="Trazado_266769" data-name="Trazado 266769" d="M373.328,347.309" transform="translate(-294.667 -274.131)" fill="#fed45c"/>
        <path id="Trazado_266770" data-name="Trazado 266770" d="M181.13,367.806a2.663,2.663,0,0,1-.831.088q-18.039,0-36.078,0a1.751,1.751,0,0,0,.928.064q17.52.012,35.04.007c.364,0,.728.009,1.092.015h0c.25.04.515-.042.763.024l.106-.056c-.265-.339-.664-.162-1.021-.142" transform="translate(-113.833 -290.258)" fill="#fed45c"/>
        <path id="Trazado_266771" data-name="Trazado 266771" d="M323.734,368.775a.592.592,0,0,1,.2.089.8.8,0,0,0-.09-.145l-.106.056" transform="translate(-255.523 -291.03)" fill="#fed45c"/>
        <path id="Trazado_266772" data-name="Trazado 266772" d="M143.645,6.15c.446,0,.891.058,1.337.088h0a7.531,7.531,0,0,1,8.669,6.991c.017-.013.034-.027.053-.04.379.241.312.634.312.985q.014,12.891,0,25.783c0,.264.071.563-.188.778.256-.043.364-.277.521-.434q4.636-4.628,9.266-9.261c.031-.031.033-.036.03-.036s0,0,0,0l.031-.021c.426-.3.746-1.12,1.325-.742.539.351.3,1.12.173,1.722a.612.612,0,0,1-.123.216.316.316,0,0,1-.094.1c.11.249.078.434-.247.474.632.221.7.649.448,1.757a.485.485,0,0,1-.142.147q0,.252,0,.5a.454.454,0,0,1,.13.129,1.154,1.154,0,0,1,.125.481c.066.811-.02,1.117-.546,1.3.154.016.275.082.275.276s-.134.265-.3.277c.645.22.713.647.457,1.759a.485.485,0,0,1-.142.148q0,.252,0,.5a.452.452,0,0,1,.131.13,1.255,1.255,0,0,1,.13.552c.047.761-.038,1.047-.534,1.23.294.049.321.227.217.466a.3.3,0,0,1,.089.1,2.074,2.074,0,0,1,.121,1.726.491.491,0,0,1-.151.164q0,.256,0,.512a.487.487,0,0,1,.133.122,1.385,1.385,0,0,1,.134.652c.022.679-.054.941-.5,1.117a.561.561,0,0,1,.227.455.374.374,0,0,1,.175.213,2.833,2.833,0,0,1-.01,1.624.511.511,0,0,1-.158.173l-.006.517a.457.457,0,0,1,.154.163,1.866,1.866,0,0,1-.1,1.623.537.537,0,0,1-.156.1l.1.466a.474.474,0,0,1,.165.174,2.788,2.788,0,0,1,.018,1.636.455.455,0,0,1-.182.214l-.089.465a.477.477,0,0,1,.128.081,1.625,1.625,0,0,1,.02,1.74.6.6,0,0,1-.149.095l.091.473a.472.472,0,0,1,.164.173,2.787,2.787,0,0,1,.018,1.636.459.459,0,0,1-.168.2,1.032,1.032,0,0,1-.087.481.472.472,0,0,1,.109.073,1.824,1.824,0,0,1,.138,1.613.51.51,0,0,1-.168.189l.006.511a.454.454,0,0,1,.145.154,2.8,2.8,0,0,1,.035,1.629.524.524,0,0,1-.185.227c-.033.274-.123.414-.247.475.576.229.635.657.4,1.728a.514.514,0,0,1-.148.155q0,.254,0,.509a.476.476,0,0,1,.092.075.777.777,0,0,1,.1.635,43.931,43.931,0,0,0,5.489-12.2,45.12,45.12,0,0,0,1.378-8.185,41.587,41.587,0,0,0-2.2-17.033A42.583,42.583,0,0,0,132.475,1.305a42.75,42.75,0,0,0-17.116,2.227A50.934,50.934,0,0,0,109.4,6.125c.214.01.429.019.643.019q16.8,0,33.6.005" transform="translate(-86.349 -0.931)" fill="#fe6d3b"/>
        <path id="Trazado_266773" data-name="Trazado 266773" d="M114,2.6a42.719,42.719,0,0,1,45.082,11.011,42.268,42.268,0,0,1,9.441,15.528,41.583,41.583,0,0,1,2.2,17.033,45.121,45.121,0,0,1-1.378,8.185,43.937,43.937,0,0,1-5.489,12.2,1.522,1.522,0,0,0-.022.4h0a42.01,42.01,0,0,0,6.577-31.237c-2.295-13.016-9.258-22.966-20.567-29.742A41.855,41.855,0,0,0,120.265.724a39.03,39.03,0,0,0-12.584,4.454l.362.016A50.935,50.935,0,0,1,114,2.6" transform="translate(-84.993 0)" fill="#fe6d3b"/>
        <path id="Trazado_266774" data-name="Trazado 266774" d="M372.9,231.954h0a4.115,4.115,0,0,1-.119,1.776l.016.075a.536.536,0,0,0,.155-.1,1.865,1.865,0,0,0,.1-1.623.461.461,0,0,0-.154-.163c0,.012,0,.023,0,.035Z" transform="translate(-294.237 -183.053)" fill="#fe6d3b"/>
        <path id="Trazado_266775" data-name="Trazado 266775" d="M368.571,185.666h0c.056,1.547.056,1.547-1.279,1.833.3,0,.592,0,.888.01a.956.956,0,0,1,.119.014c.5-.184.581-.469.534-1.23a1.256,1.256,0,0,0-.13-.552.453.453,0,0,0-.131-.13c0,.018,0,.036,0,.054Z" transform="translate(-289.903 -146.503)" fill="#fe6d3b"/>
        <path id="Trazado_266776" data-name="Trazado 266776" d="M367.291,151.064h0c1.33.285,1.33.285,1.285,1.75,0,.028,0,.055-.006.083s0,.034,0,.051a.487.487,0,0,0,.142-.147c.255-1.108.184-1.536-.448-1.757-.028,0-.053.009-.086.01-.3.012-.592.007-.887.01" transform="translate(-289.902 -119.219)" fill="#fe6d3b"/>
        <path id="Trazado_266777" data-name="Trazado 266777" d="M368.593,162.536h0c.051,1.537.051,1.537-1.276,1.829.308,0,.615.007.923.015l.062,0c.526-.185.612-.491.546-1.3a1.154,1.154,0,0,0-.125-.481.458.458,0,0,0-.13-.129c0,.021,0,.043,0,.064Z" transform="translate(-289.923 -128.239)" fill="#fe6d3b"/>
        <path id="Trazado_266778" data-name="Trazado 266778" d="M373.467,312.611a.486.486,0,0,0-.092-.076v.067h0c.063.279-.047.587.059.859.046-.072.091-.144.137-.216a.776.776,0,0,0-.1-.635" transform="translate(-294.704 -246.684)" fill="#fe6d3b"/>
        <path id="Trazado_266779" data-name="Trazado 266779" d="M367.317,174.188h0c1.321.291,1.321.291,1.281,1.747,0,.027,0,.055-.005.082s0,.04,0,.06a.487.487,0,0,0,.142-.148c.256-1.111.188-1.539-.457-1.759l-.038,0c-.307.008-.615.01-.922.015" transform="translate(-289.923 -137.473)" fill="#fe6d3b"/>
        <path id="Trazado_266780" data-name="Trazado 266780" d="M373.331,243.155h0q0,.942,0,1.883l-.013.069a.456.456,0,0,0,.183-.214,2.788,2.788,0,0,0-.018-1.636.469.469,0,0,0-.165-.173l.015.072h0" transform="translate(-294.658 -191.865)" fill="#fe6d3b"/>
        <path id="Trazado_266781" data-name="Trazado 266781" d="M366.838,142.726s-.012.008,0,0" transform="translate(-289.54 -112.653)" fill="#fe6d3b"/>
        <path id="Trazado_266782" data-name="Trazado 266782" d="M373.357,289.461h0q0,.936,0,1.872c0,.025-.006.045-.009.069a.523.523,0,0,0,.185-.227,2.8,2.8,0,0,0-.035-1.629.455.455,0,0,0-.145-.154v.068h0" transform="translate(-294.686 -228.418)" fill="#fe6d3b"/>
        <path id="Trazado_266783" data-name="Trazado 266783" d="M372.783,278.139a4.125,4.125,0,0,1,.119,1.776c0,.01,0,.021,0,.031a.509.509,0,0,0,.168-.189,1.824,1.824,0,0,0-.138-1.613.467.467,0,0,0-.109-.073.628.628,0,0,1-.04.067h0" transform="translate(-294.237 -219.482)" fill="#fe6d3b"/>
        <path id="Trazado_266784" data-name="Trazado 266784" d="M367.259,301.1h0c1.339.279,1.339.279,1.291,1.75,0,.028,0,.055-.006.083s0,.027,0,.04a.511.511,0,0,0,.148-.155c.238-1.071.18-1.5-.4-1.728-.286.142-.742-.114-1.036.009" transform="translate(-289.876 -237.629)" fill="#fe6d3b"/>
        <path id="Trazado_266785" data-name="Trazado 266785" d="M373.332,266.3h0q0,.942,0,1.883c0,.021,0,.043,0,.064a.459.459,0,0,0,.168-.2,2.785,2.785,0,0,0-.018-1.636.47.47,0,0,0-.164-.173l.013.066h0" transform="translate(-294.661 -210.135)" fill="#fe6d3b"/>
        <path id="Trazado_266786" data-name="Trazado 266786" d="M372.818,254.979a2.527,2.527,0,0,1,0,1.753l.015.079a.6.6,0,0,0,.149-.1,1.625,1.625,0,0,0-.02-1.74.481.481,0,0,0-.128-.081c-.005.028-.011.055-.016.083h0" transform="translate(-294.265 -201.188)" fill="#fe6d3b"/>
        <path id="Trazado_266787" data-name="Trazado 266787" d="M372.828,197.012a4.8,4.8,0,0,1,.115,1.815c0,.022,0,.043,0,.065a.494.494,0,0,0,.151-.164,2.074,2.074,0,0,0-.121-1.726.3.3,0,0,0-.089-.1q-.024.055-.056.113h0" transform="translate(-294.273 -155.411)" fill="#fe6d3b"/>
        <path id="Trazado_266788" data-name="Trazado 266788" d="M373.355,220.007h0l0,1.872v.058a.509.509,0,0,0,.159-.173,2.835,2.835,0,0,0,.01-1.624.375.375,0,0,0-.175-.213c0,.026.008.05.01.079h0" transform="translate(-294.681 -173.589)" fill="#fe6d3b"/>
        <path id="Trazado_266789" data-name="Trazado 266789" d="M319.42,58.229h0a1.753,1.753,0,0,1,.122,1.063q.009,12.933.009,25.866a1.853,1.853,0,0,0,.21,1.122l10.994-11a4.2,4.2,0,0,1-.083,1.878c.021.038.039.074.054.109a.316.316,0,0,0,.094-.1.612.612,0,0,0,.123-.216c.124-.6.365-1.371-.173-1.722-.579-.378-.9.437-1.325.742l-.031.021s0,.005-.03.036q-4.631,4.633-9.266,9.261c-.158.157-.265.39-.521.434.259-.215.188-.514.188-.778q.01-12.891,0-25.783c0-.35.066-.744-.313-.985-.019.013-.036.027-.053.04,0,0,0,.008,0,.012Z" transform="translate(-252.117 -45.918)" fill="#fe6d3b"/>
        <path id="Trazado_266790" data-name="Trazado 266790" d="M368.543,208.831h0c.061,1.553.061,1.553-1.285,1.834.3.127.771-.144,1.056.02.442-.177.518-.438.5-1.117a1.384,1.384,0,0,0-.134-.652.485.485,0,0,0-.133-.122c0,.013,0,.025,0,.038Z" transform="translate(-289.876 -164.8)" fill="#fe6d3b"/>
        <path id="Trazado_266791" data-name="Trazado 266791" d="M373.791,315.906c-.046.072-.091.144-.137.216a.572.572,0,0,0,.114.187,1.521,1.521,0,0,1,.022-.4" transform="translate(-294.925 -249.344)" fill="#fe6d3b"/>
        <path id="Trazado_266792" data-name="Trazado 266792" d="M55.88,32.4q2.427-.045,4.854,0a1.174,1.174,0,0,1,.711.208c.018.026.029.052.045.079,1.913-.009,3.826-.026,5.739-.027q13.439,0,26.878.016c.65,0,.858-.2.9-.808a7.464,7.464,0,0,1,5.517-6.519c-4.315.026-8.628.015-12.941.016q-10.366,0-20.733-.006a1.953,1.953,0,0,1-1.281-.19l-.121.059a35.509,35.509,0,0,1-4.109.09,7.383,7.383,0,0,0-7.056,5.774c-.236,1.157-.236,1.157.864,1.492.009.018.016.035.024.052a.927.927,0,0,1,.705-.236" transform="translate(-42.75 -19.867)" fill="#242d3c"/>
        <path id="Trazado_266793" data-name="Trazado 266793" d="M53.982,32.17c-.007-.017-.014-.034-.024-.052-1.1-.336-1.1-.336-.864-1.492a7.383,7.383,0,0,1,7.056-5.774,35.557,35.557,0,0,0,4.109-.09l.121-.059a1,1,0,0,1-.136-.125c-1.424.016-2.849-.01-4.271.056a7.588,7.588,0,0,0-7.128,5.9c-.362,1.572-.34,1.606,1.087,1.69a.664.664,0,0,1,.048-.054" transform="translate(-41.557 -19.398)" fill="#242d3c"/>
        <path id="Trazado_266794" data-name="Trazado 266794" d="M65.24,59.62a1.175,1.175,0,0,0-.711-.208q-2.427-.043-4.853,0a.928.928,0,0,0-.705.236c.008.018.014.036.02.054l6.24,0h.055c-.015-.026-.027-.053-.045-.079" transform="translate(-46.545 -46.876)" fill="#242d3c"/>
        <path id="Trazado_266795" data-name="Trazado 266795" d="M58.809,60.67c-.005-.017-.012-.035-.02-.054a.627.627,0,0,0-.048.054h.068" transform="translate(-46.364 -47.844)" fill="#242d3c"/>
        <path id="Trazado_266796" data-name="Trazado 266796" d="M109.607,24.95q10.366.015,20.733.006c4.313,0,8.626.011,12.941-.016a7.354,7.354,0,0,1,.853-.177h0c-.446-.031-.891-.088-1.337-.088q-16.8-.008-33.6-.005c-.215,0-.429-.009-.643-.019l-.226.11a1.954,1.954,0,0,0,1.281.19" transform="translate(-85.502 -19.456)" fill="#242d3c"/>
        <path id="Trazado_266797" data-name="Trazado 266797" d="M107.818,24.7l.226-.11c-.121-.006-.241-.012-.362-.016a1,1,0,0,0,.136.125" transform="translate(-84.993 -19.398)" fill="#242d3c"/>
        <path id="Trazado_266798" data-name="Trazado 266798" d="M369.783,333.978c0-.124,0-.248,0-.372-.209.072-.464.031-.688.178.205.16.474.118.688.194" transform="translate(-291.326 -263.315)" fill="#33393f"/>
        <path id="Trazado_266799" data-name="Trazado 266799" d="M372.354,333.513a.433.433,0,0,1,.2.133q0-.315,0-.629a.456.456,0,0,1-.195.124c0,.124,0,.248,0,.372" transform="translate(-293.898 -262.849)" fill="#33393f"/>
        <path id="Trazado_266800" data-name="Trazado 266800" d="M367.1,333.291c.009.287.194.289.395.286.239,0,.477-.009.716-.013,0-.045,0-.091,0-.136-.214-.075-.483-.033-.688-.194.225-.148.479-.107.688-.179,0-.042,0-.085,0-.127-.239,0-.478-.006-.717-.018-.277-.014-.4.091-.394.381" transform="translate(-289.75 -262.764)" fill="#33393f"/>
        <path id="Trazado_266801" data-name="Trazado 266801" d="M372.362,333.129a.455.455,0,0,0,.195-.124l-.192,0c0,.042,0,.085,0,.127" transform="translate(-293.905 -262.838)" fill="#33393f"/>
        <path id="Trazado_266802" data-name="Trazado 266802" d="M372.363,335.509l.194,0a.432.432,0,0,0-.2-.133c0,.046,0,.091,0,.136" transform="translate(-293.904 -264.71)" fill="#33393f"/>
        <path id="Trazado_266803" data-name="Trazado 266803" d="M369.775,357.107c0-.123,0-.246,0-.369a2.66,2.66,0,0,0-.682.179c.2.162.469.121.683.19" transform="translate(-291.324 -281.573)" fill="#33393f"/>
        <path id="Trazado_266804" data-name="Trazado 266804" d="M372.32,356.618a.432.432,0,0,1,.2.129v-.629h0a.469.469,0,0,1-.2.131c0,.123,0,.246,0,.369" transform="translate(-293.869 -281.084)" fill="#33393f"/>
        <path id="Trazado_266805" data-name="Trazado 266805" d="M367.1,356.326c-.013.294.121.391.395.377.236-.012.473-.014.71-.017,0-.044,0-.088,0-.132-.213-.07-.479-.028-.682-.19a2.651,2.651,0,0,1,.682-.179c0-.045,0-.09.007-.134l-.713-.013c-.2,0-.383.008-.4.289" transform="translate(-289.748 -281.02)" fill="#33393f"/>
        <path id="Trazado_266806" data-name="Trazado 266806" d="M372.328,356.235a.469.469,0,0,0,.2-.131l-.2,0c0,.045-.005.09-.007.134" transform="translate(-293.878 -281.07)" fill="#33393f"/>
        <path id="Trazado_266807" data-name="Trazado 266807" d="M372.334,358.624l.2,0a.432.432,0,0,0-.2-.129c0,.044,0,.088,0,.132" transform="translate(-293.88 -282.957)" fill="#33393f"/>
        <path id="Trazado_266808" data-name="Trazado 266808" d="M370.241,345.737c0-.075,0-.15,0-.225a2.654,2.654,0,0,1-.567.1c.211.066.409.066.566.127" transform="translate(-291.784 -272.712)" fill="#2a323e"/>
        <path id="Trazado_266809" data-name="Trazado 266809" d="M372.361,344.955c0,.075,0,.15,0,.225a.416.416,0,0,1,.2.154q0-.264,0-.527h0a.476.476,0,0,1-.2.149" transform="translate(-293.904 -272.155)" fill="#2a323e"/>
        <path id="Trazado_266810" data-name="Trazado 266810" d="M373.328,347.309Z" transform="translate(-294.667 -274.131)" fill="#2a323e"/>
        <path id="Trazado_266811" data-name="Trazado 266811" d="M367.127,344.931c0,.278.181.309.39.3.239-.008.477-.02.716-.031,0-.054,0-.108,0-.162-.157-.061-.355-.061-.566-.127a2.668,2.668,0,0,0,.567-.1c0-.052,0-.1,0-.157-.239-.01-.477-.022-.717-.029-.209-.006-.39.023-.389.3" transform="translate(-289.773 -272.015)" fill="#2a323e"/>
        <path id="Trazado_266812" data-name="Trazado 266812" d="M372.365,344.925a.475.475,0,0,0,.2-.149l-.2-.008c0,.052,0,.1,0,.157" transform="translate(-293.907 -272.125)" fill="#2a323e"/>
        <path id="Trazado_266813" data-name="Trazado 266813" d="M372.363,346.579c0,.054,0,.109,0,.163l.2-.009a.417.417,0,0,0-.2-.154" transform="translate(-293.906 -273.554)" fill="#2a323e"/>
        <path id="Trazado_266814" data-name="Trazado 266814" d="M371.814,323.529a.632.632,0,0,1,.124.036c0-.062,0-.123,0-.184a.332.332,0,0,1-.126.148" transform="translate(-293.472 -255.244)" fill="#9f8d53"/>
        <path id="Trazado_266815" data-name="Trazado 266815" d="M372.473,321.614l0,0a.762.762,0,0,1-.063.233c0,.062,0,.123,0,.185a.437.437,0,0,1,.178.126h0a1.146,1.146,0,0,0,.023-.719h0a.281.281,0,0,1-.131.173" transform="translate(-293.938 -253.713)" fill="#9f8d53"/>
        <path id="Trazado_266816" data-name="Trazado 266816" d="M367.2,323.909c.326.336.721.169,1.094.163,0-.038,0-.076,0-.114a.632.632,0,0,0-.124-.036c-.258.152-.7-.132-.971-.013" transform="translate(-289.834 -255.637)" fill="#9f8d53"/>
        <path id="Trazado_266817" data-name="Trazado 266817" d="M372.713,321.617l0,0a.281.281,0,0,0,.131-.173.274.274,0,0,0-.123.048c0,.047-.007.087-.012.127" transform="translate(-294.182 -253.714)" fill="#9f8d53"/>
        <path id="Trazado_266818" data-name="Trazado 266818" d="M372.4,324.37a.938.938,0,0,1,.179.012.438.438,0,0,0-.178-.126c0,.038,0,.076,0,.114" transform="translate(-293.933 -255.935)" fill="#9f8d53"/>
        <path id="Trazado_266819" data-name="Trazado 266819" d="M100.726,97.541a6.625,6.625,0,0,1,.8-.856q17.433-17.436,34.882-34.856a3.122,3.122,0,0,0,.994-2.436q-.049-12.685-.008-25.371c0-.421-.182-.918.241-1.257-.243-.154-.227-.421-.276-.657a7.338,7.338,0,0,0-8.081-6.162,4.427,4.427,0,0,1-.451.022,1.855,1.855,0,0,1-.7.263,7.162,7.162,0,0,0-5.245,6.038c-.172,1.091-.38,1.242-1.681,1.242q-14.225.006-28.45,0c-.9,0-1.791.007-2.686,0a1.7,1.7,0,0,1-.947-.16,3.251,3.251,0,0,1,.157,1.568q.01,28.613.005,57.227c0,1.541,0,3.081,0,4.622a2.122,2.122,0,0,0,.143,1.067c.251.3.6.262.932.262h10.058a1.383,1.383,0,0,0,.128-.055c-.066-.167.066-.342.176-.5m31.135-42.958a10.513,10.513,0,0,0,.958-.933c.125-.118.23-.368.471-.181s.463.387.734.616c-.64.627-1.173,1.155-1.714,1.674-.093.089-.2.045-.291-.047-.32-.337-.871-.615-.158-1.129M125.183,61.3c.84-.858,1.706-1.691,2.534-2.56.306-.321.509-.316.8.007.237.267.454.434.068.792-.879.817-1.706,1.689-2.557,2.537-.115.115-.245.216-.471.413-.21-.26-.414-.485-.588-.732s.1-.341.218-.458M108.86,79.239c-.85.852-1.717,1.687-2.544,2.56-.32.338-.5.272-.789-.026-.265-.279-.417-.451-.051-.794.878-.823,1.707-1.7,2.565-2.54.124-.122.234-.39.463-.243a6.8,6.8,0,0,1,.735.63c-.166.182-.268.3-.379.414m6.594-6.591c-.849.85-1.718,1.682-2.541,2.557-.354.377-.547.257-.862-.039-.343-.323-.265-.509.031-.794.866-.834,1.7-1.7,2.559-2.541.123-.121.232-.366.473-.185s.474.384.722.587c-.194.212-.284.317-.381.414m3.171-4.8c.841-.857,1.711-1.687,2.536-2.559.328-.347.518-.25.8.036s.407.449.043.79c-.877.819-1.7,1.692-2.555,2.539-.115.115-.252.207-.431.353a7.518,7.518,0,0,1-.624-.7c-.167-.241.118-.336.235-.455M95.769,92.327c-.331.335-.689.648-.992,1.007s-.52.422-.9.033c-.36-.373-.272-.565.054-.849.354-.31.666-.667,1.009-.99.124-.117.227-.366.469-.185s.476.382.724.584c-.184.2-.272.3-.367.4m.9-38.417c-.6.01-.83-.112-.825-.777q.046-6.176,0-12.353c0-.6.187-.753.764-.75q6.134.032,12.269,0c.618,0,.825.159.807.8-.042,1.565-.006,3.131,0,4.7h.014v.008c5.242-.2,9.479,5.3,8.107,10.362a8.579,8.579,0,0,1-9.1,6.325,8.458,8.458,0,0,1-7.421-8.273h-.008s0-.008,0-.012c-1.537-.013-3.075-.052-4.611-.026m2.58,34.878c-.182-.243-.364-.484-.544-.727s.056-.348.177-.471c.881-.89,1.784-1.759,2.649-2.664.352-.369.511-.092.72.121s.486.352.11.706c-.91.859-1.776,1.766-2.661,2.651-.1.1-.209.179-.451.384" transform="translate(-70.345 -20.462)" fill="#fefefe"/>
        <path id="Trazado_266820" data-name="Trazado 266820" d="M100.068,125.669H90.01c-.334,0-.681.04-.932-.262a2.125,2.125,0,0,1-.144-1.067c-.005-1.541,0-3.081,0-4.622q0-28.613-.005-57.227a3.251,3.251,0,0,0-.157-1.568.825.825,0,0,1-.094-.067q0,32.092,0,64.184c0,.224.01.448.015.672q5.468.016,10.936.036a1.261,1.261,0,0,0,.443-.078" transform="translate(-69.991 -48.034)" fill="#fefefe"/>
        <path id="Trazado_266821" data-name="Trazado 266821" d="M180.138,59.652q-.021,12.685.008,25.371a3.123,3.123,0,0,1-.994,2.436q-17.464,17.405-34.882,34.856a6.624,6.624,0,0,0-.8.855c-.11.158-.242.334-.176.5.021-.011.043-.019.064-.031h0c.226-.247.442-.5.679-.741q17.8-17.805,35.613-35.6a2.342,2.342,0,0,0,.749-1.835c-.025-9.022-.012-18.044-.009-27.067l-.009-.007c-.423.339-.241.836-.241,1.257" transform="translate(-113.085 -46.091)" fill="#fefefe"/>
        <path id="Trazado_266822" data-name="Trazado 266822" d="M278.031,25.084a7.337,7.337,0,0,1,8.081,6.162c.049.236.032.5.276.657l.008-.006a7.531,7.531,0,0,0-8.669-6.991.58.58,0,0,1-.146.2c.151,0,.3-.012.451-.022" transform="translate(-219.094 -19.599)" fill="#fefefe"/>
        <path id="Trazado_266823" data-name="Trazado 266823" d="M319.391,58.38h0s0-.008,0-.012l-.008.006.009.007" transform="translate(-252.088 -46.069)" fill="#fefefe"/>
        <path id="Trazado_266824" data-name="Trazado 266824" d="M92.611,33.587q14.225,0,28.45,0c1.3,0,1.508-.151,1.681-1.242a7.162,7.162,0,0,1,5.245-6.038,1.859,1.859,0,0,0,.7-.264,1.09,1.09,0,0,1-.217-.025l-.491,0a7.464,7.464,0,0,0-5.517,6.519c-.047.611-.255.81-.9.808q-13.439-.038-26.878-.016c-1.913,0-3.826.017-5.739.027.013.022.027.045.039.067a1.7,1.7,0,0,0,.947.16c.9.01,1.79,0,2.686,0" transform="translate(-70.2 -20.534)" fill="#fefefe"/>
        <path id="Trazado_266825" data-name="Trazado 266825" d="M88.734,60.855h-.055a.848.848,0,0,0,.093.067c-.012-.023-.025-.045-.038-.067" transform="translate(-69.994 -48.033)" fill="#fefefe"/>
        <path id="Trazado_266826" data-name="Trazado 266826" d="M274.93,25.386a.581.581,0,0,0,.146-.2h0a7.348,7.348,0,0,0-.853.177l.491,0a1.091,1.091,0,0,0,.217.025" transform="translate(-216.444 -19.879)" fill="#fefefe"/>
        <path id="Trazado_266827" data-name="Trazado 266827" d="M47.857,168.422l.007.024.013-.014-.02-.01" transform="translate(-37.773 -132.935)" fill="#fed45c"/>
        <path id="Trazado_266828" data-name="Trazado 266828" d="M34.437,199.864h0c.511.308.394.826.4,1.28.016,2.788.006,5.575.008,8.363,0,1.472,0,1.472,1.446,1.509a2.5,2.5,0,0,1,.826.1.589.589,0,0,1,.167.11q0-21.411-.008-42.822l-2.364-.034c-.019.11-.04.22-.055.331q-.007,14.736,0,29.468a3.3,3.3,0,0,1-.173,1.566.561.561,0,0,1-.235.119l0,.006h0" transform="translate(-27.181 -132.897)" fill="#fed45c"/>
        <path id="Trazado_266829" data-name="Trazado 266829" d="M34.865,198.157q.01-14.733,0-29.468c.015-.111.036-.221.055-.331l-.292,0h0c-.012.391-.034.781-.034,1.172q0,14.636-.007,29.271c0,.349.119.725-.133,1.045a.564.564,0,0,0,.235-.119,3.3,3.3,0,0,0,.173-1.566" transform="translate(-27.197 -132.882)" fill="#fed45c"/>
        <path id="Trazado_266830" data-name="Trazado 266830" d="M37.114,329.085a2.509,2.509,0,0,0-.826-.1c-1.444-.038-1.445-.038-1.446-1.509,0-2.788.008-5.576-.008-8.363,0-.453.114-.972-.4-1.28a1.753,1.753,0,0,1,.143.977c0,2.627-.015,5.255.01,7.882.008.826-.376,1.938.173,2.4.569.483,1.657.133,2.518.122V329.2a.585.585,0,0,0-.167-.11" transform="translate(-27.182 -250.864)" fill="#fed45c"/>
        <path id="Trazado_266831" data-name="Trazado 266831" d="M47.954,168.4l.044.021a2.054,2.054,0,0,1,.214,1.221q.006,20.209,0,40.418a1.616,1.616,0,0,1-.252,1.186.639.639,0,0,1,.049.05l.865-.019c0-.026,0-.051,0-.077-.049-1.726-.02-3.451-.014-5.177a1.146,1.146,0,0,1,.219-.849,1.116,1.116,0,0,1-.166-.387,3.878,3.878,0,0,1-.064-.838c0-11.762-.017-23.524.007-35.284,0-.094,0-.185-.009-.277l-.871,0-.018.019" transform="translate(-37.85 -132.899)" fill="#feb633"/>
        <path id="Trazado_266832" data-name="Trazado 266832" d="M52.173,168.677c-.024,11.76,0,23.522-.007,35.284a3.893,3.893,0,0,0,.064.838,1.116,1.116,0,0,0,.166.387.708.708,0,0,1,.072-.069c-.009-2.744-.022-5.489-.024-8.233q-.013-14.242-.019-28.483h-.262c.006.092.012.184.009.277" transform="translate(-41.17 -132.918)" fill="#feb633"/>
        <path id="Trazado_266833" data-name="Trazado 266833" d="M52.191,343.842c-.006,1.725-.035,3.451.014,5.177,0,.026,0,.051,0,.077l.236-.005q.021-3,.041-6c-.025-.033-.049-.066-.071-.1a1.146,1.146,0,0,0-.219.849" transform="translate(-41.183 -270.724)" fill="#feb633"/>
        <path id="Trazado_266834" data-name="Trazado 266834" d="M47.882,371.812l-.009.012-.015.039h.073a.6.6,0,0,0-.049-.05" transform="translate(-37.774 -293.471)" fill="#feb633"/>
        <path id="Trazado_266835" data-name="Trazado 266835" d="M53.351,342.835c0-.057,0-.113,0-.17a.728.728,0,0,0-.072.069c.023.035.046.068.071.1" transform="translate(-42.054 -270.465)" fill="#feb633"/>
        <path id="Trazado_266836" data-name="Trazado 266836" d="M48.161,210.126q.009-20.209,0-40.418a2.054,2.054,0,0,0-.214-1.221l-.044-.021-.013.014q0,21.41.008,42.822l.009.009a1.616,1.616,0,0,0,.252-1.186" transform="translate(-37.801 -132.971)" fill="#feb633"/>
        <path id="Trazado_266837" data-name="Trazado 266837" d="M47.93,371.768v.021l.009-.012-.009-.009" transform="translate(-37.831 -293.436)" fill="#feb633"/>
        <path id="Trazado_266838" data-name="Trazado 266838" d="M143.353,368.389h.03l-.013-.019-.017.019" transform="translate(-113.148 -290.754)" fill="#febe79"/>
        <path id="Trazado_266839" data-name="Trazado 266839" d="M137,368.613q-18.278-.007-36.553-.007a.5.5,0,0,1-.166-.145h-.03a.655.655,0,0,1-.517.153q-5.344,0-10.687,0a.4.4,0,0,1-.3-.11c.213.349.558.188.838.189q23.515.013,47.03,0c.3,0,.621.1.882-.149a.977.977,0,0,1-.493.065" transform="translate(-70.047 -290.827)" fill="#febe79"/>
        <path id="Trazado_266840" data-name="Trazado 266840" d="M143.485,368.056a.51.51,0,0,1-.048.066l.013.019h.153A.7.7,0,0,1,143.485,368.056Z" transform="translate(-113.215 -290.506)" fill="#febe79"/>
        <path id="Trazado_266841" data-name="Trazado 266841" d="M179.618,368.534q-17.52,0-35.04-.007a1.751,1.751,0,0,1-.928-.064H143.5a.505.505,0,0,0,.166.145q18.274.027,36.553.007a.977.977,0,0,0,.493-.065h0c-.364-.005-.728-.015-1.092-.015" transform="translate(-113.262 -290.827)" fill="#febe79"/>
        <path id="Trazado_266842" data-name="Trazado 266842" d="M142.894,368.237a.261.261,0,0,1-.017-.036,1.33,1.33,0,0,1-.128.055h.127l.017-.019" transform="translate(-112.672 -290.621)" fill="#febe79"/>
        <path id="Trazado_266843" data-name="Trazado 266843" d="M99.734,368.615a.655.655,0,0,0,.517-.153h-.127a1.26,1.26,0,0,1-.442.078q-5.468-.023-10.936-.036a.4.4,0,0,0,.3.11q5.343,0,10.687,0" transform="translate(-70.046 -290.827)" fill="#febe79"/>
        <path id="Trazado_266844" data-name="Trazado 266844" d="M143.357,368.087a.274.274,0,0,0,.017.036.509.509,0,0,0,.048-.066h0c-.021.012-.043.02-.065.031" transform="translate(-113.152 -290.506)" fill="#febe79"/>
        <path id="Trazado_266845" data-name="Trazado 266845" d="M39.1,153.925l0-.01q-.251-1.913-.5-3.827l-.757-.033c-.011.05-.02.1-.028.15a37.016,37.016,0,0,0-1.048,3.6,3.112,3.112,0,0,1,2.339.118" transform="translate(-29.012 -118.438)" fill="#fefdfd"/>
        <path id="Trazado_266846" data-name="Trazado 266846" d="M36.645,150.169c.008-.05.017-.1.028-.15l-.217-.009-1.169,3.865h0c.1-.038.206-.072.31-.1a37.075,37.075,0,0,1,1.048-3.6" transform="translate(-27.852 -118.402)" fill="#fefdfd"/>
        <path id="Trazado_266847" data-name="Trazado 266847" d="M36.69,167.221c-.007.036-.012.072-.018.108l2.364.034-.007-.024a3.112,3.112,0,0,0-2.339-.118" transform="translate(-28.945 -131.852)" fill="#fefdfd"/>
        <path id="Trazado_266848" data-name="Trazado 266848" d="M35.6,167.863q-.155.046-.31.1l.292,0c.006-.036.011-.072.018-.108" transform="translate(-27.853 -132.494)" fill="#fefdfd"/>
        <path id="Trazado_266849" data-name="Trazado 266849" d="M46.39,152.585c.078.433.263.924-.06,1.361h.041l.066-.07a1.046,1.046,0,0,1,.794-.071,19.416,19.416,0,0,0-.639-2.289c-.108-.454-.275-.9-.4-1.347-.006-.025-.013-.05-.02-.075l-.249.018c.519.747.316,1.649.465,2.473" transform="translate(-36.249 -118.47)" fill="#cdcac9"/>
        <path id="Trazado_266850" data-name="Trazado 266850" d="M47.128,150.129c.122.452.289.893.4,1.347a19.478,19.478,0,0,1,.638,2.289,1,1,0,0,1,.274.148h0a25.691,25.691,0,0,0-1.178-3.869l-.151.011c.006.025.014.05.02.075" transform="translate(-37.182 -118.43)" fill="#cdcac9"/>
        <path id="Trazado_266851" data-name="Trazado 266851" d="M48.1,167.593l-.066.07.871.005c0-.049-.007-.1-.012-.146a1.046,1.046,0,0,0-.794.071" transform="translate(-37.917 -132.186)" fill="#cdcac9"/>
        <path id="Trazado_266852" data-name="Trazado 266852" d="M52.129,167.852h.262a1.007,1.007,0,0,0-.274-.148c.005.048.009.1.012.146" transform="translate(-41.136 -132.37)" fill="#cdcac9"/>
        <path id="Trazado_266853" data-name="Trazado 266853" d="M46.021,152.652c-.149-.824.055-1.726-.465-2.473l-.1.007.5,3.827c.323-.437.138-.928.06-1.361" transform="translate(-35.88 -118.536)" fill="#cdcac9"/>
        <path id="Trazado_266854" data-name="Trazado 266854" d="M42.778,142.224l.017.025a.3.3,0,0,1,.26-.059,14.192,14.192,0,0,1-.545-1.983c0-.043-.189.053-.077.047a.13.13,0,0,1,0,.021,5.471,5.471,0,0,1-.43,1.871.859.859,0,0,1,.773.079" transform="translate(-33.155 -110.656)" fill="#2a313f"/>
        <path id="Trazado_266855" data-name="Trazado 266855" d="M41.08,140.761a5.472,5.472,0,0,0,.43-1.871.13.13,0,0,0,0-.021c-.112.006.078-.089.077-.047a14.191,14.191,0,0,0,.545,1.983.512.512,0,0,1,.176.081,11.86,11.86,0,0,0-.735-2.445l-.739,2.437h0a1.4,1.4,0,0,1,.247-.118" transform="translate(-32.229 -109.272)" fill="#2a313f"/>
        <path id="Trazado_266856" data-name="Trazado 266856" d="M42.683,149.338c-.006-.008-.011-.017-.017-.025a.859.859,0,0,0-.773-.079q-.016.064-.03.128l.757.033a.489.489,0,0,1,.063-.058" transform="translate(-33.042 -117.745)" fill="#2a313f"/>
        <path id="Trazado_266857" data-name="Trazado 266857" d="M41.081,149.449a1.4,1.4,0,0,0-.247.118l.217.009q.014-.064.03-.128" transform="translate(-32.23 -117.96)" fill="#2a313f"/>
        <path id="Trazado_266858" data-name="Trazado 266858" d="M45.757,149.687c.012.017.024.034.035.051l.249-.018-.024-.092a.3.3,0,0,0-.26.059" transform="translate(-36.116 -118.095)" fill="#2a313f"/>
        <path id="Trazado_266859" data-name="Trazado 266859" d="M47.016,149.751l.151-.011a.521.521,0,0,0-.176-.081c.008.031.017.061.024.092" transform="translate(-37.091 -118.126)" fill="#2a313f"/>
        <path id="Trazado_266860" data-name="Trazado 266860" d="M45.521,149.94a.489.489,0,0,0-.063.058l.1-.007c-.012-.017-.023-.034-.035-.051" transform="translate(-35.88 -118.347)" fill="#2a313f"/>
        <path id="Trazado_266861" data-name="Trazado 266861" d="M38.784,382.316c-.515.405-1.123.237-1.692.244-.605.007-.862.245-.836.851a9.03,9.03,0,0,0,.134,1.91c.029.077.062.15.1.22a2.086,2.086,0,0,0,2.21-2.392c-.016-.871.52-.657.957-.641v-.069c0-.037,0-.073-.005-.11l-.861-.017v0" transform="translate(-28.616 -301.758)" fill="#fe6d3c"/>
        <path id="Trazado_266862" data-name="Trazado 266862" d="M52.357,382.5v.069a.788.788,0,0,0,.22-.017h0a.173.173,0,0,0,.005-.157l-.232,0c0,.036,0,.073.005.11" transform="translate(-41.321 -301.822)" fill="#fe6d3c"/>
        <path id="Trazado_266863" data-name="Trazado 266863" d="M35.437,385.314a9.016,9.016,0,0,1-.134-1.91c-.025-.606.231-.844.836-.851.568-.007,1.177.161,1.692-.244v0l-.086,0-2.158.056c-.248.007-.539-.03-.52.351a9.089,9.089,0,0,0,.176,2.8c.1.011.2.017.288.019-.034-.07-.067-.142-.1-.22" transform="translate(-27.662 -301.752)" fill="#fe6d3c"/>
        <path id="Trazado_266864" data-name="Trazado 266864" d="M39.851,384.837a1.9,1.9,0,0,1-2.289,1.771,1.523,1.523,0,0,0,1.625.864,1.707,1.707,0,0,0,1.494-1.636c.039-.759.018-1.521,0-2.283a1.487,1.487,0,0,0-.835,1.284" transform="translate(-29.648 -302.738)" fill="#e54718"/>
        <path id="Trazado_266865" data-name="Trazado 266865" d="M39.436,385.524a1.707,1.707,0,0,1-1.494,1.636,1.522,1.522,0,0,1-1.625-.864,2.067,2.067,0,0,1-.332-.107,1.907,1.907,0,0,0,3.683-.6c.035-.808,0-1.62-.008-2.43h0a1.892,1.892,0,0,0-.22.083c.013.762.034,1.523,0,2.283" transform="translate(-28.403 -302.426)" fill="#e54718"/>
        <path id="Trazado_266866" data-name="Trazado 266866" d="M39.564,383.752a2.085,2.085,0,0,1-2.21,2.392c.014.03.029.06.044.088a1.9,1.9,0,0,0,2.289-1.771,1.487,1.487,0,0,1,.835-1.284c0-.022,0-.044,0-.066-.437-.016-.973-.23-.957.641" transform="translate(-29.483 -302.362)" fill="#e54718"/>
        <path id="Trazado_266867" data-name="Trazado 266867" d="M52.383,383.175c0,.022,0,.044,0,.066a1.854,1.854,0,0,1,.22-.083.8.8,0,0,1-.221.017" transform="translate(-41.346 -302.426)" fill="#e54718"/>
        <path id="Trazado_266868" data-name="Trazado 266868" d="M36.273,397.564c-.094,0-.189-.008-.288-.019a2.089,2.089,0,0,0,.332.107c-.015-.028-.029-.059-.044-.088" transform="translate(-28.403 -313.782)" fill="#e54718"/>
        <path id="Trazado_266869" data-name="Trazado 266869" d="M48.37,372.373a3.147,3.147,0,0,1,0,2.026.856.856,0,0,1,.832-.058c0-.01,0-.019,0-.029-.007-.629-.011-1.256,0-1.884a.852.852,0,0,1-.827-.055" transform="translate(-38.178 -293.914)" fill="#d8d7d6"/>
        <path id="Trazado_266870" data-name="Trazado 266870" d="M52.283,372.082c-.009.628,0,1.255,0,1.884,0,.01,0,.019,0,.029a1.16,1.16,0,0,1,.239.147l-.006-2.208a1.145,1.145,0,0,1-.237.148" transform="translate(-41.263 -293.567)" fill="#d8d7d6"/>
        <path id="Trazado_266871" data-name="Trazado 266871" d="M47.967,372.122c-.036-.021-.073-.042-.109-.067h0v2.16c.036-.025.072-.046.108-.067a3.147,3.147,0,0,0,0-2.026" transform="translate(-37.774 -293.663)" fill="#d8d7d6"/>
        <path id="Trazado_266872" data-name="Trazado 266872" d="M48.227,372c0,.015.008.03.013.045a.852.852,0,0,0,.827.055c0-.047,0-.1,0-.142l-.865.019c.007.009.016.015.023.024" transform="translate(-38.047 -293.587)" fill="#d8d7d6"/>
        <path id="Trazado_266873" data-name="Trazado 266873" d="M52.3,372.082a1.145,1.145,0,0,0,.237-.148l-.236.005c0,.047,0,.095,0,.142" transform="translate(-41.282 -293.567)" fill="#d8d7d6"/>
        <path id="Trazado_266874" data-name="Trazado 266874" d="M47.967,372.116c0-.015-.008-.03-.013-.045s-.016-.015-.023-.024h-.073c.036.025.073.046.109.067" transform="translate(-37.774 -293.657)" fill="#d8d7d6"/>
        <path id="Trazado_266875" data-name="Trazado 266875" d="M48.288,381.465c-.008.023-.013.046-.022.068l.861.017q0-.071-.007-.143a.856.856,0,0,0-.832.058" transform="translate(-38.096 -300.98)" fill="#d8d7d6"/>
        <path id="Trazado_266876" data-name="Trazado 266876" d="M47.944,382.057c.008-.023.014-.046.022-.068-.036.021-.072.041-.108.067l.086,0" transform="translate(-37.774 -301.504)" fill="#d8d7d6"/>
        <path id="Trazado_266877" data-name="Trazado 266877" d="M52.326,381.858l.232,0a1.16,1.16,0,0,0-.239-.147q0,.071.007.143" transform="translate(-41.295 -301.287)" fill="#d8d7d6"/>
        <path id="Trazado_266878" data-name="Trazado 266878" d="M246.416,242.407l-19.379,19.382c.15.012.28.032.41.032,6.109,0,12.218-.007,18.327.014.622,0,.732-.234.73-.786-.016-6.025-.009-12.05-.015-18.075,0-.2.112-.448-.073-.566" transform="translate(-179.2 -191.332)" fill="#fefefe"/>
        <path id="Trazado_266879" data-name="Trazado 266879" d="M323.753,223.048c-1.221,1.2-2.432,2.39-3.633,3.587-.2.2-.127.477-.127.725,0,6.136,0,12.272-.012,18.408,0,.564.128.817.742.777a14.7,14.7,0,0,1,2.184,0c.758.063,1-.171.992-.964-.031-7.257-.017-14.513-.023-21.77,0-.236.089-.494-.123-.764" transform="translate(-252.561 -176.052)" fill="#fe6d3b"/>
        <path id="Trazado_266880" data-name="Trazado 266880" d="M370.04,206.98a.433.433,0,0,1-.013-.45c-.235.117-.55.064-.816.225.264.155.588.1.829.226" transform="translate(-291.418 -163.014)" fill="#35393e"/>
        <path id="Trazado_266881" data-name="Trazado 266881" d="M367.541,206.3c.266-.161.581-.108.816-.225a.74.74,0,0,1,.061-.1c-.306-.007-.612-.018-.918-.02-.2,0-.4-.018-.4.279s.123.4.4.383c.305-.017.612-.019.918-.028a.648.648,0,0,1-.044-.064c-.242-.126-.565-.071-.829-.226" transform="translate(-289.748 -162.562)" fill="#35393e"/>
        <path id="Trazado_266882" data-name="Trazado 266882" d="M372.885,206.849l.044.026q0-.256,0-.512a.5.5,0,0,1-.061.035.433.433,0,0,0,.013.45" transform="translate(-294.262 -162.882)" fill="#35393e"/>
        <path id="Trazado_266883" data-name="Trazado 266883" d="M373.086,206.154a.491.491,0,0,0,.061-.035c0-.022,0-.043,0-.065a.734.734,0,0,0-.061.1" transform="translate(-294.476 -162.637)" fill="#35393e"/>
        <path id="Trazado_266884" data-name="Trazado 266884" d="M373.19,208.732h0c0-.013,0-.025,0-.038l-.044-.026a.645.645,0,0,0,.044.064" transform="translate(-294.524 -164.701)" fill="#35393e"/>
        <path id="Trazado_266885" data-name="Trazado 266885" d="M370.034,230.1a.434.434,0,0,1-.013-.456c-.226.118-.529.087-.822.209.267.175.6.124.835.247" transform="translate(-291.408 -181.258)" fill="#383b3e"/>
        <path id="Trazado_266886" data-name="Trazado 266886" d="M367.537,229.414c.293-.123.6-.091.822-.209a.743.743,0,0,1,.059-.1c-.306-.008-.611-.02-.916-.021-.192,0-.4-.024-.408.275s.125.4.4.384c.3-.016.61-.019.916-.028a.639.639,0,0,1-.039-.059c-.236-.123-.568-.071-.835-.247" transform="translate(-289.746 -180.818)" fill="#383b3e"/>
        <path id="Trazado_266887" data-name="Trazado 266887" d="M372.893,229.959l.04.023q0-.259.006-.517a.532.532,0,0,1-.058.037.434.434,0,0,0,.013.456" transform="translate(-294.268 -181.117)" fill="#383b3e"/>
        <path id="Trazado_266888" data-name="Trazado 266888" d="M373.1,229.285a.532.532,0,0,0,.058-.038v-.058a.734.734,0,0,0-.059.1" transform="translate(-294.487 -180.899)" fill="#383b3e"/>
        <path id="Trazado_266889" data-name="Trazado 266889" d="M373.2,231.867h0c0-.012,0-.023,0-.035a.448.448,0,0,0-.04-.023.668.668,0,0,0,.039.059" transform="translate(-294.535 -182.966)" fill="#383b3e"/>
        <path id="Trazado_266890" data-name="Trazado 266890" d="M370.134,183.823a.429.429,0,0,1,0-.437c-.237.116-.549.054-.788.212.227.186.547.111.788.225" transform="translate(-291.524 -144.746)" fill="#34393e"/>
        <path id="Trazado_266891" data-name="Trazado 266891" d="M367.572,183.169c.239-.158.552-.1.788-.212a.734.734,0,0,1,.06-.095c-.306-.007-.612-.015-.918-.019-.2,0-.39,0-.4.285s.129.392.4.378c.305-.016.611-.018.917-.025a.643.643,0,0,1-.058-.087c-.241-.114-.561-.039-.788-.225" transform="translate(-289.75 -144.317)" fill="#34393e"/>
        <path id="Trazado_266892" data-name="Trazado 266892" d="M372.863,183.693a.512.512,0,0,1,.058.033q0-.252,0-.5a.494.494,0,0,1-.059.035.429.429,0,0,0,0,.437" transform="translate(-294.254 -144.617)" fill="#34393e"/>
        <path id="Trazado_266893" data-name="Trazado 266893" d="M373.144,185.544h0c0-.018,0-.036,0-.054a.519.519,0,0,0-.058-.033.651.651,0,0,0,.058.087" transform="translate(-294.476 -146.381)" fill="#34393e"/>
        <path id="Trazado_266894" data-name="Trazado 266894" d="M373.149,182.935h0a.712.712,0,0,0-.06.095.468.468,0,0,0,.059-.035C373.148,182.975,373.149,182.955,373.149,182.935Z" transform="translate(-294.479 -144.39)" fill="#34393e"/>
        <path id="Trazado_266895" data-name="Trazado 266895" d="M370.064,287.533a.433.433,0,0,1,.018-.453c-.225.125-.534.088-.825.221.252.169.572.122.807.233" transform="translate(-291.454 -226.592)" fill="#383b3e"/>
        <path id="Trazado_266896" data-name="Trazado 266896" d="M367.55,286.986c.291-.133.6-.1.825-.221a.624.624,0,0,1,.037-.055c-.305-.009-.611-.012-.916-.028-.277-.015-.41.092-.4.384s.216.276.407.275c.306,0,.611-.013.916-.021a.731.731,0,0,1-.062-.1c-.234-.111-.555-.064-.807-.233" transform="translate(-289.747 -226.277)" fill="#383b3e"/>
        <path id="Trazado_266897" data-name="Trazado 266897" d="M372.878,287.447a.533.533,0,0,1,.061.034l-.006-.511c-.012.008-.024.016-.037.023a.433.433,0,0,0-.018.453" transform="translate(-294.269 -226.505)" fill="#383b3e"/>
        <path id="Trazado_266898" data-name="Trazado 266898" d="M373.147,289.333h0v-.068a.525.525,0,0,0-.061-.034.725.725,0,0,0,.062.1" transform="translate(-294.476 -228.29)" fill="#383b3e"/>
        <path id="Trazado_266899" data-name="Trazado 266899" d="M373.173,286.875l.037-.023c0-.011,0-.021,0-.032a.6.6,0,0,0-.037.055" transform="translate(-294.545 -226.387)" fill="#383b3e"/>
        <path id="Trazado_266900" data-name="Trazado 266900" d="M369.936,310.7a.433.433,0,0,1,.01-.45c-.236.126-.555.074-.852.228.279.161.6.1.842.222" transform="translate(-291.326 -244.88)" fill="#35393e"/>
        <path id="Trazado_266901" data-name="Trazado 266901" d="M367.516,310.118c.3-.154.616-.1.852-.228a.634.634,0,0,1,.046-.067c-.306-.009-.612-.011-.918-.028-.278-.015-.409.09-.4.383s.209.281.4.279c.306,0,.612-.013.918-.02a.766.766,0,0,1-.06-.1c-.243-.118-.564-.061-.842-.222" transform="translate(-289.748 -244.52)" fill="#35393e"/>
        <path id="Trazado_266902" data-name="Trazado 266902" d="M372.873,310.6a.508.508,0,0,1,.06.031q0-.254,0-.508a.53.53,0,0,1-.046.027.433.433,0,0,0-.01.45" transform="translate(-294.262 -244.779)" fill="#35393e"/>
        <path id="Trazado_266903" data-name="Trazado 266903" d="M373.138,310c.016-.008.031-.017.046-.027,0-.013,0-.027,0-.04a.634.634,0,0,0-.046.067" transform="translate(-294.517 -244.629)" fill="#35393e"/>
        <path id="Trazado_266904" data-name="Trazado 266904" d="M373.151,312.485h0c0-.022,0-.044,0-.067a.539.539,0,0,0-.06-.031.765.765,0,0,0,.06.1" transform="translate(-294.48 -246.567)" fill="#35393e"/>
        <path id="Trazado_266905" data-name="Trazado 266905" d="M370.129,160.672a.429.429,0,0,1,0-.437c-.237.117-.552.054-.791.214.227.184.547.11.788.223" transform="translate(-291.52 -126.473)" fill="#34393e"/>
        <path id="Trazado_266906" data-name="Trazado 266906" d="M367.57,160.037c.239-.16.553-.1.791-.214a.641.641,0,0,1,.056-.083c-.306-.008-.612-.01-.917-.025-.273-.014-.416.078-.4.378s.2.288.4.285c.306,0,.612-.013.918-.019a.708.708,0,0,1-.062-.1c-.241-.113-.561-.039-.788-.223" transform="translate(-289.749 -126.062)" fill="#34393e"/>
        <path id="Trazado_266907" data-name="Trazado 266907" d="M372.862,160.549a.494.494,0,0,1,.062.035q0-.252,0-.5a.5.5,0,0,1-.056.033.429.429,0,0,0,0,.437" transform="translate(-294.253 -126.351)" fill="#34393e"/>
        <path id="Trazado_266908" data-name="Trazado 266908" d="M373.1,159.924a.471.471,0,0,0,.056-.032c0-.017,0-.034,0-.051a.662.662,0,0,0-.056.083" transform="translate(-294.484 -126.162)" fill="#34393e"/>
        <path id="Trazado_266909" data-name="Trazado 266909" d="M373.141,162.407h0c0-.021,0-.043,0-.064a.479.479,0,0,0-.062-.035.72.72,0,0,0,.062.1" transform="translate(-294.471 -128.11)" fill="#34393e"/>
        <path id="Trazado_266910" data-name="Trazado 266910" d="M369.99,241.387a.522.522,0,0,1-.09-.414,4.947,4.947,0,0,0-.727.183c.253.166.577.119.817.231" transform="translate(-291.388 -190.2)" fill="#242d3c"/>
        <path id="Trazado_266911" data-name="Trazado 266911" d="M367.6,240.778a5.02,5.02,0,0,1,.728-.183.516.516,0,0,1,.033-.1,3.211,3.211,0,0,0-.5.011c-.259.044-.693-.186-.679.346.013.479.409.247.64.28a3.614,3.614,0,0,0,.668-.024c-.026-.034-.049-.068-.071-.1-.24-.112-.564-.064-.817-.231" transform="translate(-289.812 -189.822)" fill="#242d3c"/>
        <path id="Trazado_266912" data-name="Trazado 266912" d="M372.666,241.306a.52.52,0,0,1,.056.031l-.1-.466c-.016.007-.032.016-.049.022a.522.522,0,0,0,.09.414" transform="translate(-294.064 -190.118)" fill="#242d3c"/>
        <path id="Trazado_266913" data-name="Trazado 266913" d="M372.625,240.611c.017-.006.032-.015.049-.022l-.015-.075a.511.511,0,0,0-.033.1" transform="translate(-294.113 -189.838)" fill="#242d3c"/>
        <path id="Trazado_266914" data-name="Trazado 266914" d="M373.121,243.039h0l-.015-.072a.535.535,0,0,0-.056-.031c.022.035.045.069.071.1" transform="translate(-294.448 -191.75)" fill="#242d3c"/>
        <path id="Trazado_266915" data-name="Trazado 266915" d="M370.071,253.236a.5.5,0,0,1,.092-.413c-.236.107-.554.052-.773.227.209.149.465.113.681.186" transform="translate(-291.559 -199.553)" fill="#242d3c"/>
        <path id="Trazado_266916" data-name="Trazado 266916" d="M367.835,252.426c.219-.175.538-.12.773-.227.021-.033.043-.065.067-.1a.206.206,0,0,0-.081-.008c-.4.134-1.162-.385-1.175.314-.011.6.749.169,1.137.312h0a.47.47,0,0,1-.041-.106c-.216-.073-.473-.037-.681-.186" transform="translate(-290.005 -198.929)" fill="#242d3c"/>
        <path id="Trazado_266917" data-name="Trazado 266917" d="M372.57,253.129a.586.586,0,0,1,.057.024q.044-.233.089-.465a.51.51,0,0,1-.054.028.5.5,0,0,0-.092.413" transform="translate(-294.058 -199.446)" fill="#242d3c"/>
        <path id="Trazado_266918" data-name="Trazado 266918" d="M373.059,252.458a.517.517,0,0,0,.054-.029l.013-.069c-.024.032-.046.065-.067.1" transform="translate(-294.455 -199.188)" fill="#242d3c"/>
        <path id="Trazado_266919" data-name="Trazado 266919" d="M372.664,254.889l.016-.083a.582.582,0,0,0-.057-.024.478.478,0,0,0,.041.106" transform="translate(-294.111 -201.1)" fill="#242d3c"/>
        <path id="Trazado_266920" data-name="Trazado 266920" d="M369.884,264.526a.5.5,0,0,1-.092-.417c-.214.079-.473.07-.756.167.275.181.607.135.848.25" transform="translate(-291.28 -208.461)" fill="#242d3c"/>
        <path id="Trazado_266921" data-name="Trazado 266921" d="M367.529,263.885c.283-.1.542-.087.756-.167a.49.49,0,0,1,.041-.1l-.736.006c-.22,0-.444-.02-.462.307-.022.41.271.329.5.331.272,0,.544-.017.817-.027-.024-.032-.046-.064-.067-.1-.241-.115-.573-.069-.848-.25" transform="translate(-289.773 -208.07)" fill="#242d3c"/>
        <path id="Trazado_266922" data-name="Trazado 266922" d="M372.661,264.43a.486.486,0,0,1,.054.03q-.045-.236-.09-.473c-.019.009-.037.018-.056.025a.5.5,0,0,0,.092.417" transform="translate(-294.057 -208.365)" fill="#242d3c"/>
        <path id="Trazado_266923" data-name="Trazado 266923" d="M372.625,263.718c.019-.007.037-.017.056-.026l-.015-.079a.5.5,0,0,0-.041.1" transform="translate(-294.113 -208.07)" fill="#242d3c"/>
        <path id="Trazado_266924" data-name="Trazado 266924" d="M373.129,266.184h0l-.013-.066a.524.524,0,0,0-.054-.03c.021.032.043.064.067.1" transform="translate(-294.457 -210.023)" fill="#242d3c"/>
        <path id="Trazado_266925" data-name="Trazado 266925" d="M370.073,276.388a.52.52,0,0,1,.089-.411c-.235.105-.551.051-.77.224.208.151.465.114.681.187" transform="translate(-291.561 -217.828)" fill="#242d3c"/>
        <path id="Trazado_266926" data-name="Trazado 266926" d="M367.744,275.59c.219-.173.535-.119.77-.224.022-.035.046-.07.072-.1a1.015,1.015,0,0,0-.332-.025c-.329.089-.918-.27-.948.283-.034.634.587.241.9.346a.886.886,0,0,0,.25.009h0a.508.508,0,0,1-.033-.1c-.216-.073-.473-.036-.681-.187" transform="translate(-289.912 -217.217)" fill="#242d3c"/>
        <path id="Trazado_266927" data-name="Trazado 266927" d="M372.577,276.239a.584.584,0,0,1,.073.03,1.032,1.032,0,0,0,.087-.481.5.5,0,0,1-.071.04.52.52,0,0,0-.089.411" transform="translate(-294.064 -217.679)" fill="#242d3c"/>
        <path id="Trazado_266928" data-name="Trazado 266928" d="M373.046,275.586a.491.491,0,0,0,.071-.04v-.064c-.026.034-.05.069-.072.1" transform="translate(-294.445 -217.438)" fill="#242d3c"/>
        <path id="Trazado_266929" data-name="Trazado 266929" d="M372.658,278.026a.607.607,0,0,0,.04-.067.584.584,0,0,0-.073-.03.513.513,0,0,0,.033.1" transform="translate(-294.113 -219.369)" fill="#242d3c"/>
        <path id="Trazado_266930" data-name="Trazado 266930" d="M370.133,219.02c.159.116.391.094.58.151a.977.977,0,0,0-.58-.151" transform="translate(-292.146 -172.872)" fill="#242d3c"/>
        <path id="Trazado_266931" data-name="Trazado 266931" d="M368.317,218.11c-.188-.057-.421-.035-.58-.151a.661.661,0,0,1-.606-.283c-.094.4-.008.643.472.592.272-.029.547-.027.82-.038a.5.5,0,0,0-.107-.119" transform="translate(-289.75 -171.811)" fill="#242d3c"/>
        <path id="Trazado_266932" data-name="Trazado 266932" d="M369.762,218.033a.977.977,0,0,1,.58.151.494.494,0,0,1,.1.04.561.561,0,0,0-.227-.455,3.658,3.658,0,0,1-.549.155.367.367,0,0,0,.1.109" transform="translate(-291.775 -171.885)" fill="#242d3c"/>
        <path id="Trazado_266933" data-name="Trazado 266933" d="M372.993,219.855h0c0-.029-.007-.052-.01-.079a.5.5,0,0,0-.1-.04.513.513,0,0,1,.107.119" transform="translate(-294.319 -173.437)" fill="#242d3c"/>
        <path id="Trazado_266934" data-name="Trazado 266934" d="M367.258,217.546a.662.662,0,0,0,.606.283.373.373,0,0,1-.1-.109,3.625,3.625,0,0,0,.549-.155c-.285-.163-.755.108-1.056-.019" transform="translate(-289.876 -171.682)" fill="#242d3c"/>
        <path id="Trazado_266935" data-name="Trazado 266935" d="M369.907,149.232a1.121,1.121,0,0,0,.15-.017c.161-.033.329-.043.413-.173-.189.063-.432.03-.564.191" transform="translate(-291.967 -117.638)" fill="#2a303c"/>
        <path id="Trazado_266936" data-name="Trazado 266936" d="M367.69,148.626c.132-.161.374-.128.564-.191a.354.354,0,0,0,.052-.162c-.242,0-.485.027-.725.008-.485-.04-.54.216-.442.6h0c.12-.246.341-.238.551-.251" transform="translate(-289.75 -117.033)" fill="#2a303c"/>
        <path id="Trazado_266937" data-name="Trazado 266937" d="M369.824,149.018a1.084,1.084,0,0,1-.15.017.361.361,0,0,0-.062.113,3.059,3.059,0,0,1,.484.119c.325-.041.358-.225.247-.475a.4.4,0,0,1-.106.052c-.084.13-.252.14-.413.173" transform="translate(-291.734 -117.441)" fill="#2a303c"/>
        <path id="Trazado_266938" data-name="Trazado 266938" d="M367.844,149.946c-.21.013-.43.005-.551.251.3,0,.592,0,.887-.01.033,0,.058-.006.086-.01a3.072,3.072,0,0,0-.484-.119.361.361,0,0,1,.062-.113" transform="translate(-289.904 -118.352)" fill="#2a303c"/>
        <path id="Trazado_266939" data-name="Trazado 266939" d="M372.582,148.435a.407.407,0,0,0,.106-.052c-.016-.035-.033-.072-.054-.11a.355.355,0,0,1-.052.162" transform="translate(-294.079 -117.032)" fill="#2a303c"/>
        <path id="Trazado_266940" data-name="Trazado 266940" d="M370.432,195.947c-.085-.125-.252-.134-.41-.167a1.159,1.159,0,0,0-.16-.018c.133.173.38.127.57.185" transform="translate(-291.932 -154.515)" fill="#2a303c"/>
        <path id="Trazado_266941" data-name="Trazado 266941" d="M367.68,194.823c-.207-.013-.423-.008-.542-.251-.1.38-.043.636.442.6.24-.02.483,0,.725.008h0a.349.349,0,0,0-.055-.168c-.19-.059-.437-.012-.57-.185" transform="translate(-289.75 -153.575)" fill="#2a303c"/>
        <path id="Trazado_266942" data-name="Trazado 266942" d="M369.669,194.913a1.155,1.155,0,0,1,.16.018c.159.032.325.042.41.167a.359.359,0,0,1,.111.054c.1-.239.077-.417-.217-.466a3.642,3.642,0,0,1-.516.138.353.353,0,0,0,.051.089" transform="translate(-291.739 -153.665)" fill="#2a303c"/>
        <path id="Trazado_266943" data-name="Trazado 266943" d="M372.623,196.808q.032-.058.056-.113a.363.363,0,0,0-.111-.054.352.352,0,0,1,.055.168" transform="translate(-294.068 -155.208)" fill="#2a303c"/>
        <path id="Trazado_266944" data-name="Trazado 266944" d="M367.291,194.571c.118.243.334.239.542.251a.355.355,0,0,1-.051-.089,3.67,3.67,0,0,0,.516-.138.95.95,0,0,0-.118-.014c-.3-.012-.592-.007-.888-.01" transform="translate(-289.902 -153.575)" fill="#2a303c"/>
        <path id="Trazado_266945" data-name="Trazado 266945" d="M369.537,299.337a1.3,1.3,0,0,0,.7-.161c-.213.087-.478.057-.691.146,0,0-.008.009-.012.014" transform="translate(-291.675 -236.139)" fill="#242d3c"/>
        <path id="Trazado_266946" data-name="Trazado 266946" d="M367.611,298.716c0-.005.008-.012.012-.014.213-.09.478-.06.691-.146a.506.506,0,0,0,.109-.121c-.274-.012-.549-.009-.82-.038-.481-.051-.567.194-.473.591h0a.575.575,0,0,1,.48-.271" transform="translate(-289.749 -235.518)" fill="#242d3c"/>
        <path id="Trazado_266947" data-name="Trazado 266947" d="M369.456,299.142a.085.085,0,0,0-.021.052c0,.024.024.046.046.068a2.863,2.863,0,0,1,.532.142c.124-.062.214-.2.247-.475a.534.534,0,0,1-.1.052,1.3,1.3,0,0,1-.7.161" transform="translate(-291.594 -235.944)" fill="#242d3c"/>
        <path id="Trazado_266948" data-name="Trazado 266948" d="M367.719,299.991a.085.085,0,0,1,.021-.052.575.575,0,0,0-.48.271c.294-.123.751.134,1.036-.009a2.879,2.879,0,0,0-.532-.143c-.022-.022-.045-.044-.046-.068" transform="translate(-289.879 -236.742)" fill="#242d3c"/>
        <path id="Trazado_266949" data-name="Trazado 266949" d="M372.878,298.724a.55.55,0,0,0,.1-.052c0-.023.007-.043.009-.069a.5.5,0,0,1-.109.121" transform="translate(-294.312 -235.687)" fill="#242d3c"/>
        <path id="Trazado_266950" data-name="Trazado 266950" d="M368.881,172.666a1.615,1.615,0,0,0,.388-.071,1.526,1.526,0,0,0-.38-.07.116.116,0,0,0-.008.141" transform="translate(-291.142 -136.174)" fill="#2a303c"/>
        <path id="Trazado_266951" data-name="Trazado 266951" d="M367.661,171.823a.116.116,0,0,1,.008-.141.426.426,0,0,1-.354-.225q0,.295,0,.589h0a.422.422,0,0,1,.345-.223" transform="translate(-289.921 -135.331)" fill="#2a303c"/>
        <path id="Trazado_266952" data-name="Trazado 266952" d="M368.964,171.754a1.528,1.528,0,0,1,.38.07,1.6,1.6,0,0,1-.388.071.292.292,0,0,0,.083.083,3.349,3.349,0,0,1,.532.123c.165-.011.3-.073.3-.277s-.121-.26-.275-.276a3.774,3.774,0,0,1-.56.138.322.322,0,0,0-.071.067" transform="translate(-291.217 -135.403)" fill="#2a303c"/>
        <path id="Trazado_266953" data-name="Trazado 266953" d="M367.664,173.193a.422.422,0,0,0-.345.223c.307-.005.615-.007.922-.015l.038,0a3.349,3.349,0,0,0-.532-.123.292.292,0,0,1-.083-.083" transform="translate(-289.925 -136.701)" fill="#2a303c"/>
        <path id="Trazado_266954" data-name="Trazado 266954" d="M367.317,171.457a.426.426,0,0,0,.354.225.322.322,0,0,1,.071-.067,3.774,3.774,0,0,0,.56-.138l-.062,0c-.308-.008-.615-.011-.923-.015" transform="translate(-289.923 -135.331)" fill="#2a303c"/>
        <path id="Trazado_266955" data-name="Trazado 266955" d="M369.275,322.708a1.88,1.88,0,0,0,.508-.114c-.18.011-.378-.034-.508.114" transform="translate(-291.468 -254.623)" fill="#242d3c"/>
        <path id="Trazado_266956" data-name="Trazado 266956" d="M367.477,321.68c-.4-.024-.367.23-.337.491a.764.764,0,0,1,.436-.186c.131-.149.328-.1.508-.114a.56.56,0,0,0,.156-.109v-.048c0-.012,0-.024,0-.036-.256,0-.512.019-.766,0" transform="translate(-289.77 -253.899)" fill="#242d3c"/>
        <path id="Trazado_266957" data-name="Trazado 266957" d="M372.429,321.757a.585.585,0,0,0,.072-.086h-.07c0,.012,0,.024,0,.036s0,.032,0,.048" transform="translate(-293.958 -253.895)" fill="#242d3c"/>
        <path id="Trazado_266958" data-name="Trazado 266958" d="M369.583,322.469a1.88,1.88,0,0,1-.508.114.38.38,0,0,0-.054.078,1.486,1.486,0,0,0,.589.122.331.331,0,0,0,.126-.148q0-.1,0-.2a.463.463,0,0,1-.155.033" transform="translate(-291.268 -254.498)" fill="#242d3c"/>
        <path id="Trazado_266959" data-name="Trazado 266959" d="M372.414,322.508a.767.767,0,0,0,.063-.233.313.313,0,0,1-.061.034c0,.066,0,.133,0,.2" transform="translate(-293.946 -254.371)" fill="#242d3c"/>
        <path id="Trazado_266960" data-name="Trazado 266960" d="M368.175,323.336a1.491,1.491,0,0,1-.589-.121.376.376,0,0,1,.054-.078.763.763,0,0,0-.437.186c.272-.119.714.165.972.013" transform="translate(-289.833 -255.052)" fill="#242d3c"/>
        <path id="Trazado_266961" data-name="Trazado 266961" d="M371.844,322.077a.564.564,0,0,1-.156.109.457.457,0,0,0,.155-.033c0-.025,0-.05,0-.076" transform="translate(-293.373 -254.215)" fill="#242d3c"/>
        <path id="Trazado_266962" data-name="Trazado 266962" d="M372.426,321.757c0,.025,0,.05,0,.076a.3.3,0,0,0,.061-.034c.005-.04.01-.08.013-.127a.583.583,0,0,1-.072.086" transform="translate(-293.955 -253.895)" fill="#242d3c"/>
        <path id="Trazado_266963" data-name="Trazado 266963" d="M155.274,126.586c.009.645-.185.784-.8.779-2.536-.023-5.073.011-7.609.024a8.457,8.457,0,0,0,7.42,8.273,8.579,8.579,0,0,0,9.1-6.325c1.371-5.061-2.865-10.561-8.107-10.362-.007,2.537-.037,5.075,0,7.612" transform="translate(-115.922 -93.901)" fill="#242d3c"/>
        <path id="Trazado_266964" data-name="Trazado 266964" d="M134.869,98.363c0-1.566-.041-3.132,0-4.7.017-.641-.189-.8-.808-.8q-6.134.036-12.268,0c-.577,0-.767.153-.764.75q.036,6.177,0,12.353c-.005.664.229.787.825.777,1.536-.025,3.074.013,4.611.026a8.317,8.317,0,0,1,8.405-8.411" transform="translate(-95.527 -73.299)" fill="#fe6d3b"/>
        <path id="Trazado_266965" data-name="Trazado 266965" d="M186.786,118.955" transform="translate(-147.43 -93.891)" fill="#fe6d3b"/>
        <path id="Trazado_266966" data-name="Trazado 266966" d="M199.68,242.874c-.856.844-1.693,1.707-2.559,2.541-.3.285-.374.471-.031.794.315.3.508.415.862.039.823-.875,1.692-1.707,2.541-2.557.1-.1.186-.2.381-.414-.248-.2-.478-.4-.722-.587s-.351.064-.473.185" transform="translate(-155.385 -191.503)" fill="#27303f"/>
        <path id="Trazado_266967" data-name="Trazado 266967" d="M168.483,274.091c-.858.844-1.687,1.718-2.565,2.54-.366.343-.214.516.051.794.284.3.469.364.789.026.827-.873,1.694-1.708,2.544-2.56.111-.111.213-.232.379-.414a6.788,6.788,0,0,0-.736-.63c-.229-.146-.339.121-.463.244" transform="translate(-130.788 -216.114)" fill="#27303f"/>
        <path id="Trazado_266968" data-name="Trazado 266968" d="M138.012,306.1c.375-.354.093-.5-.11-.706s-.367-.49-.72-.121c-.864.906-1.767,1.775-2.649,2.664-.121.123-.36.225-.177.471s.362.484.544.727c.242-.2.354-.287.451-.384.886-.885,1.751-1.792,2.661-2.651" transform="translate(-105.994 -240.811)" fill="#27303e"/>
        <path id="Trazado_266969" data-name="Trazado 266969" d="M228.462,215.651c.179-.145.316-.238.431-.353.851-.847,1.678-1.72,2.555-2.54.364-.34.225-.515-.043-.79s-.468-.383-.8-.036c-.825.872-1.7,1.7-2.536,2.558-.117.119-.4.215-.235.455a7.553,7.553,0,0,0,.624.7" transform="translate(-179.792 -167.104)" fill="#27303e"/>
        <path id="Trazado_266970" data-name="Trazado 266970" d="M259.6,184.517c.226-.2.355-.3.471-.413.851-.847,1.678-1.72,2.557-2.537.386-.358.169-.525-.068-.792-.286-.323-.489-.328-.8-.007-.828.869-1.695,1.7-2.534,2.56-.115.117-.4.2-.218.458s.378.472.588.732" transform="translate(-204.393 -142.492)" fill="#27303f"/>
        <path id="Trazado_266971" data-name="Trazado 266971" d="M111.893,336.35c-.343.323-.655.681-1.009.99-.326.284-.414.477-.054.849.377.39.586.337.9-.033s.66-.672.992-1.007c.1-.1.183-.2.367-.4-.248-.2-.48-.4-.724-.584s-.344.068-.469.185" transform="translate(-87.294 -265.284)" fill="#293240"/>
        <path id="Trazado_266972" data-name="Trazado 266972" d="M290.814,158.646c.087.092.2.136.291.047.541-.519,1.073-1.046,1.714-1.674-.271-.229-.5-.431-.734-.616s-.346.064-.471.181a10.492,10.492,0,0,1-.958.933c-.713.514-.161.791.159,1.128" transform="translate(-229.139 -123.396)" fill="#293241"/>
        <path id="Trazado_266973" data-name="Trazado 266973" d="M148.253,127.208c1.927-.007,3.854,0,5.78-.006.929-.005,1-.076,1.005-1,.011-1.955,0-3.91.006-5.864a2.465,2.465,0,0,1,.148-1.151l.09-.1a1.069,1.069,0,0,1-.666.2,8.213,8.213,0,0,0-7.484,7.334,1.34,1.34,0,0,1-.221.843l.108-.1a2.641,2.641,0,0,1,1.234-.151" transform="translate(-115.957 -93.991)" fill="#fefefe"/>
        <path id="Trazado_266974" data-name="Trazado 266974" d="M146.828,158.872s0,.008,0,.012l.008-.012h-.007" transform="translate(-115.891 -125.398)" fill="#fefefe"/>
        <path id="Trazado_266975" data-name="Trazado 266975" d="M146.828,158.894h.008v-.009l-.008.009" transform="translate(-115.891 -125.408)" fill="#fefefe"/>
        <path id="Trazado_266976" data-name="Trazado 266976" d="M186.752,118.963v-.008l-.009.008h.009" transform="translate(-147.396 -93.891)" fill="#fefefe"/>
        <path id="Trazado_266977" data-name="Trazado 266977" d="M186.722,118.964h0l.013-.008h-.013Z" transform="translate(-147.379 -93.892)" fill="#fefefe"/>
        <path id="Trazado_266978" data-name="Trazado 266978" d="M155.247,119.011l-.09.1a2.467,2.467,0,0,0-.147,1.152c-.006,1.955,0,3.91-.006,5.865-.005.929-.076,1-1.005,1-1.927.011-3.854,0-5.78.006a2.637,2.637,0,0,0-1.234.151l-.108.1-.009.012v.009c2.536-.013,5.073-.046,7.609-.024.613.005.807-.134.8-.779-.034-2.537,0-5.075,0-7.612h-.009l-.021.019" transform="translate(-115.921 -93.921)" fill="#fefefe"/>
        <path id="Trazado_266979" data-name="Trazado 266979" d="M186.721,118.994Z" transform="translate(-147.379 -93.922)" fill="#fefefe"/>
        <path id="Trazado_266980" data-name="Trazado 266980" d="M146.83,127.354h.007l.01-.009a1.34,1.34,0,0,0,.221-.843,8.213,8.213,0,0,1,7.484-7.334,1.07,1.07,0,0,0,.666-.2l.017-.019v-.008a8.317,8.317,0,0,0-8.405,8.411" transform="translate(-115.893 -93.88)" fill="#fefefe"/>
        <path id="Trazado_266981" data-name="Trazado 266981" d="M146.836,158.872l-.008.012.008-.009v0" transform="translate(-115.891 -125.398)" fill="#fefefe"/>
        <path id="Trazado_266982" data-name="Trazado 266982" d="M186.726,118.964l.009-.008-.013.008h0" transform="translate(-147.379 -93.892)" fill="#fefefe"/>
        <path id="Trazado_266983" data-name="Trazado 266983" d="M146.875,158.831l-.01.009v0l.01-.012" transform="translate(-115.92 -125.365)" fill="#fefefe"/>
        <path id="Trazado_266984" data-name="Trazado 266984" d="M186.658,118.994h0l-.017.019.021-.019h0" transform="translate(-147.316 -93.922)" fill="#fefefe"/>
      </g>
    </g>
  </g>
</svg>
