<svg id="Grupo_879791" data-name="Grupo 879791" xmlns="http://www.w3.org/2000/svg" xmlns:xlink="http://www.w3.org/1999/xlink" width="148.538" height="95" viewBox="0 0 148.538 95">
  <defs>
    <clipPath id="clip-path">
      <rect id="Rectángulo_297646" data-name="Rectángulo 297646" width="148.538" height="95" fill="none"/>
    </clipPath>
    <clipPath id="clip-path-3">
      <rect id="Rectángulo_297642" data-name="Rectángulo 297642" width="20.197" height="18.03" fill="none"/>
    </clipPath>
    <clipPath id="clip-path-4">
      <rect id="Rectángulo_297643" data-name="Rectángulo 297643" width="11.658" height="18.433" fill="none"/>
    </clipPath>
    <clipPath id="clip-path-5">
      <rect id="Rectángulo_297644" data-name="Rectángulo 297644" width="35.396" height="40.53" fill="none"/>
    </clipPath>
  </defs>
  <g id="Grupo_879790" data-name="Grupo 879790" clip-path="url(#clip-path)">
    <g id="Grupo_879789" data-name="Grupo 879789" transform="translate(0 0)">
      <g id="Grupo_879788" data-name="Grupo 879788" clip-path="url(#clip-path)">
        <path id="Trazado_264999" data-name="Trazado 264999" d="M43.621,94.833s-18.027-17.5-6.558-38.083S63.934,46.516,63.189,22.556,98.614-3.463,110.127,3.485,121.571,18.8,145.339,16.031s28.308,20.31,22.125,32.072c-8.773,16.688,24.35,13.936,3.479,46.73Z" transform="translate(-31.339 -0.003)" fill="#ebf3fa"/>
        <g id="Grupo_879781" data-name="Grupo 879781" transform="translate(91.447 35.627)" opacity="0.3">
          <g id="Grupo_879780" data-name="Grupo 879780">
            <g id="Grupo_879779" data-name="Grupo 879779" clip-path="url(#clip-path-3)">
              <path id="Trazado_265000" data-name="Trazado 265000" d="M1595.006,639.432s3.83-16.235,16.752-18.02a3.186,3.186,0,0,1,3.351,2.46c.837,2.768-4.162,2.788-7.252,3.9s-10.293,5.834-12.852,11.658" transform="translate(-1595.006 -621.402)" fill="#aec3ff"/>
            </g>
          </g>
        </g>
        <g id="Grupo_879784" data-name="Grupo 879784" transform="translate(91.087 32.185)" opacity="0.3">
          <g id="Grupo_879783" data-name="Grupo 879783">
            <g id="Grupo_879782" data-name="Grupo 879782" clip-path="url(#clip-path-4)">
              <path id="Trazado_265001" data-name="Trazado 265001" d="M1588.8,579.816s-1.344-13.448,8.086-18.221a2.581,2.581,0,0,1,3.216,1c1.371,1.9-2.454,3.233-4.528,4.9s-6.349,7.182-6.775,12.319" transform="translate(-1588.734 -561.383)" fill="#aec3ff"/>
            </g>
          </g>
        </g>
        <path id="Trazado_265002" data-name="Trazado 265002" d="M148.367,1650.283H.171a.172.172,0,0,1-.171-.171v-.065a.172.172,0,0,1,.171-.171h148.2a.172.172,0,0,1,.171.171v.065a.172.172,0,0,1-.171.171" transform="translate(0 -1555.283)" fill="#2e3552"/>
        <path id="Trazado_265003" data-name="Trazado 265003" d="M368.112,1191.4c-2-4.546,5.241-8.452,5.241-8.452s9.536,3.086,10.9,2.24-7.638-4.231-7.638-4.231c2.222-2.174,10.743-4.167,10.743-4.167s5.748,7.932,6.866,6.775-5.448-6.764-5.448-6.764c2.9-1.179,7.264-.211,7.264-.211,6.29,2.24,3.089,10.2,3.089,10.2a15.926,15.926,0,0,0,6.126,4.423h0a11.551,11.551,0,0,1,1.96.913l-.636.512q-.284-.193-.57-.354l0,0-.008,0c-.123-.063-.3-.153-.513-.26h0c-.5-.224-.858-.4-1.1-.535h0c-1.544-.725-3.635-1.6-4.457-1.481a1.579,1.579,0,0,0-.1-.4l.1.4c.79,3.209-4.339,7.981-7.872,9.8s-2.9-.1-2.385-2.8,4.23-5.092,4.8-6.451-1.343-.713-3.239,1.071-1.279,4.619-4.293,7.56-10.449-1.2-10.449-1.2c2.818-1.116,5.859-5.616,5.388-6.519s-6.394,4-7.515,4.515-4.256-.033-6.251-4.578" transform="translate(-346.679 -1108.78)" fill="#cde0fb"/>
        <path id="Trazado_265004" data-name="Trazado 265004" d="M1401.013,1205.871c2.91-3.434-2.367-8.7-2.367-8.7s-9.086.214-10.056-.876,7.732-1.7,7.732-1.7c-1.368-2.465-8.258-6.4-8.258-6.4s-7.048,5.405-7.721,4.11,6.485-4.468,6.485-4.468c-2.211-1.774-6.258-2.064-6.258-2.064-6.046.318-5.325,8.066-5.325,8.066a14.442,14.442,0,0,1-6.469,2.258h0a10.47,10.47,0,0,0-1.94.286l.42.61q.3-.094.587-.161h0l.008,0c.123-.023.3-.055.513-.093h0c.493-.065.849-.125,1.1-.179h0c1.529-.23,3.574-.454,4.256-.133a1.436,1.436,0,0,1,.19-.323l-.19.323c-1.517,2.584,1.7,8.059,4.3,10.555s2.546.664,2.8-1.818-2.358-5.52-2.5-6.849,1.352-.271,2.538,1.769-.084,4.345,1.774,7.681,9.391,1.665,9.391,1.665c-2.16-1.7-3.638-6.4-2.995-7.06s4.522,5.128,5.362,5.869,3.707,1.073,6.618-2.361" transform="translate(-1288.471 -1117.786)" fill="#cde0fb"/>
        <g id="Grupo_879787" data-name="Grupo 879787" transform="translate(38.434 19.113)" opacity="0.5">
          <g id="Grupo_879786" data-name="Grupo 879786">
            <g id="Grupo_879785" data-name="Grupo 879785" clip-path="url(#clip-path-5)">
              <path id="Trazado_265005" data-name="Trazado 265005" d="M672.069,335.826c3-5.034,11.714-.759,11.714-.759s3.573,11.278,5.324,12.013-1.172-10.239-1.172-10.239c3.613.644,11.37,7.465,11.37,7.465s-3.68,10.961-1.8,11.242,2.763-9.872,2.763-9.872c3.118,1.974,5.183,6.835,5.183,6.835,2.161,7.579-7.683,9.963-7.683,9.963a18.8,18.8,0,0,0-.049,8.918h0a13.639,13.639,0,0,1,.467,2.509l-.928-.26c-.006-.27-.022-.534-.05-.791a.006.006,0,0,0,0,0v-.011c-.023-.161-.058-.391-.1-.671h0s0,0,0,0c-.128-.634-.2-1.1-.243-1.428a.01.01,0,0,1,0,0c-.362-1.98-.95-4.593-1.633-5.3a1.866,1.866,0,0,0,.318-.37l-.318.37c-2.542,2.959-10.643,1.3-14.814-.843s-1.893-2.855,1.057-4.213,7.793.573,9.49.191-.236-1.779-3.25-2.378-5.315,1.938-10.207,1.058-6.014-10.86-6.014-10.86c3,1.942,9.413,1.779,9.958.707s-8.224-3.4-9.49-4.125-2.887-4.112.113-9.145" transform="translate(-670.366 -333.373)" fill="#cde0fb"/>
            </g>
          </g>
        </g>
        <path id="Trazado_265006" data-name="Trazado 265006" d="M1284.268,263.421a2.3,2.3,0,0,1,.174-.9,2.109,2.109,0,0,1,.492-.717,2.26,2.26,0,0,1,.765-.473,2.817,2.817,0,0,1,1.007-.17,2.881,2.881,0,0,1,1.015.17,2.25,2.25,0,0,1,.773.473,2.112,2.112,0,0,1,.492.717,2.305,2.305,0,0,1,.174.9,2.25,2.25,0,0,1-.174.894,2.125,2.125,0,0,1-.492.71,2.242,2.242,0,0,1-.773.473,2.884,2.884,0,0,1-1.015.17,2.82,2.82,0,0,1-1.007-.17,2.252,2.252,0,0,1-.765-.473,2.121,2.121,0,0,1-.492-.71,2.246,2.246,0,0,1-.174-.894m4.256-4.207h-3.635l-.515-12.422h4.665Z" transform="translate(-1210.637 -232.643)" fill="#f78248"/>
        <path id="Trazado_265007" data-name="Trazado 265007" d="M1092.813,115.2a1.763,1.763,0,0,1,.134-.692,1.616,1.616,0,0,1,.378-.55,1.736,1.736,0,0,1,.587-.363,2.163,2.163,0,0,1,.773-.131,2.212,2.212,0,0,1,.779.131,1.725,1.725,0,0,1,.593.363,1.621,1.621,0,0,1,.378.55,1.769,1.769,0,0,1,.134.692,1.727,1.727,0,0,1-.134.687,1.632,1.632,0,0,1-.378.545,1.72,1.72,0,0,1-.593.363,2.213,2.213,0,0,1-.779.13,2.163,2.163,0,0,1-.773-.13,1.73,1.73,0,0,1-.587-.363,1.626,1.626,0,0,1-.378-.545,1.721,1.721,0,0,1-.134-.687m3.267-3.229h-2.79l-.4-9.533h3.581Z" transform="translate(-1030.159 -96.562)" fill="#aec3ff"/>
        <path id="Trazado_265008" data-name="Trazado 265008" d="M2038.188,396.155a1.765,1.765,0,0,1,.134-.692,1.616,1.616,0,0,1,.378-.55,1.733,1.733,0,0,1,.587-.363,2.162,2.162,0,0,1,.773-.131,2.212,2.212,0,0,1,.779.131,1.724,1.724,0,0,1,.593.363,1.621,1.621,0,0,1,.378.55,1.772,1.772,0,0,1,.134.692,1.73,1.73,0,0,1-.134.687,1.631,1.631,0,0,1-.378.545,1.719,1.719,0,0,1-.593.363,2.212,2.212,0,0,1-.779.13,2.162,2.162,0,0,1-.773-.13,1.728,1.728,0,0,1-.587-.363,1.626,1.626,0,0,1-.378-.545,1.723,1.723,0,0,1-.134-.687m3.267-3.229h-2.79l-.4-9.533h3.581Z" transform="translate(-1921.333 -361.412)" fill="#aec3ff"/>
        <path id="Trazado_265009" data-name="Trazado 265009" d="M1777.36,946.907a18.8,18.8,0,0,1-2.054,3.063h0a6.167,6.167,0,0,1-2.252,1.878l-.005,0c-.035.012-.07.024-.1.033h-.006a1.226,1.226,0,0,1-.391.05c-2.211-.1-4.541-4.841-4.541-4.841a1.686,1.686,0,0,1,.49-.959,1.987,1.987,0,0,1,.664-.437,20.385,20.385,0,0,0,2.963,2.621c.366.11.847-1.6,1.536-3.741a4.457,4.457,0,0,1,3.111-2.673s2.451,1.551.589,5" transform="translate(-1666.642 -887.903)" fill="#aec3ff"/>
        <path id="Trazado_265010" data-name="Trazado 265010" d="M1856.4,1055.088h0a6.167,6.167,0,0,1-2.252,1.878l-.005,0-.1.033-.006,0h0a1.712,1.712,0,0,0,.858-1.084c.116-.709-.635-1.289,1.251-2.386,1.1-.639.258,1.555.258,1.555" transform="translate(-1747.733 -993.02)" fill="#94b0ed"/>
        <path id="Trazado_265011" data-name="Trazado 265011" d="M1865.211,1603.1h5.181c.371-.252-.1-2.713-.1-2.713s-1.414-.536-1.658.555-1.8,1.437-2.625,1.57a.887.887,0,0,0-.8.588" transform="translate(-1758.273 -1508.507)" fill="#24406d"/>
        <path id="Trazado_265012" data-name="Trazado 265012" d="M1896.033,1175.687s-.163,3.023-.368,6.525c-.147,2.511-.315,5.27-.458,7.335-.019.274-.038.536-.056.784-.005.077-.011.153-.017.229a46.053,46.053,0,0,1-1.611,8.69,2.526,2.526,0,0,1-2.115-.254s-1-11.763-1.375-16.508c-.274-3.493-.507-8.577-.507-8.577Z" transform="translate(-1781.194 -1106.606)" fill="#ff9e55"/>
        <path id="Trazado_265013" data-name="Trazado 265013" d="M1941.426,1258.415c-.147,2.511-.314,5.27-.458,7.335-.952-2.246-2.9-11-2.9-11Z" transform="translate(-1826.955 -1182.81)" fill="#ed7d2b"/>
        <path id="Trazado_265014" data-name="Trazado 265014" d="M1999.241,1603.1h5.181c.371-.252-.1-2.713-.1-2.713s-1.414-.536-1.658.555-1.8,1.437-2.625,1.57a.886.886,0,0,0-.8.588" transform="translate(-1884.618 -1508.507)" fill="#24406d"/>
        <path id="Trazado_265015" data-name="Trazado 265015" d="M1914.075,1165.15s3.7,9.21,4.883,12.7c.843,2.487,3.219,11.211,3.219,11.211a2.387,2.387,0,0,0,1.9-.293s.884-8.913-.9-11.426c-.947-1.333-.235-13.86-4.077-13.968s-5.025,1.775-5.025,1.775" transform="translate(-1804.335 -1096.671)" fill="#ff9e55"/>
        <path id="Trazado_265016" data-name="Trazado 265016" d="M1889.486,945.424c-.016,1.31-.03,2.271-.027,2.514.01.792-.5.971-1.019,1.092,0,0-.483.1-1.091.207a12.011,12.011,0,0,1-1.823.195,16.444,16.444,0,0,1-4.772-.785c-.489,0-.712-.756-.792-1.812-.054-.715.166-7.84.194-9.62a4.641,4.641,0,0,1,.915-2.628c1.814-1.6,7.167-1.4,8.131-.3.238.274.308,2.912.316,5.8.005,1.86-.014,3.825-.032,5.33" transform="translate(-1772.17 -879.908)" fill="#aec3ff"/>
        <path id="Trazado_265017" data-name="Trazado 265017" d="M1942.274,896.948c-.683.74-2.979.631-2.911-.016.009-.08.024-.553.032-.626s.011-.117.016-.171q.023-.239.039-.422c.031-.354.04-.547.04-.547h0c.066-.019,1.542-.437,2.276-.611a1.182,1.182,0,0,1,.407-.068c-.225,1.649.323,2.217.1,2.46" transform="translate(-1828.172 -843.198)" fill="#ffb27d"/>
        <path id="Trazado_265018" data-name="Trazado 265018" d="M1943.294,896.265a3.589,3.589,0,0,1-2.4.671c.031-.354.04-.547.04-.547h0c.066-.018,1.542-.437,2.276-.611.129.053-.042.4.078.487" transform="translate(-1829.62 -844.421)" fill="#ed975d"/>
        <path id="Trazado_265019" data-name="Trazado 265019" d="M1928.739,830.919a5.576,5.576,0,0,0,1.025.239c.84.113,1.945.047,2.292-.97.585-1.711,1.331-2.737-.389-3.436a2.733,2.733,0,0,0-1.91-.251,1.383,1.383,0,0,0-.708.613c-.334.524-1.006,3.506-.31,3.805" transform="translate(-1817.872 -779.038)" fill="#ffb27d"/>
        <path id="Trazado_265020" data-name="Trazado 265020" d="M1935.4,806.661a.812.812,0,0,0,.31,1.477,5.961,5.961,0,0,1,1.009.185c.428.19.8.392.694,1.055-.034.226-.144.5.437.364a.282.282,0,0,1,.211.013c.241.143-.067.836-.16.986,0,0-.134.5.163.738.036.029.619.284,2.023-1.866a2,2,0,0,0,.091-1.829,3.211,3.211,0,0,0-3.08-1.657,3.411,3.411,0,0,0-1.7.534" transform="translate(-1824.096 -759.91)" fill="#233862"/>
        <path id="Trazado_265021" data-name="Trazado 265021" d="M2017.507,1042.923c-.261,1.215-.195,1.228-.6.909-1.634-1.3-1.156-1.979-.793-3.1s-.911-2.886,0-3.636c.891-.734,1.4.449,1.421.5.005,1.86-.014,3.825-.032,5.33" transform="translate(-1900.191 -977.406)" fill="#94b0ed"/>
        <path id="Trazado_265022" data-name="Trazado 265022" d="M1996.405,1140.017s-.616,1.007-1.02.972-.949-.186-1.263.114-.822,1.075-.68,1.281.711.023,1.121-.2,1.054.111,1.4-.145a12,12,0,0,0,1.166-1.275Z" transform="translate(-1879.129 -1074.657)" fill="#ffb27d"/>
        <path id="Trazado_265023" data-name="Trazado 265023" d="M2023.1,948.58s5.111,4.81,4.448,8.009c-.3,1.458-1.241,2.688-3.742,4.679a4.912,4.912,0,0,1-1.443-1.481s2.27-3.2,2.182-3.742a6.526,6.526,0,0,0-2.213-2.6c-.556-.26-.5-4.309.768-4.867" transform="translate(-1906.064 -894.195)" fill="#aec3ff"/>
        <path id="Trazado_265024" data-name="Trazado 265024" d="M2013.953,1150.9s-.539-.236-.712-.337-.135.063-.082.144a.6.6,0,0,0,.409.284.675.675,0,0,0,.385-.091" transform="translate(-1897.697 -1084.571)" fill="#ffb27d"/>
        <path id="Trazado_265025" data-name="Trazado 265025" d="M419.675,793.606c-.185-.356,4.032-1.64,4.1,1.878,0,0,7.9-.194,4.127-4.6a4.874,4.874,0,0,1-1.132-3.957c.04-1.173-.813-4.583-3.737-4.239a2.177,2.177,0,0,0-1.721.184c-2.173,1.127-7.041,12.029-1.635,10.732" transform="translate(-393.294 -737.726)" fill="#163560"/>
        <path id="Trazado_265026" data-name="Trazado 265026" d="M685.371,1015.7s.514-.783.928-.8,1.182-.23,1.12-.077-.537.169-.583.261.706.23.921.246.721,0,.706.107a2.438,2.438,0,0,1-1.546.491,4.294,4.294,0,0,0-1.416.184Z" transform="translate(-646.077 -956.587)" fill="#ffb27d"/>
        <path id="Trazado_265027" data-name="Trazado 265027" d="M555.68,932.638a7.71,7.71,0,0,0,.786,1.189,4.6,4.6,0,0,0,2.736,1.824,2.936,2.936,0,0,0,1.625-.264h0a7.411,7.411,0,0,0,2.517-2.1,1.181,1.181,0,0,0-.161-1.159,19.1,19.1,0,0,1-3.177.514,44.209,44.209,0,0,1-2.281-4.534,3.44,3.44,0,0,0-1.682-1.717Z" transform="translate(-523.821 -873.276)" fill="#aec3ff"/>
        <path id="Trazado_265028" data-name="Trazado 265028" d="M567.895,1030.869a4.6,4.6,0,0,0,2.736,1.824,2.936,2.936,0,0,0,1.625-.264,2.156,2.156,0,0,1-2.063-.839c-.583-1.044-1.214-2.7-2.081-2.149-.374.239-.357.831-.218,1.427" transform="translate(-535.249 -970.317)" fill="#94b0ed"/>
        <path id="Trazado_265029" data-name="Trazado 265029" d="M354.852,1575.218s-.885.808-.712,1.382.971.957,1.079,1.658.54,1.084.928,1.084H358s.286-.494-.4-.642-.951-.973-.908-1.738a13.493,13.493,0,0,0-.065-1.785l-1.468-.34Z" transform="translate(-333.815 -1484.545)" fill="#1d3356"/>
        <path id="Trazado_265030" data-name="Trazado 265030" d="M495.574,1587.489s-.318,3.422.07,3.613l4.973-.01s0-.574-.8-.7-2.2-.6-2.439-1.637-1.8-1.265-1.8-1.265" transform="translate(-467.045 -1496.474)" fill="#1d3356"/>
        <path id="Trazado_265031" data-name="Trazado 265031" d="M430.33,923.578a19.808,19.808,0,0,0,0,2.3,6.658,6.658,0,0,0,1.009,2.219c.3.691.637.8.637.8l2.611.64.918.225,2.9-.865s1.319-3.681.789-5.752a15.923,15.923,0,0,0-1.338-3.511,11.066,11.066,0,0,0-5.438-.2Z" transform="translate(-405.627 -866.524)" fill="#aec3ff"/>
        <path id="Trazado_265032" data-name="Trazado 265032" d="M444.2,1027.328a8.129,8.129,0,0,0,.245,1.88c.3.691.637.8.637.8l2.611.64,1.134-.333s-3.785-.574-3.366-3.831Z" transform="translate(-418.735 -967.636)" fill="#f2ccaa"/>
        <path id="Trazado_265033" data-name="Trazado 265033" d="M489.438,1097.695a42.976,42.976,0,0,1,1.526,5.982c.092,1.519-2.741,21.584-2.855,22.284-.107.66-.927,1.081-.927,1.081a1.24,1.24,0,0,1-.915.071,2.265,2.265,0,0,1-.982-.463s-1.116-14.31-.425-19.421a80.963,80.963,0,0,0,.7-9.532Z" transform="translate(-456.849 -1034.761)" fill="#233862"/>
        <path id="Trazado_265034" data-name="Trazado 265034" d="M377.378,1095.375s-2.187,2.934-2.391,4.918-.32,8.951-.754,10.885-2.03,5.655-2.03,11.686a1.2,1.2,0,0,0,.678.53,5.589,5.589,0,0,0,.6.165.937.937,0,0,0,1.049-.5c1.079-2.172,4.516-9.178,4.692-10.633.125-1.029,1.21-7.841,3.577-11.838.568-.96-.349-4.776-.349-4.776Z" transform="translate(-350.863 -1032.574)" fill="#2b478b"/>
        <path id="Trazado_265035" data-name="Trazado 265035" d="M463.677,1085.68a3,3,0,0,1-1.719.478c-1.366.027-4.75-.348-4.75-.348a2.8,2.8,0,0,0-.144.864s4.133,1.042,6.528.152a1.514,1.514,0,0,0,.085-1.146" transform="translate(-430.859 -1023.435)" fill="#233862"/>
        <path id="Trazado_265036" data-name="Trazado 265036" d="M537.275,1090.651a.628.628,0,1,1,.623.705.669.669,0,0,1-.623-.705m.207,0a.423.423,0,1,0,.417-.5.464.464,0,0,0-.417.5" transform="translate(-506.471 -1027.456)" fill="#fff"/>
        <path id="Trazado_265037" data-name="Trazado 265037" d="M386.348,1008.772l3.356,2.922a.582.582,0,0,0,.821-.057l4.283-4.918a.582.582,0,0,0-.057-.821l-3.356-2.923a.582.582,0,0,0-.821.057l-4.283,4.918a.582.582,0,0,0,.057.821" transform="translate(-364.009 -945.337)" fill="#f78248"/>
        <path id="Trazado_265038" data-name="Trazado 265038" d="M471.4,1100c.048.013,1.783.216,1.783.575a1.079,1.079,0,0,1-.988.944,5.7,5.7,0,0,1-1.089-.834Z" transform="translate(-444.099 -1036.93)" fill="#ffb27d"/>
        <path id="Trazado_265039" data-name="Trazado 265039" d="M490.93,884.954a5.777,5.777,0,0,0,.309-2.111l.131.026,2.2.436s-.05.694-.052,1.347c0,.005,0,.011,0,.016,0,.568.383,1.137-.527,1.362-.281.07-2.48-.072-2.066-1.077" transform="translate(-462.734 -832.227)" fill="#ffb27d"/>
        <path id="Trazado_265040" data-name="Trazado 265040" d="M501.669,883.73s-.05.694-.052,1.347a2.615,2.615,0,0,1-2.152-1.784Z" transform="translate(-470.829 -832.652)" fill="#e8945b"/>
        <path id="Trazado_265041" data-name="Trazado 265041" d="M496.54,820.738s-2.918.048-2.92-1.77-.38-3.036,1.483-3.143,2.226.586,2.374,1.192-.178,3.661-.937,3.721" transform="translate(-465.288 -769.041)" fill="#ffb27d"/>
        <path id="Trazado_265042" data-name="Trazado 265042" d="M481.005,809.157s-.8,2.133-2.025,2.448a2.414,2.414,0,0,1-1.758-.013,3.473,3.473,0,0,0,1.136-2.051s2.045-1.4,2.648-.383" transform="translate(-449.861 -762.417)" fill="#163560"/>
        <path id="Trazado_265043" data-name="Trazado 265043" d="M539.754,812.533a1.811,1.811,0,0,1,.836.654,2.939,2.939,0,0,1,.394,1.669s.6-1.449-.075-2.269c-.717-.869-1.156-.053-1.156-.053" transform="translate(-508.808 -765.621)" fill="#163560"/>
        <path id="Trazado_265044" data-name="Trazado 265044" d="M476.241,1098.323a1.984,1.984,0,0,1,.694-.095c.278.039.484-.005.484.072s-.359.114-.435.151a3.776,3.776,0,0,1-.742-.129" transform="translate(-448.937 -1035.257)" fill="#ffb27d"/>
        <path id="Trazado_265045" data-name="Trazado 265045" d="M382.253,922.968a3.533,3.533,0,0,0-2.866,2.075,55.568,55.568,0,0,0-2.3,5.716c0,.545.842,2.226,5.361,3.192,0,0,.467-.492.439-.881a24.274,24.274,0,0,1-2.814-2.706c.014-.536.462-1.243,2.939-3.721.673-.674-.76-3.676-.76-3.676" transform="translate(-355.467 -870.052)" fill="#aec3ff"/>
        <path id="Trazado_265046" data-name="Trazado 265046" d="M815.043,636.079H792.659a2.041,2.041,0,0,0-1.443.6l-15.828,15.828a2.041,2.041,0,0,0-.6,1.443v22.385a2.041,2.041,0,0,0,.6,1.443l15.828,15.828a2.041,2.041,0,0,0,1.443.6h22.385a2.041,2.041,0,0,0,1.443-.6l15.828-15.828a2.041,2.041,0,0,0,.6-1.443V653.949a2.041,2.041,0,0,0-.6-1.443l-15.828-15.828a2.041,2.041,0,0,0-1.443-.6" transform="translate(-730.368 -599.611)" fill="#f78248"/>
        <path id="Trazado_265047" data-name="Trazado 265047" d="M861.309,739.134H842.074a2.915,2.915,0,0,1-2.074-.859l-13.6-13.6a2.913,2.913,0,0,1-.859-2.074V703.364a2.914,2.914,0,0,1,.859-2.074l13.6-13.6a2.914,2.914,0,0,1,2.074-.859h19.235a2.914,2.914,0,0,1,2.074.859l13.6,13.6a2.914,2.914,0,0,1,.859,2.074V722.6a2.914,2.914,0,0,1-.859,2.074l-13.6,13.6a2.914,2.914,0,0,1-2.074.859m-19.235-50.31a.933.933,0,0,0-.664.275l-13.6,13.6a.932.932,0,0,0-.275.664V722.6a.932.932,0,0,0,.275.664l13.6,13.6a.933.933,0,0,0,.664.275h19.235a.933.933,0,0,0,.664-.275l13.6-13.6a.933.933,0,0,0,.275-.664V703.364a.933.933,0,0,0-.275-.664l-13.6-13.6a.933.933,0,0,0-.664-.275Z" transform="translate(-778.208 -647.451)" fill="#ffe5d4"/>
        <path id="Trazado_265048" data-name="Trazado 265048" d="M1129.057,852.143l-.392-.339a2.375,2.375,0,0,0-3.34.24l-2.213,2.556a.522.522,0,0,1-.916-.342,5.666,5.666,0,0,0-.032-.6V837.565a1.927,1.927,0,0,0-1.922-1.922h-.142a1.927,1.927,0,0,0-1.922,1.922v10.474a.46.46,0,0,1-.46.46.508.508,0,0,1-.508-.508V835.535a1.863,1.863,0,0,0-1.857-1.857h-.271a1.863,1.863,0,0,0-1.858,1.857v12.538a.426.426,0,0,1-.426.426.542.542,0,0,1-.542-.542v-10a1.927,1.927,0,0,0-1.922-1.922h-.142a1.927,1.927,0,0,0-1.922,1.922v10.076a.461.461,0,0,1-.461.461.507.507,0,0,1-.507-.507v-7.883a1.927,1.927,0,0,0-1.922-1.922h-.142a1.927,1.927,0,0,0-1.922,1.922V853.95c0,.038,0,.077,0,.114,0,.064,0,.129,0,.194v7.619a5.647,5.647,0,0,0,5.63,5.63h7.619a5.638,5.638,0,0,0,4.735-2.594,11.915,11.915,0,0,1,1-1.347l7-8.084a2.375,2.375,0,0,0-.24-3.34" transform="translate(-1040.061 -785.881)" fill="#ffe5d4"/>
      </g>
    </g>
  </g>
</svg>
