<svg xmlns="http://www.w3.org/2000/svg" xmlns:xlink="http://www.w3.org/1999/xlink" width="136" height="136" viewBox="0 0 136 136">
  <defs>
    <clipPath id="clip-path">
      <rect id="Rectángulo_298931" data-name="Rectángulo 298931" width="83.486" height="86.115" fill="none"/>
    </clipPath>
  </defs>
  <g id="Grupo_882123" data-name="Grupo 882123" transform="translate(-1656.055 11146.93)">
    <g id="Elipse_4931" data-name="Elipse 4931" transform="translate(1656.055 -11146.93)" fill="#fff" stroke="#6b3fe5" stroke-width="1">
      <circle cx="68" cy="68" r="68" stroke="none"/>
      <circle cx="68" cy="68" r="67.5" fill="none"/>
    </g>
    <g id="Grupo_882105" data-name="Grupo 882105" transform="translate(1682.055 -11121.93)">
      <g id="Grupo_882105-2" data-name="Grupo 882105" clip-path="url(#clip-path)">
        <path id="Trazado_267292" data-name="Trazado 267292" d="M40.707,280.012c.02.142.039.285.057.428a.975.975,0,0,0-.057-.428" transform="translate(-31.346 -215.619)" fill="#fefefe"/>
        <path id="Trazado_267293" data-name="Trazado 267293" d="M233.516,138.435v-.06a.232.232,0,0,1-.045.027l.045.033" transform="translate(-179.781 -106.554)" fill="#fefefe"/>
        <path id="Trazado_267294" data-name="Trazado 267294" d="M222.1,232.867a.719.719,0,0,0,.093-1.142c-.879-1.16-1.725-2.344-2.593-3.511-.318-.427-.555-.779-.129-1.342a5.027,5.027,0,0,0,.907-2.117c.163-.891.694-1.155,1.526-1.253,1.354-.158,2.689-.469,4.042-.642.528-.067.578-.315.574-.734-.013-1.347-.042-2.7.011-4.042.026-.664-.312-.842-.843-.924-1.489-.23-2.975-.487-4.469-.677a.632.632,0,0,1-.641-.541,10.12,10.12,0,0,0-1.141-2.763.933.933,0,0,1,.1-1.153c.907-1.246,1.771-2.524,2.718-3.738.326-.418.226-.614-.085-.913-.7-.676-1.385-1.372-2.07-2.065-.2-.2-.459-.362-.458-.694-1.137.819-2.285,1.625-3.406,2.466a.786.786,0,0,1-1,.074,9.205,9.205,0,0,0-2.606-1.086.99.99,0,0,1-.849-.988c-.218-1.5-.5-2.992-.706-4.494-.065-.472-.23-.624-.7-.616-1.4.025-2.81.028-4.214,0-.479-.01-.628.166-.693.621-.214,1.5-.5,2.992-.711,4.493a1,1,0,0,1-.845.987,8.642,8.642,0,0,0-2.528,1.051.878.878,0,0,1-1.148-.094c-1.212-.914-2.467-1.773-3.677-2.689a.624.624,0,0,0-1,.073q-1.422,1.5-2.92,2.918a.619.619,0,0,0-.079,1c.933,1.234,1.808,2.511,2.732,3.753a.78.78,0,0,1,.089,1,11.012,11.012,0,0,0-1.149,2.767.774.774,0,0,1-.752.655c-1.558.223-3.107.505-4.662.743-.428.066-.644.2-.631.7.036,1.4.024,2.81.006,4.215-.006.461.146.637.627.7,1.475.194,2.939.466,4.411.682.556.082.93.258,1.067.886a8.325,8.325,0,0,0,1.014,2.45.951.951,0,0,1-.069,1.229c-.921,1.207-1.773,2.467-2.691,3.676a.621.621,0,0,0,.084,1q1.5,1.422,2.918,2.919c.352.372.585.385.991.075,1.23-.938,2.508-1.813,3.744-2.743a.839.839,0,0,1,1.073-.066,10.535,10.535,0,0,0,2.687,1.112.767.767,0,0,1,.667.735c.219,1.558.515,3.1.749,4.66.067.442.211.631.694.62,1.4-.031,2.81-.026,4.215,0,.46.008.642-.127.706-.608.184-1.389.454-2.767.648-4.155.1-.7.246-1.191,1.095-1.359a7.173,7.173,0,0,0,2.206-.925,1.1,1.1,0,0,1,1.44.134c1.019.788,2.083,1.518,3.129,2.271a23.428,23.428,0,0,1,2.51-2.586m-12.253-4.931a7.246,7.246,0,0,1-.854.083h0a7.2,7.2,0,0,1-5.841-1.791,8.044,8.044,0,0,1,5.609-14.215,1.369,1.369,0,0,1,.393.14,7.988,7.988,0,0,1,.7,15.782" transform="translate(-144.907 -153.987)" fill="#827682"/>
        <path id="Trazado_267295" data-name="Trazado 267295" d="M37.263,73.8q6.443.011,12.885.024c.572,0,1.145.018,1.717.028l2.726-.032h0a.445.445,0,0,0-.011-.149,14.362,14.362,0,0,0-1.719.017c-.886.11-1.082-.288-1-1.076a23.333,23.333,0,0,1,3.5-10.623,13.191,13.191,0,0,0,2.33-8.008A14.442,14.442,0,0,0,50.5,41.753,23.147,23.147,0,0,0,45.337,39.8h0a11.828,11.828,0,0,0-3.944.678,14.514,14.514,0,0,0-9.327,18.278,29.955,29.955,0,0,0,2.455,4.706A25.164,25.164,0,0,1,37.263,73.8m-.831-22.112a4.407,4.407,0,0,1,6.646-.5,4.941,4.941,0,0,1,1.407,3.979c-.046,1.7-.249,1.449,1.42,1.475.229,0,.46-.017.688,0,.488.045.669-.169.642-.649a12.555,12.555,0,0,1,.146-2.3,4.435,4.435,0,0,1,8.819.474,4.5,4.5,0,0,1-4.723,4.723c-2.015-.053-2.017-.009-2.017,2q0,5.805,0,11.61c0,1.179,0,1.2-1.22,1.165-.381-.012-1,.3-1.015-.507h0a4.2,4.2,0,0,1-2.776.508c-2.214.046-2.214.046-2.214-2.152,0-3.927-.015-7.855.014-11.782.005-.676-.18-.915-.869-.869a5.82,5.82,0,0,1-4.019-.863,4.471,4.471,0,0,1-.93-6.315" transform="translate(-24.115 -30.643)" fill="#fee077"/>
        <path id="Trazado_267296" data-name="Trazado 267296" d="M200.138,80.9a.242.242,0,0,0,.045-.027c0-1.064.018-1.97-.008-2.875-.014-.494.115-.713.667-.722a22.861,22.861,0,0,1,11.519,2.4,15.412,15.412,0,0,1,5.3,4.9c.112.161.339.356.121.607a17.922,17.922,0,0,1,2.583,5.6c.26-.019.3-.175.36-.3a13.632,13.632,0,0,0,1.393-8.339c-.769-5.128-3.733-8.686-8.21-11.088a24.957,24.957,0,0,0-11.263-2.656c-.787-.024-.956-.264-.92-.988.059-1.184.016-2.373.016-3.721-1.544,1.289-2.951,2.453-4.347,3.63q-3.611,3.048-7.209,6.109A23.038,23.038,0,0,0,193.476,76c2.157,1.605,4.33,3.189,6.662,4.9" transform="translate(-146.448 -49.057)" fill="#fd646f"/>
        <path id="Trazado_267297" data-name="Trazado 267297" d="M40.763,268.455c.1.751.184,1.506.333,2.247a14.438,14.438,0,0,0,7.269,9.9,22.608,22.608,0,0,0,9.673,2.91,18.889,18.889,0,0,0,2.476.146c.473-.022.679.131.652.63-.033.6-.008,1.2-.008,1.853.72-.114,1.076-.693,1.535-1.067,2.3-1.878,4.557-3.809,6.827-5.724a1.63,1.63,0,0,1,.954-.527l-10.87-7.967c0,1.327-.043,2.444.015,3.556.039.752-.138,1.047-.969,1.015a34.217,34.217,0,0,1-5.368-.542,13.253,13.253,0,0,1-10.909-9.925c-.05-.172-.054-.387-.325-.514a13.8,13.8,0,0,0-1.344,3.579.971.971,0,0,1,.057.428" transform="translate(-31.345 -203.634)" fill="#6cf4c1"/>
        <path id="Trazado_267298" data-name="Trazado 267298" d="M104.61,51.566a13.446,13.446,0,0,1-1.628,9.6A24.126,24.126,0,0,0,99.3,70.715c-.076.625-.146,1.251-.236,1.875-.076.528.137.788.71.8s1.208-.181,1.75.216c.1-.908.185-1.816.293-2.722a23.509,23.509,0,0,1,3.582-9.543,13.469,13.469,0,0,0,1.869-8.947A14.449,14.449,0,0,0,92.285,39.733h0c6.308.648,11.289,5.954,12.325,11.833" transform="translate(-71.063 -30.579)" fill="#fecf64"/>
        <path id="Trazado_267299" data-name="Trazado 267299" d="M104.639,53.994A13.191,13.191,0,0,1,102.309,62a23.336,23.336,0,0,0-3.5,10.623c-.082.788.115,1.186,1,1.076a14.359,14.359,0,0,1,1.718-.017c-.542-.4-1.165-.2-1.75-.216s-.786-.276-.71-.8c.089-.624.159-1.25.236-1.875a24.124,24.124,0,0,1,3.678-9.548,13.449,13.449,0,0,0,1.628-9.6c-1.036-5.88-6.017-11.185-12.325-11.833a23.149,23.149,0,0,1,5.166,1.956,14.442,14.442,0,0,1,7.187,12.233" transform="translate(-71.064 -30.651)" fill="#fecf64"/>
        <path id="Trazado_267300" data-name="Trazado 267300" d="M69.623,290.81h0c-1.8,1.589-3.668,3.095-5.507,4.637-.942.791-1.876,1.593-2.824,2.376-.263.217-.527.538-.891.409-.4-.142-.311-.574-.31-.9.006-1.52.053-1.381-1.453-1.471-5.168-.308-10.028-1.57-14.013-5.089a13.96,13.96,0,0,1-4.8-9.492,5.512,5.512,0,0,1,.082-.839c-.019-.143-.037-.286-.057-.428-.06.337-.144.673-.176,1.013a13.2,13.2,0,0,0,6.1,12.868c3.551,2.451,7.62,3.267,11.85,3.459,1.274.058,1.1-.183,1.11,1.171.009,1.018,0,2.037,0,3.211.425-.344.731-.585,1.028-.834q4.972-4.161,9.942-8.324c1.124-.94,1.128-.935-.086-1.766" transform="translate(-30.492 -215.619)" fill="#00e398"/>
        <path id="Trazado_267301" data-name="Trazado 267301" d="M62.6,298.493c-.459.374-.814.953-1.535,1.067,0-.653-.025-1.254.008-1.853.027-.5-.179-.652-.652-.63a18.881,18.881,0,0,1-2.476-.146,22.608,22.608,0,0,1-9.673-2.91A14.438,14.438,0,0,1,41,284.12c-.15-.741-.235-1.5-.333-2.247a5.514,5.514,0,0,0-.082.839,13.96,13.96,0,0,0,4.8,9.492c3.986,3.519,8.846,4.781,14.013,5.089,1.506.09,1.459-.049,1.454,1.471,0,.326-.091.758.31.9.364.129.628-.192.891-.409.949-.783,1.882-1.585,2.825-2.376,1.838-1.542,3.707-3.048,5.506-4.637a1.631,1.631,0,0,0-.954.527c-2.27,1.915-4.527,3.846-6.827,5.724" transform="translate(-31.248 -217.052)" fill="#00e398"/>
        <path id="Trazado_267302" data-name="Trazado 267302" d="M69.315,192.4l.662-.039h0a2.982,2.982,0,0,0,1.731-3.181c-.023-.4-.012-.8-.007-1.194l-.041,0c-4.54.054-9.081.019-13.621.017a1.083,1.083,0,0,1-.938-.32c-.008.717-.023,1.433-.021,2.15a2.348,2.348,0,0,0,2.411,2.545Z" transform="translate(-43.954 -144.522)" fill="#ebeef0"/>
        <path id="Trazado_267303" data-name="Trazado 267303" d="M58.111,188c4.54,0,9.08.037,13.621-.017l.041,0c0-.083,0-.166,0-.248h0c-.572-.01-1.145-.026-1.717-.028q-6.442-.014-12.885-.024a1.083,1.083,0,0,0,.938.32" transform="translate(-44.025 -144.522)" fill="#ebeef0"/>
        <path id="Trazado_267304" data-name="Trazado 267304" d="M332.815,231.04c-1.523-.232-3.04-.5-4.567-.7a.747.747,0,0,1-.763-.625,10.971,10.971,0,0,0-1.149-2.756.775.775,0,0,1,.067-1c.927-1.236,1.8-2.51,2.735-3.742.318-.42.342-.69-.068-1.072a33.349,33.349,0,0,1-2.6-2.618c-.61-.71-1.1-.777-1.686-.058.977.8,1.8,1.755,2.7,2.637a.836.836,0,0,1,.043,1.224c-.794,1.123-1.606,2.233-2.424,3.337a1.338,1.338,0,0,0-.121,1.654,9.224,9.224,0,0,1,.891,2.137.852.852,0,0,0,.7.661,36,36,0,0,0,4.04.722c1.119.107,1.263.266,1.27,1.387.007,1.232,0,2.464,0,3.7,0,.552-.154.857-.81.959-1.405.219-2.82.4-4.21.728a1.249,1.249,0,0,0-1.074.949,8.409,8.409,0,0,1-.887,2.138,1.089,1.089,0,0,0,.116,1.337c.8,1.119,1.64,2.208,2.439,3.327a1.029,1.029,0,0,1-.141,1.575,16.967,16.967,0,0,1-2.582,2.366c.91.755.91.755,1.739-.074.871-.871,1.725-1.76,2.62-2.605.375-.354.369-.6.063-1-.916-1.208-1.769-2.464-2.68-3.676a.876.876,0,0,1-.116-1.145,10,10,0,0,0,1.089-2.6.81.81,0,0,1,.776-.718c1.553-.214,3.092-.522,4.644-.749.5-.072.669-.251.657-.76-.033-1.374-.046-2.751,0-4.124.021-.579-.235-.746-.717-.819" transform="translate(-250.048 -167.84)" fill="#685e68"/>
        <path id="Trazado_267305" data-name="Trazado 267305" d="M326.187,248.641a1.029,1.029,0,0,0,.141-1.576c-.8-1.119-1.639-2.208-2.439-3.327a1.089,1.089,0,0,1-.116-1.337,8.409,8.409,0,0,0,.887-2.138,1.249,1.249,0,0,1,1.074-.949c1.39-.327,2.8-.509,4.21-.728.655-.1.808-.407.81-.959,0-1.232.007-2.464,0-3.7-.006-1.121-.15-1.28-1.27-1.387a35.99,35.99,0,0,1-4.04-.722.852.852,0,0,1-.7-.661,9.211,9.211,0,0,0-.891-2.137,1.338,1.338,0,0,1,.121-1.654c.818-1.1,1.631-2.214,2.424-3.337a.836.836,0,0,0-.043-1.224c-.9-.882-1.724-1.836-2.7-2.637,0,.332.261.5.458.694.685.693,1.368,1.39,2.07,2.065.311.3.411.5.085.913-.947,1.214-1.811,2.492-2.718,3.738a.933.933,0,0,0-.1,1.153,10.118,10.118,0,0,1,1.142,2.763.631.631,0,0,0,.641.541c1.494.19,2.98.447,4.47.677.531.082.869.259.843.924-.054,1.345-.024,2.694-.011,4.042,0,.419-.045.666-.574.734-1.353.172-2.688.483-4.042.641-.831.1-1.362.362-1.526,1.253a5.029,5.029,0,0,1-.907,2.117c-.426.562-.189.914.129,1.341.868,1.168,1.714,2.352,2.593,3.511a.72.72,0,0,1-.093,1.142,23.434,23.434,0,0,0-2.51,2.586,16.945,16.945,0,0,0,2.582-2.366" transform="translate(-248.919 -169.54)" fill="#685e68"/>
        <path id="Trazado_267306" data-name="Trazado 267306" d="M197.147,112.493c-.023-.64.157-.891.816-.807,1.306.167,2.624.1,3.937.254,4.519.525,8.46,2.11,11.291,5.863h0a12.79,12.79,0,0,0-3.495-3.94,17.657,17.657,0,0,0-9.334-3.561,34.689,34.689,0,0,0-3.594-.183c-.694-.011-1.008.208-.96.931a14.192,14.192,0,0,1,0,1.716c-.021.393-.084.631-.214.725v.06l-.045-.033c-.153.066-.386-.027-.731-.27-1.543-1.088-3.055-2.22-4.575-3.34-1.359-1-2.745-1.967-4.072-3.01-.268-.211-.692-.349-.577-.838a6.882,6.882,0,0,0-1.371,1.05l12.938,9.49c0-1.5.033-2.806-.014-4.106" transform="translate(-141.858 -81.67)" fill="#fc4755"/>
        <path id="Trazado_267307" data-name="Trazado 267307" d="M190.7,106.9c1.327,1.044,2.713,2.009,4.072,3.01,1.52,1.12,3.032,2.251,4.575,3.34.345.243.577.337.731.27-2.332-1.714-4.505-3.3-6.662-4.9a23.07,23.07,0,0,1-3.293-2.555c-.115.489.309.627.577.838" transform="translate(-146.383 -81.67)" fill="#fc4755"/>
        <path id="Trazado_267308" data-name="Trazado 267308" d="M251.116,130.018a15.415,15.415,0,0,0-5.3-4.9,22.864,22.864,0,0,0-11.519-2.4c-.551.009-.681.228-.667.722.025.9.008,1.811.007,2.875.13-.095.192-.332.214-.725a14.148,14.148,0,0,0,0-1.716c-.049-.723.265-.942.96-.931a34.691,34.691,0,0,1,3.594.183,17.655,17.655,0,0,1,9.334,3.561,12.79,12.79,0,0,1,3.495,3.94c.217-.251-.009-.447-.121-.607" transform="translate(-179.904 -94.492)" fill="#fc4755"/>
        <path id="Trazado_267309" data-name="Trazado 267309" d="M88.171,208.774c.029-.551-.16-.776-.723-.732a9.442,9.442,0,0,1-1.052,0,3.513,3.513,0,0,1-.324.169,2.25,2.25,0,0,1-.646.087c0,.726-.007,1.453-.014,2.179a2.114,2.114,0,0,1-2.188,2.221c-1.4.02-2.805.006-4.208.006a1.725,1.725,0,0,0-1,.169h0c0,.743-.029,1.487,0,2.229a2.407,2.407,0,0,0,2.407,2.4c1.028.036,2.059.039,3.086,0a2.29,2.29,0,0,0,2.255-2.326q.023-.9,0-1.8c-.01-.412.141-.6.572-.681a2.151,2.151,0,0,0,1.832-1.881c0-.68-.038-1.361,0-2.039" transform="translate(-60.066 -160.196)" fill="#b0b0b4"/>
        <path id="Trazado_267310" data-name="Trazado 267310" d="M110.94,208.015h0l-.662.039c0,.075,0,.15,0,.225a2.25,2.25,0,0,0,.646-.087,3.57,3.57,0,0,0,.324-.169c-.1,0-.2-.007-.307-.008h0" transform="translate(-84.916 -160.179)" fill="#b0b0b4"/>
        <path id="Trazado_267311" data-name="Trazado 267311" d="M70.984,212.5c1.257-.022,2.514.006,3.771-.013,1.647-.025,2.293-.717,2.335-2.378a3.974,3.974,0,0,1,.119-1.759h0c-2.9.057-5.808.018-8.712.021a1.32,1.32,0,0,1-.962-.27c0,.8-.025,1.6,0,2.4a2.22,2.22,0,0,0,1.951,2.244c.169.031.345.016.459.177.218-.457.65-.414,1.04-.421" transform="translate(-51.993 -160.242)" fill="#d0d0d5"/>
        <path id="Trazado_267312" data-name="Trazado 267312" d="M77.239,208.347h0a1.38,1.38,0,0,1,.145-.229l-9.824-.02a1.321,1.321,0,0,0,.962.271c2.9,0,5.808.036,8.712-.021" transform="translate(-52.027 -160.242)" fill="#d0d0d5"/>
        <path id="Trazado_267313" data-name="Trazado 267313" d="M79.059,213.569c1.4,0,2.805.015,4.208-.006a2.113,2.113,0,0,0,2.188-2.221c.007-.726.01-1.453.014-2.179l-.143,0a3.971,3.971,0,0,0-.119,1.759c-.042,1.661-.689,2.353-2.335,2.378-1.257.019-2.514-.009-3.771.013-.39.007-.822-.036-1.04.421a1.725,1.725,0,0,1,1-.169" transform="translate(-60.109 -161.063)" fill="#d0d0d5"/>
        <path id="Trazado_267314" data-name="Trazado 267314" d="M109.8,208.185a1.363,1.363,0,0,0-.145.229l.143,0Z" transform="translate(-84.437 -160.31)" fill="#d0d0d5"/>
        <path id="Trazado_267315" data-name="Trazado 267315" d="M89.183,4.179c0,.057,0,.114,0,.172A1.282,1.282,0,0,0,90.337,5.7a1.263,1.263,0,0,0,1.4-1.2c.052-1.112.053-2.231-.005-3.343A1.228,1.228,0,0,0,90.4,0,1.153,1.153,0,0,0,89.19,1.264c-.021.514,0,1.029-.005,1.543q0,.686,0,1.372" transform="translate(-68.671 0)" fill="#fee077"/>
        <path id="Trazado_267316" data-name="Trazado 267316" d="M39.371,18.178a1.273,1.273,0,0,0,1.742.6,1.253,1.253,0,0,0,.476-1.842c-.483-.907-1.014-1.789-1.531-2.678a1.29,1.29,0,0,0-1.043-.674,1.27,1.27,0,0,0-1.2,1.833c.469.945,1.017,1.853,1.558,2.76" transform="translate(-29.011 -10.461)" fill="#fee077"/>
        <path id="Trazado_267317" data-name="Trazado 267317" d="M171.634,52.789a1.268,1.268,0,0,0-1.963-1.09c-.916.462-1.8.987-2.673,1.532A1.251,1.251,0,0,0,166.479,55a1.271,1.271,0,0,0,1.784.447c.9-.488,1.791-1.009,2.661-1.555a1.272,1.272,0,0,0,.71-1.1" transform="translate(-128.053 -39.671)" fill="#fee077"/>
        <path id="Trazado_267318" data-name="Trazado 267318" d="M134.922,18.876a1.241,1.241,0,0,0,1.173-.729c.537-.876,1.03-1.779,1.542-2.67a1.177,1.177,0,0,0-.453-1.7,1.13,1.13,0,0,0-1.7.4,32.206,32.206,0,0,0-1.7,2.969,1.217,1.217,0,0,0,1.145,1.73" transform="translate(-102.915 -10.427)" fill="#fee077"/>
        <path id="Trazado_267319" data-name="Trazado 267319" d="M4.589,53.267c-.824-.517-1.675-.993-2.515-1.484a1.314,1.314,0,0,0-.74-.2,1.078,1.078,0,0,0-1.26.789A1.263,1.263,0,0,0,.637,53.94c.89.519,1.779,1.041,2.683,1.536a1.26,1.26,0,0,0,1.785-.425,1.338,1.338,0,0,0-.516-1.785" transform="translate(-0.001 -39.715)" fill="#fee077"/>
        <path id="Trazado_267320" data-name="Trazado 267320" d="M116.62,188.045a3.625,3.625,0,0,1-1.334,4.269c1.916-.408,1.725.076,1.665,1.706a3.648,3.648,0,0,1-.069,1.186,5.151,5.151,0,0,0,.15-2.091c.023-.371.066-.611.484-.76a2.564,2.564,0,0,0,1.763-2.794c-.024-.6-.02-1.194-.028-1.791h0c-.832.534-1.748.239-2.63.275" transform="translate(-88.774 -144.59)" fill="#d0d0d5"/>
        <path id="Trazado_267321" data-name="Trazado 267321" d="M120.669,187.8c.036.08.066.162.1.243.883-.035,1.8.259,2.63-.275Z" transform="translate(-92.919 -144.59)" fill="#d0d0d5"/>
        <path id="Trazado_267322" data-name="Trazado 267322" d="M114.9,190.165a2.982,2.982,0,0,1-1.731,3.181c.177-.043.338-.079.488-.111a3.625,3.625,0,0,0,1.334-4.27l-.1.006c0,.4-.016.8.007,1.194" transform="translate(-87.14 -145.51)" fill="#d0d0d5"/>
        <path id="Trazado_267323" data-name="Trazado 267323" d="M120.758,188.151c-.03-.081-.06-.163-.1-.243,0,.083,0,.166,0,.249l.1-.006" transform="translate(-92.913 -144.696)" fill="#d0d0d5"/>
        <path id="Trazado_267324" data-name="Trazado 267324" d="M116.341,208.777c.06-1.63.252-2.115-1.665-1.706-.06.04-.119.083-.182.12a9.442,9.442,0,0,0,1.052,0c.564-.044.752.18.724.732-.035.678,0,1.359,0,2.039a3.648,3.648,0,0,0,.069-1.186" transform="translate(-88.164 -159.346)" fill="#d0d0d5"/>
        <path id="Trazado_267325" data-name="Trazado 267325" d="M113.161,207.642c.1,0,.2,0,.307.008.063-.037.122-.079.182-.12-.15.032-.311.069-.488.112h0" transform="translate(-87.138 -159.806)" fill="#d0d0d5"/>
        <path id="Trazado_267326" data-name="Trazado 267326" d="M255.558,252.94c-3.692.173-6.935,3.708-7.105,7.4a8.076,8.076,0,0,0,6.947,8.462h0a7.252,7.252,0,0,0,.854-.083,7.988,7.988,0,0,0-.7-15.782" transform="translate(-191.31 -194.773)" fill="#ebeef0"/>
        <path id="Trazado_267327" data-name="Trazado 267327" d="M245.033,266.709a8.24,8.24,0,0,1,2.2-13.993,3.687,3.687,0,0,1,2.169-.261,1.373,1.373,0,0,0-.393-.14,8.044,8.044,0,0,0-5.609,14.214,7.2,7.2,0,0,0,5.841,1.791,5.874,5.874,0,0,1-4.206-1.611" transform="translate(-185.151 -194.287)" fill="#d0d0d5"/>
        <path id="Trazado_267328" data-name="Trazado 267328" d="M247.663,260.114c.17-3.7,3.414-7.23,7.105-7.4a3.685,3.685,0,0,0-2.168.261,8.24,8.24,0,0,0-2.2,13.993,5.875,5.875,0,0,0,4.206,1.611h0a8.075,8.075,0,0,1-6.947-8.462" transform="translate(-190.521 -194.544)" fill="#d0d0d5"/>
        <path id="Trazado_267329" data-name="Trazado 267329" d="M51.412,91.865a5.823,5.823,0,0,0,4.019.863c.688-.047.874.192.869.868-.029,3.927-.014,7.854-.014,11.782,0,2.2,0,2.2,2.214,2.152.006-4.608.034-9.215,0-13.823-.006-.818.252-1.005,1.017-.984,1.764.047,1.766.011,1.765,1.764q0,6.268,0,12.536h0c.013.808.634.5,1.015.507,1.219.036,1.22.014,1.22-1.165q0-5.8,0-11.61c0-2.013,0-2.056,2.017-2a4.5,4.5,0,0,0,4.723-4.723,4.435,4.435,0,0,0-8.819-.474,12.554,12.554,0,0,0-.146,2.3c.027.48-.153.694-.642.649-.227-.021-.458,0-.688,0-1.67-.026-1.466.228-1.42-1.475a4.943,4.943,0,0,0-1.407-3.979,4.407,4.407,0,0,0-6.646.5,4.471,4.471,0,0,0,.93,6.315m12.425-4.7A2.3,2.3,0,0,1,66.565,86.1a2.358,2.358,0,0,1,1.56,2.314A2.431,2.431,0,0,1,65.857,90.5c-.286.01-.573,0-.86,0-1.487,0-1.483,0-1.489-1.512a3.37,3.37,0,0,1,.329-1.828M52.332,86.8a2.213,2.213,0,0,1,3.949,1.407c.007.257,0,.514,0,.771,0,1.526,0,1.5-1.55,1.534-1.077.022-2.062-.084-2.642-1.16a2.215,2.215,0,0,1,.24-2.552" transform="translate(-38.166 -64.501)" fill="#fec238"/>
        <path id="Trazado_267330" data-name="Trazado 267330" d="M90.921,136.325c-.007-3.776,0-7.551-.005-11.326,0-1.2-.571-1.6-1.741-1.243a.535.535,0,0,0-.421.473,6,6,0,0,0-.038.942q0,5.835,0,11.67a1.833,1.833,0,0,1-.29,1.388,4.193,4.193,0,0,0,2.776-.508,1.946,1.946,0,0,1-.276-1.4" transform="translate(-68.087 -95.2)" fill="#fee077"/>
        <path id="Trazado_267331" data-name="Trazado 267331" d="M89.433,122.714c-.765-.02-1.023.167-1.017.984.035,4.607.008,9.215,0,13.823a1.834,1.834,0,0,0,.29-1.388q.011-5.835,0-11.67a6,6,0,0,1,.038-.942.535.535,0,0,1,.421-.473c1.171-.354,1.74.041,1.741,1.243,0,3.775,0,7.551.005,11.326a1.946,1.946,0,0,0,.276,1.4q0-6.268,0-12.536c0-1.752,0-1.716-1.765-1.764" transform="translate(-68.083 -94.493)" fill="#fee077"/>
        <path id="Trazado_267332" data-name="Trazado 267332" d="M111.688,97.941c.287,0,.574.008.86,0a2.431,2.431,0,0,0,2.269-2.082,2.358,2.358,0,0,0-1.56-2.314,2.3,2.3,0,0,0-2.728,1.059,3.37,3.37,0,0,0-.329,1.828c.006,1.512,0,1.512,1.489,1.512" transform="translate(-84.857 -71.939)" fill="#fee076"/>
        <path id="Trazado_267333" data-name="Trazado 267333" d="M62.212,97.944c1.552-.031,1.552-.008,1.55-1.534,0-.257,0-.514,0-.771a2.213,2.213,0,0,0-3.95-1.407,2.215,2.215,0,0,0-.24,2.552c.58,1.076,1.565,1.182,2.641,1.16" transform="translate(-45.644 -71.934)" fill="#fee076"/>
      </g>
    </g>
  </g>
</svg>
